<?xml version="1.0" encoding="UTF-8"?>
<svg width="75px" height="93px" viewBox="0 0 75 93" version="1.1" xmlns="http://www.w3.org/2000/svg" xmlns:xlink="http://www.w3.org/1999/xlink">
    <title>Path Copy 3</title>
    <g id="App" stroke="none" stroke-width="1" fill="none" fill-rule="evenodd">
        <g id="Create-Post-–-Sticker" transform="translate(-42.000000, -223.000000)" fill="#FF5722" fill-rule="nonzero" stroke="#FFFFFF" stroke-width="2">
            <path d="M51.6071376,224 L51.6071376,224 L107.392862,224 C109.790048,224 111.976967,225.192925 113.55365,227.169345 C115.057589,229.054581 116,231.656001 116,234.535785 L116,234.535785 L116,285.393369 C116,288.273153 115.057589,290.874573 113.55365,292.759809 C111.976967,294.736229 109.790048,295.929154 107.392862,295.929154 L107.392862,295.929154 L80.0792042,295.929154 L64.1948071,313.847189 C63.4150637,314.726825 62.3671398,315.114229 61.3344345,314.971344 C60.3602249,314.836437 59.501266,314.24379 58.9282714,313.347171 C58.413924,312.542322 58.1357863,311.492783 58.2334932,310.384087 L58.2334932,310.384087 L59.5162917,295.929154 L51.6071376,295.929154 C49.2099517,295.929154 47.0230325,294.736229 45.4463504,292.759809 C43.9424107,290.874573 43,288.273153 43,285.393369 L43,285.393369 L43,234.535785 C43,231.656001 43.9424107,229.054581 45.4463504,227.169345 C47.0230325,225.192925 49.2099517,224 51.6071376,224 L51.6071376,224 Z" id="Path-Copy-3" transform="translate(79.500000, 269.500000) rotate(-180.000000) translate(-79.500000, -269.500000) "></path>
        </g>
    </g>
</svg>