<?xml version="1.0" encoding="utf-8"?>
<!-- Generator: Adobe Illustrator 25.2.0, SVG Export Plug-In . SVG Version: 6.00 Build 0)  -->
<svg version="1.1" id="Ebene_1" xmlns="http://www.w3.org/2000/svg" xmlns:xlink="http://www.w3.org/1999/xlink" x="0px" y="0px"
	 viewBox="0 0 75 93" style="enable-background:new 0 0 75 93;" xml:space="preserve">
<style type="text/css">
	.st0{fill:#FFFFFF;stroke:#DCDCDC;}
</style>
<g id="App">
	<g id="Create-Post-_x2013_-Sticker" transform="translate(-42.000000, -223.000000)">
		<path id="Path-Copy-3" class="st0" d="M107.4,315L107.4,315H51.6c-2.4,0-4.6-1.2-6.2-3.2c-1.5-1.9-2.4-4.5-2.4-7.4l0,0v-50.9
			c0-2.9,0.9-5.5,2.4-7.4c1.6-2,3.8-3.2,6.2-3.2l0,0h27.3l15.9-17.9c0.8-0.9,1.8-1.3,2.9-1.1c1,0.1,1.8,0.7,2.4,1.6
			c0.5,0.8,0.8,1.9,0.7,3l0,0l-1.3,14.5h7.9c2.4,0,4.6,1.2,6.2,3.2c1.5,1.9,2.4,4.5,2.4,7.4l0,0v50.9c0,2.9-0.9,5.5-2.4,7.4
			C112,313.8,109.8,315,107.4,315L107.4,315z"/>
	</g>
</g>
</svg>
