<svg width="12" height="14" viewBox="0 0 12 14" fill="none" xmlns="http://www.w3.org/2000/svg">
<path d="M3.5 6.5V4C3.5 3.33696 3.76339 2.70107 4.23223 2.23223C4.70107 1.76339 5.33696 1.5 6 1.5V1.5C6.32831 1.5 6.65339 1.56466 6.95671 1.6903C7.26002 1.81594 7.53562 2.00009 7.76777 2.23223C7.99991 2.46438 8.18406 2.73998 8.3097 3.04329C8.43534 3.34661 8.5 3.6717 8.5 4V6.5" stroke="white" stroke-width="1.5" stroke-linecap="round" stroke-linejoin="round"/>
<path d="M10.5 6.5H1.5V12.5H10.5V6.5Z" stroke="white" stroke-width="1.5" stroke-linecap="round" stroke-linejoin="round"/>
<path d="M6.1875 10.0615V8.93652C6.1875 8.83297 6.10355 8.74902 6 8.74902C5.89645 8.74902 5.8125 8.83297 5.8125 8.93652V10.0615C5.8125 10.1651 5.89645 10.249 6 10.249C6.10355 10.249 6.1875 10.1651 6.1875 10.0615Z" stroke="white" stroke-width="1.5" stroke-linecap="round" stroke-linejoin="round"/>
</svg>
