<svg width="16" height="16" viewBox="0 0 16 16" fill="none" xmlns="http://www.w3.org/2000/svg">
<path d="M6.01758 6.95013L9.98425 4.9668" stroke="white" stroke-width="1.5" stroke-linecap="round" stroke-linejoin="round"/>
<path d="M6.01758 8.9917L9.98425 10.975" stroke="white" stroke-width="1.5" stroke-linecap="round" stroke-linejoin="round"/>
<path d="M3.91732 10.3337C5.20598 10.3337 6.25065 9.28899 6.25065 8.00033C6.25065 6.71166 5.20598 5.66699 3.91732 5.66699C2.62865 5.66699 1.58398 6.71166 1.58398 8.00033C1.58398 9.28899 2.62865 10.3337 3.91732 10.3337Z" stroke="white" stroke-width="1.5" stroke-linecap="round" stroke-linejoin="round"/>
<path d="M12.0833 6.25016C13.372 6.25016 14.4167 5.20549 14.4167 3.91683C14.4167 2.62817 13.372 1.5835 12.0833 1.5835C10.7947 1.5835 9.75 2.62817 9.75 3.91683C9.75 5.20549 10.7947 6.25016 12.0833 6.25016Z" stroke="white" stroke-width="1.5" stroke-linecap="round" stroke-linejoin="round"/>
<path d="M12.0833 14.4167C13.372 14.4167 14.4167 13.372 14.4167 12.0833C14.4167 10.7947 13.372 9.75 12.0833 9.75C10.7947 9.75 9.75 10.7947 9.75 12.0833C9.75 13.372 10.7947 14.4167 12.0833 14.4167Z" stroke="white" stroke-width="1.5" stroke-linecap="round" stroke-linejoin="round"/>
</svg>
