<svg width="14" height="12" viewBox="0 0 14 12" fill="none" xmlns="http://www.w3.org/2000/svg">
<path d="M7 8.25C8.03553 8.25 8.875 7.41053 8.875 6.375C8.875 5.33947 8.03553 4.5 7 4.5C5.96447 4.5 5.125 5.33947 5.125 6.375C5.125 7.41053 5.96447 8.25 7 8.25Z" stroke="black" stroke-width="1.5" stroke-miterlimit="10" stroke-linecap="round" stroke-linejoin="round"/>
<path d="M11.875 2.625H9.625L8.875 1.125H5.125L4.375 2.625H2.125C1.711 2.625 1.375 2.961 1.375 3.375V10.125C1.375 10.539 1.711 10.875 2.125 10.875H11.875C12.289 10.875 12.625 10.539 12.625 10.125V3.375C12.625 2.961 12.289 2.625 11.875 2.625Z" stroke="black" stroke-width="1.5" stroke-miterlimit="10" stroke-linecap="round" stroke-linejoin="round"/>
</svg>
