<svg width="14" height="14" viewBox="0 0 14 14" fill="none" xmlns="http://www.w3.org/2000/svg">
<path d="M5.125 5.625C6.36764 5.625 7.375 4.61764 7.375 3.375C7.375 2.13236 6.36764 1.125 5.125 1.125C3.88236 1.125 2.875 2.13236 2.875 3.375C2.875 4.61764 3.88236 5.625 5.125 5.625Z" stroke="black" stroke-width="1.5" stroke-linecap="round" stroke-linejoin="round"/>
<path d="M10.375 4.875C11.2034 4.875 11.875 4.20343 11.875 3.375C11.875 2.54657 11.2034 1.875 10.375 1.875C9.54657 1.875 8.875 2.54657 8.875 3.375C8.875 4.20343 9.54657 4.875 10.375 4.875Z" stroke="black" stroke-width="1.5" stroke-linecap="round" stroke-linejoin="round"/>
<path d="M5.125 7.125C4.13044 7.125 3.17661 7.52009 2.47335 8.22335C1.77009 8.92661 1.375 9.88044 1.375 10.875H8.875C8.875 9.88044 8.47991 8.92661 7.77665 8.22335C7.07339 7.52009 6.11956 7.125 5.125 7.125V7.125Z" stroke="black" stroke-width="1.5"/>
<path d="M9.13086 6.75C9.49943 6.50477 9.93241 6.37428 10.3751 6.375C10.9718 6.375 11.5441 6.61206 11.9661 7.03401C12.3881 7.45597 12.6251 8.02827 12.6251 8.625V9.375H10.3751" stroke="black" stroke-width="1.5"/>
</svg>
