<?xml version="1.0" encoding="UTF-8"?><svg id="Layer_2" xmlns="http://www.w3.org/2000/svg" viewBox="0 0 36 36"><defs><style>.cls-1{stroke:#d3d2d9;stroke-width:2px;}.cls-1,.cls-2{fill:none;}.cls-2{stroke:#323232;stroke-linecap:round;stroke-linejoin:round;stroke-width:1.5px;}</style></defs><g id="Layer_1-2"><rect class="cls-1" x="1" y="1" width="34" height="34" rx="7" ry="7"/><path class="cls-2" d="m9,13c0-2.21,1.79-4,4-4h10c2.21,0,4,1.79,4,4v10c0,2.21-1.79,4-4,4h-10c-2.21,0-4-1.79-4-4v-10Z"/><path class="cls-2" d="m18,22l4.59-4.59c.78-.78,2.05-.78,2.83,0l1.59,1.59"/><circle class="cls-2" cx="13.5" cy="13.5" r="1.5"/><path class="cls-2" d="m9.35,24.65l4.23-4.23c.78-.78,2.05-.78,2.83,0l6.42,6.42"/></g></svg>