<svg width="16" height="16" viewBox="0 0 16 16" fill="none" xmlns="http://www.w3.org/2000/svg">
<path d="M11.9997 1.33334H13.333C13.6866 1.33334 14.0258 1.47382 14.2758 1.72387C14.5259 1.97392 14.6663 2.31305 14.6663 2.66668V13.3333C14.6663 13.687 14.5259 14.0261 14.2758 14.2762C14.0258 14.5262 13.6866 14.6667 13.333 14.6667H2.66634C2.31272 14.6667 1.97358 14.5262 1.72353 14.2762C1.47348 14.0261 1.33301 13.687 1.33301 13.3333V2.66668C1.33301 2.31305 1.47348 1.97392 1.72353 1.72387C1.97358 1.47382 2.31272 1.33334 2.66634 1.33334H3.99967" stroke="black" stroke-width="1.5" stroke-linecap="round" stroke-linejoin="round"/>
<path d="M5.06055 5.96988L8.03038 3.00004L11.0002 5.96988" stroke="black" stroke-width="1.5" stroke-miterlimit="10" stroke-linecap="square"/>
<path d="M8.03027 3L8.03027 11" stroke="black" stroke-width="1.5"/>
</svg>
