<svg width="18" height="18" viewBox="0 0 18 18" fill="none" xmlns="http://www.w3.org/2000/svg">
<path d="M17.1266 7.62356C16.8747 6.13107 16.2169 4.73669 15.2252 3.59321C14.2336 2.44973 12.9463 1.60128 11.5044 1.14082C10.0626 0.680354 8.52179 0.625652 7.05091 0.982702C5.58003 1.33975 4.23581 2.09478 3.16554 3.16505C2.09527 4.23532 1.34024 5.57954 0.983191 7.05042C0.62614 8.5213 0.680843 10.0621 1.14131 11.5039C1.60177 12.9458 2.45022 14.2331 3.5937 15.2248C4.73718 16.2164 6.13156 16.8742 7.62405 17.1261L17.1266 7.62356Z" stroke="black" stroke-width="1.5" stroke-miterlimit="10" stroke-linecap="square"/>
<path d="M17.1264 7.62392C15.8279 7.39566 14.4935 7.48365 13.2362 7.88044C11.9789 8.27723 10.8357 8.97114 9.90341 9.90341C8.97114 10.8357 8.27723 11.9789 7.88044 13.2362C7.48365 14.4935 7.39566 15.8279 7.62392 17.1264" stroke="black" stroke-width="1.5" stroke-miterlimit="10"/>
</svg>
