<svg width="18" height="18" viewBox="0 0 18 18" fill="none" xmlns="http://www.w3.org/2000/svg">
<path d="M11.25 16.5H0.75V14.7653C0.75 13.8555 1.29375 13.035 2.1345 12.6863C2.98575 12.3338 4.2525 12 6 12C7.7475 12 9.01425 12.3338 9.8655 12.687C10.7063 13.035 11.25 13.8555 11.25 14.7653V16.5Z" stroke="black" stroke-width="1.5" stroke-miterlimit="10" stroke-linecap="square"/>
<path d="M6 9.75C7.65685 9.75 9 8.40685 9 6.75C9 5.09315 7.65685 3.75 6 3.75C4.34315 3.75 3 5.09315 3 6.75C3 8.40685 4.34315 9.75 6 9.75Z" stroke="black" stroke-width="1.5" stroke-miterlimit="10" stroke-linecap="square"/>
<path d="M12.7507 4.7666C13.2172 5.29535 13.5 5.98985 13.5 6.75035C13.5 7.51085 13.2165 8.20535 12.75 8.73485" stroke="black" stroke-width="1.5" stroke-miterlimit="10" stroke-linecap="square"/>
<path d="M15.001 1.71973C16.3817 2.95573 17.2502 4.75123 17.2502 6.74998C17.2502 8.74873 16.3817 10.545 15.001 11.781" stroke="black" stroke-width="1.5" stroke-miterlimit="10" stroke-linecap="square"/>
</svg>
