<?xml version="1.0" encoding="utf-8"?>
<!-- Generator: Adobe Illustrator 24.2.3, SVG Export Plug-In . SVG Version: 6.00 Build 0)  -->
<svg version="1.1" id="Layer_1" xmlns="http://www.w3.org/2000/svg" xmlns:xlink="http://www.w3.org/1999/xlink" x="0px" y="0px"
	 viewBox="0 0 841.9 595.3" style="enable-background:new 0 0 841.9 595.3;" xml:space="preserve">
<style type="text/css">
	.st0{fill-rule:evenodd;clip-rule:evenodd;fill:#211B45;}
	.st1{fill:#FFFFFF;}
	.st2{fill-rule:evenodd;clip-rule:evenodd;fill:#FF6633;}
	.st3{opacity:0.5;clip-path:url(#SVGID_2_);fill-rule:evenodd;clip-rule:evenodd;fill:#CCCCCC;}
	.st4{fill-rule:evenodd;clip-rule:evenodd;fill:#1F9DFF;}
	.st5{opacity:0.5;clip-path:url(#SVGID_4_);fill-rule:evenodd;clip-rule:evenodd;fill:#CCCCCC;}
	.st6{fill-rule:evenodd;clip-rule:evenodd;fill:#FF9933;}
	.st7{fill-rule:evenodd;clip-rule:evenodd;fill:#33CC99;}
</style>
<g>
	<rect x="113.7" y="165.4" class="st0" width="614.5" height="264.4"/>
	<g>
		<path class="st1" d="M656.2,262.4h19.3v70.4h-19.3V262.4z M665.9,233.1c3.2,0,5.8,1,7.9,3.1c2.1,2.1,3.1,4.6,3.1,7.7
			c0,3.1-1,5.7-3.1,7.8c-2.1,2.1-4.7,3.1-7.9,3.1c-3.2,0-5.9-1-8-3.1c-2.1-2.1-3.2-4.7-3.2-7.8c0-3.1,1.1-5.7,3.2-7.7
			C660,234.2,662.7,233.1,665.9,233.1z M608.5,317.9c5.2,0,9.4-1.9,12.6-5.7c3.2-3.8,4.8-8.7,4.8-14.7c0-6-1.6-10.9-4.8-14.6
			c-3.2-3.7-7.4-5.5-12.6-5.5c-5.2,0-9.4,1.8-12.5,5.5c-3.1,3.7-4.7,8.6-4.7,14.6c0,6.1,1.6,11,4.7,14.8
			C599.2,316,603.3,317.9,608.5,317.9z M613,261.6c6.3,0,11.9,1.5,16.8,4.4c4.9,3,8.7,7.2,11.5,12.7c2.8,5.5,4.2,11.8,4.2,19
			c0,7.2-1.4,13.5-4.2,18.9c-2.8,5.4-6.6,9.6-11.6,12.5c-4.9,3-10.5,4.4-16.8,4.4c-9,0-16.1-3.2-21.2-9.7v36.3h-19.3v-97.7h16.8
			l1.9,9.7c2.4-3.2,5.4-5.7,9.1-7.7C603.9,262.6,608.2,261.6,613,261.6z M534.6,261.6c7.6,0,13.7,2.5,18.5,7.5
			c4.7,5,7.1,13.4,7.1,25.1v38.7h-19.3v-39.4c0-10.7-4.1-16-12.2-16c-4.2,0-7.6,1.5-10.1,4.4c-2.6,3-3.8,7.1-3.8,12.4v38.6h-19.3
			v-39.4c0-10.7-4.1-16-12.3-16c-4.2,0-7.6,1.5-10.1,4.6c-2.5,3.1-3.8,7.2-3.8,12.4v38.5H450v-70.5h16.8l1.8,8.8
			c2.4-3,5.2-5.3,8.5-7c3.3-1.6,7.4-2.5,12.3-2.6c10,0,17,4,20.9,11.9c2.6-3.8,5.9-6.8,10.1-8.8
			C524.6,262.6,529.3,261.6,534.6,261.6z M417.3,262.4h19.3v70.4h-19.3V262.4z M427,233.1c3.2,0,5.8,1,7.9,3.1
			c2.1,2.1,3.1,4.6,3.1,7.7c0,3.1-1.1,5.7-3.1,7.8c-2.1,2.1-4.7,3.1-7.9,3.1c-3.2,0-5.9-1-8-3.1c-2.1-2.1-3.2-4.7-3.2-7.8
			c0-3.1,1.1-5.7,3.2-7.7C421.1,234.2,423.8,233.1,427,233.1z M359.1,309.4c0.3,3.1,1.8,5.6,4.5,7.5c2.7,1.9,6.3,2.9,10.5,2.9
			c4.1,0,7.3-0.7,9.7-2c2.4-1.3,3.6-3.2,3.6-5.7c0-1.8-0.5-3.2-1.6-4.1c-1.1-0.9-2.6-1.6-4.7-2c-2-0.4-5.3-0.9-9.9-1.4
			c-6.2-0.8-11.4-1.9-15.5-3.1c-4.1-1.3-7.4-3.3-9.9-6c-2.5-2.7-3.7-6.4-3.7-11c0-4.6,1.3-8.6,3.8-12.1c2.5-3.5,6-6.2,10.6-8.1
			c4.6-1.9,9.8-2.9,15.7-2.9c9.6,0.1,17.3,2.1,23.2,6.2c5.9,4,9.1,9.6,9.5,16.7h-18.3c-0.3-2.6-1.7-4.8-4.2-6.5
			c-2.5-1.7-5.7-2.5-9.7-2.5c-3.6,0-6.6,0.7-8.8,2.1c-2.2,1.4-3.4,3.2-3.4,5.5c0,1.6,0.6,2.9,1.8,3.7c1.2,0.8,2.7,1.4,4.7,1.8
			c1.9,0.4,5.1,0.8,9.6,1.2c9.5,1.1,16.8,3.1,21.8,6.1c5.1,3,7.6,8.1,7.6,15.3c0,4.6-1.3,8.6-4,12c-2.7,3.5-6.4,6.1-11.2,8
			c-4.8,1.9-10.3,2.8-16.6,2.8c-9.8,0-17.7-2.2-23.8-6.5c-6.1-4.3-9.4-10.2-9.7-17.7H359.1z"/>
		<g>
			<path class="st2" d="M211.1,364l19.9,11.5c3.7,2.1,7.9,2.1,11.6,0l29.3-16.9l29.3-16.9c3.7-2.1,5.8-5.8,5.8-10.1v-33.9l-39.8-2.6
				l12.6,7.3c2,1.2,3.2,3.2,3.2,5.5c0,2.3-1.2,4.3-3.2,5.5L211.1,353c-2,1.2-3.2,3.2-3.2,5.5C207.9,360.8,209.1,362.8,211.1,364"/>
			<g>
				<defs>
					<path id="SVGID_1_" d="M211.1,364l19.9,11.5c3.7,2.1,7.9,2.1,11.6,0l29.3-16.9l29.3-16.9c3.7-2.1,5.8-5.8,5.8-10.1v-33.9
						l-39.8-2.6l12.6,7.3c2,1.2,3.2,3.2,3.2,5.5c0,2.3-1.2,4.3-3.2,5.5L211.1,353c-2,1.2-3.2,3.2-3.2,5.5
						C207.9,360.8,209.1,362.8,211.1,364"/>
				</defs>
				<clipPath id="SVGID_2_">
					<use xlink:href="#SVGID_1_"  style="overflow:visible;"/>
				</clipPath>
				<polygon class="st3" points="307.1,327.7 307.1,297.6 307.1,266.7 277.9,249.8 255.6,288.3 279.9,302.4 281,312.6 292.7,319.4 
									"/>
			</g>
		</g>
		<g>
			<path class="st4" d="M262.4,231.3l-19.9-11.5c-3.7-2.1-7.9-2.1-11.6,0l-29.3,16.9l-29.3,16.9c-3.7,2.1-5.8,5.8-5.8,10.1v33.9
				l39.8,2.6l-12.6-7.3c-2-1.2-3.2-3.2-3.2-5.5c0-2.3,1.2-4.3,3.2-5.5l68.8-39.7c2-1.2,3.2-3.2,3.2-5.5
				C265.6,234.4,264.5,232.4,262.4,231.3"/>
			<g>
				<defs>
					<path id="SVGID_3_" d="M262.4,231.3l-19.9-11.5c-3.7-2.1-7.9-2.1-11.6,0l-29.3,16.9l-29.3,16.9c-3.7,2.1-5.8,5.8-5.8,10.1v33.9
						l39.8,2.6l-12.6-7.3c-2-1.2-3.2-3.2-3.2-5.5c0-2.3,1.2-4.3,3.2-5.5l68.8-39.7c2-1.2,3.2-3.2,3.2-5.5
						C265.6,234.4,264.5,232.4,262.4,231.3"/>
				</defs>
				<clipPath id="SVGID_4_">
					<use xlink:href="#SVGID_3_"  style="overflow:visible;"/>
				</clipPath>
				<polygon class="st5" points="166.4,267.6 166.4,297.6 166.4,328.6 195.6,345.5 217.9,306.9 193.8,293.1 192.5,282.6 
					180.8,275.9 				"/>
			</g>
		</g>
		<path class="st6" d="M289.4,307.8l17.7,10.2v-20.4v-33.9c0-4.3-2.1-7.9-5.8-10.1l-21.2-12.2c-3-1.7-6.9-0.7-8.7,2.3l-20.1,34.8
			c-1.7,3-0.7,6.9,2.3,8.7L289.4,307.8z"/>
		<path class="st7" d="M184.1,287.5l-17.7-10.2v20.4v33.9c0,4.3,2.1,7.9,5.8,10.1l21.2,12.2c3,1.7,6.9,0.7,8.7-2.3l20.1-34.8
			c1.7-3,0.7-6.9-2.3-8.7L184.1,287.5z"/>
	</g>
</g>
</svg>
