<svg width="60" height="65" viewBox="0 0 60 65" fill="none" xmlns="http://www.w3.org/2000/svg">
<path fill-rule="evenodd" clip-rule="evenodd" d="M20.2015 58.1154L27.7792 62.4892C29.1926 63.3059 30.8063 63.3059 32.2197 62.4892L43.4096 56.0266L54.5994 49.564C56.0128 48.7473 56.8216 47.3496 56.8216 45.7163V32.7989L41.6388 31.8213L46.4367 34.5893C47.2062 35.033 47.646 35.7947 47.646 36.682C47.646 37.5693 47.2062 38.3349 46.4367 38.7786L20.1976 53.9221C19.428 54.3658 18.9883 55.1314 18.9883 56.0188C18.9922 56.91 19.4319 57.6717 20.2015 58.1154Z" fill="#FF6633"/>
<path fill-rule="evenodd" clip-rule="evenodd" d="M39.7978 7.48634L32.2202 3.1125C30.8067 2.29583 29.1891 2.29583 27.7796 3.1125L16.5898 9.57511L5.39999 16.0377C3.98654 16.8544 3.17773 18.2521 3.17773 19.8854V32.8067L18.3566 33.7844L13.5587 31.0164C12.7892 30.5727 12.3494 29.811 12.3494 28.9237C12.3494 28.0363 12.7892 27.2707 13.5587 26.8271L39.7978 11.6796C40.5674 11.2359 41.0071 10.4703 41.0071 9.58296C41.0071 8.6917 40.5674 7.93001 39.7978 7.48634Z" fill="#1F9DFF"/>
<path opacity="0.5" d="M56.8214 44.2643V32.7988L41.6406 31.8213L46.4654 34.6049C47.2169 35.0508 47.6457 35.8058 47.6457 36.6819C47.6457 37.3837 47.3706 38.0094 46.8748 38.4598L46.8815 38.5233L56.8214 44.2643Z" fill="#D2643C"/>
<path fill-rule="evenodd" clip-rule="evenodd" d="M50.0611 36.6846L56.8182 40.5873V32.8015V19.8802C56.8182 18.2508 56.0094 16.8492 54.5959 16.0325L46.5196 11.3681C45.3653 10.7006 43.8812 11.1011 43.2137 12.2554L35.5576 25.5183C34.8901 26.6726 35.2906 28.1568 36.4449 28.8242L50.0611 36.6846Z" fill="#FF9933"/>
<path opacity="0.5" d="M13.1274 27.1387L13.1201 27.0801L3.17383 21.3379L3.17871 32.8076L18.3569 33.7842L13.6328 31.0547L13.5596 31.0156C13.2202 30.8203 12.9468 30.5615 12.7466 30.2588C12.4902 29.873 12.3511 29.4189 12.3511 28.9258C12.3511 28.2178 12.627 27.5879 13.1274 27.1387Z" fill="#468DDE"/>
<path fill-rule="evenodd" clip-rule="evenodd" d="M9.93676 28.9222L3.17969 25.0195V32.8053V45.7266C3.17969 47.356 3.98849 48.7576 5.40194 49.5743L13.4782 54.2387C14.6325 54.9061 16.1167 54.5057 16.7841 53.3513L24.4403 40.0885C25.1078 38.9342 24.7073 37.45 23.553 36.7826L9.93676 28.9222Z" fill="#33CC99"/>
</svg>
