<svg width="20" height="20" viewBox="0 0 20 20" fill="none"
    xmlns="http://www.w3.org/2000/svg">
    <path fill-rule="evenodd" clip-rule="evenodd" d="M8.23411 7.829L6.73896 10.3209C6.5482 10.6388 6.20461 10.8334 5.83383 10.8334H1.11117V9.16672H5.48782L7.43882 5.91507C7.88794 5.16654 8.99981 5.25563 9.32401 6.06612L11.766 12.1711L13.2611 9.6792C13.4519 9.36126 13.7955 9.16672 14.1663 9.16672H18.8889V10.8334H14.5123L12.5613 14.085C12.1122 14.8336 11.0003 14.7445 10.6761 13.934L8.23411 7.829Z" fill="#020205"/>
    <path fill-rule="evenodd" clip-rule="evenodd" d="M10.0001 1.9445C5.55109 1.9445 1.9445 5.55109 1.9445 10.0001C1.9445 14.449 5.55109 18.0556 10.0001 18.0556C14.449 18.0556 18.0556 14.449 18.0556 10.0001C18.0556 5.55109 14.449 1.9445 10.0001 1.9445ZM0.277832 10.0001C0.277832 4.63062 4.63062 0.277832 10.0001 0.277832C15.3695 0.277832 19.7223 4.63062 19.7223 10.0001C19.7223 15.3695 15.3695 19.7223 10.0001 19.7223C4.63062 19.7223 0.277832 15.3695 0.277832 10.0001Z" fill="#020205"/>
</svg>
