<?xml version="1.0" encoding="UTF-8"?><svg id="Layer_2" xmlns="http://www.w3.org/2000/svg" viewBox="0 0 24 24"><defs><style>.cls-1{fill:none;stroke:#fff;stroke-miterlimit:10;}.cls-2{fill:#303bf0;stroke-width:0px;}</style></defs><g id="Layer_1-2"><circle class="cls-2" cx="12" cy="12" r="12"/><path class="cls-1" d="m16.88,18.51h.93c.38,0,.7-.31.7-.7v-.93"/><path class="cls-1" d="m8.75,10.37v-.93c0-.38.31-.7.7-.7h.93"/><path class="cls-1" d="m14.44,18.51h-1.63"/><path class="cls-1" d="m14.44,8.75h-1.63"/><path class="cls-1" d="m8.75,16.88v.93c0,.38.31.7.7.7h.93"/><path class="cls-1" d="m16.88,8.75h.93c.38,0,.7.31.7.7v.93"/><path class="cls-1" d="m8.75,14.44v-1.63"/><path class="cls-1" d="m18.51,14.44v-1.63"/><path class="cls-1" d="m8.75,15.25h-1.63c-.9,0-1.63-.73-1.63-1.63v-6.51c0-.9.73-1.63,1.63-1.63h6.51c.9,0,1.63.73,1.63,1.63v1.63"/></g></svg>