<svg width="30" height="30" viewBox="0 0 24 24" fill="none"
    xmlns="http://www.w3.org/2000/svg">
    <rect width="24" height="24" rx="12" fill="white"/>
    <rect width="24" height="24" rx="12" fill="white"/>
    <path d="M9.5 11.5V9C9.5 8.33696 9.76339 7.70107 10.2322 7.23223C10.7011 6.76339 11.337 6.5 12 6.5C12.3283 6.5 12.6534 6.56466 12.9567 6.6903C13.26 6.81594 13.5356 7.00009 13.7678 7.23223C13.9999 7.46438 14.1841 7.73998 14.3097 8.04329" stroke="#020205" stroke-width="1.5" stroke-linecap="round" stroke-linejoin="round"/>
    <path d="M16.5 11.5H7.5V17.5H16.5V11.5Z" stroke="#020205" stroke-width="1.5" stroke-linecap="round" stroke-linejoin="round"/>
    <path d="M12.1875 15.0615V13.9365C12.1875 13.833 12.1036 13.749 12 13.749C11.8964 13.749 11.8125 13.833 11.8125 13.9365V15.0615C11.8125 15.1651 11.8964 15.249 12 15.249C12.1036 15.249 12.1875 15.1651 12.1875 15.0615Z" stroke="#020205" stroke-width="1.5" stroke-linecap="round" stroke-linejoin="round"/>
</svg>
