<svg width="20" height="20" viewBox="0 0 18 16" fill="none" xmlns="http://www.w3.org/2000/svg">
<path d="M6.5 7.5C8.15685 7.5 9.5 6.15685 9.5 4.5C9.5 2.84315 8.15685 1.5 6.5 1.5C4.84315 1.5 3.5 2.84315 3.5 4.5C3.5 6.15685 4.84315 7.5 6.5 7.5Z" stroke="black" stroke-width="1.5" stroke-linecap="round" stroke-linejoin="round"/>
<path d="M13.5 6.5C14.6046 6.5 15.5 5.60457 15.5 4.5C15.5 3.39543 14.6046 2.5 13.5 2.5C12.3954 2.5 11.5 3.39543 11.5 4.5C11.5 5.60457 12.3954 6.5 13.5 6.5Z" stroke="black" stroke-width="1.5" stroke-linecap="round" stroke-linejoin="round"/>
<path d="M6.5 9.5C5.17392 9.5 3.90215 10.0268 2.96447 10.9645C2.02678 11.9021 1.5 13.1739 1.5 14.5H11.5C11.5 13.1739 10.9732 11.9021 10.0355 10.9645C9.09785 10.0268 7.82608 9.5 6.5 9.5V9.5Z" stroke="black" stroke-width="1.5"/>
<path d="M11.8418 9C12.3332 8.67303 12.9105 8.49903 13.5008 8.5C14.2964 8.5 15.0595 8.81607 15.6221 9.37868C16.1847 9.94129 16.5008 10.7044 16.5008 11.5V12.5H13.5008" stroke="black" stroke-width="1.5"/>
</svg>
