<svg width="24" height="24" viewBox="0 0 24 24" fill="none" xmlns="http://www.w3.org/2000/svg">
<path d="M17.0858 4.40277C16.8967 4.32852 16.7092 4.25491 16.5234 4.182C16.4192 4.14414 16.316 4.10665 16.2138 4.06954C16.0085 3.99809 15.8075 3.92809 15.6111 3.85976C14.8232 3.59379 14.1016 3.38346 13.4827 3.23741C12.245 2.94531 11.4186 2.91039 11.2971 3.20184C11.1755 3.49331 11.7817 4.05598 12.86 4.73007C13.3175 5.01605 13.864 5.32255 14.4719 5.63644C13.4865 5.76505 12.3245 6.07125 11.1222 6.66173C10.5085 6.96721 9.8939 7.35491 9.29524 7.81313C8.71133 8.28856 8.13736 8.82681 7.63641 9.45112C6.62104 10.6922 5.97469 12.0861 5.58123 13.3686C5.19528 14.6582 5.02659 15.8476 5.01142 16.8376C4.98247 17.3323 5.01445 17.7789 5.042 18.1689C5.05824 18.3639 5.06974 18.5449 5.09614 18.7109C5.1241 18.877 5.15345 19.0283 5.18409 19.164C5.30669 19.707 5.44956 20.0002 5.60744 20C5.76531 19.9998 5.92354 19.7081 6.07391 19.1936C6.11148 19.0649 6.14856 18.9222 6.18497 18.7665C6.2258 18.6116 6.26995 18.444 6.31727 18.2644C6.40933 17.9059 6.48785 17.497 6.61372 17.0577C6.82316 16.1703 7.13538 15.1446 7.56788 14.0721C8.00878 13.0042 8.5943 11.8916 9.41066 10.8946C9.81344 10.3912 10.2635 9.95343 10.7149 9.54684C11.1814 9.15752 11.6564 8.80719 12.1383 8.50811C13.1053 7.91594 14.0699 7.49917 14.9113 7.20132C14.94 7.19115 14.9672 7.18199 14.9955 7.17205C14.4931 7.77732 14.0586 8.34474 13.7147 8.84479C12.9941 9.89265 12.6622 10.6502 12.8899 10.8691C13.1175 11.088 13.8615 10.7268 14.8804 9.96587C15.3899 9.5854 15.9681 9.10499 16.5848 8.5472C16.7377 8.40632 16.8942 8.26202 17.0541 8.11468C17.133 8.03996 17.2128 7.96445 17.2933 7.88821C17.4345 7.7474 17.5771 7.60527 17.721 7.46188C18.3538 6.82584 19.0151 6.1497 19.6788 5.45957C18.796 5.09076 17.9194 4.73413 17.0858 4.40277Z" fill="black"/>
</svg>
