<svg width="24" height="24" viewBox="0 0 24 24" fill="none" xmlns="http://www.w3.org/2000/svg">
<path d="M16.2657 10.2177C15.9679 9.57969 15.5773 8.84459 15.1115 8.0503C14.9932 7.85283 14.8721 7.65058 14.7483 7.44407C14.6851 7.34165 14.6212 7.23819 14.5567 7.13373C14.4358 6.94878 14.3138 6.76209 14.1907 6.57374C13.6437 5.74438 13.0596 4.87504 12.4609 4C11.8621 4.87504 11.2781 5.74438 10.7311 6.57374C10.6079 6.76209 10.4859 6.94878 10.365 7.13373C10.3005 7.23819 10.2366 7.34165 10.1734 7.44407C10.0497 7.65058 9.9285 7.85283 9.81018 8.0503C9.34436 8.84459 8.95377 9.57969 8.65604 10.2177C8.0606 11.4939 7.8366 12.3819 8.12523 12.5794C8.41384 12.7769 9.16043 12.2464 10.1342 11.2291C10.5089 10.8376 10.9177 10.3727 11.3465 9.85078C11.2495 10.8235 11.1944 11.9375 11.1944 13.1213C11.1944 16.9203 11.7614 20 12.4609 20C13.1603 20 13.7273 16.9203 13.7273 13.1213C13.7273 11.9375 13.6722 10.8235 13.5752 9.85078C14.004 10.3727 14.4128 10.8376 14.7876 11.2291C15.7613 12.2464 16.5079 12.7769 16.7965 12.5794C17.0851 12.3819 16.8611 11.4939 16.2657 10.2177Z" fill="black"/>
</svg>
