<svg width="30" height="30" viewBox="0 0 16 18" fill="none" xmlns="http://www.w3.org/2000/svg">
    <path d="M4.66602 8.33332V4.99999C4.66602 4.11593 5.01721 3.26809 5.64233 2.64297C6.26745 2.01785 7.11529 1.66666 7.99935 1.66666V1.66666C8.43709 1.66666 8.87054 1.75288 9.27496 1.92039C9.67938 2.08791 10.0468 2.33344 10.3564 2.64297C10.6659 2.9525 10.9114 3.31996 11.0789 3.72438C11.2465 4.1288 11.3327 4.56225 11.3327 4.99999V8.33332" stroke="black" stroke-width="1.5" stroke-linecap="round" stroke-linejoin="round" />
    <path d="M14 8.33331H2V16.3333H14V8.33331Z" stroke="black" stroke-width="1.5" stroke-linecap="round" stroke-linejoin="round" />
    <path d="M8.25 13.082V11.582C8.25 11.444 8.13807 11.332 8 11.332C7.86193 11.332 7.75 11.444 7.75 11.582V13.082C7.75 13.2201 7.86193 13.332 8 13.332C8.13807 13.332 8.25 13.2201 8.25 13.082Z" stroke="black" stroke-width="1.5" stroke-linecap="round" stroke-linejoin="round" />
</svg>