<svg width="24" height="24" viewBox="0 0 24 24" fill="none" xmlns="http://www.w3.org/2000/svg">
<path d="M6.99791 21.0036H5.9975C4.33995 21.0036 2.99625 19.6599 2.99625 18.0024V17.002" stroke="#323232" stroke-width="1.5" stroke-linecap="round" stroke-linejoin="round"/>
<path d="M17.0021 2.99609H18.0025C19.66 2.99609 21.0037 4.3398 21.0037 5.99734V6.99776" stroke="#323232" stroke-width="1.5" stroke-linecap="round" stroke-linejoin="round"/>
<path d="M2.99625 6.99776V5.99734C2.99625 4.3398 4.33995 2.99609 5.9975 2.99609H6.99791" stroke="#323232" stroke-width="1.5" stroke-linecap="round" stroke-linejoin="round"/>
<path d="M21.0037 17.002V18.0024C21.0037 19.6599 19.66 21.0036 18.0025 21.0036H17.0021" stroke="#323232" stroke-width="1.5" stroke-linecap="round" stroke-linejoin="round"/>
<path d="M5.9975 12.0005V8.9993C5.9975 7.34175 7.3412 5.99805 8.99875 5.99805H15.0012C16.6588 5.99805 18.0025 7.34175 18.0025 8.9993V12.0005" stroke="#323232" stroke-width="1.5" stroke-linecap="round" stroke-linejoin="round"/>
<path d="M18.0025 15.001C18.0025 16.6585 16.6588 18.0022 15.0012 18.0022H8.99875C7.3412 18.0022 5.9975 16.6585 5.9975 15.001" stroke="#323232" stroke-width="1.5" stroke-linecap="round" stroke-linejoin="round"/>
<path d="M3.99667 12.0002H21.0038" stroke="#323232" stroke-width="1.5" stroke-linecap="round" stroke-linejoin="round"/>
</svg>
