<svg width="14" height="14" viewBox="0 0 14 14" fill="none" xmlns="http://www.w3.org/2000/svg">
<path d="M5.30011 6.10001L8.70011 4.40001" stroke="#020205" stroke-width="1.5" stroke-linecap="round" stroke-linejoin="round"/>
<path d="M5.30011 7.84999L8.70011 9.54999" stroke="black" stroke-width="1.5" stroke-linecap="round" stroke-linejoin="round"/>
<path d="M3.5 9C4.60457 9 5.5 8.10457 5.5 7C5.5 5.89543 4.60457 5 3.5 5C2.39543 5 1.5 5.89543 1.5 7C1.5 8.10457 2.39543 9 3.5 9Z" stroke="black" stroke-width="1.5" stroke-linecap="round" stroke-linejoin="round"/>
<path d="M10.5 5.5C11.6046 5.5 12.5 4.60457 12.5 3.5C12.5 2.39543 11.6046 1.5 10.5 1.5C9.39543 1.5 8.5 2.39543 8.5 3.5C8.5 4.60457 9.39543 5.5 10.5 5.5Z" stroke="black" stroke-width="1.5" stroke-linecap="round" stroke-linejoin="round"/>
<path d="M10.5 12.5C11.6046 12.5 12.5 11.6046 12.5 10.5C12.5 9.39543 11.6046 8.5 10.5 8.5C9.39543 8.5 8.5 9.39543 8.5 10.5C8.5 11.6046 9.39543 12.5 10.5 12.5Z" stroke="black" stroke-width="1.5" stroke-linecap="round" stroke-linejoin="round"/>
</svg>
