<svg xmlns="http://www.w3.org/2000/svg" viewBox="0 0 1805.3 526.01"><defs><style>.cls-1{fill:#33f;}</style></defs><g id="Layer_2" data-name="Layer 2"><g id="Layer_1-2" data-name="Layer 1"><path class="cls-1" d="M313.93,308.16c-19.06-28.75-52.13-47.11-93.78-53.09l-55.92-8c-19.64-2.78-30.56-7.34-35.77-14.64-2-2.81-2.79-6.29-3.07-10.4A25.14,25.14,0,0,1,128,208.93c4.64-9.74,16.63-15.28,32.46-16.36,24-1.65,40.17,10.22,41.78,33.67l.36,5.28,123.74-8.47-.36-5.28C319.75,126.29,255.51,83,152.3,90,83.69,94.72,34.93,122.8,12.65,167.34,2.28,188.08-1.39,211.89.46,238.87s8.61,48.32,21.07,66.9C40.59,334.52,72.36,351.2,114,357.19l57.1,7.87c19.63,2.78,30.63,8.51,35.84,15.81,2,2.82,2.83,6.88,3.11,11A25.16,25.16,0,0,1,207.43,405c-4.63,9.74-16.63,15.28-32.46,16.36-24,1.65-40.17-10.22-41.78-33.67l-.36-5.28L9.09,390.88l.36,5.28C15.71,487.64,80,531,183.17,523.9c68.61-4.69,117.36-32.77,139.64-77.3,10.36-20.75,14-44.57,12.19-71.54S326.39,326.74,313.93,308.16Z"/><polygon class="cls-1" points="845.58 54.4 842.45 364.28 822.21 365.67 776.39 59.09 560.58 73.88 588.67 484.38 711.82 475.95 691.7 180.9 718.61 179.06 762.84 472.46 915.9 461.99 919.18 165.33 946.79 163.44 966.92 458.5 1090.07 450.07 1061.98 39.57 845.58 54.4"/><polygon class="cls-1" points="405.56 224.71 404.18 204.47 498.23 195.78 490.21 78.69 361.2 87.52 389.29 498.02 518.3 489.19 499.92 220.5 405.56 224.71"/><path class="cls-1" d="M1453.75,82.28c-27.56-41.12-77.45-64.22-137.27-60.13l-184.14,12.6,28.09,410.5,129-8.82-7-101.73-83.58,1.82-.92-20.26,82.84-5.77v-.15l55.12-3.77c59.82-4.09,106.1-33.77,127.81-78.27,10.32-21.32,15.08-46.4,13.16-74.55C1475,126.19,1466.89,102,1453.75,82.28Zm-109.42,97c-5.7,11.59-17,18.25-33.44,19.38l-37.53,2.56L1268.82,135l37.54-2.57c16.41-1.12,28.54,3.94,35.76,14.64a33.47,33.47,0,0,1,5.19,15.55A34,34,0,0,1,1344.33,179.32Z"/><polygon class="cls-1" points="1797.28 401.54 1668.27 410.37 1649.89 141.76 1557.61 145.88 1556.23 125.64 1648.2 117.14 1640.19 0 1511.17 8.83 1539.26 419.33 1668.27 410.5 1676.18 526.01 1805.3 518.68 1797.28 401.54"/></g></g></svg>