<svg xmlns="http://www.w3.org/2000/svg" xmlns:xlink="http://www.w3.org/1999/xlink" width="31" height="28" viewBox="0 0 31 28"><defs><style>.a{fill:#656565;}.b{clip-path:url(#a);}</style><clipPath id="a"><rect class="a" width="31" height="28" rx="14" transform="translate(375.196 302.298)"/></clipPath></defs><g class="b" transform="translate(-375.196 -302.298)"><g transform="translate(376.374 302.216)"><path class="a" d="M8.5,23.129a3.251,3.251,0,0,0-1.074-2.408v0c.06-.807.108-1.657.145-2.535a5.558,5.558,0,0,1,3.647,1.908,3.9,3.9,0,0,1,.562,3.076,2.481,2.481,0,0,0,1.93,3.028,13.216,13.216,0,0,0,2.438.229,12.768,12.768,0,0,0,8.024-2.838,12.229,12.229,0,0,0,4.648-9.521A12.656,12.656,0,0,0,16.149,1.66a14.925,14.925,0,0,0-8.907,3.7q-.042-.383-.088-.744a19.426,19.426,0,0,0-.564-2.975C6.442,1.147,6.1,0,5.122,0S3.8,1.147,3.655,1.637A19.433,19.433,0,0,0,3.09,4.612a78.869,78.869,0,0,0-.5,9.453c0,2.325.079,4.625.23,6.652v0a3.251,3.251,0,0,0-1.074,2.408v1.7A1.721,1.721,0,0,1,0,26.481v1.648H3.433a5.05,5.05,0,0,0,5.066-5Zm7.71-19.823A10.988,10.988,0,0,1,27.13,14.064,10.6,10.6,0,0,1,23.1,22.315a11.148,11.148,0,0,1-9.068,2.26.839.839,0,0,1-.6-1.051,5.455,5.455,0,0,0-.834-4.392,7.319,7.319,0,0,0-4.968-2.616c.02-.807.03-2.514.03-2.545A2.56,2.56,0,0,0,12.02,13,2.47,2.47,0,0,0,10.229,9.97,2.567,2.567,0,0,0,7.6,10.8c-.038-1.171-.1-2.294-.172-3.343a13.482,13.482,0,0,1,8.777-4.153ZM8.758,12.145a.846.846,0,0,1,1.034-.583.823.823,0,0,1,.6,1.009.848.848,0,0,1-1.034.583A.822.822,0,0,1,8.758,12.145ZM4.683,5.518a25.8,25.8,0,0,1,.439-2.831,25.8,25.8,0,0,1,.439,2.831,81.908,81.908,0,0,1,.4,8.546q0,.413,0,.824H4.281q0-.411,0-.824a81.908,81.908,0,0,1,.4-8.546ZM4.308,16.536H5.936c-.029,1.164-.078,2.3-.147,3.362a3.461,3.461,0,0,0-1.334,0c-.068-1.066-.118-2.2-.147-3.362Zm-.875,8.3v-1.7a1.689,1.689,0,0,1,3.377,0,3.368,3.368,0,0,1-3.377,3.351H2.969A3.15,3.15,0,0,0,3.433,24.833Z" transform="translate(0 0)"/><path class="a" d="M781.381,305.1a2.429,2.429,0,0,0,0-3.5,2.58,2.58,0,0,0-3.582,0,2.429,2.429,0,0,0,0,3.5A2.58,2.58,0,0,0,781.381,305.1Zm-2.388-2.331a.86.86,0,0,1,1.194,0,.81.81,0,0,1,0,1.165.86.86,0,0,1-1.194,0A.81.81,0,0,1,778.993,302.769Z" transform="translate(-758.717 -293.949)"/><path class="a" d="M503.838,231.615a2.469,2.469,0,0,0,1.791-3.028,2.543,2.543,0,0,0-3.1-1.748,2.47,2.47,0,0,0-1.791,3.028A2.538,2.538,0,0,0,503.838,231.615Zm-.874-3.184a.848.848,0,0,1,1.034.583.823.823,0,0,1-.6,1.009.846.846,0,0,1-1.034-.583A.823.823,0,0,1,502.964,228.431Z" transform="translate(-488.833 -221.531)"/><path class="a" d="M648.868,782.687a2.543,2.543,0,0,0,3.1,1.748,2.47,2.47,0,0,0,1.791-3.028,2.539,2.539,0,0,0-3.1-1.748A2.47,2.47,0,0,0,648.868,782.687Zm2.228-1.436a.846.846,0,0,1,1.034.583.823.823,0,0,1-.6,1.009.847.847,0,0,1-1.034-.583A.823.823,0,0,1,651.1,781.251Z" transform="translate(-633.469 -761.615)"/><path class="a" d="M851.223,579.052a2.47,2.47,0,0,0,1.791,3.028,2.539,2.539,0,0,0,3.1-1.748,2.466,2.466,0,0,0-1.791-3.028A2.538,2.538,0,0,0,851.223,579.052Zm3.262.853a.846.846,0,0,1-1.034.583.823.823,0,0,1-.6-1.009.846.846,0,0,1,1.034-.583A.823.823,0,0,1,854.485,579.906Z" transform="translate(-831.048 -563.921)"/></g></g></svg>