<svg xmlns="http://www.w3.org/2000/svg" xmlns:xlink="http://www.w3.org/1999/xlink" width="87.654" height="27.28" viewBox="0 0 87.654 27.28"><defs><style>.a{fill:none;}.b,.f{isolation:isolate;}.c{fill:#211b45;}.d{fill:#f63;}.d,.f,.g,.i,.j{fill-rule:evenodd;}.e{clip-path:url(#a);}.f{fill:#ccc;opacity:0.5;mix-blend-mode:multiply;}.g{fill:#1f9dff;}.h{clip-path:url(#b);}.i{fill:#f93;}.j{fill:#3c9;}</style><clipPath id="a"><path class="a" d="M42.009,88.718l3.41,1.968a1.952,1.952,0,0,0,2,0l5.037-2.908,5.037-2.908a1.952,1.952,0,0,0,1-1.731V77.321L51.66,76.88l2.16,1.246a1.09,1.09,0,0,1,0,1.889l-11.81,6.816a1.09,1.09,0,0,0,0,1.889" transform="translate(-41.464 -76.88)"/></clipPath><clipPath id="b"><path class="a" d="M16.481,2.246,13.073.277a1.961,1.961,0,0,0-2,0L6.036,3.185,1,6.094A1.954,1.954,0,0,0,0,7.826v5.817l6.833.438L4.674,12.838a1.088,1.088,0,0,1,0-1.889L16.481,4.133a1.088,1.088,0,0,0,0-1.889" transform="translate(0.001 -0.003)"/></clipPath></defs><g class="b" transform="translate(0.001 -0.003)"><g transform="translate(-0.001 0.003)"><g transform="translate(0 0)"><path class="c" d="M228.5,20.013h3.308V32.095h-3.314Zm1.669-5.02a1.866,1.866,0,0,1,1.363.515,1.779,1.779,0,0,1,.541,1.327,1.823,1.823,0,0,1-.541,1.341,1.854,1.854,0,0,1-1.363.539,1.889,1.889,0,0,1-1.373-.539,1.8,1.8,0,0,1-.553-1.341,1.756,1.756,0,0,1,.551-1.327A1.9,1.9,0,0,1,230.165,14.993Zm-9.848,14.54a2.692,2.692,0,0,0,2.162-.977,3.778,3.778,0,0,0,.822-2.527,3.708,3.708,0,0,0-.822-2.5,2.714,2.714,0,0,0-2.162-.951,2.646,2.646,0,0,0-2.139.951,3.786,3.786,0,0,0-.795,2.5,3.909,3.909,0,0,0,.8,2.539A2.635,2.635,0,0,0,220.318,29.533Zm.774-9.661a5.427,5.427,0,0,1,2.879.764,5.266,5.266,0,0,1,1.974,2.174,7.1,7.1,0,0,1,.718,3.262,6.965,6.965,0,0,1-.718,3.245,5.272,5.272,0,0,1-1.985,2.158,5.494,5.494,0,0,1-2.891.764,4.38,4.38,0,0,1-3.643-1.669V36.8h-3.315V20.013H217l.33,1.676a4.485,4.485,0,0,1,1.562-1.315A4.706,4.706,0,0,1,221.092,19.872Zm-13.467,0a4.172,4.172,0,0,1,3.173,1.293q1.224,1.293,1.222,4.292V32.11h-3.314V25.349q0-2.747-2.093-2.747a2.187,2.187,0,0,0-1.739.764,3.158,3.158,0,0,0-.658,2.127v6.629H200.9V25.349q0-2.747-2.117-2.747a2.122,2.122,0,0,0-1.727.788,3.257,3.257,0,0,0-.646,2.127v6.6H193.1V20.013h2.891l.306,1.5a4.282,4.282,0,0,1,1.458-1.2,4.922,4.922,0,0,1,2.119-.443,3.663,3.663,0,0,1,3.6,2.045,4.375,4.375,0,0,1,1.725-1.516A5.425,5.425,0,0,1,207.625,19.872Zm-20.144.141H190.8V32.095h-3.315Zm1.671-5.02a1.866,1.866,0,0,1,1.363.515,1.784,1.784,0,0,1,.539,1.327,1.828,1.828,0,0,1-.539,1.341,1.854,1.854,0,0,1-1.363.539,1.889,1.889,0,0,1-1.374-.539,1.8,1.8,0,0,1-.553-1.341,1.756,1.756,0,0,1,.551-1.327A1.9,1.9,0,0,1,189.151,14.993ZM177.492,28.075a1.707,1.707,0,0,0,.776,1.293,3.09,3.09,0,0,0,1.81.494,3.423,3.423,0,0,0,1.669-.343,1.068,1.068,0,0,0,.613-.973.867.867,0,0,0-.282-.706,1.808,1.808,0,0,0-.8-.343q-.515-.106-1.693-.247a16.26,16.26,0,0,1-2.654-.541,3.7,3.7,0,0,1-1.693-1.03,2.717,2.717,0,0,1-.635-1.889,3.485,3.485,0,0,1,.647-2.079,4.134,4.134,0,0,1,1.82-1.4,6.948,6.948,0,0,1,2.7-.493,7.08,7.08,0,0,1,3.985,1.058,3.583,3.583,0,0,1,1.633,2.869h-3.15a1.5,1.5,0,0,0-.716-1.116,2.919,2.919,0,0,0-1.657-.429,2.872,2.872,0,0,0-1.516.343,1.064,1.064,0,0,0-.577.941.721.721,0,0,0,.306.634,2.074,2.074,0,0,0,.8.314c.328.064.877.134,1.645.211a9.793,9.793,0,0,1,3.75,1.047,2.785,2.785,0,0,1,1.3,2.62,3.284,3.284,0,0,1-.687,2.069,4.4,4.4,0,0,1-1.928,1.373,7.822,7.822,0,0,1-2.855.481,6.917,6.917,0,0,1-4.09-1.116,3.777,3.777,0,0,1-1.669-3.044Z" transform="translate(-144.416 -12.418)"/><path class="d" d="M42.009,88.718l3.41,1.968a1.952,1.952,0,0,0,2,0l5.037-2.908,5.037-2.908a1.952,1.952,0,0,0,1-1.731V77.321L51.66,76.88l2.16,1.246a1.09,1.09,0,0,1,0,1.889l-11.81,6.816a1.09,1.09,0,0,0,0,1.889" transform="translate(-34.345 -63.681)"/><g class="e" transform="translate(7.119 13.199)"><path class="f" d="M98.043,45V34.525L93.03,31.63l-3.82,6.615,4.169,2.407.187,1.763,2,1.155Z" transform="translate(-81.013 -39.399)"/></g><path class="g" d="M16.481,2.246,13.073.277a1.961,1.961,0,0,0-2,0L6.036,3.185,1,6.094A1.954,1.954,0,0,0,0,7.826v5.817l6.833.438L4.674,12.838a1.088,1.088,0,0,1,0-1.889L16.481,4.133a1.088,1.088,0,0,0,0-1.889" transform="translate(0.001 -0.003)"/><g class="h"><path class="f" d="M0,49.4V59.875l5.013,2.895,3.818-6.615L4.706,53.771l-.23-1.787-2-1.155Z" transform="translate(0 -40.919)"/></g><path class="i" d="M90.743,33.954l3.042,1.756V26.39a1.954,1.954,0,0,0-1-1.732l-3.636-2.1a1.088,1.088,0,0,0-1.485.4l-3.449,5.97a1.092,1.092,0,0,0,.4,1.485Z" transform="translate(-69.637 -18.566)"/><path class="j" d="M3.041,60.763,0,59v9.321a1.954,1.954,0,0,0,1,1.731l3.636,2.107a1.094,1.094,0,0,0,1.489-.4l3.446-5.97a1.09,1.09,0,0,0-.4-1.489Z" transform="translate(0.001 -48.871)"/></g></g></g></svg>