<?xml version="1.0" encoding="UTF-8"?>
<!DOCTYPE svg PUBLIC "-//W3C//DTD SVG 1.1//EN" "http://www.w3.org/Graphics/SVG/1.1/DTD/svg11.dtd">
<!-- Creator: CorelDRAW -->
<svg xmlns="http://www.w3.org/2000/svg" xml:space="preserve" width="6.82666in" height="6.82666in" style="shape-rendering:geometricPrecision; text-rendering:geometricPrecision; image-rendering:optimizeQuality; fill-rule:evenodd; clip-rule:evenodd"
viewBox="0 0 6.82666 6.82666"
 xmlns:xlink="http://www.w3.org/1999/xlink">
 <defs>
  <style type="text/css">
   <![CDATA[
    .fil1 {fill:none}
    .fil0 {fill:#424242}
    .fil2 {fill:#FFFFFE;fill-rule:nonzero}
   ]]>
  </style>
 </defs>
 <rect class="fil0" width="6.82666" height="6.82666"/>
 <g id="Layer_x0020_1">
  <metadata id="CorelCorpID_0Corel-Layer"/>
  <rect class="fil1" width="6.82666" height="6.82666"/>
  <polygon class="fil2" points="4.76945,5.81943 4.76921,5.81979 4.82537,5.82023 4.82521,5.82006 "/>
  <polygon class="fil2" points="4.82521,5.82006 4.82537,5.82023 4.82542,5.82023 4.82542,5.82006 "/>
  <polygon class="fil2" points="4.82542,5.82006 4.82542,5.82023 4.87199,5.82059 "/>
  <path class="fil2" d="M5.31309 3.47766c0.0497323,0.717154 0.0935433,1.34881 -0.328992,2.07569 -0.00615354,0.0105866 -0.0107244,0.0212874 -0.013622,0.031815 -0.00250394,0.00909449 -0.00406693,0.0183543 -0.00464961,0.027626 0.00015748,0.0028622 0.000204724,0.00575197 0.000129921,0.00866929l-0.000385827 -1.1811e-005 -0.00494094 0.192803c0.000145669,0.0025 0.000208661,0.00501969 0.000181102,0.00756299l-0.000377953 -3.93701e-006 -3.14961e-005 0.0012874 -3.14961e-005 0c-0.000905512,0.0415315 -0.0179685,0.0787402 -0.0450433,0.105524 -0.0279528,0.0276535 -0.0660472,0.0447126 -0.107748,0.0447126l-1.77594 0 0 -7.87402e-006 -0.000834646 3.93701e-006 0 -1.1811e-005 -0.000787402 3.93701e-006 3.93701e-006 -0.000413386c-0.0420512,-0.000511811 -0.0797992,-0.0176654 -0.106902,-0.045063 -0.0276575,-0.0279567 -0.0447205,-0.0660512 -0.0447205,-0.10776l7.87402e-006 0 -3.93701e-006 -0.000834646 7.87402e-006 0c3.93701e-006,-0.00105118 1.5748e-005,-0.0021063 5.11811e-005,-0.00316535l0.000362205 1.1811e-005 0.0040315 -0.122858c-9.84252e-005,-0.0021063 -0.000153543,-0.00422835 -0.000129921,-0.00636614l0.000338583 3.93701e-006 7.08661e-005 -0.00220866c-0.000161417,-0.0168622 -0.00369291,-0.033626 -0.0102441,-0.049374 -0.00676772,-0.0162717 -0.0166929,-0.0310827 -0.0293465,-0.0433976 -0.700984,-0.682295 -0.602189,-0.438768 -0.916701,-1.22458 -0.00159449,-0.00327559 -0.00303543,-0.00666142 -0.00431102,-0.0101575l0.100189 -0.0366063 -0.1 0.036252 -0.218839 -0.598929 -0.124358 -0.143488c-0.0665118,-0.0767402 -0.0986142,-0.1725 -0.0967126,-0.26763 0.00190551,-0.0952559 0.0378504,-0.189748 0.107417,-0.263811 0.0722402,-0.0768937 0.168394,-0.118791 0.266693,-0.124413 0.0980157,-0.0056063 0.198165,0.0250551 0.278732,0.0932283l0.228193 0.193079c0.014378,0.0121693 0.027311,0.0260512 0.0385591,0.0413071 0.0109724,0.0148819 0.0202795,0.0311732 0.0276614,0.0485354 0.00623622,0.0146535 0.0129213,0.0307717 0.022252,0.0532677 0.037878,0.0913268 0.0258976,0.309331 0.0574646,0.385075l0 -2.53397c0,-0.1065 0.0431772,-0.202933 0.112984,-0.27274 0.0698071,-0.0698071 0.166236,-0.112984 0.27274,-0.112984 0.106496,0 0.202929,0.0431811 0.272736,0.112984 0.0698031,0.0698071 0.112984,0.16624 0.112984,0.27274l0 0.866945c0.00644094,-0.00749213 0.0131575,-0.0147402 0.0201378,-0.0217205 0.0708819,-0.0708819 0.168799,-0.114724 0.276937,-0.114724 0.108138,0 0.206051,0.0438504 0.276933,0.114724 0.044248,0.044248 0.0779646,0.0990354 0.0970472,0.160268 0.0712441,-0.0674055 0.167398,-0.108748 0.273193,-0.108748 0.109772,0 0.209177,0.0445079 0.281134,0.116465 0.0694685,0.0694685 0.113346,0.16452 0.116299,0.269787 0.0697677,-0.062937 0.162169,-0.10126 0.263504,-0.10126l1.1811e-005 0c0.107366,0 0.204925,0.0432992 0.276087,0.11352 0.0710669,0.070122 0.115602,0.167232 0.117031,0.274969 0.00304331,0.22861 0.0185669,0.452457 0.0335433,0.668378z"/>
 </g>
</svg>
