<?xml version="1.0" encoding="utf-8"?>
<!-- Generator: Adobe Illustrator 24.2.3, SVG Export Plug-In . SVG Version: 6.00 Build 0)  -->
<svg version="1.1" id="Ebene_1" xmlns="http://www.w3.org/2000/svg" xmlns:xlink="http://www.w3.org/1999/xlink" x="0px" y="0px"
	 viewBox="0 0 491.5 491.5" style="enable-background:new 0 0 491.5 491.5;" xml:space="preserve">
<style type="text/css">
	.st0{display:none;fill-rule:evenodd;clip-rule:evenodd;fill:#424242;}
	.st1{fill:none;}
	.st2{fill:#FFFFFE;}
</style>
<rect class="st0" width="491.5" height="491.5"/>
<g id="Layer_x0020_1">
	<rect class="st1" width="491.5" height="491.5"/>
	<polygon class="st2" points="343.4,419 343.4,419 347.4,419.1 347.4,419 	"/>
	<polygon class="st2" points="347.4,419 347.4,419.1 347.4,419.1 347.4,419 	"/>
	<polygon class="st2" points="347.4,419 347.4,419.1 350.8,419.1 	"/>
	<path class="st2" d="M382.5,250.4c3.6,51.6,6.7,97.1-23.7,149.4c-0.4,0.8-0.8,1.5-1,2.3c-0.2,0.7-0.3,1.3-0.3,2c0,0.2,0,0.4,0,0.6
		l0,0l-0.4,13.9c0,0.2,0,0.4,0,0.5l0,0l0,0.1h0c-0.1,3-1.3,5.7-3.2,7.6c-2,2-4.8,3.2-7.8,3.2H218.3v0l-0.1,0v0l-0.1,0l0,0
		c-3,0-5.7-1.3-7.7-3.2c-2-2-3.2-4.8-3.2-7.8h0l0-0.1h0c0-0.1,0-0.2,0-0.2l0,0l0.3-8.8c0-0.2,0-0.3,0-0.5l0,0l0-0.2
		c0-1.2-0.3-2.4-0.7-3.6c-0.5-1.2-1.2-2.2-2.1-3.1c-50.5-49.1-43.4-31.6-66-88.2c-0.1-0.2-0.2-0.5-0.3-0.7l7.2-2.6l-7.2,2.6
		l-15.8-43.1l-9-10.3c-4.8-5.5-7.1-12.4-7-19.3c0.1-6.9,2.7-13.7,7.7-19c5.2-5.5,12.1-8.6,19.2-9c7.1-0.4,14.3,1.8,20.1,6.7
		l16.4,13.9c1,0.9,2,1.9,2.8,3c0.8,1.1,1.5,2.2,2,3.5c0.4,1.1,0.9,2.2,1.6,3.8c2.7,6.6,1.9,22.3,4.1,27.7V89.2
		c0-7.7,3.1-14.6,8.1-19.6c5-5,12-8.1,19.6-8.1c7.7,0,14.6,3.1,19.6,8.1c5,5,8.1,12,8.1,19.6v62.4c0.5-0.5,0.9-1.1,1.4-1.6
		c5.1-5.1,12.2-8.3,19.9-8.3s14.8,3.2,19.9,8.3c3.2,3.2,5.6,7.1,7,11.5c5.1-4.9,12.1-7.8,19.7-7.8c7.9,0,15.1,3.2,20.2,8.4
		c5,5,8.2,11.8,8.4,19.4c5-4.5,11.7-7.3,19-7.3h0c7.7,0,14.8,3.1,19.9,8.2c5.1,5,8.3,12,8.4,19.8
		C380.3,218.7,381.5,234.8,382.5,250.4L382.5,250.4z"/>
</g>
</svg>
