<?xml version="1.0" encoding="utf-8"?>
<!-- Generator: Adobe Illustrator 24.2.3, SVG Export Plug-In . SVG Version: 6.00 Build 0)  -->
<svg version="1.1" id="Ebene_1" xmlns="http://www.w3.org/2000/svg" xmlns:xlink="http://www.w3.org/1999/xlink" x="0px" y="0px"
	 viewBox="0 0 491.5 491.5" style="enable-background:new 0 0 491.5 491.5;" xml:space="preserve">
<style type="text/css">
	.st0{display:none;fill-rule:evenodd;clip-rule:evenodd;fill:#424242;}
	.st1{fill:#FFFFFE;}
	.st2{fill:none;}
</style>
<rect class="st0" width="491.5" height="491.5"/>
<g id="Layer_x0020_1">
	<polygon class="st1" points="121.2,312.6 114.9,312.9 114.9,312.9 114.9,312.9 121.2,312.6 	"/>
	<polygon class="st1" points="121.2,312.6 121.2,312.6 121.2,312.6 121.2,312.6 	"/>
	<polygon class="st1" points="121.2,312.5 121.2,312.6 121.2,312.6 121.2,312.5 	"/>
	<polygon class="st1" points="114.3,254 114,255.8 114,255.8 	"/>
	<path class="st1" d="M371.2,214.3h44c4.1,0,7.8,1.7,10.6,4.4c2.7,2.7,4.3,6.4,4.3,10.5v154.2c0,4.1-1.6,7.8-4.3,10.5
		c-2.7,2.7-6.4,4.4-10.5,4.4l-37.1,0.2c-0.8,0-1.7,0.1-2.5,0.2c-0.8,0.1-1.6,0.4-2.4,0.7c-93,33.8-101.4,33.5-166.8,31.6
		c-18.5-0.5-41.7-1.2-72.7-1.3c-1.1,0.1-2.2,0-3.3-0.4l0,0l-3.2-1.1c-6.6-2.4-12.1-6.7-16-12.2c-3.9-5.5-6.2-12.1-6.3-19.1
		c-0.1-5.5,1.2-10.8,3.6-15.4c1.2-2.2,2.6-4.3,4.2-6.2l-1.6-0.2c-8.6-0.9-16.4-5.2-22-11.5c-5.6-6.3-9.1-14.5-9.1-23.2
		c0-7.7,3-15.2,7.9-21c0.7-0.9,1.5-1.7,2.4-2.5c-7.3-1.5-13.9-4.8-18.8-9.7c-6.3-6.1-10.1-14.5-10.1-24.6c0-5.4,0-28.4,30.6-33.5
		c-1.4-1.3-2.5-2.7-3.6-4.2c-4.4-6.3-5.6-13.3-5.7-19.1c0-0.3,0-0.5,0-0.8c0-6.4,1.8-16.1,9-23.3c4.8-4.9,11.9-8.5,22.2-9
		c0.3,0,0.6-0.1,1-0.1v0l120.7,0.3c-31.3-39.7-37.4-47.8-39.6-98c0-0.8-0.1-1.3-0.1-1.4c0-8.6,3.4-16.4,8.8-22.2
		c5.5-5.8,13.2-9.6,21.7-10c0.8,0,1.3-0.1,1.4-0.1c8,0,15.4,3,21.1,8.1c5.6,5,9.5,12,10.6,20l0.3,2.3c2.5,19.5,3.1,24.2,18.3,40.2
		c11.7,12.3,26.9,23.8,41.7,35.1c20.5,15.5,40.2,30.5,50.4,46.8c0.1,0.1,0.2,0.1,0.3,0.2C370.7,214.2,371,214.3,371.2,214.3
		L371.2,214.3z"/>
	<rect class="st2" width="491.5" height="491.5"/>
</g>
</svg>
