<?xml version="1.0" encoding="UTF-8"?>
<!DOCTYPE svg PUBLIC "-//W3C//DTD SVG 1.1//EN" "http://www.w3.org/Graphics/SVG/1.1/DTD/svg11.dtd">
<!-- Creator: CorelDRAW -->
<svg xmlns="http://www.w3.org/2000/svg" xml:space="preserve" width="6.82666in" height="6.82666in" style="shape-rendering:geometricPrecision; text-rendering:geometricPrecision; image-rendering:optimizeQuality; fill-rule:evenodd; clip-rule:evenodd"
viewBox="0 0 6.82666 6.82666"
 xmlns:xlink="http://www.w3.org/1999/xlink">
 <defs>
  <style type="text/css">
   <![CDATA[
    .fil2 {fill:none}
    .fil0 {fill:#424242}
    .fil1 {fill:#FFFFFE;fill-rule:nonzero}
   ]]>
  </style>
 </defs>
 <rect class="fil0" width="6.82666" height="6.82666"/>
 <g id="Layer_x0020_1">
  <metadata id="CorelCorpID_0Corel-Layer"/>
  <polygon class="fil1" points="1.68323,4.34099 1.59545,4.34547 1.5954,4.34561 1.59546,4.34574 1.68333,4.34103 "/>
  <polygon class="fil1" points="1.68348,4.34098 1.68323,4.34099 1.68333,4.34103 1.68339,4.34103 "/>
  <polygon class="fil1" points="1.68361,4.34097 1.68353,4.34102 1.68356,4.34102 1.68364,4.34097 "/>
  <polygon class="fil1" points="1.58787,3.52789 1.58373,3.55335 1.58373,3.55335 "/>
  <path class="fil1" d="M5.15605 2.97574l0.610476 0c0.0570827,0 0.108941,0.0236181 0.146642,0.0617835 0.0371614,0.0376417 0.0601614,0.089374 0.0601614,0.14628l0 2.14189c0,0.0566575 -0.0228976,0.108319 -0.0599528,0.146071 -0.0370472,0.0377441 -0.0885709,0.0612441 -0.145827,0.0615866l-0.515248 0.00315748c-0.0114921,7.08661e-005 -0.0230315,0.00114567 -0.0344567,0.00319291 -0.0109803,0.0019685 -0.0222559,0.00504331 -0.0336929,0.00919685 -1.29188,0.469083 -1.40783,0.465705 -2.31601,0.43924 -0.257134,-0.00749606 -0.579079,-0.016878 -1.00937,-0.0174724 -0.0149803,0.00134646 -0.0304764,-0.000464567 -0.0455591,-0.00588583l0.000149606 -0.000417323 -0.0440866 -0.0158504c-0.0917323,-0.0329606 -0.168484,-0.092752 -0.222689,-0.168783 -0.054,-0.0757362 -0.0857638,-0.167878 -0.0877835,-0.265839 -0.00156299,-0.0760945 0.0160709,-0.149594 0.0496693,-0.214209 0.0160394,-0.0308543 0.0357598,-0.0598189 0.0588071,-0.0862283l-0.0226535 -0.00229528c-0.119827,-0.0121378 -0.228079,-0.0722953 -0.305953,-0.159437 -0.0778386,-0.0871024 -0.126161,-0.201524 -0.126161,-0.322228 0,-0.106882 0.0422323,-0.210567 0.110268,-0.291504 0.0103465,-0.0123071 0.021311,-0.0241063 0.0328386,-0.0353228 -0.10198,-0.0207205 -0.192374,-0.0668661 -0.261657,-0.134114 -0.087622,-0.0850472 -0.14063,-0.201654 -0.14063,-0.341346 0,-0.0752402 7.87402e-005,-0.394232 0.424323,-0.465531 -0.0188465,-0.0184882 -0.0351929,-0.0380787 -0.0493425,-0.0584094 -0.060563,-0.0870236 -0.0775827,-0.184098 -0.0792441,-0.265882 -0.000366142,-0.00358268 -0.000551181,-0.00721654 -0.000551181,-0.0108976 0,-0.0891693 0.0253543,-0.223008 0.124854,-0.323063 0.0673543,-0.0677283 0.165921,-0.117957 0.308591,-0.124811 0.0044685,-0.000559055 0.00901969,-0.00084252 0.0136417,-0.000830709l0 0.000413386 1.67574 0.00417717c-0.434173,-0.551602 -0.518843,-0.663504 -0.549469,-1.36122 -0.000507874,-0.0115433 -0.000755906,-0.0181063 -0.000755906,-0.0200197 0,-0.119244 0.0466535,-0.228217 0.122811,-0.308756 0.0764961,-0.0809055 0.182764,-0.133087 0.301551,-0.138291 0.0112205,-0.000492126 0.0177677,-0.000744094 0.0194488,-0.000744094 0.111205,0 0.213988,0.0419016 0.292709,0.111815 0.0783071,0.0695472 0.132476,0.166949 0.146957,0.278382l0.0042126 0.0325591c0.0350394,0.271346 0.0434685,0.336547 0.25435,0.557854 0.162575,0.170622 0.374138,0.33122 0.579799,0.487339 0.284173,0.215713 0.557642,0.423311 0.699378,0.650173 0.00135827,0.00109449 0.0027126,0.00194882 0.00403543,0.00255118 0.00246457,0.00112598 0.00575591,0.00173228 0.00967717,0.00173228z"/>
  <rect class="fil2" width="6.82666" height="6.82666"/>
 </g>
</svg>
