<?xml version="1.0" encoding="utf-8"?>
<!-- Generator: Adobe Illustrator 24.2.3, SVG Export Plug-In . SVG Version: 6.00 Build 0)  -->
<svg version="1.1" id="Ebene_1" xmlns="http://www.w3.org/2000/svg" xmlns:xlink="http://www.w3.org/1999/xlink" x="0px" y="0px"
	 viewBox="0 0 491.5 491.5" style="enable-background:new 0 0 491.5 491.5;" xml:space="preserve">
<style type="text/css">
	.st0{display:none;fill-rule:evenodd;clip-rule:evenodd;fill:#424242;}
	.st1{fill:#FFFFFE;}
	.st2{fill-rule:evenodd;clip-rule:evenodd;fill:#FFFFFE;}
	.st3{fill:none;}
</style>
<rect class="st0" width="491.5" height="491.5"/>
<g id="Layer_x0020_1">
	<polygon class="st1" points="190.6,97.3 190.6,97.3 190.6,97.3 	"/>
	<path class="st1" d="M406.4,223.6c18.1,45.7,30.8,77.8,17.3,136.3c-0.2,0.8-0.3,1.6-0.2,2.4c0,0.6,0.1,1.3,0.3,1.9
		c0.1,0.2,0.1,0.3,0.2,0.5l0,0l3.7,13.1c0,0.1,0.1,0.2,0.1,0.4l0,0l0,0.1l0,0c0.8,2.8,0.4,5.7-0.9,8.1c-1.3,2.5-3.6,4.4-6.4,5.3
		l-117.5,36.2c-0.1,0.1-0.3,0.1-0.5,0.2l-0.1,0l-0.1,0l0,0l-0.1,0l-1.1-3.8l0,0l1.1,3.7c-2.8,0.8-5.8,0.5-8.2-0.9
		c-2.2-1.2-3.9-3-4.9-5.4c-0.1-0.3-0.2-0.6-0.3-0.9l0-0.1l0-0.1h0c0-0.1-0.1-0.2-0.1-0.3l7.4-2l-7.4,2l-2.4-8.7l0,0h0l0-0.2l0,0
		c-0.3-1.1-0.9-2.1-1.6-3c-0.7-0.8-1.4-1.5-2.3-2c-54.3-19.4-66.3-35.5-84.8-60c-9.4-12.5-20.6-27.4-40.8-46.2
		c-5.7-3.8-9.6-9.4-11.4-15.6c-1.8-6.4-1.4-13.5,1.8-19.9c3.3-6.7,8.8-11.5,15.3-13.9c6.3-2.3,13.4-2.4,20,0.2
		c12.3,3,25.1,14.4,35.1,24.9l-46.8-151.9c-0.2-0.4-0.3-0.8-0.4-1.3c-1.9-6.9-1-14,2.1-19.9c3.1-5.9,8.5-10.7,15.3-13
		c0.4-0.2,0.9-0.3,1.4-0.4c6.9-1.9,14-1,19.9,2.1c5.9,3.1,10.7,8.5,13,15.3c0.1,0.2,0.2,0.4,0.2,0.6l0,0l0,0l-5.9,1.8l-1.4,0.4
		l7.3-2.3l17.6,57c0.2-0.4,0.4-0.9,0.6-1.3c3.3-6.2,9-11.2,16.2-13.4c7.3-2.2,14.7-1.3,20.9,2c3.8,2,7.1,4.9,9.6,8.4
		c3.4-5.8,8.9-10.5,15.9-12.6c7.4-2.3,14.9-1.3,21.2,2c6,3.2,10.8,8.4,13.2,15.2c3.3-5.3,8.3-9.5,14.7-11.6l0,0l0.1,0l0.1,0l0.1,0
		l0.1,0l0.1,0l0,0l0.2-0.1l0,0l0,0l1.6,5.3l0.6,2l-2.3-7.3c7.2-2.2,14.7-1.3,20.9,1.9c6.2,3.2,11.2,8.8,13.5,16
		C393.5,191.1,400.3,208.1,406.4,223.6L406.4,223.6z"/>
	<path class="st2" d="M146,175.1c-3.9,2-8,3.7-12.2,4.9c-5.8,1.7-11.7,2.5-17.7,2.5c-17.1,0-33.4-6.7-45.5-18.9
		c-12.1-12.1-18.9-28.4-18.9-45.5c0-17.1,6.7-33.4,18.9-45.5C82.7,60.5,99,53.8,116.1,53.8c5.9,0,11.7,0.8,17.4,2.4
		c5.7,1.6,11.1,3.9,16.1,7c5.4,3.3,7.1,10.4,3.8,15.8c-3.3,5.4-10.4,7.1-15.8,3.8c-3.2-2-6.7-3.5-10.3-4.5c-3.6-1-7.4-1.5-11.2-1.5
		c-11,0-21.5,4.3-29.2,12.1c-7.8,7.8-12.1,18.2-12.1,29.2s4.3,21.5,12.1,29.2c7.8,7.8,18.2,12.1,29.2,12.1c3.9,0,7.7-0.5,11.4-1.6
		c2.8-0.8,5.5-1.9,8-3.2l-6-11.6l33.3,10.7L152.1,187L146,175.1L146,175.1z"/>
	<rect class="st3" width="491.5" height="491.5"/>
</g>
</svg>
