<?xml version="1.0" encoding="UTF-8"?>
<!DOCTYPE svg PUBLIC "-//W3C//DTD SVG 1.1//EN" "http://www.w3.org/Graphics/SVG/1.1/DTD/svg11.dtd">
<!-- Creator: CorelDRAW -->
<svg xmlns="http://www.w3.org/2000/svg" xml:space="preserve" width="6.82666in" height="6.82666in" style="shape-rendering:geometricPrecision; text-rendering:geometricPrecision; image-rendering:optimizeQuality; fill-rule:evenodd; clip-rule:evenodd"
viewBox="0 0 6.82666 6.82666"
 xmlns:xlink="http://www.w3.org/1999/xlink">
 <defs>
  <style type="text/css">
   <![CDATA[
    .fil3 {fill:none}
    .fil0 {fill:#424242}
    .fil2 {fill:#FFFFFE}
    .fil1 {fill:#FFFFFE;fill-rule:nonzero}
   ]]>
  </style>
 </defs>
 <rect class="fil0" width="6.82666" height="6.82666"/>
 <g id="Layer_x0020_1">
  <metadata id="CorelCorpID_0Corel-Layer"/>
  <polygon class="fil1" points="2.64762,1.35133 2.64761,1.3513 2.64761,1.3513 "/>
  <path class="fil1" d="M5.64501 3.10572c0.251524,0.63511 0.428075,1.0809 0.239732,1.89301 -0.00260236,0.0112323 -0.00374409,0.0223307 -0.0034252,0.033 0.000259843,0.0086378 0.00152756,0.0175512 0.00379528,0.026563 0.000787402,0.00222835 0.00151181,0.00449213 0.00215748,0.00680315l-0.000204724 5.51181e-005 0.0507992 0.181409c0.000559055,0.0016063 0.00108661,0.00322835 0.0015748,0.00487795l-0.000188976 5.51181e-005 0.000401575 0.00144094 -5.11811e-005 1.5748e-005c0.0112047,0.039126 0.00577165,0.0792677 -0.0121929,0.112764 -0.0182756,0.0340984 -0.0493386,0.0612205 -0.0889016,0.0733976l-1.63165 0.502343c-0.00205512,0.000807087 -0.00415748,0.00155118 -0.0062874,0.00223622l-0.000862205 0.000275591 -0.000771654 0.000248031 -3.93701e-006 -7.87402e-006 -0.00129134 0.000401575 -0.0154606 -0.0521929 -9.05512e-005 8.26772e-005 0.0152559 0.0519173c-0.0394921,0.0116969 -0.0801339,0.00634252 -0.11402,-0.0118228 -0.0299291,-0.0160472 -0.0545,-0.0419567 -0.0682953,-0.0748189 -0.00184252,-0.00393307 -0.0034685,-0.00802362 -0.00484646,-0.0122559l-0.000377953 -0.00118504 -0.000248031 -0.000779528 3.93701e-006 0c-0.000370079,-0.00117717 -0.000716535,-0.00236614 -0.00104331,-0.00356693l0.102921 -0.0280236 -0.102917 0.0279173 -0.0327244 -0.120181 -3.54331e-005 -0.000114173 3.93701e-006 0 -0.000653543 -0.00240157 0.000181102 -5.11811e-005c-0.00485039,-0.0153701 -0.0124685,-0.029311 -0.0222835,-0.0411417 -0.00903543,-0.0108858 -0.0199134,-0.0202047 -0.0322126,-0.0274409 -0.753484,-0.269488 -0.921484,-0.492437 -1.17819,-0.833244 -0.130831,-0.173689 -0.286287,-0.380047 -0.5665,-0.642236 -0.0792323,-0.0526024 -0.133512,-0.130102 -0.158091,-0.216028 -0.0254134,-0.0888228 -0.018874,-0.187055 0.0248583,-0.276331 0.0452953,-0.0924646 0.122752,-0.159075 0.212488,-0.192425 0.0870315,-0.0323465 0.185476,-0.0336457 0.277295,0.00280315 0.170882,0.0409843 0.348937,0.200594 0.486961,0.346047l-0.649469 -2.10952c-0.00223228,-0.00561417 -0.00399606,-0.0114606 -0.00525197,-0.0174882 -0.0269803,-0.0962638 -0.013874,-0.194638 0.029622,-0.276843 0.0435945,-0.082378 0.117598,-0.148665 0.212339,-0.180551 0.00604331,-0.0025 0.0123622,-0.00446457 0.0189055,-0.00582677 0.0962559,-0.0269646 0.19463,-0.0138661 0.276815,0.0296339 0.0824882,0.0436535 0.148839,0.117803 0.180677,0.212717 0.00119291,0.00292126 0.00227165,0.00591732 0.00321654,0.00898819l-0.000295276 9.05512e-005 1.1811e-005 3.54331e-005 -0.0823386 0.025311 -0.0193228 0.00594882 0.101665 -0.031252 0.243752 0.79172c0.00276772,-0.00595276 0.00568504,-0.0118386 0.00875591,-0.0176417 0.0457283,-0.0864094 0.124425,-0.155382 0.22522,-0.186413 0.10074,-0.0310157 0.204417,-0.018315 0.290587,0.0272835 0.0524213,0.0277402 0.0984213,0.0676181 0.133429,0.117201 0.047311,-0.0810079 0.123965,-0.145185 0.220669,-0.174957 0.102256,-0.0314764 0.207488,-0.0185906 0.294957,0.0277008 0.0826929,0.0437638 0.149657,0.117272 0.183437,0.211291 0.0456063,-0.0732126 0.115961,-0.131469 0.203669,-0.160831l9.05512e-005 -3.54331e-005 0.00124016 -0.000503937 0.00158268 -0.000598425 0.000885827 -0.000334646 0.00138189 -0.000484252 0.00133465 -0.00046063 7.48031e-005 -2.75591e-005 0.00235827 -0.000755906 9.05512e-005 0.000295276 3.14961e-005 -1.1811e-005 0.0227362 0.0739685 0.00852756 0.0276929 -0.031252 -0.101665c0.100429,-0.0309173 0.203772,-0.0187165 0.289933,0.0261417 0.0862283,0.0449016 0.155543,0.122665 0.187839,0.222807 0.0883898,0.273728 0.182358,0.510992 0.267488,0.725961z"/>
  <path class="fil2" d="M2.02826 2.43248c-0.054,0.0283661 -0.110823,0.0512323 -0.169528,0.0680591 -0.0800433,0.0229449 -0.163059,0.0346457 -0.246331,0.0346457 -0.237886,0 -0.464154,-0.093748 -0.632335,-0.261929 -0.168181,-0.168189 -0.261929,-0.394449 -0.261929,-0.632339 0,-0.237886 0.093748,-0.46415 0.261929,-0.632335 0.168185,-0.168181 0.394449,-0.261929 0.632335,-0.261929 0.0815394,0 0.162815,0.0112913 0.241323,0.0332913 0.0785394,0.0220118 0.153843,0.0547283 0.223504,0.0971654 0.0750709,0.0457244 0.0990512,0.144732 0.0532835,0.219764 -0.0457441,0.075 -0.144661,0.0989567 -0.219677,0.0532598 -0.0446969,-0.0272244 -0.0930394,-0.0481575 -0.143425,-0.0622756 -0.0504213,-0.0141299 -0.10265,-0.0212047 -0.155008,-0.0212047 -0.152921,0 -0.297953,0.0600787 -0.406067,0.168197 -0.108118,0.108114 -0.168197,0.253146 -0.168197,0.406067 0,0.152921 0.0600827,0.297957 0.168197,0.406075 0.108114,0.108114 0.25315,0.168193 0.406067,0.168193 0.0535394,0 0.106913,-0.00746063 0.158382,-0.0222126 0.0385315,-0.0110433 0.0757992,-0.0261339 0.111161,-0.0449094l-0.0829134 -0.161173 0.46228 0.148217 -0.148217 0.462283 -0.0848346 -0.164909z"/>
  <rect class="fil3" width="6.82666" height="6.82666"/>
 </g>
</svg>
