<?xml version="1.0" encoding="UTF-8"?>
<!DOCTYPE svg PUBLIC "-//W3C//DTD SVG 1.1//EN" "http://www.w3.org/Graphics/SVG/1.1/DTD/svg11.dtd">
<!-- Creator: CorelDRAW -->
<svg xmlns="http://www.w3.org/2000/svg" xml:space="preserve" width="6.82666in" height="6.82666in" style="shape-rendering:geometricPrecision; text-rendering:geometricPrecision; image-rendering:optimizeQuality; fill-rule:evenodd; clip-rule:evenodd"
viewBox="0 0 6.82666 6.82666"
 xmlns:xlink="http://www.w3.org/1999/xlink">
 <defs>
  <style type="text/css">
   <![CDATA[
    .fil3 {fill:none}
    .fil0 {fill:#424242}
    .fil2 {fill:#FFFFFE}
    .fil1 {fill:#FFFFFE;fill-rule:nonzero}
   ]]>
  </style>
 </defs>
 <rect class="fil0" width="6.82666" height="6.82666"/>
 <g id="Layer_x0020_1">
  <metadata id="CorelCorpID_0Corel-Layer"/>
  <path class="fil1" d="M5.55428 3.60922c0.0553504,0.704425 0.0942008,1.19887 -0.339004,1.94412 -0.00615354,0.0105866 -0.0107244,0.0212874 -0.013622,0.031815 -0.00250394,0.00909449 -0.00406693,0.0183543 -0.00464961,0.027626 0.00015748,0.0028622 0.000204724,0.00575197 0.000129921,0.00866929l-0.000385827 -1.1811e-005 -0.00494094 0.192803c0.000145669,0.0025 0.000208661,0.00501969 0.000181102,0.00756299l-0.000377953 -3.93701e-006 -3.14961e-005 0.0012874 -3.14961e-005 0c-0.000905512,0.0415315 -0.0179685,0.0787402 -0.0450433,0.105524 -0.0279528,0.0276535 -0.0660472,0.0447126 -0.107748,0.0447126l-1.77594 0 0 -7.87402e-006 -0.000834646 3.93701e-006 0 -1.1811e-005 -0.000787402 3.93701e-006 3.93701e-006 -0.000413386c-0.0420512,-0.000511811 -0.0797992,-0.0176654 -0.106902,-0.045063 -0.0276575,-0.0279567 -0.0447205,-0.0660512 -0.0447205,-0.10776l7.87402e-006 0 -3.93701e-006 -0.000834646 7.87402e-006 0c3.93701e-006,-0.00105118 1.5748e-005,-0.0021063 5.11811e-005,-0.00316535l0.000362205 1.1811e-005 0.0040315 -0.122858c-9.84252e-005,-0.0021063 -0.000153543,-0.00422835 -0.000129921,-0.00636614l0.000338583 3.93701e-006 7.08661e-005 -0.00220866c-0.000161417,-0.0168622 -0.00369291,-0.033626 -0.0102441,-0.049374 -0.00676772,-0.0162717 -0.0166929,-0.0310827 -0.0293465,-0.0433976l-0.661051 -0.643429c-0.261713,-0.254701 -0.272799,-0.905417 -0.278835,-1.25964 -0.000283465,-0.0169449 -0.000566929,-0.0332913 -0.000905512,-0.0508346 -0.000393701,-0.00372441 -0.000598425,-0.0075 -0.000598425,-0.0113268 0,-0.274709 0.0664016,-0.461941 0.161638,-0.5745 0.0397362,-0.0469567 0.084811,-0.0816457 0.132882,-0.104925 0.0500236,-0.0242205 0.102303,-0.0358228 0.154524,-0.0358228 0.0540315,0 0.10778,0.0123071 0.158587,0.035748l0 -1.70811c0,-0.1065 0.0431772,-0.202933 0.112984,-0.27274 0.0698071,-0.0698071 0.166236,-0.112984 0.27274,-0.112984 0.106496,0 0.202929,0.0431811 0.272736,0.112984 0.0698031,0.0698071 0.112984,0.16624 0.112984,0.27274l0 0.866945c0.00644094,-0.00749213 0.0131575,-0.0147402 0.0201378,-0.0217205 0.0708819,-0.0708819 0.168799,-0.114724 0.276937,-0.114724 0.108138,0 0.206051,0.0438504 0.276933,0.114724 0.044248,0.044248 0.0779646,0.0990354 0.0970472,0.160268 0.0712441,-0.0674055 0.167398,-0.108748 0.273193,-0.108748 0.109772,0 0.209177,0.0445079 0.281134,0.116465 0.0694685,0.0694685 0.113346,0.16452 0.116299,0.269783 0.0697677,-0.062937 0.162169,-0.101256 0.263516,-0.101256 0.107366,0 0.204925,0.0432992 0.276087,0.11352 0.0710669,0.070122 0.115602,0.167232 0.117031,0.274969 0.00406693,0.297429 0.0247835,0.561075 0.0435551,0.799949z"/>
  <polygon class="fil1" points="4.98279,5.81943 4.98254,5.81979 5.03871,5.82023 5.03854,5.82006 "/>
  <polygon class="fil1" points="5.03854,5.82006 5.03871,5.82023 5.03875,5.82023 5.03875,5.82006 "/>
  <polygon class="fil1" points="5.03875,5.82006 5.03875,5.82023 5.08532,5.82059 "/>
  <path class="fil1" d="M1.59504 3.14666c0,0.0294528 0.0238819,0.0533346 0.0533346,0.0533346 0.0294528,0 0.0533346,-0.0238819 0.0533346,-0.0533346l0 -2.02667c0,-0.0294528 -0.0238819,-0.0533346 -0.0533346,-0.0533346 -0.0294528,0 -0.0533346,0.0238819 -0.0533346,0.0533346l0 2.02667z"/>
  <polygon class="fil2" points="1.48837,3.03018 1.48837,1.23648 1.27125,1.23648 1.64837,0.859362 2.0255,1.23648 1.80837,1.23648 1.80837,3.03018 2.0255,3.03018 1.64837,3.4073 1.27125,3.03018 "/>
  <rect class="fil3" width="6.82666" height="6.82666"/>
 </g>
</svg>
