<?xml version="1.0" encoding="utf-8"?>
<!-- Generator: Adobe Illustrator 24.2.3, SVG Export Plug-In . SVG Version: 6.00 Build 0)  -->
<svg version="1.1" id="Ebene_1" xmlns="http://www.w3.org/2000/svg" xmlns:xlink="http://www.w3.org/1999/xlink" x="0px" y="0px"
	 viewBox="0 0 491.5 491.5" style="enable-background:new 0 0 491.5 491.5;" xml:space="preserve">
<style type="text/css">
	.st0{display:none;fill-rule:evenodd;clip-rule:evenodd;fill:#424242;}
	.st1{fill:#FFFFFE;}
	.st2{fill-rule:evenodd;clip-rule:evenodd;fill:#FFFFFE;}
	.st3{fill:none;}
</style>
<rect class="st0" width="491.5" height="491.5"/>
<g id="Layer_x0020_1">
	<path class="st1" d="M399.9,259.9c4,50.7,6.8,86.3-24.4,140c-0.4,0.8-0.8,1.5-1,2.3c-0.2,0.7-0.3,1.3-0.3,2c0,0.2,0,0.4,0,0.6l0,0
		l-0.4,13.9c0,0.2,0,0.4,0,0.5l0,0l0,0.1h0c-0.1,3-1.3,5.7-3.2,7.6c-2,2-4.8,3.2-7.8,3.2H234.9v0l-0.1,0v0l-0.1,0l0,0
		c-3,0-5.7-1.3-7.7-3.2c-2-2-3.2-4.8-3.2-7.8h0l0-0.1h0c0-0.1,0-0.2,0-0.2l0,0l0.3-8.8c0-0.2,0-0.3,0-0.5l0,0l0-0.2
		c0-1.2-0.3-2.4-0.7-3.6c-0.5-1.2-1.2-2.2-2.1-3.1l-47.6-46.3c-18.8-18.3-19.6-65.2-20.1-90.7c0-1.2,0-2.4-0.1-3.7
		c0-0.3,0-0.5,0-0.8c0-19.8,4.8-33.3,11.6-41.4c2.9-3.4,6.1-5.9,9.6-7.6c3.6-1.7,7.4-2.6,11.1-2.6c3.9,0,7.8,0.9,11.4,2.6v-123
		c0-7.7,3.1-14.6,8.1-19.6c5-5,12-8.1,19.6-8.1c7.7,0,14.6,3.1,19.6,8.1c5,5,8.1,12,8.1,19.6v62.4c0.5-0.5,0.9-1.1,1.4-1.6
		c5.1-5.1,12.2-8.3,19.9-8.3s14.8,3.2,19.9,8.3c3.2,3.2,5.6,7.1,7,11.5c5.1-4.9,12.1-7.8,19.7-7.8c7.9,0,15.1,3.2,20.2,8.4
		c5,5,8.2,11.8,8.4,19.4c5-4.5,11.7-7.3,19-7.3c7.7,0,14.8,3.1,19.9,8.2c5.1,5,8.3,12,8.4,19.8C397.1,223.7,398.6,242.7,399.9,259.9
		L399.9,259.9z"/>
	<polygon class="st1" points="358.8,419 358.7,419 362.8,419.1 362.8,419 	"/>
	<polygon class="st1" points="362.8,419 362.8,419.1 362.8,419.1 362.8,419 	"/>
	<polygon class="st1" points="362.8,419 362.8,419.1 366.1,419.1 	"/>
	<path class="st1" d="M114.8,226.6c0,2.1,1.7,3.8,3.8,3.8c2.1,0,3.8-1.7,3.8-3.8V80.6c0-2.1-1.7-3.8-3.8-3.8c-2.1,0-3.8,1.7-3.8,3.8
		V226.6z"/>
	<polygon class="st2" points="107.2,218.2 107.2,89 91.5,89 118.7,61.9 145.8,89 130.2,89 130.2,218.2 145.8,218.2 118.7,245.3 
		91.5,218.2 	"/>
	<rect class="st3" width="491.5" height="491.5"/>
</g>
</svg>
