<?xml version="1.0" encoding="utf-8"?>
<!-- Generator: Adobe Illustrator 24.2.3, SVG Export Plug-In . SVG Version: 6.00 Build 0)  -->
<svg version="1.1" id="Ebene_1" xmlns="http://www.w3.org/2000/svg" xmlns:xlink="http://www.w3.org/1999/xlink" x="0px" y="0px"
	 viewBox="0 0 491.5 491.5" style="enable-background:new 0 0 491.5 491.5;" xml:space="preserve">
<style type="text/css">
	.st0{display:none;fill-rule:evenodd;clip-rule:evenodd;fill:#424242;}
	.st1{fill:#FFFFFE;}
	.st2{fill-rule:evenodd;clip-rule:evenodd;fill:#FFFFFE;}
	.st3{fill:none;}
</style>
<rect class="st0" width="491.5" height="491.5"/>
<g id="Layer_x0020_1">
	<path class="st1" d="M363.9,230.7c18,43.5,30.7,74,18.6,130.1c-0.2,0.7-0.2,1.4-0.2,2.1c0,0.5,0.1,1.1,0.3,1.7
		c0.1,0.1,0.1,0.3,0.1,0.4l-7.6,2.3l7.6-2.2l3.6,12.3c0.1,0.1,0.1,0.3,0.1,0.4l0,0l0,0l0,0c0.9,2.9,0.6,5.8-0.7,8.3
		c-1.3,2.5-3.5,4.5-6.4,5.4l-111.6,36.3c-0.2,0.1-0.3,0.1-0.5,0.2l-1.1-3.5l0,0l1.1,3.5l0,0c-2.9,0.9-5.8,0.6-8.3-0.7
		c-2.2-1.2-4.1-3.1-5.1-5.5c-0.1-0.3-0.3-0.6-0.4-0.9h0c0-0.1,0-0.1-0.1-0.2l0,0l-2.2-7.7c-0.1-0.2-0.1-0.3-0.2-0.5l0,0l0,0l0,0
		c-0.3-1-0.8-1.9-1.5-2.7c-0.6-0.7-1.3-1.3-2.1-1.7c-52.1-17.7-63.9-32.9-82-56.1c-9.2-11.8-20-25.7-39.5-43.4
		c-5.6-3.6-9.5-9-11.3-15c-1.9-6.2-1.6-13.1,1.4-19.4c3.1-6.6,8.5-11.3,14.7-13.8c6.1-2.4,13-2.6,19.5-0.1
		c11.2,2.5,22.8,12.2,32.2,21.5l-46.1-141.8c-0.1-0.1-0.1-0.3-0.2-0.5l0,0l0,0l4.1-1.3l3.5-1.1l-7.5,2.5c-2.3-6.9-1.5-14.2,1.6-20.2
		c3-5.9,8.2-10.6,14.8-13c0.2-0.1,0.4-0.1,0.6-0.2l0,0l0,0l1.5,4.6l0.9,2.9l-2.5-7.5c6.9-2.3,14.2-1.5,20.2,1.6
		c6,3.1,10.9,8.4,13.1,15.4l17.1,52.6c3-5.9,8.3-10.6,15-13c0.2-0.1,0.4-0.1,0.6-0.2l0,0h0l0.6,1.7l1.9,5.8l-2.5-7.5
		c7.1-2.3,14.4-1.5,20.5,1.6c3.4,1.7,6.5,4.2,8.9,7.3c3.2-5.2,8.1-9.4,14.3-11.5c0.4-0.2,0.8-0.3,1.2-0.4c7-2.1,14.2-1.3,20.2,1.8
		c5.5,2.8,10.1,7.5,12.7,13.5c3.1-4.7,7.8-8.5,13.6-10.5c0.2-0.1,0.4-0.1,0.6-0.2l0,0l0,0l1.5,4.6l0.9,2.9l-2.5-7.5
		c7-2.3,14.3-1.5,20.4,1.5c6.1,3.1,11.1,8.4,13.5,15.4C351.2,200.1,357.9,216.1,363.9,230.7L363.9,230.7z"/>
	<path class="st2" d="M75.7,78.8c28.7-8,58.3-14.6,88-16.7c29-2,57.9,0.5,85.4,10.2c0.5,0.2,0.9,0.4,1.3,0.6l-1.1,3.7l-0.1,0
		l-5.2,18.1c-0.9-0.1-1.8-0.3-2.6-0.6c-24.5-8.7-50.3-10.7-76.2-8.9C137.2,87,109,93.4,81.9,101c-6.1,1.7-12.5-1.9-14.2-8
		C66,86.9,69.6,80.5,75.7,78.8L75.7,78.8z"/>
	<polygon class="st2" points="84.4,76.5 84.5,76.5 90.9,98.6 90.7,98.7 95,113.7 61.4,95.1 80.1,61.5 	"/>
	<rect class="st3" width="491.5" height="491.5"/>
</g>
</svg>
