<?xml version="1.0" encoding="UTF-8"?>
<!DOCTYPE svg PUBLIC "-//W3C//DTD SVG 1.1//EN" "http://www.w3.org/Graphics/SVG/1.1/DTD/svg11.dtd">
<!-- Creator: CorelDRAW -->
<svg xmlns="http://www.w3.org/2000/svg" xml:space="preserve" width="6.82666in" height="6.82666in" style="shape-rendering:geometricPrecision; text-rendering:geometricPrecision; image-rendering:optimizeQuality; fill-rule:evenodd; clip-rule:evenodd"
viewBox="0 0 6.82666 6.82666"
 xmlns:xlink="http://www.w3.org/1999/xlink">
 <defs>
  <style type="text/css">
   <![CDATA[
    .fil3 {fill:none}
    .fil0 {fill:#424242}
    .fil2 {fill:#FFFFFE}
    .fil1 {fill:#FFFFFE;fill-rule:nonzero}
   ]]>
  </style>
 </defs>
 <rect class="fil0" width="6.82666" height="6.82666"/>
 <g id="Layer_x0020_1">
  <metadata id="CorelCorpID_0Corel-Layer"/>
  <path class="fil1" d="M5.05393 3.20369c0.250228,0.603657 0.42587,1.02737 0.258051,1.80709 -0.00216142,0.0100591 -0.00302362,0.0199528 -0.00259449,0.0294291 0.000350394,0.00762598 0.0016378,0.0155709 0.00385039,0.0236929 0.000704724,0.00194882 0.00135827,0.00393307 0.00195669,0.00594882l-0.105748 0.0314291 0.105579 -0.0310276 0.050689 0.170535c0.000724409,0.00193307 0.00140551,0.0038937 0.00202756,0.00588189l-0.000255906 8.26772e-005 4.72441e-005 0.00015748 7.48031e-005 -2.3622e-005c0.0124685,0.0398268 0.00769685,0.0810906 -0.0101417,0.115681 -0.017874,0.0346142 -0.0488031,0.0624724 -0.0886339,0.0754252l-1.54967 0.504189c-0.0023937,0.000940945 -0.00483858,0.00181102 -0.00733071,0.00259843l-0.0154213 -0.0489764 -0.000145669 0.000129921 0.015189 0.0487638 -0.000440945 0.000137795c-0.0397953,0.0124961 -0.0810591,0.00770866 -0.115673,-0.0101339 -0.0309843,-0.0159882 -0.0565394,-0.0424409 -0.0708622,-0.0763819 -0.00194488,-0.00422835 -0.00365354,-0.00862205 -0.00508661,-0.0131772l3.93701e-006 0c-0.00030315,-0.000956693 -0.000602362,-0.00192126 -0.00088189,-0.0028937l0.00038189 -0.000110236 -0.0311378 -0.107571c-0.000818898,-0.00212992 -0.00157874,-0.00429528 -0.00227165,-0.0065l0.000354331 -0.000110236 -5.90551e-005 -0.000212598 -0.000177165 5.11811e-005c-0.00443701,-0.0141496 -0.0116496,-0.0270472 -0.0210354,-0.0379961 -0.00806299,-0.00940551 -0.0178268,-0.0174606 -0.0289016,-0.0237205 -0.723846,-0.246189 -0.888055,-0.457031 -1.13886,-0.779228 -0.12713,-0.163319 -0.278177,-0.357335 -0.548441,-0.602343 -0.0774528,-0.049874 -0.131256,-0.1245 -0.156571,-0.207961 -0.0262795,-0.0866142 -0.0215748,-0.182563 0.0195118,-0.269941 0.0428386,-0.0910709 0.117559,-0.157398 0.204823,-0.191421 0.0842874,-0.0328543 0.180165,-0.0356535 0.270165,-0.00158661 0.155142,0.0350512 0.316988,0.169209 0.447323,0.298811l-0.640579 -1.96887c-0.000807087,-0.00204724 -0.00155906,-0.00412992 -0.00224803,-0.00625197l0.00019685 -6.29921e-005 -3.93701e-006 -7.87402e-006 0.0563701 -0.0183268 0.0483425 -0.0157283 -0.104717 0.0340472c-0.0313976,-0.0965276 -0.0207638,-0.196547 0.0218268,-0.280217 0.0414528,-0.0814449 0.113244,-0.147531 0.206051,-0.179972 0.0025,-0.00101969 0.00505906,-0.00196457 0.00766929,-0.00281102l6.29921e-005 0.00019685 1.5748e-005 -3.93701e-006 0.0209213 0.0643661 0.0131299 0.0403465 -0.0340433 -0.104717c0.0965236,-0.0314055 0.196555,-0.0207598 0.280224,0.0218268 0.0836929,0.0426024 0.151181,0.117244 0.182594,0.213803l0.237799 0.730898c0.0422559,-0.081689 0.114697,-0.147894 0.208102,-0.180512 0.00250394,-0.00102362 0.00506299,-0.00196457 0.00767717,-0.00281496l6.69291e-005 0.00019685 3.93701e-006 0 0.00780315 0.0240157 0.0262559 0.0806929 -0.0340433 -0.104717c0.0979488,-0.0318661 0.199472,-0.0210669 0.284394,0.0221575 0.0477047,0.0242835 0.0902205,0.0588228 0.123976,0.101791 0.0439567,-0.0721575 0.112256,-0.130039 0.197976,-0.160039 0.00517717,-0.00214567 0.0105591,-0.00389764 0.0161024,-0.00524409 0.0969094,-0.0292205 0.196709,-0.017689 0.280571,0.0249882 0.0764921,0.038937 0.139827,0.10385 0.175724,0.187457 0.0436654,-0.065689 0.108354,-0.118118 0.188339,-0.146035 0.00249213,-0.00101969 0.00504331,-0.00195669 0.00764567,-0.00280315l6.29921e-005 0.00019685 1.5748e-005 -3.93701e-006 0.0209213 0.0643661 0.0131299 0.0403465 -0.0340433 -0.104717c0.0971417,-0.0316024 0.198197,-0.0211378 0.283299,0.0214685 0.0851693,0.0426457 0.154146,0.117354 0.187079,0.214165 0.0896417,0.263232 0.18198,0.48598 0.265646,0.687807z"/>
  <path class="fil2" d="M1.05172 1.09419c0.398091,-0.111551 0.809055,-0.203268 1.2223,-0.231858 0.40311,-0.0278898 0.803567,0.00631496 1.18601,0.141543 0.00638583,0.00225591 0.0125354,0.00488189 0.0184409,0.00783858l-0.0146575 0.0513031 -0.002 -0.000570866 -0.0717874 0.251252c-0.0122087,-0.00129134 -0.0244567,-0.00400787 -0.0365315,-0.00827953 -0.340563,-0.120417 -0.698886,-0.148839 -1.05767,-0.124016 -0.390882,0.0270472 -0.781264,0.115193 -1.1578,0.220701 -0.0848622,0.0237795 -0.173307,-0.0259213 -0.197106,-0.110783 -0.0237992,-0.0848701 0.0259173,-0.173346 0.110799,-0.19713z"/>
  <polygon class="fil2" points="1.17198,1.06301 1.17398,1.06244 1.2619,1.37013 1.2599,1.3707 1.31955,1.57947 0.853331,1.32046 1.11233,0.85424 "/>
  <rect class="fil3" width="6.82666" height="6.82666"/>
 </g>
</svg>
