<?xml version="1.0" encoding="utf-8"?>
<!-- Generator: Adobe Illustrator 24.2.3, SVG Export Plug-In . SVG Version: 6.00 Build 0)  -->
<svg version="1.1" id="Ebene_1" xmlns="http://www.w3.org/2000/svg" xmlns:xlink="http://www.w3.org/1999/xlink" x="0px" y="0px"
	 viewBox="0 0 491.5 491.5" style="enable-background:new 0 0 491.5 491.5;" xml:space="preserve">
<style type="text/css">
	.st0{display:none;fill-rule:evenodd;clip-rule:evenodd;fill:#424242;}
	.st1{fill:#FFFFFE;}
	.st2{fill-rule:evenodd;clip-rule:evenodd;fill:#FFFFFE;}
	.st3{fill:none;}
</style>
<rect class="st0" width="491.5" height="491.5"/>
<g id="Layer_x0020_1">
	<polygon class="st1" points="247,427.1 247,427.1 243.2,425 243.1,425 	"/>
	<polygon class="st1" points="247.8,218.9 247.9,218.9 247.9,218.9 247.8,218.9 	"/>
	<polygon class="st1" points="244.4,217.1 244.4,217.1 244.4,217.1 244.4,217.1 	"/>
	<polygon class="st1" points="244.4,217.1 244.4,217.1 244.4,217.1 244.4,217.1 	"/>
	<polygon class="st1" points="244.4,217.1 244.4,217.1 244.4,217.1 244.4,217.1 	"/>
	<polygon class="st1" points="242.6,220.4 244.4,217.1 244.4,217.1 	"/>
	<polygon class="st1" points="333.9,234.5 333.9,234.5 329.8,232.3 329.6,232.2 	"/>
	<path class="st1" d="M337.8,314.4c-17.1,39.3-29.1,66.8-73.5,94.4c-0.6,0.3-1.1,0.7-1.5,1.2c-0.3,0.3-0.6,0.7-0.9,1.1
		c-0.1,0.2-0.2,0.3-0.3,0.5l-6.3-3.6l6.3,3.6l-5.7,10.1c-0.1,0.1-0.1,0.3-0.2,0.4l0,0l-0.1,0.1l0,0c-1.3,2.4-3.5,4-5.9,4.7
		c-2.3,0.7-4.9,0.6-7.2-0.6c-0.1-0.1-0.2-0.1-0.4-0.2l3.4-6.4l-3.4,6.4l-94.1-50.1c-0.2-0.1-0.3-0.2-0.5-0.2l0,0l-0.1-0.1l0,0
		l-0.1,0l0,0c-2.4-1.3-4.1-3.5-4.8-5.9c-0.6-2.1-0.6-4.4,0.3-6.5c0.1-0.4,0.3-0.8,0.5-1.1l0,0c0-0.1,0.1-0.1,0.1-0.2l0,0l3.6-6.3
		c0.1-0.2,0.1-0.3,0.2-0.5l0,0c0.5-0.9,0.7-1.8,0.8-2.7c0.1-0.8,0-1.6-0.2-2.4c-21.3-45.4-18.8-62.7-15-89.2
		c1.9-13.4,4.2-29.4,3.5-53.3c-1.2-5.9-0.1-11.9,2.7-16.9c2.9-5.2,7.6-9.3,13.7-11.4c6.2-2.1,12.7-1.6,18.3,1
		c5.3,2.5,9.8,6.8,12.3,12.6c5.5,8.9,6.5,22.7,6.3,34.8l64-120.2c3.1-5.9,8.3-9.9,14.2-11.7c5.6-1.7,11.9-1.4,17.6,1.4
		c0.5,0.2,0.9,0.4,1.4,0.7c5.5,3.2,9.3,8.2,11,13.8c1.7,5.6,1.4,11.9-1.4,17.6c-0.2,0.4-0.4,0.9-0.7,1.3l-23.4,43.9
		c5.7-1.7,12.1-1.3,17.8,1.5l0.1,0c0.1,0,0.1,0.1,0.2,0.1c0.1,0,0.1,0.1,0.2,0.1l0,0l0,0c0.1,0,0.1,0.1,0.2,0.1l0,0l0,0l-2.9,5.5
		l-0.5,0.9l3.4-6.4c5.9,3.2,10,8.4,11.9,14.4c1,3.4,1.3,6.9,0.8,10.5c5.3-1.2,11.1-0.6,16.4,2c0.2,0.1,0.5,0.2,0.7,0.3l0,0l0,0
		l-3.2,6.1l-0.1,0.3l3.4-6.4c6,3.2,10.2,8.6,12,14.6c1.6,5.4,1.5,11.3-0.9,16.8c5-0.9,10.4-0.3,15.3,2.1c0.5,0.2,0.9,0.4,1.4,0.7
		c5.6,3.2,9.4,8.3,11.2,14c1.9,5.9,1.5,12.6-1.6,18.6C349.9,286.9,343.6,301.3,337.8,314.4L337.8,314.4z"/>
	<path class="st2" d="M358.7,78.8c-28.7-8-58.3-14.6-88-16.7c-29-2-57.9,0.5-85.4,10.2c-0.5,0.2-0.9,0.4-1.3,0.6l1.1,3.7l0.1,0
		l5.2,18.1c0.9-0.1,1.8-0.3,2.6-0.6c24.5-8.7,50.3-10.7,76.2-8.9c28.1,1.9,56.3,8.3,83.4,15.9c6.1,1.7,12.5-1.9,14.2-8
		C368.4,86.9,364.8,80.5,358.7,78.8L358.7,78.8z"/>
	<polygon class="st2" points="350.1,76.5 349.9,76.5 343.6,98.6 343.7,98.7 339.4,113.7 373,95.1 354.3,61.5 	"/>
	<rect class="st3" width="491.5" height="491.5"/>
</g>
</svg>
