<?xml version="1.0" encoding="UTF-8"?>
<!DOCTYPE svg PUBLIC "-//W3C//DTD SVG 1.1//EN" "http://www.w3.org/Graphics/SVG/1.1/DTD/svg11.dtd">
<!-- Creator: CorelDRAW -->
<svg xmlns="http://www.w3.org/2000/svg" xml:space="preserve" width="6.82666in" height="6.82666in" style="shape-rendering:geometricPrecision; text-rendering:geometricPrecision; image-rendering:optimizeQuality; fill-rule:evenodd; clip-rule:evenodd"
viewBox="0 0 6.82666 6.82666"
 xmlns:xlink="http://www.w3.org/1999/xlink">
 <defs>
  <style type="text/css">
   <![CDATA[
    .fil3 {fill:none}
    .fil0 {fill:#424242}
    .fil2 {fill:#FFFFFE}
    .fil1 {fill:#FFFFFE;fill-rule:nonzero}
   ]]>
  </style>
 </defs>
 <rect class="fil0" width="6.82666" height="6.82666"/>
 <g id="Layer_x0020_1">
  <metadata id="CorelCorpID_0Corel-Layer"/>
  <polygon class="fil1" points="3.43059,5.93186 3.43063,5.93179 3.37724,5.90259 3.37705,5.90269 "/>
  <polygon class="fil1" points="3.44213,3.03988 3.44244,3.04005 3.44245,3.04004 3.44213,3.03987 "/>
  <polygon class="fil1" points="3.39498,3.01484 3.39498,3.01483 3.39496,3.01483 3.39496,3.01483 "/>
  <polygon class="fil1" points="3.3949,3.01498 3.39493,3.01493 3.39491,3.01491 3.39488,3.01498 "/>
  <polygon class="fil1" points="3.39486,3.01506 3.3949,3.01498 3.39488,3.01498 3.39483,3.01507 "/>
  <polygon class="fil1" points="3.37006,3.06157 3.39486,3.01506 3.39483,3.01507 "/>
  <polygon class="fil1" points="4.63772,3.25725 4.63773,3.25725 4.581,3.22699 4.57744,3.2251 "/>
  <path class="fil1" d="M4.69233 4.36735c-0.237406,0.545185 -0.404043,0.927858 -1.02152,1.31081 -0.00774803,0.00480709 -0.0145866,0.0103346 -0.0203504,0.0164252 -0.00445276,0.00470079 -0.00854724,0.0100512 -0.0122165,0.0159606 -0.00109843,0.00233858 -0.00228346,0.00465354 -0.0035748,0.00693701l-0.0874055 -0.049437 0.0870787 0.0494252 -0.0795945 0.140728c-0.000862205,0.00183071 -0.00177953,0.00365354 -0.00276378,0.00545276l-0.000244094 -0.000129921 -0.000775591 0.00137008 -6.69291e-005 -3.93701e-005c-0.0185079,0.0328898 -0.0481654,0.0554449 -0.0814606,0.0654055 -0.0322559,0.00966535 -0.0679409,0.00771654 -0.100252,-0.00785827 -0.00171654,-0.000791339 -0.00341732,-0.00163386 -0.00511024,-0.0025315l0.0471811 -0.0886457 -0.0470669 0.0882598 -1.30696 -0.695626c-0.00235039,-0.000996063 -0.00466929,-0.00209449 -0.0069685,-0.0032874l-0.000161417 -7.87402e-005 -0.00139764 -0.000732283 3.93701e-006 -7.87402e-006 -0.000771654 -0.000405512 0.000177165 -0.000322835c-0.0336575,-0.0183937 -0.0567362,-0.0484528 -0.0668622,-0.0822598 -0.00859449,-0.0287362 -0.00780315,-0.0604528 0.00385827,-0.0902244 0.00179528,-0.00532283 0.00406299,-0.0105709 0.00682283,-0.015685l3.93701e-006 3.93701e-006c0.000488189,-0.000905512 0.000984252,-0.0018189 0.00150394,-0.00272047l0.000377953 0.000220472 0.0503937 -0.0876378c0.000984252,-0.00214173 0.00204331,-0.00426378 0.00318898,-0.00636614l0.000318898 0.000177165c0.00645276,-0.0118504 0.0103504,-0.0247598 0.0115984,-0.0378819 0.0010748,-0.0112992 0.000204724,-0.0227874 -0.00266929,-0.0339449 -0.296,-0.629866 -0.261575,-0.87065 -0.208906,-1.23855 0.0267165,-0.186618 0.0584449,-0.408295 0.0483307,-0.739591 -0.0164528,-0.0825787 -0.00165354,-0.165126 0.0370039,-0.234374 0.0402756,-0.0721496 0.106248,-0.129843 0.189594,-0.158161 0.0865315,-0.0293976 0.177043,-0.0223189 0.254413,0.0133465 0.074189,0.0342008 0.136311,0.0949843 0.171185,0.175339 0.0757205,0.123854 0.0901299,0.315445 0.0875236,0.483264l0.88852 -1.66938c0.0433071,-0.0813701 0.115618,-0.137531 0.1975,-0.162524 0.0784094,-0.0239331 0.165657,-0.0191024 0.244602,0.0196929 0.00664961,0.00265354 0.013063,0.00604331 0.0191339,0.0101772 0.0763268,0.0437638 0.129146,0.113614 0.153173,0.192323 0.0239331,0.0784173 0.0191102,0.165665 -0.0196969,0.244614 -0.00244488,0.00612598 -0.00551575,0.0120709 -0.00922047,0.0177126l-0.324768 0.610185c0.0793504,-0.0238661 0.167488,-0.0187441 0.24724,0.020563l0.00137795 0.000574803c0.000893701,0.000374016 0.00178346,0.000767717 0.00267323,0.00116929 0.000992126,0.000448819 0.00198425,0.00092126 0.00296457,0.00140551l0.000397638 0.000188976 1.1811e-005 7.87402e-006c0.00076378,0.000374016 0.00151969,0.000779528 0.00227953,0.00117717l-0.000185039 0.000346457 6.29921e-005 3.14961e-005 -0.040374 0.0757008 -0.00668504 0.012563 0.0470709 -0.0882598c0.0825787,0.0439528 0.139563,0.117343 0.164929,0.200437 0.0142402,0.0466378 0.0184567,0.0963543 0.0115748,0.145654 0.0742283,-0.0167362 0.15437,-0.009 0.227547,0.0271102 0.00327559,0.0013189 0.00650787,0.00282283 0.00969685,0.00451969l-0.000185039 0.000346457 6.69291e-005 3.54331e-005 -0.0450945 0.0845512 -0.00197244 0.00370472 0.0470709 -0.0882559c0.0837953,0.0446024 0.141622,0.119067 0.167358,0.203378 0.0228189,0.0747638 0.0202559,0.157335 -0.0119567,0.233677 0.0696339,-0.0128425 0.143776,-0.00411811 0.21185,0.0293898 0.00662598,0.00264567 0.0130236,0.00602362 0.0190787,0.0101378 0.0773858,0.0442677 0.131161,0.114618 0.155949,0.193933 0.0257677,0.0824646 0.0202953,0.174772 -0.0224331,0.257705 -0.116295,0.22589 -0.203768,0.426768 -0.283024,0.608776z"/>
  <path class="fil2" d="M4.98212 1.09419c-0.398091,-0.111551 -0.809055,-0.203268 -1.2223,-0.231858 -0.40311,-0.0278898 -0.803567,0.00631496 -1.18601,0.141543 -0.00638583,0.00225591 -0.0125354,0.00488189 -0.0184409,0.00783858l0.0146575 0.0513031 0.002 -0.000570866 0.0717874 0.251252c0.0122087,-0.00129134 0.0244567,-0.00400787 0.0365315,-0.00827953 0.340563,-0.120417 0.698886,-0.148839 1.05767,-0.124016 0.390882,0.0270472 0.781264,0.115193 1.1578,0.220701 0.0848622,0.0237795 0.173307,-0.0259213 0.197106,-0.110783 0.0237992,-0.0848701 -0.0259173,-0.173346 -0.110799,-0.19713z"/>
  <polygon class="fil2" points="4.86186,1.06301 4.85986,1.06244 4.77195,1.37013 4.77395,1.3707 4.7143,1.57947 5.18052,1.32046 4.92151,0.85424 "/>
  <rect class="fil3" width="6.82666" height="6.82666"/>
 </g>
</svg>
