<?xml version="1.0" encoding="UTF-8"?>
<!DOCTYPE svg PUBLIC "-//W3C//DTD SVG 1.1//EN" "http://www.w3.org/Graphics/SVG/1.1/DTD/svg11.dtd">
<!-- Creator: CorelDRAW -->
<svg xmlns="http://www.w3.org/2000/svg" xml:space="preserve" width="6.82666in" height="6.82666in" style="shape-rendering:geometricPrecision; text-rendering:geometricPrecision; image-rendering:optimizeQuality; fill-rule:evenodd; clip-rule:evenodd"
viewBox="0 0 6.82666 6.82666"
 xmlns:xlink="http://www.w3.org/1999/xlink">
 <defs>
  <style type="text/css">
   <![CDATA[
    .fil3 {fill:none}
    .fil0 {fill:#424242}
    .fil2 {fill:#FFFFFE}
    .fil1 {fill:#FFFFFE;fill-rule:nonzero}
   ]]>
  </style>
 </defs>
 <rect class="fil0" width="6.82666" height="6.82666"/>
 <g id="Layer_x0020_1">
  <metadata id="CorelCorpID_0Corel-Layer"/>
  <polygon class="fil1" points="4.61548,5.82384 4.61525,5.82418 4.6756,5.82466 4.67546,5.82451 "/>
  <polygon class="fil1" points="3.0692,5.82401 3.06917,5.82405 3.06917,5.82419 3.0692,5.82416 "/>
  <polygon class="fil1" points="3.06881,5.8244 3.06883,5.8244 3.06883,5.82438 "/>
  <path class="fil1" d="M5.15154 4.2747c0.0377992,0.498579 0.052626,0.694177 -0.307421,1.31356 -0.00515354,0.00887402 -0.00896063,0.0177402 -0.0113346,0.0263701 -0.002,0.00727165 -0.00328346,0.0146614 -0.00380709,0.0220433 0.000145669,0.00277165 0.000185039,0.00557087 0.000114173,0.0083937l-0.000385827 -1.1811e-005 -0.00445276 0.173622c0.000145669,0.00248031 0.000212598,0.00498031 0.000185039,0.00750394l-0.000377953 -3.93701e-006 -3.14961e-005 0.00130315 -2.75591e-005 0c-0.000771654,0.0349764 -0.0133465,0.0667756 -0.033815,0.091563 -0.00299606,0.00392913 -0.00629134,0.00770079 -0.00990157,0.0112717l-0.0750118 -0.0758346 0.075 0.0758346c-0.0268898,0.0265984 -0.0638661,0.0430118 -0.104626,0.0430118l-1.60681 0 0 -1.1811e-005 -0.000929134 3.93701e-006 3.93701e-006 -0.000409449 -0.000362205 -3.93701e-006c-0.0401417,-0.00042126 -0.0761496,-0.0162205 -0.10235,-0.0416339l-0.000767717 -0.000748031 -0.000267717 -0.00026378 -0.00109055 -0.0010748 7.87402e-006 -7.87402e-006 -2.75591e-005 -2.3622e-005 0.000212598 -0.000208661c-0.0267441,-0.027126 -0.0432362,-0.0640354 -0.0432362,-0.104429l1.1811e-005 0 -3.93701e-006 -0.00092126c3.93701e-006,-0.00100787 2.3622e-005,-0.00201575 5.51181e-005,-0.0030315l0.000362205 1.1811e-005 0.00362205 -0.110331c-9.84252e-005,-0.0021063 -0.000153543,-0.00422835 -0.000129921,-0.00636614l0.000338583 3.93701e-006 6.69291e-005 -0.00209449c-0.000177165,-0.0138189 -0.00311024,-0.0275906 -0.00850787,-0.0405748 -0.0056063,-0.0134803 -0.013811,-0.0257283 -0.024252,-0.0358898 -0.675346,-0.65735 -0.689189,-0.696303 -0.927331,-1.36665 -0.0323543,-0.0910669 -0.0687795,-0.193598 -0.105626,-0.294768l-0.111276 -0.128398c-0.0618701,-0.0713819 -0.0917323,-0.160469 -0.0899646,-0.248969 0.00177165,-0.0886142 0.0352008,-0.176528 0.0999252,-0.245429 0.0672047,-0.0715354 0.156665,-0.110508 0.248118,-0.11574 0.0911811,-0.00521654 0.184339,0.023311 0.259291,0.0867323 0.060937,0.0515551 0.206843,0.291024 0.321795,0.482331l0 -2.11466c0,-0.0991614 0.0402087,-0.188957 0.105201,-0.253949 0.0649921,-0.0649921 0.154776,-0.105201 0.253945,-0.105201 0.0991575,0 0.188953,0.0402087 0.253945,0.105201 0.0649921,0.065 0.105201,0.154787 0.105201,0.253949l0 0.758437 0.000877953 -0.000889764c0.0659685,-0.0659685 0.157102,-0.106776 0.257744,-0.106776 0.100642,0 0.191776,0.0408071 0.257744,0.106776 0.0375512,0.0375512 0.0669409,0.0832559 0.0853031,0.134228 0.0649331,-0.0564291 0.149732,-0.0905945 0.242496,-0.0905945 0.102126,0 0.194598,0.0414094 0.261539,0.10835 0.0600354,0.0600354 0.0995276,0.14061 0.107039,0.230264 0.0627795,-0.0505157 0.142575,-0.0807638 0.229413,-0.0807638l7.87402e-006 0c0.0998898,0 0.190669,0.0402953 0.256898,0.105646 0.066122,0.065248 0.107567,0.155618 0.108898,0.255886l0.00732677 0.549669c0.00355118,0.256933 0.0188307,0.458429 0.0314331,0.624697z"/>
  <path class="fil2" d="M2.47986 2.46545c-0.123728,-0.0689764 -0.230181,-0.165965 -0.310835,-0.283929 -0.104563,-0.152941 -0.160488,-0.333476 -0.160488,-0.518776 0,-0.244567 0.096378,-0.477181 0.269283,-0.650091 0.172909,-0.172906 0.405524,-0.269283 0.650091,-0.269283 0.244567,0 0.477185,0.096374 0.650091,0.26928 0.172906,0.172909 0.26928,0.405528 0.26928,0.650094 0,0.180598 -0.0531693,0.356823 -0.152835,0.50739 -0.0140551,0.0212323 -0.0289409,0.041811 -0.0446142,0.0616929 -0.0282638,-0.00525197 -0.0571654,-0.00794488 -0.0863937,-0.00794488 -0.0522205,0 -0.103508,0.00851969 -0.151957,0.0249173l0 -0.231732c0.00561417,-0.00766535 0.011063,-0.0154764 0.0163268,-0.0234291 0.0650118,-0.0982205 0.0994724,-0.213114 0.0994724,-0.330894 0,-0.159602 -0.0627047,-0.310988 -0.175547,-0.423827 -0.112839,-0.112839 -0.26422,-0.175547 -0.423823,-0.175547 -0.159602,0 -0.310984,0.0627087 -0.423823,0.175551 -0.112843,0.112839 -0.175551,0.26422 -0.175551,0.423823 0,0.120874 0.0362874,0.238587 0.104512,0.338374 0.0143898,0.0210433 0.0300315,0.041063 0.046811,0.0599724l0 0.404358z"/>
  <rect class="fil3" width="6.82666" height="6.82666"/>
 </g>
</svg>
