<?xml version="1.0" encoding="utf-8"?>
<!-- Generator: Adobe Illustrator 24.2.3, SVG Export Plug-In . SVG Version: 6.00 Build 0)  -->
<svg version="1.1" id="Ebene_1" xmlns="http://www.w3.org/2000/svg" xmlns:xlink="http://www.w3.org/1999/xlink" x="0px" y="0px"
	 viewBox="0 0 491.5 491.5" style="enable-background:new 0 0 491.5 491.5;" xml:space="preserve">
<style type="text/css">
	.st0{display:none;fill-rule:evenodd;clip-rule:evenodd;fill:#424242;}
	.st1{fill:#FFFFFE;}
	.st2{fill-rule:evenodd;clip-rule:evenodd;fill:#FFFFFE;}
	.st3{fill:none;}
</style>
<rect class="st0" width="491.5" height="491.5"/>
<g id="Layer_x0020_1">
	<polygon class="st1" points="332.3,419.3 332.3,419.3 336.6,419.4 336.6,419.4 	"/>
	<polygon class="st1" points="221,419.3 221,419.3 221,419.3 221,419.3 	"/>
	<polygon class="st1" points="221,419.4 221,419.4 221,419.4 	"/>
	<path class="st1" d="M370.9,307.8c2.7,35.9,3.8,50-22.1,94.6c-0.4,0.6-0.6,1.3-0.8,1.9c-0.1,0.5-0.2,1.1-0.3,1.6c0,0.2,0,0.4,0,0.6
		l0,0l-0.3,12.5c0,0.2,0,0.4,0,0.5l0,0l0,0.1h0c-0.1,2.5-1,4.8-2.4,6.6c-0.2,0.3-0.5,0.6-0.7,0.8l-5.4-5.5l5.4,5.5
		c-1.9,1.9-4.6,3.1-7.5,3.1H221v0l-0.1,0l0,0l0,0c-2.9,0-5.5-1.2-7.4-3l-0.1-0.1l0,0l-0.1-0.1l0,0l0,0l0,0c-1.9-2-3.1-4.6-3.1-7.5h0
		l0-0.1c0-0.1,0-0.1,0-0.2l0,0l0.3-7.9c0-0.2,0-0.3,0-0.5l0,0l0-0.2c0-1-0.2-2-0.6-2.9c-0.4-1-1-1.9-1.7-2.6
		c-48.6-47.3-49.6-50.1-66.8-98.4c-2.3-6.6-5-13.9-7.6-21.2l-8-9.2c-4.5-5.1-6.6-11.6-6.5-17.9c0.1-6.4,2.5-12.7,7.2-17.7
		c4.8-5.2,11.3-8,17.9-8.3c6.6-0.4,13.3,1.7,18.7,6.2c4.4,3.7,14.9,21,23.2,34.7V120.9c0-7.1,2.9-13.6,7.6-18.3
		c4.7-4.7,11.1-7.6,18.3-7.6c7.1,0,13.6,2.9,18.3,7.6c4.7,4.7,7.6,11.1,7.6,18.3v54.6l0.1-0.1c4.7-4.7,11.3-7.7,18.6-7.7
		c7.2,0,13.8,2.9,18.6,7.7c2.7,2.7,4.8,6,6.1,9.7c4.7-4.1,10.8-6.5,17.5-6.5c7.4,0,14,3,18.8,7.8c4.3,4.3,7.2,10.1,7.7,16.6
		c4.5-3.6,10.3-5.8,16.5-5.8h0c7.2,0,13.7,2.9,18.5,7.6c4.8,4.7,7.7,11.2,7.8,18.4l0.5,39.6C368.9,281.3,370,295.8,370.9,307.8
		L370.9,307.8z"/>
	<path class="st2" d="M178.5,177.5c-8.9-5-16.6-11.9-22.4-20.4c-7.5-11-11.6-24-11.6-37.4c0-17.6,6.9-34.4,19.4-46.8
		c12.4-12.4,29.2-19.4,46.8-19.4s34.4,6.9,46.8,19.4c12.4,12.4,19.4,29.2,19.4,46.8c0,13-3.8,25.7-11,36.5c-1,1.5-2.1,3-3.2,4.4
		c-2-0.4-4.1-0.6-6.2-0.6c-3.8,0-7.5,0.6-10.9,1.8v-16.7c0.4-0.6,0.8-1.1,1.2-1.7c4.7-7.1,7.2-15.3,7.2-23.8
		c0-11.5-4.5-22.4-12.6-30.5c-8.1-8.1-19-12.6-30.5-12.6c-11.5,0-22.4,4.5-30.5,12.6c-8.1,8.1-12.6,19-12.6,30.5
		c0,8.7,2.6,17.2,7.5,24.4c1,1.5,2.2,3,3.4,4.3L178.5,177.5L178.5,177.5z"/>
	<rect class="st3" width="491.5" height="491.5"/>
</g>
</svg>
