<?xml version="1.0" encoding="UTF-8"?>
<!DOCTYPE svg PUBLIC "-//W3C//DTD SVG 1.1//EN" "http://www.w3.org/Graphics/SVG/1.1/DTD/svg11.dtd">
<!-- Creator: CorelDRAW -->
<svg xmlns="http://www.w3.org/2000/svg" xml:space="preserve" width="6.82666in" height="6.82666in" style="shape-rendering:geometricPrecision; text-rendering:geometricPrecision; image-rendering:optimizeQuality; fill-rule:evenodd; clip-rule:evenodd"
viewBox="0 0 6.82666 6.82666"
 xmlns:xlink="http://www.w3.org/1999/xlink">
 <defs>
  <style type="text/css">
   <![CDATA[
    .fil3 {fill:none}
    .fil0 {fill:#424242}
    .fil2 {fill:#FFFFFE}
    .fil1 {fill:#FFFFFE;fill-rule:nonzero}
   ]]>
  </style>
 </defs>
 <rect class="fil0" width="6.82666" height="6.82666"/>
 <g id="Layer_x0020_1">
  <metadata id="CorelCorpID_0Corel-Layer"/>
  <g id="_293764128">
   <g>
    <path id="_293764512" class="fil1" d="M5.5933 3.56301c0.243835,0.423496 0.339488,0.589642 0.283661,1.2876 -0.000799213,0.01 -0.000409449,0.0194213 0.00114173,0.0280315 0.00130709,0.00725197 0.00329528,0.0143071 0.00595276,0.0210354 0.00129921,0.00238189 0.00251575,0.00483071 0.00364567,0.00735039l-0.000346457 0.000153543 0.0693819 0.154913c0.00117717,0.00212205 0.00229134,0.00429921 0.00333071,0.00653543l-0.000334646 0.000153543 0.000523622 0.00116535 -2.3622e-005 1.1811e-005c0.0140866,0.0311535 0.0164291,0.0644921 0.00885433,0.0949803 -0.000980315,0.00472835 -0.00229134,0.00944488 -0.0039685,0.0141181l-0.0981339 -0.0351732 0.098126 0.0351772c-0.0124724,0.0347992 -0.0381339,0.064878 -0.0740591,0.0820866l-1.41627 0.678441 -3.93701e-006 -1.1811e-005 -0.000818898 0.000397638 -0.000169291 -0.000362205 -0.000318898 0.000149606c-0.0355669,0.0165787 -0.0739921,0.0178622 -0.107835,0.00650394l-0.000625984 -0.000208661 -0.001 -0.000346457 -0.00108661 -0.000374016 3.93701e-006 -7.87402e-006 -3.54331e-005 -1.1811e-005 9.84252e-005 -0.000271654c-0.0350236,-0.0126181 -0.0651457,-0.038189 -0.0822008,-0.0737913l7.87402e-006 -3.93701e-006 -0.000389764 -0.000811024c-0.00042126,-0.000889764 -0.000830709,-0.0017874 -0.00123228,-0.00269685l0.000322835 -0.000141732 -0.0433898 -0.0987756c-0.000976378,-0.00181496 -0.00192126,-0.00366142 -0.00280315,-0.00555512l0.000299213 -0.000141732 -0.000826772 -0.00187402c-0.00598819,-0.0121063 -0.0143898,-0.0230039 -0.0246299,-0.0321693 -0.0106339,-0.00951575 -0.0230354,-0.0168465 -0.0365276,-0.0213976 -0.872815,-0.294248 -0.901465,-0.322736 -1.39441,-0.813043 -0.0669685,-0.0666063 -0.142366,-0.141602 -0.217559,-0.215217l-0.152295 -0.066185c-0.0846732,-0.0367953 -0.14861,-0.102709 -0.184417,-0.181461 -0.0358543,-0.0788543 -0.0435079,-0.170457 -0.0155512,-0.258516 0.0290315,-0.0914291 0.0914291,-0.163555 0.169827,-0.20678 0.0781654,-0.0430984 0.172323,-0.0572874 0.265165,-0.0330315 0.0754724,0.0197087 0.305189,0.169173 0.487287,0.289264l-0.89287 -1.8639c-0.0418701,-0.0874055 -0.0443425,-0.183528 -0.0145,-0.268256 0.0298465,-0.0847244 0.0920039,-0.158075 0.179413,-0.199949 0.0873976,-0.0418661 0.183524,-0.0443386 0.268252,-0.0144961 0.0847283,0.0298504 0.158079,0.0920118 0.199949,0.179417l0.320232 0.668496 0.000397638 -0.00115354c0.0302953,-0.086 0.0933898,-0.160445 0.182098,-0.202941 0.0887087,-0.0424921 0.186264,-0.0450039 0.272264,-0.0147126 0.0489528,0.0172441 0.0941575,0.0451181 0.131862,0.0822953 0.0334055,-0.0771575 0.0937244,-0.143075 0.175488,-0.18224 0.0900157,-0.043122 0.189008,-0.0456693 0.276276,-0.0149291 0.0782638,0.0275669 0.147094,0.0819134 0.191571,0.157764 0.0340039,-0.0710354 0.0915669,-0.131386 0.168106,-0.168051l7.87402e-006 -3.93701e-006c0.0880433,-0.0421772 0.185071,-0.0449882 0.271039,-0.0153504 0.0858307,0.0295906 0.160516,0.0917441 0.204028,0.179559l0.238543 0.481394c0.111614,0.224969 0.210157,0.396118 0.291469,0.537346z"/>
    <path id="_293763864" class="fil2" d="M2.38011 2.89929c-0.0860984,-0.011878 -0.169929,-0.0377283 -0.248256,-0.0767283l-0.000925197 -0.000464567 -0.00372047 -0.00186614 -0.000925197 -0.000468504 -0.000929134 -0.000472441 -0.000925197 -0.000472441 -0.00277953 -0.0014252 -0.00092126 -0.000472441 -0.000925197 -0.000480315 -0.00368898 -0.00192913 -0.00092126 -0.000484252 -0.00092126 -0.000484252 -0.00092126 -0.000488189 -0.000374016 -0.00019685 -0.00053937 -0.000291339 -0.00092126 -0.000488189 -0.000917323 -0.000488189 -0.00092126 -0.000496063 -0.000913386 -0.000492126 -0.00183465 -0.000988189 -0.000917323 -0.000496063 -0.000913386 -0.0005 -0.000913386 -0.000503937 -0.000913386 -0.000496063 -0.00182677 -0.00100787 -0.000913386 -0.000503937 -0.000905512 -0.000503937 -0.000913386 -0.000503937 -3.54331e-005 -2.3622e-005 -0.00178346 -0.000996063 -0.000909449 -0.000511811 -0.000913386 -0.000511811 -0.000905512 -0.000511811 -0.0045315 -0.00258268 -0.000905512 -0.000519685 -0.00135827 -0.000775591 -0.00135039 -0.000791339 -0.000905512 -0.000527559 -0.000901575 -0.000523622 -0.000897638 -0.000527559 -0.000901575 -0.000527559 -0.000901575 -0.000531496 -0.00179921 -0.00106693 -0.000897638 -0.000531496 -0.000897638 -0.000535433 -0.000893701 -0.000535433 -0.000307087 -0.000185039 -0.00585433 -0.00353937 -0.000311024 -0.000188976c-0.0841614,-0.0514409 -0.157736,-0.117567 -0.217449,-0.194937l-2.3622e-005 -2.75591e-005 -0.00420472 -0.00550787 -0.000437008 -0.000566929 -0.00412205 -0.0055 -0.000141732 -0.000185039c-0.00280315,-0.00377165 -0.0055748,-0.00757087 -0.00831102,-0.0113976l-0.000610236 -0.000850394 -0.00361417 -0.00510236 -0.00061811 -0.000885827 -0.00353543 -0.00508661 -0.000791339 -0.00115354 -0.0033937 -0.00498425 -0.000740157 -0.00110236 -0.00319291 -0.00477953 -0.00102362 -0.00154724 -0.00325591 -0.00497638 -0.0005 -0.000771654 -0.00342126 -0.00533465 -0.000716535 -0.00112205 -0.00315354 -0.00501969 -0.00096063 -0.00155118 -0.00277559 -0.0045 -0.0016811 -0.00277165 -0.00204724 -0.00339764 -0.00151181 -0.00253543 -0.00261417 -0.00442913 -0.000464567 -0.000799213 -0.00307087 -0.00529921 -0.00176772 -0.0031063 -0.00172441 -0.00303937 -0.0018189 -0.00327165 -0.00202362 -0.00364961 -0.000905512 -0.00166142 -0.00264173 -0.00486614 -0.000106299 -0.00019685 -0.00311024 -0.00584646 -5.90551e-005 -0.00011811 -0.00234646 -0.00451181 -0.00109449 -0.00209843 -0.000259843 -0.000515748 -0.0031811 -0.00624803 -0.000173228 -0.000346457 -0.00320079 -0.00645669 -8.66142e-005 -0.000177165c-0.00108661,-0.0022126 -0.00216535,-0.00443701 -0.00323228,-0.00666535 -0.00144488,-0.00301575 -0.00287008,-0.00603937 -0.00427559,-0.00906693 -0.00140945,-0.0030315 -0.00279528,-0.00607087 -0.00416142,-0.00911417 -0.00136614,-0.00303937 -0.0027126,-0.00609055 -0.00403937,-0.00914567 -0.00132677,-0.00305512 -0.00263386,-0.00611811 -0.00392126,-0.00918504 -0.0012874,-0.00306693 -0.00255512,-0.0061378 -0.00380315,-0.00921654 -0.00125197,-0.00307874 -0.00248031,-0.00616535 -0.00368898,-0.00925591 -0.00120866,-0.00309055 -0.0023937,-0.00618504 -0.00356299,-0.00928346 -0.00117323,-0.00310236 -0.00232283,-0.0062126 -0.00345276,-0.00932283 -0.00112992,-0.00311417 -0.00224016,-0.00622441 -0.00333071,-0.00934646 -0.00108661,-0.00312205 -0.00215748,-0.00624803 -0.00320866,-0.00938189l0 -3.93701e-006c-0.00105118,-0.00312992 -0.00207874,-0.00626378 -0.00309449,-0.00940551 -0.00101181,-0.00314173 -0.002,-0.0062874 -0.00297244,-0.00943701l0 -3.93701e-006c-0.000972441,-0.00315354 -0.0019252,-0.00630709 -0.00285827,-0.00946457 -0.000933071,-0.00315748 -0.00184252,-0.00632283 -0.00273622,-0.00949213 -0.000885827,-0.00316535 -0.00176772,-0.00633858 -0.00261811,-0.00951575l3.93701e-006 0c-0.000854331,-0.00317323 -0.00168898,-0.00635433 -0.0025,-0.00953937 -0.000814961,-0.00318504 -0.0016063,-0.00637402 -0.00238189,-0.00956693 -0.000771654,-0.00319291 -0.00152756,-0.00638189 -0.00225984,-0.00958268l-3.93701e-006 -3.93701e-006c-0.000728346,-0.00319685 -0.00144488,-0.00639764 -0.0021378,-0.00960236l0 -3.93701e-006c-0.00069685,-0.00320472 -0.00137008,-0.00641339 -0.00202756,-0.00962205l3.93701e-006 -3.93701e-006c-0.000653543,-0.0032126 -0.00129134,-0.0064252 -0.00190551,-0.00964173l0 -3.93701e-006c-0.000614173,-0.00321654 -0.00120866,-0.00643701 -0.00178346,-0.00966142 -0.000574803,-0.00322835 -0.00113386,-0.00644882 -0.00166929,-0.0096811l3.93701e-006 0c-0.000535433,-0.00322835 -0.00105118,-0.00646063 -0.00154724,-0.00969685 -0.000496063,-0.00323228 -0.000968504,-0.0064685 -0.0014252,-0.00970866 -0.000456693,-0.00324016 -0.000893701,-0.00648031 -0.00130709,-0.00972441l3.93701e-006 0c-0.00124803,-0.00973228 -0.0023189,-0.0194803 -0.00320866,-0.0292441 -0.000295276,-0.00325197 -0.000574803,-0.00651181 -0.000830709,-0.00976772l3.93701e-006 0c-0.000251969,-0.00325984 -0.000492126,-0.00651969 -0.000708661,-0.00977559l3.93701e-006 -3.93701e-006c-0.000216535,-0.00326378 -0.000417323,-0.00651969 -0.000594488,-0.00978346 -0.000350394,-0.00652756 -0.000625984,-0.0130551 -0.000818898,-0.0195866l3.93701e-006 -3.93701e-006c-9.84252e-005,-0.00326772 -0.000173228,-0.0065315 -0.000232283,-0.00979528l0 -3.93701e-006c-5.51181e-005,-0.00326772 -9.44882e-005,-0.00653543 -0.000110236,-0.00980315 -6.69291e-005,-0.0130748 0.000188976,-0.0261535 0.000767717,-0.0392283l-3.93701e-006 -3.93701e-006c0.000145669,-0.00326772 0.000307087,-0.00653543 0.000492126,-0.00980315l0 -3.93701e-006c0.000185039,-0.00326378 0.000389764,-0.0065315 0.000614173,-0.00979921l-3.93701e-006 0c0.000224409,-0.00326772 0.000468504,-0.0065315 0.00073622,-0.00979921 0.000791339,-0.00979528 0.00176378,-0.0195827 0.00291732,-0.0293622l0 -3.93701e-006c0.000385827,-0.00325591 0.000791339,-0.00650787 0.00121654,-0.00976772l-3.93701e-006 -3.93701e-006c0.00255118,-0.0195315 0.00582283,-0.0390118 0.00982283,-0.0584094l3.93701e-006 0c0.00733071,-0.0355551 0.0170945,-0.0707913 0.0293189,-0.1055 0.0188898,-0.0536181 0.0431575,-0.104587 0.0722205,-0.15226l3.93701e-006 0c0.00170472,-0.00280315 0.00342913,-0.00559449 0.00517323,-0.00837402l3.93701e-006 -3.93701e-006c0.00522441,-0.00834252 0.0106024,-0.0165748 0.016122,-0.0247087l3.93701e-006 0c0.00183858,-0.00270866 0.00369291,-0.00540945 0.00556693,-0.00809449l3.93701e-006 0c0.00187795,-0.00268898 0.00375984,-0.0053622 0.00566535,-0.00802362l3.93701e-006 0c0.00190157,-0.00266142 0.00382283,-0.00530709 0.00575591,-0.00794488l3.93701e-006 -3.93701e-006c0.00774803,-0.0105472 0.0157441,-0.0208976 0.0239882,-0.0310472l3.93701e-006 0c0.00205906,-0.00253937 0.0041378,-0.00505906 0.00622835,-0.00757087l3.93701e-006 -3.93701e-006c0.00209055,-0.00251181 0.00419291,-0.00500394 0.0063189,-0.00748819l-3.93701e-006 -3.93701e-006c0.00424409,-0.00497244 0.00854724,-0.00988189 0.0129173,-0.014748l0 -3.93701e-006c0.00655118,-0.00729528 0.0132205,-0.0144685 0.0200354,-0.0215197l3.93701e-006 -3.93701e-006c0.00908268,-0.00940157 0.0183898,-0.0185787 0.0279331,-0.0275354l3.93701e-006 0c0.00238189,-0.00224016 0.00478346,-0.00446457 0.00719685,-0.00667323 0.00241339,-0.0022126 0.00483858,-0.00440157 0.00727953,-0.00658661l0 -3.93701e-006c0.00244094,-0.0021811 0.00489764,-0.00434646 0.00736614,-0.00649606 0.00246063,-0.00215354 0.00494882,-0.00429134 0.00744488,-0.00641339l3.93701e-006 0c0.00499213,-0.00424803 0.0100315,-0.0084252 0.0151339,-0.0125551l3.93701e-006 0c0.00254724,-0.00206693 0.0051063,-0.00411417 0.00768504,-0.00614567l3.93701e-006 0c0.0025748,-0.00203937 0.00516142,-0.00404724 0.00776772,-0.00605118 0.00260236,-0.00200394 0.00521654,-0.00398819 0.00784646,-0.00596063 0.00525984,-0.00394488 0.0105669,-0.00782283 0.0159331,-0.0116417 0.0026811,-0.00190945 0.00537008,-0.00380709 0.00807874,-0.00568504 0.00270472,-0.00187795 0.0054252,-0.00374016 0.00815748,-0.00558268l3.93701e-006 -3.93701e-006c0.00272835,-0.00184252 0.0054685,-0.00367323 0.00822835,-0.00548819l3.93701e-006 -3.93701e-006c0.00275591,-0.00181496 0.00552362,-0.00361024 0.00830315,-0.00538976l3.93701e-006 0c0.00277953,-0.0017874 0.0055748,-0.00355118 0.00837795,-0.00529921 0.00281102,-0.00175197 0.00562598,-0.00348031 0.00845669,-0.00519685 0.00283071,-0.00172047 0.00567323,-0.00342126 0.00852756,-0.00510236 0.00285433,-0.00168504 0.00572047,-0.00335039 0.00859843,-0.00500394 0.00288189,-0.00164567 0.00577165,-0.00328346 0.00867323,-0.00489764 0.00290157,-0.00162205 0.0058189,-0.00321654 0.00874409,-0.00479921 0.0029252,-0.00158661 0.0058622,-0.00314961 0.00881102,-0.00470079 0.00294882,-0.00154724 0.00590551,-0.00307874 0.00887795,-0.00459449 0.00297244,-0.00151181 0.00596063,-0.00301181 0.00895276,-0.00449213 0.00299606,-0.00148031 0.00600394,-0.00294488 0.00901969,-0.00438976 0.00301575,-0.00144488 0.00603937,-0.00287008 0.00906693,-0.00427559 0.0030315,-0.00140551 0.00607087,-0.00279528 0.00911417,-0.00416142 0.00303937,-0.00136614 0.00609055,-0.0027126 0.00914567,-0.00403937 0.00305512,-0.00132677 0.00611811,-0.00263386 0.00918504,-0.00392126 0.00306693,-0.0012874 0.0061378,-0.00255512 0.00921654,-0.00380315 0.00307874,-0.00125197 0.00616535,-0.00248031 0.00925591,-0.00368898 0.00309055,-0.00120472 0.00618504,-0.0023937 0.00928346,-0.00356299 0.0031063,-0.00117323 0.0062126,-0.00232283 0.00932283,-0.00345276 0.00311024,-0.00112992 0.00622441,-0.00224016 0.00934646,-0.00333071 0.00312205,-0.00108661 0.00625197,-0.00215354 0.00938189,-0.00320866l3.93701e-006 0c0.00312992,-0.00105118 0.00626378,-0.00208268 0.00940551,-0.00309449l3.93701e-006 0c0.00314173,-0.00101181 0.00628346,-0.002 0.00943307,-0.00297244l3.93701e-006 0c0.00315354,-0.000972441 0.00630315,-0.0019252 0.00946457,-0.00285827 0.00315748,-0.000933071 0.00632283,-0.00184252 0.00949213,-0.00273228 0.00633465,-0.0017874 0.012689,-0.00349606 0.0190551,-0.00511811 0.00318504,-0.000814961 0.00637402,-0.0016063 0.00956693,-0.00238189 0.00318898,-0.000771654 0.00638189,-0.00152756 0.00958268,-0.00225984l3.93701e-006 -3.93701e-006c0.00319685,-0.000728346 0.00639764,-0.00144094 0.00960236,-0.0021378l3.93701e-006 0c0.00640945,-0.00138976 0.0128307,-0.00269685 0.0192677,-0.00392913l3.93701e-006 0c0.00321654,-0.000614173 0.00643701,-0.00120472 0.00966142,-0.00178346 0.00322441,-0.000570866 0.00644882,-0.00112992 0.0096811,-0.00166929l0 3.93701e-006c0.00322835,-0.000535433 0.00646457,-0.00105118 0.00969685,-0.00154724 0.00322835,-0.000492126 0.0064685,-0.000968504 0.00970866,-0.0014252l3.93701e-006 0c0.0129528,-0.00182283 0.0259449,-0.00332677 0.0389646,-0.00450787l3.93701e-006 -3.93701e-006c0.00975984,-0.000885827 0.0195394,-0.00159449 0.0293268,-0.00212598 0.00652756,-0.000350394 0.0130551,-0.000625984 0.0195866,-0.000818898l3.93701e-006 3.93701e-006c0.00326378,-9.44882e-005 0.0065315,-0.000173228 0.00979528,-0.000228346l3.93701e-006 -3.93701e-006c0.00326378,-5.90551e-005 0.00653543,-9.05512e-005 0.00980315,-0.000110236l3.93701e-006 0c0.0130748,-6.69291e-005 0.0261496,0.000188976 0.0392244,0.000767717l3.93701e-006 -3.93701e-006c0.00326772,0.000145669 0.00653543,0.000311024 0.00980315,0.000492126l3.93701e-006 0c0.00326378,0.000185039 0.0065315,0.000389764 0.00979921,0.000614173l0 -3.93701e-006c0.00326772,0.000224409 0.0065315,0.000468504 0.00979921,0.00073622l3.93701e-006 -3.93701e-006c0.00979528,0.000795276 0.0195787,0.00176772 0.0293583,0.00292126l3.93701e-006 0c0.00325197,0.000385827 0.00650787,0.000791339 0.00976772,0.00121654l3.93701e-006 -3.93701e-006c0.0553504,0.00722441 0.110276,0.0202559 0.163909,0.0391496 0.0346929,0.0122205 0.0682835,0.0266969 0.100587,0.0432638l0 0c0.0176181,0.00903543 0.0348465,0.0186969 0.0516732,0.0289528l0 3.93701e-006c0.00280315,0.00170866 0.00559449,0.00342913 0.00837402,0.00517323l3.93701e-006 3.93701e-006c0.00833858,0.00522441 0.0165787,0.0106063 0.0247087,0.016126 0.00270866,0.00184646 0.00540945,0.00369291 0.00809449,0.00557087l0 0c0.00268898,0.00187795 0.0053622,0.00375984 0.00802362,0.00566535l0 3.93701e-006c0.00266142,0.00190157 0.00530709,0.00382283 0.00794882,0.00575984l0 0c0.0105512,0.00774803 0.0209016,0.015748 0.0310472,0.0239921 0.00254331,0.00205906 0.00505906,0.00413386 0.00757087,0.00622835l3.93701e-006 3.93701e-006c0.00250787,0.00209055 0.00500394,0.00419685 0.00748819,0.0063189l3.93701e-006 -3.93701e-006c0.00497244,0.00424409 0.00988583,0.00855118 0.014748,0.0129173 0.00243307,0.00217717 0.00485433,0.00438189 0.00725591,0.00659055l3.93701e-006 0c0.00240551,0.00220866 0.00479134,0.00444094 0.00716929,0.0066811l3.93701e-006 -3.93701e-006c0.00237795,0.00224016 0.00474409,0.0045 0.00709449,0.00677165 0.00705118,0.00681102 0.0139764,0.013752 0.0207756,0.0208228l3.93701e-006 0c0.00226772,0.00235827 0.00451575,0.00472835 0.00675591,0.00711417 0.00224016,0.00238189 0.00446457,0.00478346 0.00667323,0.00719685 0.0022126,0.00241339 0.00440551,0.00483858 0.00658661,0.00727953l3.93701e-006 0c0.0021811,0.00244094 0.00434646,0.00489764 0.00649606,0.00736614 0.00215354,0.0024685 0.00429134,0.00494488 0.00641339,0.00744488l0 3.93701e-006c0.00212598,0.00249213 0.00422835,0.00500394 0.00632283,0.00752756l0 -3.93701e-006c0.00209449,0.00252756 0.00416929,0.00505906 0.00623228,0.00761024l0 3.93701e-006c0.00206299,0.00254724 0.00411417,0.0051063 0.00614567,0.00768504l0 3.93701e-006c0.00203543,0.0025748 0.00404724,0.00516142 0.00605118,0.00776772 0.00200394,0.00260236 0.00398819,0.00521654 0.00596063,0.00784646 0.00197244,0.00262992 0.0039252,0.00527559 0.00586614,0.00792913l3.93701e-006 0c0.00194488,0.00265748 0.0038622,0.00532283 0.00577165,0.00800394 0.00190945,0.0026811 0.00380709,0.00537402 0.00568504,0.00807874 0.00187795,0.00270472 0.00373228,0.0054252 0.00558268,0.00815748l3.93701e-006 3.93701e-006c0.00184646,0.00273228 0.00367717,0.00547244 0.00549213,0.00823228 0.00181496,0.00275591 0.0036063,0.00551969 0.00538976,0.00830315l0 3.93701e-006c0.00178346,0.00277559 0.00355118,0.0055748 0.00529921,0.00838189 0.00175197,0.00280709 0.00348031,0.00562205 0.00519685,0.00845276 0.00172047,0.00283071 0.00342126,0.00567323 0.00510236,0.00852756 0.00168504,0.00285433 0.00335039,0.00572047 0.00500394,0.00859843 0.00164567,0.00288189 0.00328346,0.00577165 0.00489764,0.00867323 0.00162205,0.00290157 0.00321654,0.00581496 0.00479921,0.00874409 0.00158661,0.0029252 0.00314961,0.0058622 0.00470079,0.00881102 0.00154724,0.00294882 0.00307874,0.00590551 0.00459449,0.00887795 0.00151181,0.00297244 0.00301181,0.00596063 0.00449213,0.00895276 0.00148031,0.00299606 0.00294488,0.00600394 0.00438976,0.00901969 0.00106693,0.00222835 0.00212205,0.00445669 0.00316535,0.00669291l8.66142e-005 0.000177165 0.00302362 0.00654331 0.00015748 0.000350394 0.00288189 0.0063937 0.00023622 0.000527559 0.000952756 0.00216535 0.00204331 0.00465748 5.11811e-005 0.000122047 0.0026063 0.00608268 9.05512e-005 0.000212598 0.00213386 0.0051063 0.000728346 0.00174409 0.0015748 0.00386614 0.00140945 0.0034685 0.0012874 0.00324803 0.00131496 0.00332283 0.00220472 0.00571654 0.000330709 0.000858268 0.00181102 0.00481496 0.0010315 0.00276772 0.0013622 0.00372441 0.0011063 0.00304724 0.00176772 0.00498425 0.000606299 0.00172047 0.00193307 0.00560236 0.000429134 0.00126378 0.00201181 0.00600787 0.000287402 0.000874016 0.00183858 0.00565354 0.000566929 0.00176772 0.00172047 0.00548425 0.000393701 0.00126772 0.00175591 0.00576772 0.000405512 0.00134252 0.00174803 0.00594094 0.00030315 0.00103937 0.00170866 0.00600787 0.000283465 0.00101181c0.00126378,0.0045315 0.00248819,0.00907087 0.00367323,0.013622l5.51181e-005 0.000224409 0.00170079 0.00665748 0.000169291 0.00069685 0.00165354 0.00672835 7.87402e-006 3.54331e-005c0.0228661,0.0950197 0.0282913,0.193791 0.0156299,0.291618l-5.11811e-005 0.000358268 -0.000909449 0.00677953 -4.72441e-005 0.000358268 -0.000141732 0.0010315 -0.000145669 0.00103543 -0.000149606 0.00103543 -0.000295276 0.00206693 -0.000149606 0.00103543 -0.000153543 0.0010315 -0.000153543 0.00103543 -0.00015748 0.00102756 -0.000153543 0.00103543 -0.000232283 0.00154724 -0.000248031 0.00154331 -0.000161417 0.00103543 -0.000826772 0.00514961 -0.000169291 0.00102756 -0.000173228 0.00102756 -0.000169291 0.0010315 -0.00034252 0.00201575 -3.93701e-006 3.93701e-005 -0.000177165 0.00102756 -0.000177165 0.00102362 -0.000181102 0.00102756 -0.000358268 0.00205512 -0.000185039 0.00102362 -0.000185039 0.00102362 -0.000181102 0.00102756 -0.000188976 0.00102362 -0.000377953 0.00205118 -0.000188976 0.00101969 -0.000192913 0.00102756 -0.000192913 0.00102362 -0.000192913 0.00102362 -0.000114173 0.000602362 -8.26772e-005 0.000417323 -0.00019685 0.00102362 -0.00019685 0.00101969 -0.000200787 0.00102362 -0.000811024 0.00407874 -0.000204724 0.00102362 -0.000208661 0.00101575 -0.000629921 0.00305906 -0.000212598 0.00101575 -0.000216535 0.00101969 -0.000212598 0.00101575 -0.000877953 0.00406693 -0.000216535 0.00101181c-0.0167244,0.0764016 -0.0443898,0.149646 -0.0819961,0.217571l-0.179528 -0.374776 8.66142e-005 -0.00347638 7.87402e-006 -0.000480315 7.08661e-005 -0.00412205 1.1811e-005 -0.00088189c4.72441e-005,-0.00451181 3.93701e-005,-0.00901969 -2.3622e-005,-0.0135276l-7.87402e-006 -0.000972441 -1.5748e-005 -0.000866142 -9.05512e-005 -0.00403937 -1.9685e-005 -0.000748031 -0.000125984 -0.00415748 -2.3622e-005 -0.000625984 -0.000173228 -0.00427559 -0.000224409 -0.00459449 -1.5748e-005 -0.00030315 -1.9685e-005 -0.000377953 -0.000267717 -0.00451575 -1.5748e-005 -0.000259843 -0.000314961 -0.00462992 -7.87402e-006 -0.000137795 -0.000370079 -0.00474803 -0.000413386 -0.00477953 -1.1811e-005 -0.000102362 -0.000440945 -0.00465748 -2.3622e-005 -0.000216535c-0.000326772,-0.00325591 -0.000688976,-0.00649606 -0.00107874,-0.00973622l-0.000527559 -0.00427953 -7.48031e-005 -0.000582677 -0.000555118 -0.00415354 -9.44882e-005 -0.000700787 -0.000574803 -0.00402756 -0.000122047 -0.000818898 -0.000216535 -0.0013937 -0.000515748 -0.00337008 -1.1811e-005 -7.87402e-005 -0.000610236 -0.00377559 -4.33071e-005 -0.000244094 -0.000574803 -0.0033937 -0.000248031 -0.00142913 -0.000527559 -0.00294882 -0.000366142 -0.00198819 -0.000440945 -0.00234252 -0.000468504 -0.00244882 -0.000570866 -0.00287402 -0.000299213 -0.00148425 -0.000755906 -0.00364173 -0.000224409 -0.00105512 -0.000633858 -0.00293307 -0.000519685 -0.00232283 -0.000484252 -0.00215748 -0.000559055 -0.00239764 -0.000574803 -0.00245669 -0.000598425 -0.00247244 -0.000425197 -0.00172835 -0.000799213 -0.00318504 -0.000405512 -0.00159449 -0.000779528 -0.00298819 -0.0005 -0.00187795 -0.000661417 -0.00246063 -0.000728346 -0.00264173 -0.000507874 -0.00180709 -0.000814961 -0.00284646 -0.000562992 -0.00193307 -0.000720472 -0.00246063 -0.000822835 -0.00272047 -0.000488189 -0.0016063 -0.000901575 -0.0028937 -0.000681102 -0.00216929 -0.000712598 -0.00222047 -0.000688976 -0.00211024 -0.0010315 -0.00310236 -0.000492126 -0.0014685 -0.00088189 -0.00257874 -0.000795276 -0.00231102 -0.000984252 -0.0027874 -0.0005 -0.00140551 -0.00111417 -0.0030748 -0.000665354 -0.0018189 -0.000759843 -0.00201969 -0.0010315 -0.00274016 -0.000570866 -0.00148819 -0.00114961 -0.00298031 -0.000129921 -0.000334646 -0.00144882 -0.00365354 -0.000129921 -0.000318898 -0.00118898 -0.00292126 -0.00053937 -0.00133465 -0.000287402 -0.00069685 -0.00161417 -0.0038622 -5.11811e-005 -0.000110236 -0.00145669 -0.00340945 -0.000437008 -0.00101969 -0.000204724 -0.000468504 -0.000594488 -0.00135433 -0.00134646 -0.00305512 -0.00187795 -0.00416929 -0.000106299 -0.000232283 -0.0019685 -0.00426378 -5.51181e-005 -0.000114173 -0.00206693 -0.00437008c-0.000944882,-0.00197244 -0.00189764,-0.00393307 -0.0028622,-0.00588583 -0.000968504,-0.00195669 -0.00194882,-0.00390157 -0.00293307,-0.00583858 -0.000992126,-0.00194094 -0.00198819,-0.00387402 -0.003,-0.00579528 -0.00101181,-0.0019252 -0.00202756,-0.00384252 -0.00305906,-0.00574803l-3.93701e-006 0c-0.0010315,-0.00190945 -0.00207874,-0.00381102 -0.00312992,-0.00570472 -0.00105906,-0.0018937 -0.00212205,-0.00377559 -0.00319685,-0.00565354 -0.0010748,-0.00188189 -0.00216142,-0.00374803 -0.00325984,-0.00561024 -0.00109843,-0.00186614 -0.00220866,-0.00372047 -0.00332677,-0.00556693 -0.00111811,-0.00185039 -0.00225197,-0.00368504 -0.00338976,-0.00551575l0 3.93701e-006c-0.00114173,-0.00183071 -0.00229528,-0.00365748 -0.00345276,-0.0054685 -0.00116535,-0.00181496 -0.00233465,-0.00362205 -0.00351575,-0.00541732 -0.0011811,-0.00179921 -0.00237795,-0.00358661 -0.00357874,-0.00537008 -0.00120472,-0.00177953 -0.00241732,-0.00355512 -0.00364173,-0.00532283 -0.00122441,-0.00176378 -0.00246063,-0.00351969 -0.00370079,-0.00526378l-3.93701e-006 -3.93701e-006c-0.00124409,-0.00175197 -0.00249606,-0.00348425 -0.00375984,-0.00521654 -0.00126378,-0.00173228 -0.00253937,-0.00345669 -0.00382283,-0.00516929l-3.93701e-006 0c-0.0012874,-0.00171654 -0.00257874,-0.00342126 -0.00388189,-0.00511811 -0.00130709,-0.00169685 -0.00262205,-0.00338583 -0.00394488,-0.00506693 -0.00132677,-0.0016811 -0.00265748,-0.00334646 -0.00400394,-0.00501181l-3.93701e-006 3.93701e-006c-0.00133858,-0.00166142 -0.00269685,-0.0033189 -0.00405906,-0.00496457 -0.00136614,-0.00164567 -0.00273228,-0.00327953 -0.00411811,-0.00490551 -0.00138189,-0.00162992 -0.00277559,-0.00324803 -0.00417717,-0.00485827l-3.93701e-006 3.93701e-006c-0.00139764,-0.00161024 -0.00281496,-0.00320866 -0.00423228,-0.00479921l0 -3.93701e-006c-0.00142126,-0.00159055 -0.00285039,-0.00316929 -0.00429134,-0.00474016l0 -3.93701e-006c-0.00144094,-0.0015748 -0.0028937,-0.00313386 -0.00435039,-0.00468898l0 -3.93701e-006c-0.00292126,-0.0031063 -0.00587008,-0.00617717 -0.0088622,-0.0092126l0 -3.93701e-006c-0.00149606,-0.00151969 -0.00299606,-0.00302362 -0.00451181,-0.00452362 -0.00151575,-0.00149606 -0.00303543,-0.00298819 -0.00457087,-0.0044685 -0.00459449,-0.00443701 -0.00926772,-0.0087874 -0.0140236,-0.0130551l0 -3.93701e-006c-0.00158661,-0.0014252 -0.00317717,-0.00283071 -0.00477953,-0.00423228 -0.00160236,-0.00140551 -0.0032126,-0.00279528 -0.00483071,-0.0041811 -0.00324016,-0.00276378 -0.00651181,-0.00548819 -0.0098189,-0.00817717 -0.00164961,-0.00134252 -0.00331102,-0.00267323 -0.00498425,-0.004 -0.00166535,-0.00132677 -0.00334646,-0.00263386 -0.00503543,-0.00393701l0 -3.93701e-006c-0.00168504,-0.00130315 -0.00337795,-0.00259055 -0.00508268,-0.00387402l0 -3.93701e-006c-0.00170472,-0.00128346 -0.00341339,-0.00255118 -0.00512992,-0.00381496l-3.93701e-006 3.93701e-006c-0.00171654,-0.00126378 -0.00344488,-0.00251969 -0.00517717,-0.00375984l-3.93701e-006 3.93701e-006c-0.0104094,-0.00744488 -0.0211024,-0.0145197 -0.0320709,-0.0212047l-3.93701e-006 -3.93701e-006c-0.00364961,-0.00222441 -0.00733858,-0.00441339 -0.0110512,-0.00655512l-3.93701e-006 3.93701e-006c-0.0278583,-0.0160591 -0.0573701,-0.0296496 -0.0882559,-0.0405276 -0.00412205,-0.00144882 -0.00824409,-0.00284646 -0.0123819,-0.00419685l-3.93701e-006 3.93701e-006c-0.016563,-0.00537795 -0.0332874,-0.00991339 -0.0501102,-0.0136063l-3.93701e-006 3.93701e-006c-0.00630709,-0.00138583 -0.0126417,-0.00265354 -0.0189764,-0.00379921l-3.93701e-006 0c-0.00211024,-0.00038189 -0.00422047,-0.000751969 -0.00633858,-0.00111024l-3.93701e-006 3.93701e-006c-0.00422835,-0.000716535 -0.0084685,-0.00137402 -0.0127047,-0.00198031l-3.93701e-006 0c-0.00212205,-0.00030315 -0.00424409,-0.000594488 -0.0063622,-0.000874016l-3.93701e-006 3.93701e-006c-0.00212205,-0.000279528 -0.00424409,-0.000543307 -0.00636614,-0.000795276l-3.93701e-006 0c-0.00212598,-0.000248031 -0.00424803,-0.000488189 -0.00637008,-0.000712598l-3.93701e-006 0 -0.00637795 -0.000637795 0 3.93701e-006c-0.00638189,-0.000602362 -0.0127677,-0.0010748 -0.0191575,-0.00143701l-3.93701e-006 0c-0.00212992,-0.000122047 -0.00425591,-0.000228346 -0.00638583,-0.000322835l-3.93701e-006 3.93701e-006c-0.00212992,-9.44882e-005 -0.00425591,-0.000181102 -0.00638976,-0.000248031l0 3.93701e-006c-0.00213386,-6.69291e-005 -0.00425984,-0.000125984 -0.00638976,-0.000165354l-3.93701e-006 0c-0.00212992,-4.33071e-005 -0.00425591,-7.08661e-005 -0.00638583,-8.66142e-005l-3.93701e-006 0c-0.00212992,-1.5748e-005 -0.00425984,-1.5748e-005 -0.00638583,-7.87402e-006l-3.93701e-006 3.93701e-006c-0.00425984,1.9685e-005 -0.00851575,8.66142e-005 -0.0127717,0.000216535l-3.93701e-006 0c-0.00212992,6.29921e-005 -0.00425197,0.000137795 -0.00638189,0.000228346l-3.93701e-006 0c-0.00212598,9.05512e-005 -0.00425197,0.000192913 -0.00637795,0.000307087l-3.93701e-006 0c-0.00637795,0.00034252 -0.0127441,0.00080315 -0.0191102,0.00138583 -0.00212205,0.000192913 -0.00424016,0.000397638 -0.00635827,0.00061811 -0.00212205,0.000224409 -0.00423622,0.000448819 -0.00635433,0.00069685l0 0c-0.00423228,0.000492126 -0.00845669,0.00103543 -0.0126772,0.00162992l-3.93701e-006 0c-0.00211417,0.000299213 -0.00422047,0.000606299 -0.00632677,0.000929134l-3.93701e-006 0c-0.0021063,0.000326772 -0.00420866,0.000653543 -0.00631496,0.00100787l-3.93701e-006 0c-0.00210236,0.000346457 -0.00420079,0.000712598 -0.00630315,0.00108661 -0.00210236,0.000377953 -0.00419685,0.00076378 -0.00629921,0.00116142l0 3.93701e-006c-0.00210236,0.000397638 -0.00418898,0.000814961 -0.00628346,0.00124016l-3.93701e-006 3.93701e-006c-0.00209055,0.000425197 -0.00418504,0.000866142 -0.00627165,0.0013189l-3.93701e-006 0c-0.00209055,0.000452756 -0.00417323,0.000917323 -0.00625984,0.0013937 -0.00208268,0.000480315 -0.00416929,0.000972441 -0.00624803,0.00147638 -0.00207874,0.000503937 -0.00415354,0.00102362 -0.00623228,0.00155512l0 0c-0.00207874,0.000531496 -0.00414961,0.00107087 -0.00622047,0.00162598l-3.93701e-006 3.93701e-006c-0.00206693,0.000555118 -0.0041378,0.00112205 -0.00620079,0.00170472l0 3.93701e-006c-0.00206299,0.000582677 -0.00412598,0.00117717 -0.00618504,0.00178346 -0.00206299,0.000610236 -0.00411811,0.00123228 -0.00617323,0.00186614 -0.00205118,0.000633858 -0.0041063,0.00127953 -0.00615354,0.00194094 -0.00204724,0.000661417 -0.00409055,0.00133071 -0.0061378,0.00201575 -0.00204331,0.000685039 -0.00407874,0.00138976 -0.00611417,0.00209843 -0.00203543,0.000716535 -0.00407087,0.00143307 -0.00609843,0.00216929 -0.0020315,0.000740157 -0.00405512,0.00148819 -0.0060748,0.00225197l-3.93701e-006 0c-0.00201969,0.00076378 -0.00403937,0.00153937 -0.00605512,0.00233071l-3.93701e-006 0c-0.00201181,0.000791339 -0.00402362,0.00159055 -0.0060315,0.00240551 -0.00200787,0.000814961 -0.00401575,0.00164567 -0.00601575,0.00248425 -0.00200394,0.000838583 -0.00399606,0.00169291 -0.00598819,0.00255512 -0.00199606,0.000866142 -0.00398425,0.00174803 -0.0059685,0.0026378 -0.00198819,0.000893701 -0.00397244,0.00179528 -0.00594488,0.0027126 -0.00198031,0.000917323 -0.00395276,0.00185039 -0.00592126,0.00279134 -0.0019685,0.000944882 -0.00392913,0.00189764 -0.00588583,0.0028622 -0.00195276,0.000968504 -0.00389764,0.00194488 -0.00583858,0.00293701 -0.00193701,0.000984252 -0.00387008,0.00198425 -0.00579528,0.00299606 -0.00192126,0.00101181 -0.00383858,0.0020315 -0.00574803,0.00306299 -0.00190945,0.0010315 -0.00381496,0.0020748 -0.00570472,0.00312992 -0.00189764,0.00105512 -0.00377953,0.00211811 -0.00565354,0.00319685l-3.93701e-006 0c-0.00187795,0.0010748 -0.00374803,0.00216535 -0.00561024,0.00325984l0 0c-0.00186614,0.00109843 -0.00372047,0.00220866 -0.00556299,0.00332677 -0.00184646,0.00111811 -0.00368504,0.00225197 -0.00551181,0.0033937 -0.00183071,0.0011378 -0.00365354,0.0022874 -0.0054685,0.00344882 -0.00181496,0.00116535 -0.00362205,0.00233465 -0.00542126,0.00351575 -0.00179528,0.00118504 -0.00358268,0.00237795 -0.00536614,0.00357874 -0.00177953,0.00120472 -0.00355512,0.00241732 -0.00532283,0.00364173 -0.00176772,0.00122441 -0.00351575,0.00245669 -0.00526378,0.00370079l-3.93701e-006 3.93701e-006c-0.00175197,0.00124409 -0.00348425,0.00249606 -0.00521654,0.00375984l-3.93701e-006 3.93701e-006c-0.00172835,0.00125984 -0.00345276,0.00253937 -0.00516535,0.00382283l-3.93701e-006 3.93701e-006c-0.0017126,0.00128346 -0.00342126,0.00257087 -0.00511417,0.00387795 -0.00169685,0.00130709 -0.00338976,0.00262205 -0.00506693,0.00394488 -0.00167717,0.00132677 -0.00334646,0.00265748 -0.00500787,0.00400787l-3.93701e-006 0c-0.00166535,0.00134252 -0.00331496,0.00269685 -0.00496063,0.00405906l0 3.93701e-006c-0.00164567,0.0013622 -0.00328346,0.00273228 -0.00490945,0.00411417l0 3.93701e-006c-0.00162992,0.00138189 -0.00324016,0.00277559 -0.00485039,0.00417717 -0.0016063,0.00140157 -0.00320866,0.00280709 -0.00479921,0.00423228l-3.93701e-006 0c-0.00159055,0.00142126 -0.00316929,0.00285039 -0.00474409,0.00429134l0 0c-0.0015748,0.00144094 -0.00313386,0.0028937 -0.00468898,0.00435039l-3.93701e-006 0c-0.0031063,0.00292126 -0.00617717,0.00587008 -0.0092126,0.0088622l-3.93701e-006 0c-0.00151575,0.00149213 -0.00302362,0.003 -0.00452362,0.00451181 -0.00149606,0.00151575 -0.00298819,0.00303543 -0.0044685,0.00457087 -0.00443701,0.00459449 -0.0087874,0.00926772 -0.0130551,0.0140236l-3.93701e-006 0c-0.0014252,0.00158661 -0.00283071,0.00317717 -0.00423228,0.00477953l-3.93701e-006 3.93701e-006c-0.00140157,0.00159843 -0.00279528,0.0032126 -0.00417717,0.00482677l-3.93701e-006 3.93701e-006c-0.00276378,0.00324016 -0.00548425,0.00650787 -0.00817323,0.00981496l-3.93701e-006 0c-0.00134252,0.00164961 -0.00267323,0.00331102 -0.00399606,0.00498425l-3.93701e-006 0c-0.0013189,0.00166929 -0.00262992,0.00334646 -0.00393307,0.00503543l-3.93701e-006 0c-0.00130315,0.00168504 -0.00259055,0.00337795 -0.00387402,0.00508268l-3.93701e-006 0 -0.00381102 0.00513386 -3.93701e-006 0c-0.00126378,0.00172047 -0.00251575,0.00344488 -0.00375591,0.00517717l3.93701e-006 3.93701e-006c-0.00372835,0.00520866 -0.00735433,0.0104803 -0.0108898,0.0158268l-3.93701e-006 3.93701e-006c-0.00117717,0.00177953 -0.00234646,0.00357087 -0.0035,0.00536614l-3.93701e-006 0c-0.00115748,0.00179528 -0.00229921,0.00360236 -0.00343307,0.00541339l-3.93701e-006 3.93701e-006c-0.0011378,0.00181102 -0.00225984,0.00363386 -0.00337008,0.00545669l-3.93701e-006 3.93701e-006c-0.00111417,0.00182283 -0.00221654,0.00366142 -0.00330709,0.00550394l-3.93701e-006 0c-0.0021811,0.00368504 -0.00432283,0.00740157 -0.00642126,0.0111457l0 0c-0.00105118,0.00187008 -0.00208268,0.00374803 -0.00311024,0.00563386l-3.93701e-006 3.93701e-006c-0.0030748,0.00565748 -0.00605118,0.0113819 -0.00892913,0.0171654l-3.93701e-006 3.93701e-006c-0.00766929,0.0154291 -0.0146181,0.0312992 -0.0208031,0.0475748l-3.93701e-006 0c-0.00154724,0.00407087 -0.00303937,0.00816535 -0.00449213,0.0122795 -0.0108819,0.0308976 -0.0187835,0.0624016 -0.0237323,0.0941732l0 0c-0.000661417,0.00423622 -0.00126772,0.00848031 -0.00182283,0.0127205l0 3.93701e-006c-0.00166535,0.0127323 -0.00285433,0.0255039 -0.0035748,0.0382795l0 3.93701e-006c-0.000122047,0.00212992 -0.000228346,0.00425591 -0.000318898,0.00638976l-3.93701e-006 0c-9.44882e-005,0.00212598 -0.000173228,0.00425984 -0.000244094,0.00638976l3.93701e-006 0c-6.69291e-005,0.00213386 -0.000125984,0.00425984 -0.000165354,0.00638976l0 3.93701e-006c-3.93701e-005,0.00213386 -7.08661e-005,0.00425984 -8.66142e-005,0.00638976 -1.5748e-005,0.00213386 -1.5748e-005,0.00426378 -7.87402e-006,0.00638976 1.9685e-005,0.00426378 9.44882e-005,0.00851969 0.000220472,0.0127756 6.29921e-005,0.00212992 0.000141732,0.00425591 0.000228346,0.00638583 9.05512e-005,0.00212598 0.000192913,0.00425197 0.00030315,0.00637795l3.93701e-006 3.93701e-006c0.000346457,0.00637795 0.000807087,0.0127441 0.00138583,0.0191102 0.000192913,0.00212205 0.000397638,0.00424016 0.00061811,0.00635827 0.000216535,0.00211811 0.000452756,0.00424016 0.00069685,0.00635433l0 0c0.000492126,0.00423228 0.00103543,0.00845669 0.00162992,0.0126772l0 3.93701e-006c0.000299213,0.00211024 0.000606299,0.00422047 0.000929134,0.00632677l0 3.93701e-006c0.000322835,0.0021063 0.00065748,0.0042126 0.00100787,0.00631496l0 3.93701e-006c0.000346457,0.00210236 0.000712598,0.00420472 0.00108661,0.00630315l-3.93701e-006 3.93701e-006c0.000374016,0.00209843 0.00076378,0.00420079 0.00116535,0.00629528 0.000401575,0.00210236 0.000818898,0.00419291 0.00124803,0.0062874 0.000425197,0.00209449 0.000866142,0.0041811 0.0013189,0.00627559l-3.93701e-006 0c0.000448819,0.00209055 0.00092126,0.00417717 0.00139764,0.00625984 0.000480315,0.00208268 0.000968504,0.00416929 0.00147638,0.00624803 0.0005,0.00207874 0.00101969,0.00415748 0.00155512,0.00623228l-3.93701e-006 3.93701e-006c0.000531496,0.0020748 0.0010748,0.00414961 0.00163386,0.00622047 0.000555118,0.00207087 0.00112205,0.0041378 0.00170472,0.00620079l3.93701e-006 0c0.000582677,0.00206693 0.00117717,0.00412598 0.00178346,0.00618504 0.000606299,0.00206299 0.00123228,0.00411811 0.00186614,0.00617323 0.000633858,0.00205118 0.00127953,0.0041063 0.00194094,0.00615354 0.00065748,0.00204724 0.00133071,0.00409055 0.00201575,0.0061378 0.000685039,0.00204331 0.00138976,0.00407874 0.00209843,0.00611417l-3.93701e-006 0c0.000712598,0.00203937 0.00143701,0.00407087 0.00217323,0.00609843 0.000740157,0.00202756 0.00148819,0.00405906 0.00225197,0.00607874 0.00076378,0.00202362 0.00153937,0.00404331 0.00233071,0.00605906 0.000791339,0.00201181 0.00159055,0.00402362 0.00240157,0.0060315 0.000814961,0.00200787 0.00164567,0.00401575 0.00248819,0.00601575l-3.93701e-006 0c0.000838583,0.00200394 0.00169685,0.00399606 0.00255906,0.00598819 0.000866142,0.00199606 0.00174803,0.00398425 0.0026378,0.0059685 0.000893701,0.00198819 0.00179528,0.00397244 0.0027126,0.00594488 0.000917323,0.00198031 0.00185039,0.00395276 0.00279134,0.00592126l0.00211024 0.00434646 5.51181e-005 0.00011811 0.00208661 0.00420866 0.000114173 0.000224409 0.00207087 0.00407874 0.00153937 0.00296063 0.000681102 0.00131496 0.00023622 0.000452756 0.000523622 0.000980315 0.00174016 0.00327165 5.90551e-005 0.000110236 0.00199606 0.00367717 0.000362205 0.000661417 0.000700787 0.00125591 0.0015315 0.00275591 0.000169291 0.00030315 0.00194094 0.00341732 0.000177165 0.000311024 0.00160236 0.00276378 0.000799213 0.00137795 0.00149213 0.00252362 0.00109449 0.00185433 0.001 0.00165748 0.00170079 0.00279528 0.000783465 0.00127165 0.00155118 0.00251181 0.00130315 0.00207087 0.00145669 0.00230315 0.000834646 0.00130315 0.00177165 0.00274803 0.00121654 0.00185827 0.00128346 0.00194882 0.00126378 0.00188976 0.00168504 0.00251575 0.000944882 0.00138583 0.0016063 0.00234646 0.00146457 0.0021063 0.00115354 0.00164961 0.00170866 0.00241732 0.00109449 0.0015315 0.00159843 0.00221654 0.00150394 0.00206299 0.00114961 0.00156693 0.00184252 0.00248031 0.000984252 0.00131496 0.00198425 0.00261417 0.00107874 0.00141732 0.00155512 0.00201575 0.00154724 0.00198819 0.00152362 0.00193701 0.00137402 0.00173228 0.00148819 0.00185827 0.00188583 0.00233465 0.000681102 0.000834646 0.00236614 0.00287008 0.000968504 0.00116535 0.00188189 0.00224803 0.00161024 0.00189764 0.00155118 0.00181102 0.00132283 0.0015315 0.00196457 0.00225591 0.000956693 0.00109055 0.00228346 0.00257874 0.000165354 0.000185039 0.00256299 0.00284252 5.11811e-005 5.51181e-005 0.00230315 0.00251575 0.000948819 0.00104331 0.000566929 0.000606299 0.00277559 0.00297244 0.000484252 0.000511811 0.0028937 0.00303543 0.000405512 0.000425197 0.003 0.00309055c0.00227953,0.00233465 0.00458661,0.00464961 0.00691339,0.00694094l0.00015748 0.00015748 0.00335039 0.00326378 7.08661e-005 7.08661e-005 0.0034685 0.0033189 0.00346457 0.00326378 0.000106299 9.44882e-005 0.00340551 0.00314567 0.00019685 0.000177165 0.00334646 0.00303543 0.000283465 0.000251969 0.000228346 0.000204724 0.00344094 0.00305118 0.00322047 0.0028189 0.000472441 0.000409449 0.00316142 0.00270472 0.000570866 0.000484252 0.00309055 0.00259843 0.000669291 0.000555118 0.000751969 0.00061811c0.0034685,0.00287402 0.00697638,0.0057126 0.0105236,0.00849606l0.000692913 0.00053937 0.00325984 0.0025315 0.000377953 0.000295276 0.00340945 0.00260236 0.000704724 0.000531496 0.00335827 0.00250394 0.000405512 0.000299213 0.00344488 0.00252362 0.000492126 0.000362205c0.00240945,0.00174803 0.00483858,0.0034685 0.00727559,0.00517717l0.00122047 0.000850394 0.00274803 0.00189764 0.00133071 0.000909449 0.00297638 0.00201575 0.000716535 0.000476378 0.00373622 0.00247638 3.93701e-005 2.75591e-005 0.00379528 0.00246457 0.000688976 0.000444882 0.00337402 0.00214961 0.000854331 0.00053937 0.169051 0.352902z"/>
   </g>
   <path id="_293763744" class="fil1" d="M2.00472 2.46837c0.0182717,-0.00766535 0.0305787,-0.0253307 0.0313031,-0.0451496 0.00136614,-0.0373346 -0.0364173,-0.0635669 -0.0708661,-0.0491102l-0.00404331 0.00168504 -0.00402756 0.00164961 -0.00405906 0.00162992 -0.00407087 0.00161024 -0.00404331 0.0015748 -0.00405512 0.00155118 -0.00407874 0.00152756 -0.00408268 0.00150394 -0.00404724 0.0014685 -0.00408268 0.00144882 -0.00409449 0.00142913 -0.00405512 0.00138583 -0.00409055 0.00137008 -0.0041063 0.00135039 -0.0041063 0.00132677 -0.00408661 0.00129134 -0.00408661 0.00125984 -0.00413386 0.00125591 -0.00409449 0.00121654 -0.00410236 0.00118898 -0.00411417 0.00116535 -0.00412205 0.00114567 -0.000519685 0.000137795c-0.0418189,0.0114528 -0.0511772,0.0668701 -0.0154016,0.0914331 0.0127165,0.00853937 0.0276299,0.0111614 0.0424567,0.00714961l0.000515748 -0.000137795 0.00468898 -0.00130315 0.00468898 -0.00133071 0.00469291 -0.0013622 0.00469685 -0.0013937 0.00465354 -0.00140945 0.00468898 -0.00144882 0.0046811 -0.00148425 0.00465354 -0.00149606 0.00465748 -0.0015315 0.00465354 -0.00155906 0.00468504 -0.00159843 0.00463386 -0.00162598 0.00464173 -0.00164173 0.00466142 -0.00168898 0.00462598 -0.00170866 0.00461417 -0.00173228 0.0046378 -0.00176772 0.00462992 -0.00179921 0.00459843 -0.00182283 0.00459449 -0.00185039 0.00462205 -0.00188976 0.00459449 -0.00191339zm0.259189 -1.20443c0.0282126,0.0367323 0.0868583,0.0199882 0.0914724,-0.0261299 0.00127953,-0.0129724 -0.00242126,-0.0255984 -0.0102756,-0.0359764l-0.0028189 -0.00371654 -0.00312205 -0.00405512 -0.00312598 -0.00400787 -0.00315748 -0.00400394 -0.00319685 -0.004 -0.00320472 -0.00394488 -0.00320866 -0.00392126 -0.00325197 -0.00392126 -0.00326378 -0.00388189 -0.00327559 -0.00384646 -0.0033189 -0.00385433 -0.00333858 -0.00382283 -0.00332677 -0.00376772 -0.00337795 -0.00377953 -0.00340157 -0.00375591 -0.00338976 -0.00369685 -0.00342913 -0.00369685 -0.00344094 -0.00366535 -0.0034685 -0.00364961 -0.00348819 -0.00362598 -0.0035 -0.00359449 -0.002 -0.00202756c-0.0331732,-0.0331732 -0.0896181,-0.00820472 -0.0873189,0.0388661 0.000771654,0.0125236 0.00584252,0.0242283 0.014748,0.0331339l0.00155512 0.0015748 0.0030748 0.00315748 0.00305118 0.00316535 0.0030315 0.00319685 0.00302756 0.00321654 0.00299606 0.00323622 0.00300394 0.00327559 0.00296063 0.00326378 0.00293701 0.00329134 0.00295276 0.00333858 0.00290945 0.00333071 0.00288583 0.00335433 0.00288976 0.00339764 0.0028622 0.00340551 0.00283858 0.00341732 0.00283465 0.00345669 0.00281102 0.00347244 0.00277165 0.00347244 0.00277559 0.00351181 0.00275984 0.00354724 0.00273228 0.00354331 0.0028189 0.00371654zm-0.212874 -0.189138c0.0382598,0.0221496 0.0849331,-0.0116732 0.075622,-0.0549488 -0.00320472,-0.0142283 -0.0116535,-0.0261417 -0.0243228,-0.0334724l-0.00178346 -0.00103937 -0.00425197 -0.00244882 -0.00425591 -0.00242126 -0.00427953 -0.00239764 -0.00427559 -0.0023622 -0.0042874 -0.00233858 -0.00432283 -0.00232677 -0.00433071 -0.0022874 -0.00431496 -0.00225984 -0.00434646 -0.00223622 -0.00435827 -0.00220866 -0.00437008 -0.00218898 -0.00439764 -0.00216929 -0.00438976 -0.00212598 -0.00438583 -0.00210236 -0.00442126 -0.00208268 -0.00443701 -0.00205512 -0.00443701 -0.0020315 -0.00444488 -0.00199606 -0.00445276 -0.00197244 -0.0044685 -0.00194882 -0.0045 -0.0019252 -0.0038189 -0.00161417c-0.0373819,-0.0156929 -0.0774528,0.0166654 -0.0699764,0.0565512 0.00342126,0.0170945 0.0143583,0.0309685 0.0305197,0.037752l0.00327953 0.00138189 0.00391732 0.0016811 0.00392126 0.0017126 0.00391732 0.00172835 0.00390945 0.00176378 0.0038937 0.00177165 0.00387008 0.00180315 0.00387008 0.00182283 0.00387795 0.00185433 0.0038622 0.00187402 0.00382677 0.00188583 0.00383071 0.00191339 0.00382283 0.00194094 0.00381102 0.00196457 0.0038189 0.00199213 0.00377953 0.00200394 0.00376378 0.00202362 0.00377559 0.00205906 0.00377165 0.00208268 0.00373228 0.00209055 0.00373622 0.00212598 0.00371654 0.0021378 0.00178346 0.00104331zm-0.269232 -0.0928701c0.0182402,0.00230709 0.0358386,-0.00478346 0.0471732,-0.0192953 0.0240866,-0.0313071 0.00552362,-0.076626 -0.0335591,-0.0820197l-0.00194488 -0.00026378 -0.00483071 -0.000633858 -0.00483858 -0.000606299 -0.00484646 -0.00057874 -0.00484252 -0.000551181 -0.00485039 -0.000523622 -0.00487008 -0.000496063 -0.00485827 -0.000464567 -0.00483858 -0.000433071 -0.00488189 -0.000409449 -0.00488583 -0.00038189 -0.00485433 -0.000346457 -0.00486614 -0.000326772 -0.00489764 -0.000291339 -0.00487402 -0.000267717 -0.00490157 -0.000240157 -0.00488189 -0.000204724 -0.00488189 -0.000181102 -0.00488583 -0.000145669 -0.00488976 -0.000125984 -0.00490945 -9.05512e-005 -0.00491339 -6.69291e-005 -0.00424803 -2.3622e-005c-0.0463858,0 -0.0688386,0.0564409 -0.0351811,0.0883819 0.00944488,0.00896457 0.0217913,0.013689 0.0347559,0.0138386l0.00366929 2.3622e-005 0.00427953 5.90551e-005 0.00428346 7.87402e-005 0.00429921 0.000110236 0.00429921 0.000129921 0.00429134 0.00015748 0.00429528 0.000181102 0.00426772 0.000208661 0.0042874 0.000232283 0.00425984 0.000255906 0.00427953 0.000287402 0.00430315 0.000307087 0.00425197 0.000330709 0.00424803 0.000358268 0.00429528 0.000385827 0.00426378 0.000405512 0.00423622 0.000433071 0.00425984 0.000456693 0.00425591 0.000484252 0.00424803 0.000507874 0.00424409 0.000531496 0.00424016 0.000559055 0.00194488 0.00026378zm-0.284189 0.0173268c0.045622,-0.0123465 0.0517047,-0.0744134 0.00928346,-0.0953346 -0.0111063,-0.00548031 -0.0235709,-0.00655512 -0.0355276,-0.00346063l-0.000614173 0.000161417 -0.00485039 0.00130315 -0.0048622 0.00133858 -0.00483465 0.00136614 -0.00483071 0.00139764 -0.00482677 0.00142126 -0.00482283 0.00145669 -0.00483858 0.00149213 -0.00482677 0.00152362 -0.00481102 0.00155118 -0.00479921 0.00157874 -0.00479134 0.0016063 -0.00479528 0.00164173 -0.00480315 0.00167717 -0.0047874 0.00170866 -0.00477559 0.00173228 -0.0047874 0.00177165 -0.00475591 0.00179528 -0.00474409 0.0018189 -0.00477165 0.00187008 -0.00475591 0.0018937 -0.00474016 0.00192913 -0.00188583 0.000775591c-0.0431299,0.0181024 -0.0414488,0.0797362 0.0027126,0.0954252 0.012311,0.00415748 0.0244843,0.00387402 0.0365433,-0.00103543l0.00136614 -0.000566929 0.00415748 -0.00168898 0.00414567 -0.00164961 0.00415748 -0.00162598 0.00418898 -0.00161024 0.00418898 -0.00158268 0.00416929 -0.00153937 0.00419291 -0.00152756 0.00419291 -0.00149213 0.00418504 -0.00146457 0.0042126 -0.00143701 0.00421654 -0.00141732 0.00422047 -0.00138583 0.00422047 -0.0013622 0.00420866 -0.00133071 0.0042126 -0.00129921 0.00424016 -0.00127559 0.00423622 -0.00125591 0.00424803 -0.00122047 0.00424409 -0.00120079 0.00422835 -0.00116535 0.00425197 -0.00114567 0.000614173 -0.000161417zm-0.443787 0.33861c0.0226929,-0.0401142 -0.0147913,-0.087374 -0.059,-0.0743386 -0.0128858,0.00401575 -0.0229764,0.0119094 -0.029752,0.0236142l-0.00190551 0.00331102 -0.0024685 0.00434646 -0.00244094 0.0043622 -0.00241732 0.00438583 -0.00238976 0.00438189 -0.00237008 0.00442126 -0.00233071 0.0044252 -0.00229528 0.00439764 -0.0022874 0.00445669 -0.00225591 0.00446457 -0.00222047 0.00445669 -0.00220866 0.00449606 -0.00216929 0.00449213 -0.0021378 0.00449213 -0.00211811 0.00451575 -0.00209449 0.00454724 -0.00205512 0.00452756 -0.0020315 0.00454331 -0.00201575 0.00457874 -0.00198031 0.00458268 -0.00194094 0.00456693 -0.00192126 0.00458268 -0.000125984 0.000314961c-0.00687795,0.0168898 -0.00427953,0.0360591 0.00683465,0.0505079 0.0239961,0.0311929 0.0729921,0.0244882 0.087815,-0.0119016l-0.00011811 0.000295276 0.00169291 -0.00404331 0.00172047 -0.00404331 0.00173228 -0.00400394 0.00175197 -0.00398425 0.00179134 -0.00400787 0.00181102 -0.00399213 0.00182677 -0.00396063 0.00185827 -0.00396457 0.00188189 -0.00396063 0.00190551 -0.00394488 0.00192126 -0.00391339 0.00196457 -0.00392913 0.0019685 -0.00390551 0.00199606 -0.00388189 0.00203543 -0.00391732 0.00204724 -0.00386614 0.00206693 -0.00385433 0.00209449 -0.00385433 0.00211417 -0.00383465 0.00214961 -0.00383465 0.00216535 -0.00381496 0.00190551 -0.00331496zm-0.0918937 0.269756c0.00409449,-0.0323858 -0.022378,-0.060315 -0.0550039,-0.0575945 -0.0240748,0.0020315 -0.0430591,0.0204331 -0.0463504,0.0442835l-0.000161417 0.00120866 -0.000633858 0.00494094 -0.000606299 0.00496063 -0.00057874 0.00496063 -0.000543307 0.00494882 -0.000519685 0.00497244 -0.000488189 0.00497244 -0.000456693 0.00498031 -0.000425197 0.00498031 -0.000397638 0.00496063 -0.000374016 0.00498819 -0.000334646 0.00499213 -0.000311024 0.00499606 -0.000279528 0.00502362 -0.000244094 0.00497638 -0.000216535 0.00500394 -0.000188976 0.00502362 -0.00015748 0.00498425 -0.000125984 0.00501181 -9.84252e-005 0.00501181 -6.69291e-005 0.00501181 -3.54331e-005 0.00503937 -3.93701e-006 0.00273228c0,0.0404921 0.0458465,0.0651693 0.0795157,0.0423937 0.0142441,-0.0094252 0.0227047,-0.0255669 0.0227047,-0.0425984l3.93701e-006 -0.00212205 3.54331e-005 -0.00437795 5.90551e-005 -0.00439764 8.26772e-005 -0.00439764 0.000114173 -0.0043937 0.000137795 -0.00440945 0.000161417 -0.00437008 0.000192913 -0.00438583 0.000216535 -0.00440157 0.000240157 -0.00435827 0.000271654 -0.00437795 0.000299213 -0.00437402 0.000322835 -0.00436614 0.000350394 -0.00438976 0.000374016 -0.0043622 0.000401575 -0.0043622 0.000425197 -0.00435433 0.000452756 -0.00435433 0.000484252 -0.0043622 0.000503937 -0.00434252 0.000531496 -0.00434646 0.000559055 -0.00435039 0.000161417 -0.00120866zm0.0184173 0.283925c-0.00481496,-0.0175787 -0.0183228,-0.0309803 -0.0358465,-0.0358583 -0.0382402,-0.0101654 -0.0731299,0.0245039 -0.0627756,0.0627677l0.000665354 0.00248031 0.00137402 0.00496063 0.00140551 0.00496063 0.00143701 0.00496457 0.00146457 0.00494488 0.0015 0.00494488 0.00152756 0.00493701 0.0015748 0.00495669 0.00159843 0.00493307 0.00162205 0.00490551 0.00166535 0.0049252 0.00169291 0.00491732 0.00172441 0.00490551 0.00176772 0.00491732 0.00179134 0.00488976 0.00182677 0.00488583 0.00185827 0.0048937 0.00188976 0.00487402 0.00192126 0.00487008 0.00196457 0.00487008 0.00198819 0.00485433 0.000933071 0.00224016c0.00775984,0.0184843 0.025752,0.0308031 0.0457913,0.0312913 0.0371024,0.000893701 0.0627913,-0.0367283 0.0484409,-0.0709213l-0.00069685 -0.00166929 -0.00174409 -0.00425984 -0.0017126 -0.00425984 -0.00168898 -0.00427165 -0.00166142 -0.00428346 -0.00162992 -0.00426772 -0.00159843 -0.00429921 -0.0015748 -0.00429528 -0.00153937 -0.0042874 -0.00151181 -0.00430315 -0.00148819 -0.00431102 -0.00145276 -0.00430315 -0.00143701 -0.00433858 -0.00140157 -0.0043189 -0.0013622 -0.00431102 -0.00134646 -0.00433465 -0.00131496 -0.00433858 -0.0012874 -0.00434252 -0.00125984 -0.00433465 -0.00122835 -0.00435039 -0.00120079 -0.00435039 -0.000665354 -0.00248031zm0.126228 0.255315c-0.0298858,-0.038185 -0.0909409,-0.0176024 -0.0915394,0.0309134 -0.000141732,0.0114724 0.00370866,0.0225512 0.0106811,0.0316299l0.00159055 0.0020748 0.00297638 0.00382283 0.003 0.00381496 0.00300787 0.00376378 0.00303543 0.00376772 0.00306299 0.00375197 0.00306299 0.00370866 0.00310236 0.0037126 0.00311811 0.00367717 0.00312205 0.00364961 0.00314961 0.0036378 0.00316929 0.00361811 0.00318898 0.00359449 0.00320472 0.00356693 0.00323228 0.00356299 0.00324016 0.00352362 0.00325197 0.00350394 0.00329528 0.00350394 0.00329528 0.00346063 0.00329528 0.0034252 0.00332677 0.00342126 0.00337795 0.00343307 0.00337402 0.00338189 0.000480315 0.000476378c0.0341339,0.0330512 0.0903425,0.0067874 0.0868228,-0.0407205 -0.00123622,-0.0125354 -0.00610236,-0.023122 -0.0150354,-0.0320551l-8.66142e-005 -9.05512e-005 -0.00294882 -0.00295276 -0.00290551 -0.00295669 -0.0029252 -0.00300787 -0.00292126 -0.0030315 -0.0028937 -0.00304724 -0.00285827 -0.00303543 -0.00286614 -0.00308268 -0.00284646 -0.00309843 -0.00281102 -0.00309843 -0.0028189 -0.00314173 -0.00279134 -0.00314173 -0.00277559 -0.00316535 -0.00275984 -0.00318504 -0.00275197 -0.00322047 -0.00272441 -0.00321654 -0.00270079 -0.00323228 -0.00270079 -0.00327165 -0.00267323 -0.00326378 -0.00265748 -0.00329921 -0.00264961 -0.00332677 -0.00262205 -0.00332677 -0.00261024 -0.00335433 -0.00159055 -0.0020748zm0.21428 0.18726c-0.0400512,-0.0226614 -0.0873583,0.0150906 -0.0741811,0.0592047 0.0038937,0.0126535 0.0121457,0.0231535 0.0236969,0.029689l0.00280315 0.00160236 0.00406693 0.00229134 0.00411024 0.00229134 0.00408661 0.00224409 0.00412205 0.00223622 0.00412992 0.00220472 0.00411811 0.00217323 0.00414961 0.00216535 0.00416929 0.00213386 0.00416535 0.00211417 0.00416929 0.00207874 0.00420472 0.00207087 0.00421654 0.00204331 0.00419685 0.00200394 0.00423228 0.002 0.00423622 0.00196457 0.00422441 0.00193701 0.00427559 0.00192913 0.00426772 0.0018937 0.00427559 0.00187008 0.00428346 0.00184646 0.0042874 0.00182283 0.00431496 0.00180315 0.00258661 0.00106299c0.0168858,0.00687795 0.0360591,0.00427953 0.0505079,-0.00683465 0.031189,-0.0239961 0.0244843,-0.0729921 -0.0119016,-0.0878189l-0.00205118 -0.00084252 -0.00377165 -0.00157874 -0.00377953 -0.00160236 -0.00375984 -0.00161811 -0.00375197 -0.00164567 -0.00374016 -0.00166142 -0.00371654 -0.00167717 -0.00374409 -0.00171654 -0.00372047 -0.00172441 -0.00369685 -0.00174409 -0.0037126 -0.00177559 -0.00367323 -0.00178346 -0.00366929 -0.00180709 -0.00367717 -0.00183858 -0.00366142 -0.00184646 -0.00364173 -0.00187402 -0.00362992 -0.00188976 -0.00364567 -0.00192126 -0.00361417 -0.00192913 -0.00359843 -0.00195669 -0.0036063 -0.00198031 -0.00356693 -0.00198031 -0.00358268 -0.0020315 -0.00280315 -0.00159843zm0.26989 0.0908465c-0.0425551,-0.00538189 -0.0723976,0.041315 -0.0496299,0.0778543 0.00815354,0.0130787 0.0217402,0.0216575 0.0370039,0.0235906l0.00348425 0.000444882 0.00466929 0.000562992 0.00464173 0.000535433 0.00466535 0.000515748 0.00468504 0.000488189 0.00466535 0.000456693 0.00467717 0.000437008 0.00467717 0.000405512 0.00467717 0.00038189 0.00468504 0.000354331 0.0046811 0.000326772 0.00469291 0.00030315 0.0047126 0.000279528 0.00469291 0.000244094 0.00470079 0.000224409 0.00472047 0.00019685 0.00470079 0.000165354 0.00470079 0.000137795 0.00470472 0.00011811 0.00473228 9.05512e-005 0.00470866 5.90551e-005 0.00471654 3.54331e-005 0.00473228 7.87402e-006 0.00191339 -7.87402e-006c0.0178858,-0.000204724 0.0337638,-0.00923622 0.0432126,-0.0243976 0.0207362,-0.034563 -0.00369685,-0.0778228 -0.0439528,-0.0778228l-0.00130315 7.87402e-006 -0.00412598 -7.87402e-006 -0.00414567 -3.54331e-005 -0.00414173 -5.11811e-005 -0.00411811 -7.48031e-005 -0.00414173 -0.000102362 -0.00413386 -0.000125984 -0.0041378 -0.000149606 -0.0041063 -0.000165354 -0.00412992 -0.000200787 -0.00411811 -0.000216535 -0.00410236 -0.000240157 -0.00411811 -0.00026378 -0.00411417 -0.000291339 -0.00411417 -0.000311024 -0.0041063 -0.000334646 -0.0041063 -0.000354331 -0.00410236 -0.00038189 -0.00409449 -0.000401575 -0.0040748 -0.000425197 -0.00409055 -0.000452756 -0.00410236 -0.000476378 -0.00406299 -0.000488189 -0.00348031 -0.000444882z"/>
   <path id="_293763672" class="fil1" d="M1.24911 1.13622c0.0387047,-0.0250276 0.0273976,-0.0842756 -0.0178189,-0.0932205 -0.0132795,-0.00241339 -0.025878,-9.84252e-005 -0.0373071,0.00713386l-0.00322441 0.00205118 -0.00420079 0.00270472 -0.00418504 0.00273622 -0.00417323 0.00276378 -0.00415354 0.00277559 -0.00414567 0.0028189 -0.00411417 0.00283858 -0.0040748 0.00283465 -0.00409449 0.00288583 -0.00406693 0.00290945 -0.00403543 0.00292126 -0.00403543 0.00296063 -0.00400787 0.00298031 -0.00397638 0.00298425 -0.0039685 0.00301969 -0.0039685 0.00305906 -0.00391339 0.00305906 -0.00390945 0.00308268 -0.00390945 0.00312205 -0.00387795 0.00314567 -0.00383858 0.00314567 -0.00382677 0.00316929 -0.000259843 0.000220472c-0.0139213,0.0117795 -0.0205079,0.0299685 -0.0173543,0.0479252 0.00679921,0.0387598 0.0533268,0.0555315 0.0833268,0.0301614l-0.000240157 0.000204724 0.00337402 -0.00279921 0.00339764 -0.00278346 0.0033937 -0.00274803 0.00339764 -0.00271654 0.00344488 -0.00272047 0.00345669 -0.00270079 0.00345276 -0.00265748 0.00348425 -0.00265354 0.00350787 -0.0026378 0.00351575 -0.00261024 0.00351575 -0.00258268 0.00355906 -0.00256693 0.00355512 -0.00254724 0.00356693 -0.00251575 0.00362205 -0.00252756 0.0036063 -0.00247638 0.00361811 -0.00245669 0.00364173 -0.00244488 0.00365354 -0.00241732 0.0036811 -0.00240157 0.00368504 -0.00237795 0.00322441 -0.00205118z"/>
  </g>
  <rect class="fil3" width="6.82666" height="6.82666"/>
 </g>
</svg>
