<?xml version="1.0" encoding="utf-8"?>
<!-- Generator: Adobe Illustrator 24.2.3, SVG Export Plug-In . SVG Version: 6.00 Build 0)  -->
<svg version="1.1" id="Ebene_1" xmlns="http://www.w3.org/2000/svg" xmlns:xlink="http://www.w3.org/1999/xlink" x="0px" y="0px"
	 viewBox="0 0 491.5 491.5" style="enable-background:new 0 0 491.5 491.5;" xml:space="preserve">
<style type="text/css">
	.st0{display:none;fill-rule:evenodd;clip-rule:evenodd;fill:#424242;}
	.st1{fill:#FFFFFE;}
	.st2{fill-rule:evenodd;clip-rule:evenodd;fill:#FFFFFE;}
	.st3{fill:none;}
</style>
<rect class="st0" width="491.5" height="491.5"/>
<g id="Layer_x0020_1">
	<g id="_293764128">
		<g>
			<path id="_293764512" class="st1" d="M402.7,256.5c17.6,30.5,24.4,42.5,20.4,92.7c-0.1,0.7,0,1.4,0.1,2c0.1,0.5,0.2,1,0.4,1.5
				c0.1,0.2,0.2,0.3,0.3,0.5l0,0l5,11.2c0.1,0.2,0.2,0.3,0.2,0.5l0,0l0,0.1l0,0c1,2.2,1.2,4.6,0.6,6.8c-0.1,0.3-0.2,0.7-0.3,1
				l-7.1-2.5l7.1,2.5c-0.9,2.5-2.7,4.7-5.3,5.9l-102,48.8l0,0l-0.1,0l0,0l0,0c-2.6,1.2-5.3,1.3-7.8,0.5l0,0l-0.1,0l-0.1,0l0,0l0,0
				l0,0c-2.5-0.9-4.7-2.7-5.9-5.3l0,0l0-0.1c0-0.1-0.1-0.1-0.1-0.2l0,0l-3.1-7.1c-0.1-0.1-0.1-0.3-0.2-0.4l0,0l-0.1-0.1
				c-0.4-0.9-1-1.7-1.8-2.3c-0.8-0.7-1.7-1.2-2.6-1.5c-62.8-21.2-64.9-23.2-100.4-58.5c-4.8-4.8-10.3-10.2-15.7-15.5l-11-4.8
				c-6.1-2.6-10.7-7.4-13.3-13.1c-2.6-5.7-3.1-12.3-1.1-18.6c2.1-6.6,6.6-11.8,12.2-14.9c5.6-3.1,12.4-4.1,19.1-2.4
				c5.4,1.4,22,12.2,35.1,20.8L161,169.8c-3-6.3-3.2-13.2-1-19.3c2.1-6.1,6.6-11.4,12.9-14.4c6.3-3,13.2-3.2,19.3-1
				c6.1,2.1,11.4,6.6,14.4,12.9l23.1,48.1l0-0.1c2.2-6.2,6.7-11.6,13.1-14.6c6.4-3.1,13.4-3.2,19.6-1.1c3.5,1.2,6.8,3.2,9.5,5.9
				c2.4-5.6,6.7-10.3,12.6-13.1c6.5-3.1,13.6-3.3,19.9-1.1c5.6,2,10.6,5.9,13.8,11.4c2.4-5.1,6.6-9.5,12.1-12.1l0,0
				c6.3-3,13.3-3.2,19.5-1.1c6.2,2.1,11.6,6.6,14.7,12.9l17.2,34.7C389.8,234,396.9,246.4,402.7,256.5L402.7,256.5z"/>
			<path id="_293763864" class="st2" d="M171.4,208.7c-6.2-0.9-12.2-2.7-17.9-5.5l-0.1,0l-0.3-0.1l-0.1,0l-0.1,0l-0.1,0l-0.2-0.1
				l-0.1,0l-0.1,0l-0.3-0.1l-0.1,0l-0.1,0l-0.1,0l0,0l0,0l-0.1,0l-0.1,0l-0.1,0l-0.1,0l-0.1-0.1l-0.1,0l-0.1,0l-0.1,0l-0.1,0
				l-0.1-0.1l-0.1,0l-0.1,0l-0.1,0l0,0l-0.1-0.1l-0.1,0l-0.1,0l-0.1,0l-0.3-0.2l-0.1,0l-0.1-0.1l-0.1-0.1l-0.1,0l-0.1,0l-0.1,0
				l-0.1,0l-0.1,0l-0.1-0.1l-0.1,0l-0.1,0l-0.1,0l0,0l-0.4-0.3l0,0c-6.1-3.7-11.4-8.5-15.7-14l0,0l-0.3-0.4l0,0l-0.3-0.4l0,0
				c-0.2-0.3-0.4-0.5-0.6-0.8l0-0.1l-0.3-0.4l0-0.1l-0.3-0.4l-0.1-0.1l-0.2-0.4l-0.1-0.1l-0.2-0.3l-0.1-0.1l-0.2-0.4l0-0.1l-0.2-0.4
				l-0.1-0.1l-0.2-0.4l-0.1-0.1l-0.2-0.3l-0.1-0.2l-0.1-0.2l-0.1-0.2l-0.2-0.3l0-0.1l-0.2-0.4l-0.1-0.2l-0.1-0.2l-0.1-0.2l-0.1-0.3
				l-0.1-0.1l-0.2-0.4l0,0l-0.2-0.4l0,0l-0.2-0.3l-0.1-0.2l0,0l-0.2-0.4l0,0l-0.2-0.5l0,0c-0.1-0.2-0.2-0.3-0.2-0.5
				c-0.1-0.2-0.2-0.4-0.3-0.7c-0.1-0.2-0.2-0.4-0.3-0.7c-0.1-0.2-0.2-0.4-0.3-0.7c-0.1-0.2-0.2-0.4-0.3-0.7
				c-0.1-0.2-0.2-0.4-0.3-0.7c-0.1-0.2-0.2-0.4-0.3-0.7c-0.1-0.2-0.2-0.4-0.3-0.7c-0.1-0.2-0.2-0.4-0.2-0.7
				c-0.1-0.2-0.2-0.4-0.2-0.7c-0.1-0.2-0.2-0.4-0.2-0.7v0c-0.1-0.2-0.1-0.5-0.2-0.7c-0.1-0.2-0.1-0.5-0.2-0.7v0
				c-0.1-0.2-0.1-0.5-0.2-0.7c-0.1-0.2-0.1-0.5-0.2-0.7c-0.1-0.2-0.1-0.5-0.2-0.7h0c-0.1-0.2-0.1-0.5-0.2-0.7
				c-0.1-0.2-0.1-0.5-0.2-0.7c-0.1-0.2-0.1-0.5-0.2-0.7l0,0c-0.1-0.2-0.1-0.5-0.2-0.7v0c-0.1-0.2-0.1-0.5-0.1-0.7l0,0
				c0-0.2-0.1-0.5-0.1-0.7v0c0-0.2-0.1-0.5-0.1-0.7c0-0.2-0.1-0.5-0.1-0.7h0c0-0.2-0.1-0.5-0.1-0.7c0-0.2-0.1-0.5-0.1-0.7
				s-0.1-0.5-0.1-0.7h0c-0.1-0.7-0.2-1.4-0.2-2.1c0-0.2,0-0.5-0.1-0.7h0c0-0.2,0-0.5-0.1-0.7l0,0c0-0.2,0-0.5,0-0.7
				c0-0.5,0-0.9-0.1-1.4l0,0c0-0.2,0-0.5,0-0.7v0c0-0.2,0-0.5,0-0.7c0-0.9,0-1.9,0.1-2.8l0,0c0-0.2,0-0.5,0-0.7v0c0-0.2,0-0.5,0-0.7
				h0c0-0.2,0-0.5,0.1-0.7c0.1-0.7,0.1-1.4,0.2-2.1v0c0-0.2,0.1-0.5,0.1-0.7l0,0c0.2-1.4,0.4-2.8,0.7-4.2h0c0.5-2.6,1.2-5.1,2.1-7.6
				c1.4-3.9,3.1-7.5,5.2-11h0c0.1-0.2,0.2-0.4,0.4-0.6l0,0c0.4-0.6,0.8-1.2,1.2-1.8h0c0.1-0.2,0.3-0.4,0.4-0.6h0
				c0.1-0.2,0.3-0.4,0.4-0.6h0c0.1-0.2,0.3-0.4,0.4-0.6l0,0c0.6-0.8,1.1-1.5,1.7-2.2h0c0.1-0.2,0.3-0.4,0.4-0.5l0,0
				c0.2-0.2,0.3-0.4,0.5-0.5l0,0c0.3-0.4,0.6-0.7,0.9-1.1v0c0.5-0.5,1-1,1.4-1.5l0,0c0.7-0.7,1.3-1.3,2-2h0c0.2-0.2,0.3-0.3,0.5-0.5
				c0.2-0.2,0.3-0.3,0.5-0.5v0c0.2-0.2,0.4-0.3,0.5-0.5c0.2-0.2,0.4-0.3,0.5-0.5h0c0.4-0.3,0.7-0.6,1.1-0.9h0
				c0.2-0.1,0.4-0.3,0.6-0.4h0c0.2-0.1,0.4-0.3,0.6-0.4c0.2-0.1,0.4-0.3,0.6-0.4c0.4-0.3,0.8-0.6,1.1-0.8c0.2-0.1,0.4-0.3,0.6-0.4
				c0.2-0.1,0.4-0.3,0.6-0.4l0,0c0.2-0.1,0.4-0.3,0.6-0.4l0,0c0.2-0.1,0.4-0.3,0.6-0.4h0c0.2-0.1,0.4-0.3,0.6-0.4
				c0.2-0.1,0.4-0.3,0.6-0.4c0.2-0.1,0.4-0.2,0.6-0.4c0.2-0.1,0.4-0.2,0.6-0.4c0.2-0.1,0.4-0.2,0.6-0.4c0.2-0.1,0.4-0.2,0.6-0.3
				c0.2-0.1,0.4-0.2,0.6-0.3c0.2-0.1,0.4-0.2,0.6-0.3c0.2-0.1,0.4-0.2,0.6-0.3c0.2-0.1,0.4-0.2,0.6-0.3s0.4-0.2,0.7-0.3
				c0.2-0.1,0.4-0.2,0.7-0.3c0.2-0.1,0.4-0.2,0.7-0.3c0.2-0.1,0.4-0.2,0.7-0.3c0.2-0.1,0.4-0.2,0.7-0.3c0.2-0.1,0.4-0.2,0.7-0.3
				c0.2-0.1,0.4-0.2,0.7-0.3c0.2-0.1,0.4-0.2,0.7-0.2c0.2-0.1,0.4-0.2,0.7-0.2c0.2-0.1,0.5-0.2,0.7-0.2h0c0.2-0.1,0.5-0.1,0.7-0.2h0
				c0.2-0.1,0.5-0.1,0.7-0.2h0c0.2-0.1,0.5-0.1,0.7-0.2c0.2-0.1,0.5-0.1,0.7-0.2c0.5-0.1,0.9-0.3,1.4-0.4c0.2-0.1,0.5-0.1,0.7-0.2
				c0.2-0.1,0.5-0.1,0.7-0.2l0,0c0.2-0.1,0.5-0.1,0.7-0.2h0c0.5-0.1,0.9-0.2,1.4-0.3h0c0.2,0,0.5-0.1,0.7-0.1c0.2,0,0.5-0.1,0.7-0.1
				v0c0.2,0,0.5-0.1,0.7-0.1c0.2,0,0.5-0.1,0.7-0.1h0c0.9-0.1,1.9-0.2,2.8-0.3l0,0c0.7-0.1,1.4-0.1,2.1-0.2c0.5,0,0.9,0,1.4-0.1l0,0
				c0.2,0,0.5,0,0.7,0l0,0c0.2,0,0.5,0,0.7,0h0c0.9,0,1.9,0,2.8,0.1l0,0c0.2,0,0.5,0,0.7,0h0c0.2,0,0.5,0,0.7,0v0
				c0.2,0,0.5,0,0.7,0.1l0,0c0.7,0.1,1.4,0.1,2.1,0.2h0c0.2,0,0.5,0.1,0.7,0.1l0,0c4,0.5,7.9,1.5,11.8,2.8c2.5,0.9,4.9,1.9,7.2,3.1
				l0,0c1.3,0.7,2.5,1.3,3.7,2.1v0c0.2,0.1,0.4,0.2,0.6,0.4l0,0c0.6,0.4,1.2,0.8,1.8,1.2c0.2,0.1,0.4,0.3,0.6,0.4l0,0
				c0.2,0.1,0.4,0.3,0.6,0.4v0c0.2,0.1,0.4,0.3,0.6,0.4l0,0c0.8,0.6,1.5,1.1,2.2,1.7c0.2,0.1,0.4,0.3,0.5,0.4l0,0
				c0.2,0.2,0.4,0.3,0.5,0.5l0,0c0.4,0.3,0.7,0.6,1.1,0.9c0.2,0.2,0.3,0.3,0.5,0.5h0c0.2,0.2,0.3,0.3,0.5,0.5l0,0
				c0.2,0.2,0.3,0.3,0.5,0.5c0.5,0.5,1,1,1.5,1.5h0c0.2,0.2,0.3,0.3,0.5,0.5c0.2,0.2,0.3,0.3,0.5,0.5c0.2,0.2,0.3,0.3,0.5,0.5h0
				c0.2,0.2,0.3,0.4,0.5,0.5c0.2,0.2,0.3,0.4,0.5,0.5v0c0.2,0.2,0.3,0.4,0.5,0.5v0c0.2,0.2,0.3,0.4,0.4,0.5v0
				c0.1,0.2,0.3,0.4,0.4,0.6v0c0.1,0.2,0.3,0.4,0.4,0.6c0.1,0.2,0.3,0.4,0.4,0.6c0.1,0.2,0.3,0.4,0.4,0.6h0c0.1,0.2,0.3,0.4,0.4,0.6
				c0.1,0.2,0.3,0.4,0.4,0.6c0.1,0.2,0.3,0.4,0.4,0.6l0,0c0.1,0.2,0.3,0.4,0.4,0.6c0.1,0.2,0.3,0.4,0.4,0.6v0
				c0.1,0.2,0.3,0.4,0.4,0.6c0.1,0.2,0.3,0.4,0.4,0.6c0.1,0.2,0.2,0.4,0.4,0.6c0.1,0.2,0.2,0.4,0.4,0.6c0.1,0.2,0.2,0.4,0.4,0.6
				c0.1,0.2,0.2,0.4,0.3,0.6c0.1,0.2,0.2,0.4,0.3,0.6c0.1,0.2,0.2,0.4,0.3,0.6c0.1,0.2,0.2,0.4,0.3,0.6c0.1,0.2,0.2,0.4,0.3,0.6
				c0.1,0.2,0.2,0.3,0.2,0.5l0,0l0.2,0.5l0,0l0.2,0.5l0,0l0.1,0.2l0.1,0.3l0,0l0.2,0.4l0,0l0.2,0.4l0.1,0.1l0.1,0.3l0.1,0.2l0.1,0.2
				l0.1,0.2l0.2,0.4l0,0.1l0.1,0.3l0.1,0.2l0.1,0.3l0.1,0.2l0.1,0.4l0,0.1l0.1,0.4l0,0.1l0.1,0.4l0,0.1l0.1,0.4l0,0.1l0.1,0.4l0,0.1
				l0.1,0.4l0,0.1l0.1,0.4l0,0.1l0.1,0.4l0,0.1c0.1,0.3,0.2,0.7,0.3,1l0,0l0.1,0.5l0,0.1l0.1,0.5l0,0c1.6,6.8,2,14,1.1,21l0,0
				l-0.1,0.5l0,0l0,0.1l0,0.1l0,0.1l0,0.1l0,0.1l0,0.1l0,0.1l0,0.1l0,0.1l0,0.1l0,0.1l0,0.1l-0.1,0.4l0,0.1l0,0.1l0,0.1l0,0.1l0,0
				l0,0.1l0,0.1l0,0.1l0,0.1l0,0.1l0,0.1l0,0.1l0,0.1l0,0.1l0,0.1l0,0.1l0,0.1l0,0.1l0,0l0,0l0,0.1l0,0.1l0,0.1l-0.1,0.3l0,0.1
				l0,0.1l0,0.2l0,0.1l0,0.1l0,0.1l-0.1,0.3l0,0.1c-1.2,5.5-3.2,10.8-5.9,15.7l-12.9-27l0-0.3l0,0l0-0.3l0-0.1c0-0.3,0-0.6,0-1
				l0-0.1l0-0.1l0-0.3l0-0.1l0-0.3l0,0l0-0.3l0-0.3l0,0l0,0l0-0.3l0,0l0-0.3l0,0l0-0.3l0-0.3l0,0l0-0.3l0,0c0-0.2,0-0.5-0.1-0.7
				l0-0.3l0,0l0-0.3l0-0.1l0-0.3l0-0.1l0-0.1l0-0.2l0,0l0-0.3l0,0l0-0.2l0-0.1l0-0.2l0-0.1l0-0.2l0-0.2l0-0.2l0-0.1l-0.1-0.3l0-0.1
				l0-0.2l0-0.2l0-0.2l0-0.2l0-0.2l0-0.2l0-0.1l-0.1-0.2l0-0.1l-0.1-0.2l0-0.1l0-0.2l-0.1-0.2l0-0.1l-0.1-0.2l0-0.1l-0.1-0.2
				l-0.1-0.2l0-0.1l-0.1-0.2l0-0.2l-0.1-0.2l0-0.2l-0.1-0.2l0-0.1l-0.1-0.2l-0.1-0.2l-0.1-0.2l0-0.1l-0.1-0.2l0-0.1l-0.1-0.1
				l-0.1-0.2l0-0.1l-0.1-0.2l0,0l-0.1-0.3l0,0l-0.1-0.2l0-0.1l0-0.1l-0.1-0.3l0,0l-0.1-0.2l0-0.1l0,0l0-0.1l-0.1-0.2l-0.1-0.3l0,0
				l-0.1-0.3l0,0l-0.1-0.3c-0.1-0.1-0.1-0.3-0.2-0.4c-0.1-0.1-0.1-0.3-0.2-0.4c-0.1-0.1-0.1-0.3-0.2-0.4c-0.1-0.1-0.1-0.3-0.2-0.4h0
				c-0.1-0.1-0.1-0.3-0.2-0.4c-0.1-0.1-0.2-0.3-0.2-0.4c-0.1-0.1-0.2-0.3-0.2-0.4c-0.1-0.1-0.2-0.3-0.2-0.4
				c-0.1-0.1-0.2-0.3-0.2-0.4v0c-0.1-0.1-0.2-0.3-0.2-0.4c-0.1-0.1-0.2-0.3-0.3-0.4c-0.1-0.1-0.2-0.3-0.3-0.4
				c-0.1-0.1-0.2-0.3-0.3-0.4c-0.1-0.1-0.2-0.3-0.3-0.4l0,0c-0.1-0.1-0.2-0.3-0.3-0.4c-0.1-0.1-0.2-0.2-0.3-0.4h0
				c-0.1-0.1-0.2-0.2-0.3-0.4c-0.1-0.1-0.2-0.2-0.3-0.4c-0.1-0.1-0.2-0.2-0.3-0.4l0,0c-0.1-0.1-0.2-0.2-0.3-0.4
				c-0.1-0.1-0.2-0.2-0.3-0.4c-0.1-0.1-0.2-0.2-0.3-0.3l0,0c-0.1-0.1-0.2-0.2-0.3-0.3v0c-0.1-0.1-0.2-0.2-0.3-0.3v0
				c-0.1-0.1-0.2-0.2-0.3-0.3v0c-0.2-0.2-0.4-0.4-0.6-0.7v0c-0.1-0.1-0.2-0.2-0.3-0.3c-0.1-0.1-0.2-0.2-0.3-0.3
				c-0.3-0.3-0.7-0.6-1-0.9v0c-0.1-0.1-0.2-0.2-0.3-0.3c-0.1-0.1-0.2-0.2-0.3-0.3c-0.2-0.2-0.5-0.4-0.7-0.6
				c-0.1-0.1-0.2-0.2-0.4-0.3c-0.1-0.1-0.2-0.2-0.4-0.3v0c-0.1-0.1-0.2-0.2-0.4-0.3v0c-0.1-0.1-0.2-0.2-0.4-0.3l0,0
				c-0.1-0.1-0.2-0.2-0.4-0.3l0,0c-0.7-0.5-1.5-1-2.3-1.5l0,0c-0.3-0.2-0.5-0.3-0.8-0.5l0,0c-2-1.2-4.1-2.1-6.4-2.9
				c-0.3-0.1-0.6-0.2-0.9-0.3l0,0c-1.2-0.4-2.4-0.7-3.6-1l0,0c-0.5-0.1-0.9-0.2-1.4-0.3h0c-0.2,0-0.3-0.1-0.5-0.1l0,0
				c-0.3-0.1-0.6-0.1-0.9-0.1h0c-0.2,0-0.3,0-0.5-0.1l0,0c-0.2,0-0.3,0-0.5-0.1h0c-0.2,0-0.3,0-0.5-0.1h0l-0.5,0v0
				c-0.5,0-0.9-0.1-1.4-0.1h0c-0.2,0-0.3,0-0.5,0l0,0c-0.2,0-0.3,0-0.5,0v0c-0.2,0-0.3,0-0.5,0h0c-0.2,0-0.3,0-0.5,0h0
				c-0.2,0-0.3,0-0.5,0l0,0c-0.3,0-0.6,0-0.9,0h0c-0.2,0-0.3,0-0.5,0h0c-0.2,0-0.3,0-0.5,0h0c-0.5,0-0.9,0.1-1.4,0.1
				c-0.2,0-0.3,0-0.5,0c-0.2,0-0.3,0-0.5,0.1l0,0c-0.3,0-0.6,0.1-0.9,0.1h0c-0.2,0-0.3,0-0.5,0.1h0c-0.2,0-0.3,0-0.5,0.1h0
				c-0.2,0-0.3,0.1-0.5,0.1c-0.2,0-0.3,0.1-0.5,0.1v0c-0.2,0-0.3,0.1-0.5,0.1l0,0c-0.2,0-0.3,0.1-0.5,0.1h0c-0.2,0-0.3,0.1-0.5,0.1
				c-0.1,0-0.3,0.1-0.4,0.1c-0.1,0-0.3,0.1-0.4,0.1l0,0c-0.1,0-0.3,0.1-0.4,0.1l0,0c-0.1,0-0.3,0.1-0.4,0.1v0
				c-0.1,0-0.3,0.1-0.4,0.1c-0.1,0-0.3,0.1-0.4,0.1c-0.1,0-0.3,0.1-0.4,0.1c-0.1,0-0.3,0.1-0.4,0.1c-0.1,0-0.3,0.1-0.4,0.2
				c-0.1,0.1-0.3,0.1-0.4,0.2c-0.1,0.1-0.3,0.1-0.4,0.2h0c-0.1,0.1-0.3,0.1-0.4,0.2h0c-0.1,0.1-0.3,0.1-0.4,0.2
				c-0.1,0.1-0.3,0.1-0.4,0.2c-0.1,0.1-0.3,0.1-0.4,0.2c-0.1,0.1-0.3,0.1-0.4,0.2c-0.1,0.1-0.3,0.1-0.4,0.2
				c-0.1,0.1-0.3,0.1-0.4,0.2c-0.1,0.1-0.3,0.1-0.4,0.2c-0.1,0.1-0.3,0.1-0.4,0.2c-0.1,0.1-0.3,0.1-0.4,0.2
				c-0.1,0.1-0.3,0.1-0.4,0.2c-0.1,0.1-0.3,0.1-0.4,0.2c-0.1,0.1-0.3,0.2-0.4,0.2h0c-0.1,0.1-0.3,0.2-0.4,0.2l0,0
				c-0.1,0.1-0.3,0.2-0.4,0.2c-0.1,0.1-0.3,0.2-0.4,0.2c-0.1,0.1-0.3,0.2-0.4,0.2c-0.1,0.1-0.3,0.2-0.4,0.3
				c-0.1,0.1-0.3,0.2-0.4,0.3c-0.1,0.1-0.3,0.2-0.4,0.3s-0.3,0.2-0.4,0.3l0,0c-0.1,0.1-0.3,0.2-0.4,0.3l0,0
				c-0.1,0.1-0.2,0.2-0.4,0.3l0,0c-0.1,0.1-0.2,0.2-0.4,0.3c-0.1,0.1-0.2,0.2-0.4,0.3c-0.1,0.1-0.2,0.2-0.4,0.3h0
				c-0.1,0.1-0.2,0.2-0.4,0.3v0c-0.1,0.1-0.2,0.2-0.4,0.3v0c-0.1,0.1-0.2,0.2-0.3,0.3c-0.1,0.1-0.2,0.2-0.3,0.3h0
				c-0.1,0.1-0.2,0.2-0.3,0.3l0,0c-0.1,0.1-0.2,0.2-0.3,0.3h0c-0.2,0.2-0.4,0.4-0.7,0.6h0c-0.1,0.1-0.2,0.2-0.3,0.3
				c-0.1,0.1-0.2,0.2-0.3,0.3c-0.3,0.3-0.6,0.7-0.9,1h0c-0.1,0.1-0.2,0.2-0.3,0.3l0,0c-0.1,0.1-0.2,0.2-0.3,0.3l0,0
				c-0.2,0.2-0.4,0.5-0.6,0.7h0c-0.1,0.1-0.2,0.2-0.3,0.4h0c-0.1,0.1-0.2,0.2-0.3,0.4h0c-0.1,0.1-0.2,0.2-0.3,0.4h0l-0.3,0.4h0
				c-0.1,0.1-0.2,0.2-0.3,0.4l0,0c-0.3,0.4-0.5,0.8-0.8,1.1l0,0c-0.1,0.1-0.2,0.3-0.3,0.4h0c-0.1,0.1-0.2,0.3-0.2,0.4l0,0
				c-0.1,0.1-0.2,0.3-0.2,0.4l0,0c-0.1,0.1-0.2,0.3-0.2,0.4h0c-0.2,0.3-0.3,0.5-0.5,0.8l0,0c-0.1,0.1-0.1,0.3-0.2,0.4l0,0
				c-0.2,0.4-0.4,0.8-0.6,1.2l0,0c-0.6,1.1-1.1,2.3-1.5,3.4h0c-0.1,0.3-0.2,0.6-0.3,0.9c-0.8,2.2-1.4,4.5-1.7,6.8l0,0
				c0,0.3-0.1,0.6-0.1,0.9v0c-0.1,0.9-0.2,1.8-0.3,2.8v0c0,0.2,0,0.3,0,0.5h0c0,0.2,0,0.3,0,0.5h0c0,0.2,0,0.3,0,0.5v0
				c0,0.2,0,0.3,0,0.5c0,0.2,0,0.3,0,0.5c0,0.3,0,0.6,0,0.9c0,0.2,0,0.3,0,0.5c0,0.2,0,0.3,0,0.5l0,0c0,0.5,0.1,0.9,0.1,1.4
				c0,0.2,0,0.3,0,0.5c0,0.2,0,0.3,0.1,0.5l0,0c0,0.3,0.1,0.6,0.1,0.9v0c0,0.2,0,0.3,0.1,0.5v0c0,0.2,0,0.3,0.1,0.5v0
				c0,0.2,0.1,0.3,0.1,0.5l0,0c0,0.2,0.1,0.3,0.1,0.5c0,0.2,0.1,0.3,0.1,0.5c0,0.2,0.1,0.3,0.1,0.5h0c0,0.2,0.1,0.3,0.1,0.5
				c0,0.1,0.1,0.3,0.1,0.4c0,0.1,0.1,0.3,0.1,0.4l0,0c0,0.1,0.1,0.3,0.1,0.4c0,0.1,0.1,0.3,0.1,0.4h0c0,0.1,0.1,0.3,0.1,0.4
				c0,0.1,0.1,0.3,0.1,0.4c0,0.1,0.1,0.3,0.1,0.4c0,0.1,0.1,0.3,0.1,0.4c0,0.1,0.1,0.3,0.2,0.4h0c0.1,0.1,0.1,0.3,0.2,0.4
				c0.1,0.1,0.1,0.3,0.2,0.4c0.1,0.1,0.1,0.3,0.2,0.4c0.1,0.1,0.1,0.3,0.2,0.4c0.1,0.1,0.1,0.3,0.2,0.4h0c0.1,0.1,0.1,0.3,0.2,0.4
				c0.1,0.1,0.1,0.3,0.2,0.4c0.1,0.1,0.1,0.3,0.2,0.4c0.1,0.1,0.1,0.3,0.2,0.4l0.2,0.3l0,0l0.2,0.3l0,0l0.1,0.3l0.1,0.2l0,0.1l0,0
				l0,0.1l0.1,0.2l0,0l0.1,0.3l0,0l0.1,0.1l0.1,0.2l0,0l0.1,0.2l0,0l0.1,0.2l0.1,0.1l0.1,0.2l0.1,0.1l0.1,0.1l0.1,0.2l0.1,0.1
				l0.1,0.2l0.1,0.1l0.1,0.2l0.1,0.1l0.1,0.2l0.1,0.1l0.1,0.1l0.1,0.1l0.1,0.2l0.1,0.1l0.1,0.2l0.1,0.2l0.1,0.1l0.1,0.2l0.1,0.1
				l0.1,0.2l0.1,0.1l0.1,0.1l0.1,0.2l0.1,0.1l0.1,0.2l0.1,0.1l0.1,0.1l0.1,0.1l0.1,0.1l0.1,0.1l0.1,0.1l0.1,0.2l0,0.1l0.2,0.2
				l0.1,0.1l0.1,0.2l0.1,0.1l0.1,0.1l0.1,0.1l0.1,0.2l0.1,0.1l0.2,0.2l0,0l0.2,0.2l0,0l0.2,0.2l0.1,0.1l0,0l0.2,0.2l0,0l0.2,0.2l0,0
				l0.2,0.2c0.2,0.2,0.3,0.3,0.5,0.5l0,0l0.2,0.2l0,0l0.2,0.2l0.2,0.2l0,0l0.2,0.2l0,0l0.2,0.2l0,0l0,0l0.2,0.2l0.2,0.2l0,0l0.2,0.2
				l0,0l0.2,0.2l0,0l0.1,0c0.2,0.2,0.5,0.4,0.8,0.6l0,0l0.2,0.2l0,0l0.2,0.2l0.1,0l0.2,0.2l0,0l0.2,0.2l0,0c0.2,0.1,0.3,0.2,0.5,0.4
				l0.1,0.1l0.2,0.1l0.1,0.1l0.2,0.1l0.1,0l0.3,0.2l0,0l0.3,0.2l0,0l0.2,0.2l0.1,0L171.4,208.7L171.4,208.7z"/>
		</g>
		<path id="_293763744" class="st1" d="M144.3,177.7c1.3-0.6,2.2-1.8,2.3-3.3c0.1-2.7-2.6-4.6-5.1-3.5l-0.3,0.1l-0.3,0.1l-0.3,0.1
			l-0.3,0.1l-0.3,0.1l-0.3,0.1l-0.3,0.1l-0.3,0.1l-0.3,0.1l-0.3,0.1l-0.3,0.1l-0.3,0.1l-0.3,0.1l-0.3,0.1l-0.3,0.1l-0.3,0.1
			l-0.3,0.1l-0.3,0.1l-0.3,0.1l-0.3,0.1l-0.3,0.1l-0.3,0.1l0,0c-3,0.8-3.7,4.8-1.1,6.6c0.9,0.6,2,0.8,3.1,0.5l0,0l0.3-0.1l0.3-0.1
			l0.3-0.1l0.3-0.1l0.3-0.1l0.3-0.1l0.3-0.1l0.3-0.1l0.3-0.1l0.3-0.1l0.3-0.1l0.3-0.1l0.3-0.1l0.3-0.1l0.3-0.1l0.3-0.1l0.3-0.1
			l0.3-0.1l0.3-0.1l0.3-0.1l0.3-0.1L144.3,177.7L144.3,177.7z M163,91c2,2.6,6.3,1.4,6.6-1.9c0.1-0.9-0.2-1.8-0.7-2.6l-0.2-0.3
			l-0.2-0.3l-0.2-0.3l-0.2-0.3l-0.2-0.3l-0.2-0.3l-0.2-0.3l-0.2-0.3l-0.2-0.3l-0.2-0.3l-0.2-0.3l-0.2-0.3l-0.2-0.3l-0.2-0.3
			l-0.2-0.3l-0.2-0.3l-0.2-0.3l-0.2-0.3l-0.2-0.3l-0.3-0.3l-0.3-0.3l-0.1-0.1c-2.4-2.4-6.5-0.6-6.3,2.8c0.1,0.9,0.4,1.7,1.1,2.4
			l0.1,0.1l0.2,0.2l0.2,0.2l0.2,0.2l0.2,0.2l0.2,0.2l0.2,0.2l0.2,0.2l0.2,0.2l0.2,0.2l0.2,0.2l0.2,0.2l0.2,0.2l0.2,0.2l0.2,0.2
			l0.2,0.2l0.2,0.3l0.2,0.3l0.2,0.3l0.2,0.3l0.2,0.3L163,91L163,91z M147.7,77.4c2.8,1.6,6.1-0.8,5.4-4c-0.2-1-0.8-1.9-1.8-2.4
			l-0.1-0.1l-0.3-0.2l-0.3-0.2l-0.3-0.2l-0.3-0.2l-0.3-0.2l-0.3-0.2l-0.3-0.2l-0.3-0.2l-0.3-0.2l-0.3-0.2l-0.3-0.2l-0.3-0.2
			l-0.3-0.2l-0.3-0.2l-0.3-0.1l-0.3-0.1l-0.3-0.1l-0.3-0.1l-0.3-0.1l-0.3-0.1l-0.3-0.1l-0.3-0.1c-2.7-1.1-5.6,1.2-5,4.1
			c0.2,1.2,1,2.2,2.2,2.7l0.2,0.1l0.3,0.1l0.3,0.1l0.3,0.1l0.3,0.1l0.3,0.1l0.3,0.1l0.3,0.1l0.3,0.1l0.3,0.1l0.3,0.1l0.3,0.1
			l0.3,0.1l0.3,0.1l0.3,0.1l0.3,0.1l0.3,0.1l0.3,0.1l0.3,0.1L147,77l0.3,0.2l0.3,0.2L147.7,77.4L147.7,77.4z M128.3,70.7
			c1.3,0.2,2.6-0.3,3.4-1.4c1.7-2.3,0.4-5.5-2.4-5.9l-0.1,0l-0.3,0l-0.3,0l-0.3,0l-0.3,0l-0.3,0l-0.4,0l-0.3,0l-0.3,0l-0.4,0l-0.4,0
			l-0.3,0l-0.4,0l-0.4,0l-0.4,0l-0.4,0l-0.4,0l-0.4,0l-0.4,0l-0.4,0l-0.4,0l-0.4,0l-0.3,0c-3.3,0-5,4.1-2.5,6.4c0.7,0.6,1.6,1,2.5,1
			l0.3,0l0.3,0l0.3,0l0.3,0l0.3,0l0.3,0l0.3,0l0.3,0l0.3,0l0.3,0l0.3,0l0.3,0l0.3,0l0.3,0l0.3,0l0.3,0l0.3,0l0.3,0l0.3,0l0.3,0
			l0.3,0l0.3,0L128.3,70.7L128.3,70.7z M107.8,71.9c3.3-0.9,3.7-5.4,0.7-6.9c-0.8-0.4-1.7-0.5-2.6-0.2l0,0l-0.3,0.1l-0.4,0.1
			l-0.3,0.1l-0.3,0.1l-0.3,0.1l-0.3,0.1l-0.3,0.1l-0.3,0.1l-0.3,0.1l-0.3,0.1l-0.3,0.1l-0.3,0.1l-0.3,0.1l-0.3,0.1l-0.3,0.1
			l-0.3,0.1l-0.3,0.1l-0.3,0.1L99.3,67L99,67.1l-0.3,0.1l-0.1,0.1c-3.1,1.3-3,5.7,0.2,6.9c0.9,0.3,1.8,0.3,2.6-0.1l0.1,0l0.3-0.1
			l0.3-0.1l0.3-0.1l0.3-0.1l0.3-0.1l0.3-0.1l0.3-0.1l0.3-0.1l0.3-0.1l0.3-0.1l0.3-0.1l0.3-0.1l0.3-0.1l0.3-0.1l0.3-0.1l0.3-0.1
			l0.3-0.1l0.3-0.1l0.3-0.1l0.3-0.1L107.8,71.9C107.8,72,107.8,71.9,107.8,71.9z M75.9,96.3c1.6-2.9-1.1-6.3-4.2-5.4
			c-0.9,0.3-1.7,0.9-2.1,1.7l-0.1,0.2l-0.2,0.3L69,93.5l-0.2,0.3l-0.2,0.3l-0.2,0.3l-0.2,0.3l-0.2,0.3L68,95.4l-0.2,0.3l-0.2,0.3
			l-0.2,0.3l-0.2,0.3l-0.2,0.3L67,97.4l-0.2,0.3L66.7,98l-0.1,0.3l-0.1,0.3L66.3,99l-0.1,0.3L66,99.7l0,0c-0.5,1.2-0.3,2.6,0.5,3.6
			c1.7,2.2,5.3,1.8,6.3-0.9l0,0l0.1-0.3l0.1-0.3l0.1-0.3l0.1-0.3l0.1-0.3l0.1-0.3l0.1-0.3l0.1-0.3l0.1-0.3l0.1-0.3l0.1-0.3l0.1-0.3
			l0.1-0.3l0.1-0.3l0.1-0.3l0.1-0.3l0.1-0.3l0.2-0.3l0.2-0.3l0.2-0.3l0.2-0.3L75.9,96.3L75.9,96.3z M69.3,115.7
			c0.3-2.3-1.6-4.3-4-4.1c-1.7,0.1-3.1,1.5-3.3,3.2l0,0.1l0,0.4l0,0.4l0,0.4l0,0.4l0,0.4l0,0.4l0,0.4l0,0.4l0,0.4l0,0.4l0,0.4l0,0.4
			l0,0.4l0,0.4l0,0.4l0,0.4l0,0.4l0,0.4l0,0.4l0,0.4l0,0.4l0,0.2c0,2.9,3.3,4.7,5.7,3.1c1-0.7,1.6-1.8,1.6-3.1l0-0.2l0-0.3l0-0.3
			l0-0.3l0-0.3l0-0.3l0-0.3l0-0.3l0-0.3l0-0.3l0-0.3l0-0.3l0-0.3l0-0.3l0-0.3l0-0.3l0-0.3l0-0.3l0-0.3l0-0.3l0-0.3L69.3,115.7
			C69.2,115.8,69.3,115.7,69.3,115.7z M70.6,136.2c-0.3-1.3-1.3-2.2-2.6-2.6c-2.8-0.7-5.3,1.8-4.5,4.5l0,0.2l0.1,0.4l0.1,0.4
			l0.1,0.4l0.1,0.4l0.1,0.4l0.1,0.4l0.1,0.4l0.1,0.4l0.1,0.4l0.1,0.4l0.1,0.4l0.1,0.4l0.1,0.4l0.1,0.4l0.1,0.4l0.1,0.4l0.1,0.4
			l0.1,0.4l0.1,0.4l0.1,0.3l0.1,0.2c0.6,1.3,1.9,2.2,3.3,2.3c2.7,0.1,4.5-2.6,3.5-5.1l-0.1-0.1l-0.1-0.3l-0.1-0.3l-0.1-0.3l-0.1-0.3
			l-0.1-0.3l-0.1-0.3l-0.1-0.3l-0.1-0.3l-0.1-0.3l-0.1-0.3l-0.1-0.3l-0.1-0.3l-0.1-0.3l-0.1-0.3l-0.1-0.3l-0.1-0.3l-0.1-0.3
			l-0.1-0.3l-0.1-0.3l-0.1-0.3L70.6,136.2L70.6,136.2z M79.7,154.6c-2.2-2.7-6.5-1.3-6.6,2.2c0,0.8,0.3,1.6,0.8,2.3l0.1,0.1l0.2,0.3
			l0.2,0.3l0.2,0.3l0.2,0.3l0.2,0.3l0.2,0.3l0.2,0.3l0.2,0.3l0.2,0.3l0.2,0.3l0.2,0.3l0.2,0.3l0.2,0.3l0.2,0.3l0.2,0.3l0.2,0.3
			l0.2,0.3L78,164l0.2,0.2l0.2,0.2l0.2,0.2l0.2,0.2l0,0c2.5,2.4,6.5,0.5,6.3-2.9c-0.1-0.9-0.4-1.7-1.1-2.3l0,0l-0.2-0.2l-0.2-0.2
			l-0.2-0.2l-0.2-0.2l-0.2-0.2l-0.2-0.2l-0.2-0.2l-0.2-0.2l-0.2-0.2l-0.2-0.2l-0.2-0.2l-0.2-0.2l-0.2-0.2l-0.2-0.2l-0.2-0.2
			l-0.2-0.2l-0.2-0.2l-0.2-0.2l-0.2-0.2l-0.2-0.2L80,155l-0.2-0.2L79.7,154.6z M95.1,168.1c-2.9-1.6-6.3,1.1-5.3,4.3
			c0.3,0.9,0.9,1.7,1.7,2.1l0.2,0.1l0.3,0.2l0.3,0.2l0.3,0.2l0.3,0.2l0.3,0.2l0.3,0.2l0.3,0.2l0.3,0.2l0.3,0.2l0.3,0.1l0.3,0.1
			l0.3,0.1l0.3,0.1l0.3,0.1l0.3,0.1l0.3,0.1l0.3,0.1l0.3,0.1l0.3,0.1l0.3,0.1l0.3,0.1l0.3,0.1l0.2,0.1c1.2,0.5,2.6,0.3,3.6-0.5
			c2.2-1.7,1.8-5.3-0.9-6.3l-0.1-0.1l-0.3-0.1l-0.3-0.1l-0.3-0.1l-0.3-0.1l-0.3-0.1l-0.3-0.1l-0.3-0.1l-0.3-0.1l-0.3-0.1l-0.3-0.1
			l-0.3-0.1l-0.3-0.1l-0.3-0.1l-0.3-0.1l-0.3-0.1l-0.3-0.1l-0.3-0.1l-0.3-0.1l-0.3-0.1l-0.3-0.1l-0.3-0.1l-0.3-0.1L95.1,168.1
			L95.1,168.1z M114.5,174.6c-3.1-0.4-5.2,3-3.6,5.6c0.6,0.9,1.6,1.6,2.7,1.7l0.3,0l0.3,0l0.3,0l0.3,0l0.3,0l0.3,0l0.3,0l0.3,0
			l0.3,0l0.3,0l0.3,0l0.3,0l0.3,0l0.3,0l0.3,0l0.3,0l0.3,0l0.3,0l0.3,0l0.3,0l0.3,0l0.3,0l0.3,0l0.1,0c1.3,0,2.4-0.7,3.1-1.8
			c1.5-2.5-0.3-5.6-3.2-5.6l-0.1,0l-0.3,0l-0.3,0l-0.3,0l-0.3,0l-0.3,0l-0.3,0l-0.3,0l-0.3,0l-0.3,0l-0.3,0l-0.3,0l-0.3,0l-0.3,0
			l-0.3,0l-0.3,0l-0.3,0l-0.3,0l-0.3,0l-0.3,0l-0.3,0l-0.3,0l-0.3,0L114.5,174.6L114.5,174.6z"/>
		<path id="_293763672" class="st1" d="M89.9,81.8c2.8-1.8,2-6.1-1.3-6.7c-1-0.2-1.9,0-2.7,0.5l-0.2,0.1L85.4,76l-0.3,0.2l-0.3,0.2
			l-0.3,0.2l-0.3,0.2L83.9,77l-0.3,0.2l-0.3,0.2l-0.3,0.2l-0.3,0.2L82.5,78l-0.3,0.2l-0.3,0.2l-0.3,0.2l-0.3,0.2L81,79.1l-0.3,0.2
			l-0.3,0.2l-0.3,0.2L79.9,80l-0.3,0.2l0,0c-1,0.8-1.5,2.2-1.2,3.5c0.5,2.8,3.8,4,6,2.2l0,0l0.2-0.2l0.2-0.2l0.2-0.2l0.2-0.2
			l0.2-0.2l0.2-0.2l0.2-0.2l0.3-0.2l0.3-0.2l0.3-0.2l0.3-0.2l0.3-0.2l0.3-0.2l0.3-0.2l0.3-0.2l0.3-0.2l0.3-0.2l0.3-0.2l0.3-0.2
			l0.3-0.2l0.3-0.2C89.7,82,89.9,81.8,89.9,81.8z"/>
	</g>
	<rect class="st3" width="491.5" height="491.5"/>
</g>
</svg>
