<?xml version="1.0" encoding="UTF-8"?>
<!DOCTYPE svg PUBLIC "-//W3C//DTD SVG 1.1//EN" "http://www.w3.org/Graphics/SVG/1.1/DTD/svg11.dtd">
<!-- Creator: CorelDRAW -->
<svg xmlns="http://www.w3.org/2000/svg" xml:space="preserve" width="6.82666in" height="6.82666in" style="shape-rendering:geometricPrecision; text-rendering:geometricPrecision; image-rendering:optimizeQuality; fill-rule:evenodd; clip-rule:evenodd"
viewBox="0 0 6.82666 6.82666"
 xmlns:xlink="http://www.w3.org/1999/xlink">
 <defs>
  <style type="text/css">
   <![CDATA[
    .fil2 {fill:none}
    .fil0 {fill:#424242}
    .fil1 {fill:#FFFFFE;fill-rule:nonzero}
   ]]>
  </style>
 </defs>
 <rect class="fil0" width="6.82666" height="6.82666"/>
 <g id="Layer_x0020_1">
  <metadata id="CorelCorpID_0Corel-Layer"/>
  <g id="_396177544">
   <path id="_396178888" class="fil1" d="M5.55412 4.04352c0.205661,0.329693 0.286343,0.459035 0.261583,1.01525 -0.000350394,0.0079685 0.000224409,0.0154449 0.00169685,0.0222441 0.00124409,0.00572441 0.00302362,0.0112756 0.00532283,0.0165472 0.00109843,0.00185827 0.00213386,0.00377165 0.00310236,0.00574016l-0.000271654 0.000129921 0.0594882 0.121157c0.000996063,0.00165354 0.00194094,0.00335433 0.00283071,0.00509843l-0.000259843 0.000133858 0.000448819 0.000909449 -1.9685e-005 1.1811e-005c0.0120709,0.0243622 0.0148701,0.0507874 0.00970472,0.0752323 -0.000645669,0.00378346 -0.00155906,0.00756693 -0.00275591,0.0113268l-0.0789764 -0.0251929 0.0789685 0.0251969c-0.00893307,0.0280039 -0.0284803,0.0526299 -0.0565472,0.067315l-1.10641 0.578921 -3.93701e-006 -7.87402e-006 -0.000637795 0.000338583 -0.000145669 -0.000283465 -0.000251969 0.000125984c-0.0277953,0.0141772 -0.0582953,0.0162756 -0.0855079,0.00820079l-0.000503937 -0.000149606 -0.00080315 -0.000244094 -0.000877953 -0.000267717 7.87402e-006 -7.87402e-006 -3.14961e-005 -7.87402e-006 7.08661e-005 -0.000220472c-0.028189,-0.00904331 -0.0528425,-0.0285157 -0.0673976,-0.0563307l1.1811e-005 -3.93701e-006 -0.000334646 -0.000633858c-0.000362205,-0.000692913 -0.000712598,-0.0013937 -0.00105512,-0.0021063l0.000251969 -0.000122047 -0.0372559 -0.0772756c-0.000826772,-0.00141339 -0.00162992,-0.00285827 -0.00238189,-0.00433858l0.000232283 -0.00011811 -0.000708661 -0.00146457c-0.00510236,-0.00945276 -0.0120827,-0.017878 -0.0204764,-0.024874 -0.00871654,-0.00726378 -0.0187795,-0.0127402 -0.0296299,-0.0159764 -0.70187,-0.209315 -0.725437,-0.23115 -1.13094,-0.606937 -0.0550906,-0.0510472 -0.117114,-0.108528 -0.178937,-0.164913l-0.122882 -0.0483189c-0.0683189,-0.0268622 -0.12098,-0.0774449 -0.15165,-0.139024 -0.0307047,-0.0616535 -0.0393622,-0.134232 -0.0196181,-0.204996 0.0205,-0.0734724 0.0680591,-0.132539 0.129146,-0.169094 0.0609055,-0.0364449 0.135331,-0.0503622 0.209791,-0.0336969 0.0605315,0.0135433 0.24728,0.125866 0.395362,0.216181l-0.761898 -1.45611c-0.0357283,-0.0682795 -0.0403937,-0.144598 -0.0190591,-0.212768 0.0213386,-0.0681693 0.0686732,-0.128205 0.136961,-0.163933 0.0682756,-0.0357283 0.144594,-0.0403937 0.212764,-0.0190551 0.0681693,0.0213386 0.128209,0.0686772 0.163933,0.136961l0.27326 0.52224 0.000283465 -0.000929134c0.0216575,-0.069189 0.0697087,-0.130126 0.139008,-0.166386 0.0692992,-0.0362598 0.146756,-0.0409961 0.215949,-0.0193386 0.0393858,0.0123268 0.0760906,0.0332087 0.107098,0.0616929 0.0243819,-0.062252 0.0704606,-0.116331 0.134339,-0.149752 0.0703189,-0.0367953 0.148913,-0.0415984 0.219126,-0.019626 0.0629724,0.0197087 0.119193,0.0609646 0.156669,0.119992 0.0250276,-0.0574055 0.0690748,-0.106984 0.12887,-0.138272l3.93701e-006 0c0.0687835,-0.0359921 0.145811,-0.0409528 0.214961,-0.019815 0.0690354,0.0211063 0.130134,0.0684016 0.167177,0.136965l0.203087 0.37585c0.0950197,0.175638 0.178138,0.308878 0.24672,0.418827z"/>
   <path id="_396178960" class="fil1" d="M1.30787 0.850043c0.105307,0 0.200661,0.0426969 0.269689,0.11172 0.0690236,0.0690236 0.11172,0.164378 0.11172,0.269689 0,0.105311 -0.0426969,0.200665 -0.11172,0.269693 -0.0690236,0.0690236 -0.164378,0.11172 -0.269689,0.11172 -0.105311,0 -0.200665,-0.0426969 -0.269693,-0.11172 -0.0690236,-0.0690276 -0.11172,-0.164382 -0.11172,-0.269693 0,-0.105311 0.0426969,-0.200665 0.11172,-0.269689 0.0690276,-0.0690236 0.164382,-0.11172 0.269693,-0.11172z"/>
   <path id="_396178504" class="fil1" d="M2.3913 0.850043c0.105311,0 0.200665,0.0426969 0.269693,0.11172 0.0690236,0.0690276 0.11172,0.164382 0.11172,0.269689 0,0.105311 -0.0426969,0.200665 -0.11172,0.269693 -0.0690276,0.0690236 -0.164382,0.11172 -0.269693,0.11172 -0.105311,0 -0.200665,-0.0426969 -0.269693,-0.11172 -0.0690236,-0.0690276 -0.11172,-0.164382 -0.11172,-0.269693 0,-0.105307 0.0426969,-0.200661 0.11172,-0.269689 0.0690276,-0.0690236 0.164382,-0.11172 0.269693,-0.11172z"/>
   <path id="_396178480" class="fil1" d="M3.47473 0.850043c0.105311,0 0.200665,0.0426969 0.269689,0.11172 0.0690236,0.0690236 0.11172,0.164378 0.11172,0.269689 0,0.105311 -0.0426969,0.200665 -0.11172,0.269693 -0.0690236,0.0690236 -0.164378,0.11172 -0.269689,0.11172 -0.105307,0 -0.200661,-0.0426969 -0.269693,-0.11172 -0.0690236,-0.0690276 -0.11172,-0.164382 -0.11172,-0.269693 0,-0.105311 0.0426969,-0.200665 0.11172,-0.269689 0.0690315,-0.0690236 0.164386,-0.11172 0.269693,-0.11172z"/>
   <path id="_396177520" class="fil1" d="M1.30787 1.91156c0.105307,0 0.200661,0.0426969 0.269689,0.11172 0.0690236,0.0690276 0.11172,0.164382 0.11172,0.269693 0,0.105311 -0.0426969,0.200665 -0.11172,0.269693 -0.0690276,0.0690236 -0.164382,0.11172 -0.269689,0.11172 -0.105311,0 -0.200665,-0.0426969 -0.269693,-0.11172 -0.0690236,-0.0690276 -0.11172,-0.164382 -0.11172,-0.269693 0,-0.105311 0.0426969,-0.200665 0.11172,-0.269693 0.0690276,-0.0690236 0.164382,-0.11172 0.269693,-0.11172z"/>
   <path id="_396177784" class="fil1" d="M1.30787 2.97307c0.105311,0 0.200665,0.0426969 0.269689,0.11172 0.0690236,0.0690276 0.11172,0.164382 0.11172,0.269693 0,0.105311 -0.0426969,0.200665 -0.11172,0.269693 -0.0690276,0.0690236 -0.164382,0.11172 -0.269689,0.11172 -0.105311,0 -0.200665,-0.0426969 -0.269693,-0.11172 -0.0690236,-0.0690276 -0.11172,-0.164382 -0.11172,-0.269693 0,-0.105311 0.0426969,-0.200665 0.11172,-0.269693 0.0690276,-0.0690236 0.164382,-0.11172 0.269693,-0.11172z"/>
   <path id="_396178216" class="fil1" d="M2.3913 1.91156c0.105307,0 0.200665,0.0426969 0.269689,0.111724 0.0690236,0.0690197 0.111724,0.164374 0.111724,0.269689 0,0.105307 -0.0426969,0.200665 -0.111724,0.269689 -0.0690236,0.0690276 -0.164382,0.111724 -0.269689,0.111724 -0.105315,0 -0.200669,-0.0427008 -0.269689,-0.111724 -0.0690276,-0.0690236 -0.111724,-0.164382 -0.111724,-0.269689 0,-0.105315 0.0427008,-0.200669 0.111724,-0.269689 0.0690197,-0.0690236 0.164374,-0.111724 0.269689,-0.111724z"/>
   <path id="_396178120" class="fil1" d="M2.3913 2.97307c0.105311,0 0.200665,0.0426969 0.269693,0.11172 0.0690236,0.0690276 0.11172,0.164382 0.11172,0.269693 0,0.105311 -0.0427008,0.200669 -0.111724,0.269689 -0.0690236,0.0690276 -0.164382,0.111724 -0.269689,0.111724 -0.105315,0 -0.200669,-0.0427008 -0.269689,-0.111724 -0.0690236,-0.0690197 -0.111724,-0.164378 -0.111724,-0.269689 0,-0.105311 0.0426969,-0.200665 0.11172,-0.269693 0.0690276,-0.0690236 0.164382,-0.11172 0.269693,-0.11172z"/>
   <path id="_396177688" class="fil1" d="M3.47473 1.91156c0.105307,0 0.200661,0.0426969 0.269689,0.11172 0.0690236,0.0690276 0.11172,0.164382 0.11172,0.269693 0,0.105311 -0.0426969,0.200665 -0.11172,0.269693 -0.0690276,0.0690236 -0.164382,0.11172 -0.269689,0.11172 -0.105307,0 -0.200661,-0.0426969 -0.269693,-0.11172 -0.0690236,-0.0690276 -0.11172,-0.164382 -0.11172,-0.269693 0,-0.105311 0.0426969,-0.200665 0.11172,-0.269693 0.0690315,-0.0690236 0.164386,-0.11172 0.269693,-0.11172z"/>
  </g>
  <rect class="fil2" width="6.82666" height="6.82666"/>
 </g>
</svg>
