<?xml version="1.0" encoding="utf-8"?>
<!-- Generator: Adobe Illustrator 24.2.3, SVG Export Plug-In . SVG Version: 6.00 Build 0)  -->
<svg version="1.1" id="Ebene_1" xmlns="http://www.w3.org/2000/svg" xmlns:xlink="http://www.w3.org/1999/xlink" x="0px" y="0px"
	 viewBox="0 0 491.5 491.5" style="enable-background:new 0 0 491.5 491.5;" xml:space="preserve">
<style type="text/css">
	.st0{display:none;fill-rule:evenodd;clip-rule:evenodd;fill:#424242;}
	.st1{fill:#FFFFFE;}
	.st2{fill:none;}
</style>
<rect class="st0" width="491.5" height="491.5"/>
<g id="Layer_x0020_1">
	<g id="_396177544">
		<path id="_396178888" class="st1" d="M399.9,291.1c14.8,23.7,20.6,33.1,18.8,73.1c0,0.6,0,1.1,0.1,1.6c0.1,0.4,0.2,0.8,0.4,1.2
			c0.1,0.1,0.2,0.3,0.2,0.4l0,0l4.3,8.7c0.1,0.1,0.1,0.2,0.2,0.4l0,0l0,0.1l0,0c0.9,1.8,1.1,3.7,0.7,5.4c0,0.3-0.1,0.5-0.2,0.8
			l-5.7-1.8l5.7,1.8c-0.6,2-2.1,3.8-4.1,4.8l-79.7,41.7l0,0l0,0l0,0l0,0c-2,1-4.2,1.2-6.2,0.6l0,0l-0.1,0l-0.1,0l0,0l0,0l0,0
			c-2-0.7-3.8-2.1-4.9-4.1l0,0l0,0c0,0-0.1-0.1-0.1-0.2l0,0l-2.7-5.6c-0.1-0.1-0.1-0.2-0.2-0.3l0,0l-0.1-0.1
			c-0.4-0.7-0.9-1.3-1.5-1.8c-0.6-0.5-1.4-0.9-2.1-1.2c-50.5-15.1-52.2-16.6-81.4-43.7c-4-3.7-8.4-7.8-12.9-11.9l-8.8-3.5
			c-4.9-1.9-8.7-5.6-10.9-10c-2.2-4.4-2.8-9.7-1.4-14.8c1.5-5.3,4.9-9.5,9.3-12.2c4.4-2.6,9.7-3.6,15.1-2.4
			c4.4,1,17.8,9.1,28.5,15.6L205.4,229c-2.6-4.9-2.9-10.4-1.4-15.3c1.5-4.9,4.9-9.2,9.9-11.8c4.9-2.6,10.4-2.9,15.3-1.4
			c4.9,1.5,9.2,4.9,11.8,9.9l19.7,37.6l0-0.1c1.6-5,5-9.4,10-12c5-2.6,10.6-3,15.5-1.4c2.8,0.9,5.5,2.4,7.7,4.4
			c1.8-4.5,5.1-8.4,9.7-10.8c5.1-2.6,10.7-3,15.8-1.4c4.5,1.4,8.6,4.4,11.3,8.6c1.8-4.1,5-7.7,9.3-10h0c5-2.6,10.5-2.9,15.5-1.4
			c5,1.5,9.4,4.9,12,9.9l14.6,27.1C389,273.6,395,283.2,399.9,291.1L399.9,291.1z"/>
		<path id="_396178960" class="st1" d="M94.2,61.2c7.6,0,14.4,3.1,19.4,8c5,5,8,11.8,8,19.4c0,7.6-3.1,14.4-8,19.4
			c-5,5-11.8,8-19.4,8c-7.6,0-14.4-3.1-19.4-8c-5-5-8-11.8-8-19.4s3.1-14.4,8-19.4C79.7,64.3,86.6,61.2,94.2,61.2z"/>
		<path id="_396178504" class="st1" d="M172.2,61.2c7.6,0,14.4,3.1,19.4,8c5,5,8,11.8,8,19.4c0,7.6-3.1,14.4-8,19.4
			c-5,5-11.8,8-19.4,8s-14.4-3.1-19.4-8c-5-5-8-11.8-8-19.4c0-7.6,3.1-14.4,8-19.4C157.7,64.3,164.6,61.2,172.2,61.2z"/>
		<path id="_396178480" class="st1" d="M250.2,61.2c7.6,0,14.4,3.1,19.4,8c5,5,8,11.8,8,19.4c0,7.6-3.1,14.4-8,19.4
			c-5,5-11.8,8-19.4,8c-7.6,0-14.4-3.1-19.4-8c-5-5-8-11.8-8-19.4s3.1-14.4,8-19.4C235.7,64.3,242.6,61.2,250.2,61.2z"/>
		<path id="_396177520" class="st1" d="M94.2,137.6c7.6,0,14.4,3.1,19.4,8c5,5,8,11.8,8,19.4c0,7.6-3.1,14.4-8,19.4
			c-5,5-11.8,8-19.4,8c-7.6,0-14.4-3.1-19.4-8c-5-5-8-11.8-8-19.4c0-7.6,3.1-14.4,8-19.4C79.7,140.7,86.6,137.6,94.2,137.6z"/>
		<path id="_396177784" class="st1" d="M94.2,214.1c7.6,0,14.4,3.1,19.4,8c5,5,8,11.8,8,19.4s-3.1,14.4-8,19.4c-5,5-11.8,8-19.4,8
			c-7.6,0-14.4-3.1-19.4-8c-5-5-8-11.8-8-19.4s3.1-14.4,8-19.4C79.7,217.1,86.6,214.1,94.2,214.1z"/>
		<path id="_396178216" class="st1" d="M172.2,137.6c7.6,0,14.4,3.1,19.4,8c5,5,8,11.8,8,19.4c0,7.6-3.1,14.4-8,19.4
			c-5,5-11.8,8-19.4,8c-7.6,0-14.4-3.1-19.4-8c-5-5-8-11.8-8-19.4c0-7.6,3.1-14.4,8-19.4C157.7,140.7,164.6,137.6,172.2,137.6z"/>
		<path id="_396178120" class="st1" d="M172.2,214.1c7.6,0,14.4,3.1,19.4,8c5,5,8,11.8,8,19.4s-3.1,14.4-8,19.4c-5,5-11.8,8-19.4,8
			c-7.6,0-14.4-3.1-19.4-8c-5-5-8-11.8-8-19.4c0-7.6,3.1-14.4,8-19.4C157.7,217.1,164.6,214.1,172.2,214.1z"/>
		<path id="_396177688" class="st1" d="M250.2,137.6c7.6,0,14.4,3.1,19.4,8c5,5,8,11.8,8,19.4c0,7.6-3.1,14.4-8,19.4
			c-5,5-11.8,8-19.4,8s-14.4-3.1-19.4-8c-5-5-8-11.8-8-19.4c0-7.6,3.1-14.4,8-19.4C235.7,140.7,242.6,137.6,250.2,137.6z"/>
	</g>
	<rect class="st2" width="491.5" height="491.5"/>
</g>
</svg>
