<?xml version="1.0" encoding="utf-8"?>
<!-- Generator: Adobe Illustrator 24.2.3, SVG Export Plug-In . SVG Version: 6.00 Build 0)  -->
<svg version="1.1" id="Ebene_1" xmlns="http://www.w3.org/2000/svg" xmlns:xlink="http://www.w3.org/1999/xlink" x="0px" y="0px"
	 viewBox="0 0 491.5 491.5" style="enable-background:new 0 0 491.5 491.5;" xml:space="preserve">
<style type="text/css">
	.st0{display:none;fill-rule:evenodd;clip-rule:evenodd;fill:#424242;}
	.st1{fill:none;}
	.st2{fill:#FFFFFE;}
</style>
<rect class="st0" width="491.5" height="491.5"/>
<g id="Layer_x0020_1">
	<polyline class="st1" points="166.7,168.7 166.7,168.7 166.7,168.7 	"/>
	<line class="st1" x1="166.7" y1="168.6" x2="166.7" y2="168.7"/>
	<polyline class="st1" points="166.7,168.7 166.7,168.7 166.7,168.7 166.7,168.7 166.7,168.7 	"/>
	<polygon class="st2" points="161.8,170.9 161.8,170.9 161.7,170.9 	"/>
	<polygon class="st2" points="166.7,168.7 166.7,168.7 168.9,173.7 	"/>
	<polyline class="st1" points="166.7,168.7 166.7,168.7 166.7,168.7 166.8,168.6 166.7,168.7 166.7,168.7 166.7,168.7 	"/>
	<polyline class="st1" points="166.7,168.7 166.7,168.7 166.7,168.7 166.7,168.7 166.7,168.6 166.7,168.6 166.7,168.6 166.7,168.7 
		166.7,168.7 166.7,168.7 166.7,168.7 166.7,168.7 166.7,168.7 166.7,168.7 166.7,168.7 166.7,168.7 166.7,168.7 166.7,168.7 
		166.7,168.7 166.7,168.7 168.7,167.8 168.7,167.8 166.8,168.6 166.7,168.7 166.7,168.7 166.7,168.7 	"/>
	<path class="st2" d="M365.5,147.2c30.8,56.9,52.5,96.9,43.9,175.1c-0.1,1.2-0.1,2.5,0.1,3.8c0.2,1.2,0.5,2.3,0.9,3.4
		c0.1,0.1,0.1,0.2,0.1,0.3l-7.1,2.9l7.1-2.9l6.9,16.6c0.1,0.1,0.1,0.3,0.2,0.5l0,0l0,0l0,0c1.3,3,1.3,6.2,0.1,9.1
		c-1.1,2.8-3.3,5.2-6.3,6.6l-148.9,66.1c-0.2,0.1-0.5,0.3-0.7,0.4l0,0l-0.1,0l0,0l0,0l-2.2-5.1l0,0l2.2,5.1c-3,1.3-6.2,1.3-9.1,0.1
		c-2.4-1-4.6-2.7-6-5.2c-0.2-0.4-0.5-0.8-0.6-1.2l0,0c0-0.1-0.1-0.1-0.1-0.2l7.1-2.9l-7.1,2.9l-4.4-10.9c0-0.1-0.1-0.1-0.1-0.2l0,0
		l0,0l0,0c-0.8-1.8-1.9-3.4-3.3-4.7c-1.3-1.2-2.9-2.2-4.6-2.9c-105.8-25.4-107.5-29.2-133.6-88.3c-3.1-7-6.5-14.8-9.7-21.8
		c-5.7-12.4-7.9-27.8-6.3-43.3c1.5-14.4,6.4-29.2,14.8-42c0.3-0.6,0.7-1.1,1.2-1.6l5.6,5.3l-5.5-5.3c1.4-1.5,3-2.7,4.7-3.5
		c1.8-0.9,3.6-1.4,5.4-1.6l-23.5-51.9c-0.1-0.1-0.1-0.3-0.2-0.4l7-3.1l-7,3.1c-3.7-8.4-3.7-17.5-0.6-25.5c3-7.7,8.8-14.3,16.8-18.2
		c0.2-0.1,0.5-0.3,0.8-0.4l0,0l0,0l3,6.8l0.1,0.2l-3.1-7c8.4-3.7,17.5-3.7,25.5-0.6c4.2,1.6,8.1,4.1,11.3,7.3
		c-1-6.1-0.4-12.3,1.8-17.9c3-7.9,8.9-14.6,17.1-18.5c0.5-0.3,1-0.5,1.6-0.7c8.3-3.4,17.3-3.3,25.1-0.3c6.2,2.4,11.7,6.6,15.7,12.3
		c0.3-0.9,0.6-1.8,0.9-2.7c3.1-8,9.1-14.8,17.4-18.8c0.5-0.3,1-0.5,1.6-0.7c8.5-3.5,17.6-3.4,25.5-0.3c8,3.1,14.8,9.1,18.8,17.4
		c0.3,0.5,0.5,1,0.7,1.5l1.5,3.3c0.3-1.1,0.7-2.2,1.1-3.3c3-7.9,9-14.7,17.2-18.6l0.1,0c0.5-0.3,1-0.5,1.5-0.7
		c8.3-3.4,17.2-3.4,25.1-0.4c8.1,3.1,15,9.2,18.9,17.6C343.5,106.7,355.1,128,365.5,147.2L365.5,147.2z"/>
	<rect class="st1" width="491.5" height="491.5"/>
</g>
</svg>
