<?xml version="1.0" encoding="UTF-8"?>
<!DOCTYPE svg PUBLIC "-//W3C//DTD SVG 1.1//EN" "http://www.w3.org/Graphics/SVG/1.1/DTD/svg11.dtd">
<!-- Creator: CorelDRAW -->
<svg xmlns="http://www.w3.org/2000/svg" xml:space="preserve" width="6.82666in" height="6.82666in" style="shape-rendering:geometricPrecision; text-rendering:geometricPrecision; image-rendering:optimizeQuality; fill-rule:evenodd; clip-rule:evenodd"
viewBox="0 0 6.82666 6.82666"
 xmlns:xlink="http://www.w3.org/1999/xlink">
 <defs>
  <style type="text/css">
   <![CDATA[
    .fil3 {fill:none}
    .fil1 {fill:none;fill-rule:nonzero}
    .fil0 {fill:#424242}
    .fil2 {fill:#FFFFFE;fill-rule:nonzero}
   ]]>
  </style>
 </defs>
 <rect class="fil0" width="6.82666" height="6.82666"/>
 <g id="Layer_x0020_1">
  <metadata id="CorelCorpID_0Corel-Layer"/>
  <polyline class="fil1" points="2.31534,2.3429 2.31541,2.34306 2.31535,2.34308 "/>
  <line class="fil1" x1="2.315" y1="2.34214" x2="2.31524" y2= "2.34267" />
  <polyline class="fil1" points="2.31535,2.34308 2.31543,2.34326 2.31548,2.34323 2.3155,2.34325 2.31561,2.3432 "/>
  <polygon class="fil2" points="2.24689,2.37345 2.24689,2.37344 2.24593,2.37387 "/>
  <polygon class="fil2" points="2.31554,2.34334 2.31569,2.34339 2.34613,2.41254 "/>
  <polyline class="fil1" points="2.31561,2.3432 2.3156,2.34319 2.31559,2.34317 2.31713,2.34229 2.31552,2.34301 2.31545,2.34285 2.3153,2.3425 "/>
  <polyline class="fil1" points="2.31545,2.34285 2.31542,2.34287 2.31526,2.34259 2.3153,2.3425 2.31491,2.34162 2.3148,2.34167 2.315,2.34214 2.31526,2.34259 2.31524,2.34267 2.31534,2.3429 2.31542,2.34287 2.3155,2.34302 2.31541,2.34306 2.31548,2.34323 2.31543,2.34326 2.31543,2.34328 2.3155,2.34325 2.31554,2.34334 2.31569,2.34339 2.31561,2.3432 2.34343,2.33096 2.34328,2.3307 2.31713,2.34229 2.31559,2.34317 2.31552,2.34301 2.3155,2.34302 "/>
  <path class="fil2" d="M5.07622 2.0448c0.42813,0.790461 0.728638,1.3453 0.610118,2.43251 -0.00186614,0.0171575 -0.00144882,0.0347598 0.00119685,0.0523543 0.00240945,0.0160472 0.00674803,0.0318071 0.0129488,0.0469134 0.000700787,0.00149606 0.00137795,0.00301181 0.00201575,0.00455512l-0.098563 0.0407835 0.0983346 -0.0404173 0.0954488 0.230661c0.00105906,0.00207874 0.00207087,0.00420472 0.00300787,0.00638189l-0.000311024 0.000133858 3.54331e-005 9.05512e-005 0.000232283 -9.84252e-005c0.0179488,0.0416614 0.0174173,0.0867795 0.00201969,0.126157 -0.0152835,0.0390709 -0.0456614,0.0724803 -0.087563,0.0910866l-2.06766 0.918323c-0.00329134,0.00186614 -0.00670472,0.00358268 -0.010252,0.00512205l-3.93701e-006 -7.87402e-006 -0.00080315 0.000358268 -0.000188976 -0.000437008 -3.93701e-006 3.93701e-006 -0.0303898 -0.0704134 -3.14961e-005 4.72441e-005 0.0304213 0.0707835c-0.0416024,0.0179567 -0.0867441,0.0174291 -0.126142,0.00202362 -0.0339252,-0.0132756 -0.0635945,-0.0379409 -0.0830039,-0.0716378 -0.00336614,-0.00510236 -0.00633858,-0.010563 -0.00885827,-0.0163622l7.87402e-006 -3.93701e-006c-0.000437008,-0.000992126 -0.000866142,-0.00198819 -0.00127559,-0.003l0.0988504 -0.0400787 -0.098752 0.04 -0.0613622 -0.151354c-0.000389764,-0.00084252 -0.000767717,-0.00169291 -0.0011378,-0.00254724l9.05512e-005 -3.93701e-005 -6.29921e-005 -0.000149606 -7.87402e-006 3.93701e-006c-0.010748,-0.0249016 -0.0262323,-0.0469449 -0.0452598,-0.0649843 -0.0181457,-0.0172008 -0.039752,-0.0309606 -0.0637835,-0.0402953 -1.46974,-0.352516 -1.49334,-0.405732 -1.85564,-1.22674 -0.0430906,-0.0976535 -0.0908898,-0.205969 -0.135307,-0.302657 -0.0794291,-0.172906 -0.110224,-0.386039 -0.0873504,-0.60202 0.0212323,-0.200484 0.0885472,-0.404965 0.205929,-0.583492 0.00432677,-0.00787795 0.00972441,-0.0153307 0.0162047,-0.0221535l0.0773307 0.0734685 -0.0770827 -0.0733346c0.0199921,-0.0210433 0.0420039,-0.0372598 0.0656929,-0.0491024 0.0247677,-0.0123858 0.0498071,-0.0194646 0.0749724,-0.0218346l-0.326256 -0.72124c-0.00106693,-0.00203543 -0.0020748,-0.00411024 -0.00301969,-0.00623622l0.0974882 -0.0432913 -0.0970827 0.0429173c-0.0518858,-0.116835 -0.0515197,-0.24361 -0.00898819,-0.354114 0.0412795,-0.107244 0.122169,-0.199256 0.233504,-0.252189 0.00342913,-0.00201181 0.00700787,-0.00385433 0.0107283,-0.00550787l0.000212598 0.000480315 0.000161417 -7.48031e-005 0.0416929 0.0943189 0.00122835 0.00275984 -0.0429173 -0.0970827c0.116831,-0.0518898 0.24361,-0.0515276 0.354122,-0.00898819 0.058252,0.0224213 0.112008,0.0565354 0.157449,0.100866 -0.0145354,-0.0847323 -0.00514173,-0.17039 0.0247756,-0.248122 0.0419724,-0.109047 0.124244,-0.202598 0.237461,-0.256386 0.00695669,-0.00409843 0.0144134,-0.00744094 0.0222677,-0.00988583 0.115634,-0.0479094 0.239988,-0.0462559 0.348823,-0.00437008 0.086437,0.0332717 0.163138,0.0918661 0.21802,0.171126 0.00374803,-0.0128583 0.00803543,-0.0255433 0.0128425,-0.0380315 0.0426732,-0.110866 0.126339,-0.205965 0.24148,-0.260606 0.00694882,-0.00409449 0.0143937,-0.00742913 0.0222283,-0.00987795 0.117567,-0.0487756 0.244012,-0.047126 0.354673,-0.00452756 0.110866,0.0426732 0.205969,0.126343 0.260614,0.24148 0.00384252,0.00652756 0.00701575,0.0135 0.00941339,0.0208189l0.0204449 0.0460354c0.00425197,-0.0156575 0.00929134,-0.0310787 0.0151102,-0.0462008 0.042185,-0.10961 0.12489,-0.20365 0.238697,-0.257717l0.000862205 -0.000507874c0.00670472,-0.00387008 0.013874,-0.00703543 0.0214016,-0.00938976 0.11535,-0.0478268 0.239299,-0.046752 0.348039,-0.00572047 0.112555,0.0424646 0.209016,0.127457 0.26313,0.245063 0.162476,0.35274 0.322413,0.648035 0.467327,0.915594z"/>
  <rect class="fil3" width="6.82666" height="6.82666"/>
 </g>
</svg>
