<?xml version="1.0" encoding="UTF-8"?>
<!DOCTYPE svg PUBLIC "-//W3C//DTD SVG 1.1//EN" "http://www.w3.org/Graphics/SVG/1.1/DTD/svg11.dtd">
<!-- Creator: CorelDRAW -->
<svg xmlns="http://www.w3.org/2000/svg" xml:space="preserve" width="6.82666in" height="6.82666in" style="shape-rendering:geometricPrecision; text-rendering:geometricPrecision; image-rendering:optimizeQuality; fill-rule:evenodd; clip-rule:evenodd"
viewBox="0 0 6.82666 6.82666"
 xmlns:xlink="http://www.w3.org/1999/xlink">
 <defs>
  <style type="text/css">
   <![CDATA[
    .fil2 {fill:none}
    .fil0 {fill:#424242}
    .fil1 {fill:#FFFFFE;fill-rule:nonzero}
   ]]>
  </style>
 </defs>
 <rect class="fil0" width="6.82666" height="6.82666"/>
 <g id="Layer_x0020_1">
  <metadata id="CorelCorpID_0Corel-Layer"/>
  <path class="fil1" d="M4.51668 2.05832c0.458772,0.891807 0.950843,1.84835 0.855016,2.73447 -0.00119685,0.0110906 -0.000889764,0.0226575 0.000885827,0.0343937 0.00143307,0.00947638 0.00358661,0.0182756 0.00642126,0.0262362 0.00130315,0.00254331 0.00251575,0.00515354 0.00362992,0.00783858l-0.000177165 7.48031e-005c0.0262874,0.0633701 0.0625315,0.135039 0.082311,0.200106 0.019126,0.0628976 -0.00997638,0.112445 -0.0130709,0.118 -0.0154764,0.0277756 -0.039815,0.0509843 -0.0712087,0.0649528 -0.122299,0.0544488 -1.35453,0.613193 -1.57414,0.70374 -0.017626,0.00726772 -0.042874,0.0168583 -0.0615669,0.0211063 -0.0302953,0.00690157 -0.061185,0.0042126 -0.0888386,-0.00657087 -0.0315236,-0.0122913 -0.0590079,-0.0351496 -0.0767835,-0.0663386 -0.00354724,-0.00561811 -0.00304331,-0.00332677 -0.0559409,-0.133492 -0.000377953,-0.000814961 -0.000748031,-0.00163386 -0.0011063,-0.00246457l8.66142e-005 -3.93701e-005 -0.000937008 -0.00230709 0.000275591 -0.000114173c-0.00696457,-0.0153268 -0.0167087,-0.0289173 -0.0285512,-0.040126 -0.0109646,-0.010378 -0.0243031,-0.0189252 -0.0394331,-0.0250906 -0.292114,-0.0665669 -0.533185,-0.149457 -0.727996,-0.242224 -0.222591,-0.105996 -0.388024,-0.226543 -0.502598,-0.351878 -0.36915,-0.403811 -0.380161,-0.603512 -0.397039,-0.909791 -0.0056378,-0.10239 -0.0120157,-0.218031 -0.0357638,-0.359984 -0.0268031,-0.160189 -0.0140945,-0.259067 0.0316457,-0.33387 0.0481732,-0.0787913 0.118012,-0.113894 0.210717,-0.15576 0.00157087,-0.000708661 0.00313386,-0.00139764 0.00469291,-0.00206693l-0.648445 -1.44905c-0.165205,-0.371114 0.290303,-0.880327 0.651835,-0.151697 0.156299,0.314996 0.125728,0.247858 0.535728,1.03156 -0.453894,-1.02255 -0.283091,-0.649512 -0.641862,-1.41699 -0.176854,-0.378327 0.38626,-0.763354 0.612587,-0.284638 0.376114,0.795543 0.189665,0.409319 0.692213,1.42086 -0.359476,-0.857091 -0.307744,-0.742276 -0.476524,-1.12304 -0.243157,-0.548701 0.408839,-0.702921 0.610858,-0.214642 0.153756,0.342803 0.356476,0.838413 0.535213,1.18161 -0.222039,-0.576126 -0.23302,-0.609654 -0.302575,-0.781177 -0.118402,-0.291965 -0.0463346,-0.422937 0.0774213,-0.464382 0.239996,-0.0803701 0.389654,0.0688583 0.468984,0.240854 0.109213,0.236571 0.235291,0.481654 0.364039,0.731929z"/>
  <rect class="fil2" width="6.82666" height="6.82666"/>
 </g>
</svg>
