<?xml version="1.0" encoding="utf-8"?>
<!-- Generator: Adobe Illustrator 24.2.3, SVG Export Plug-In . SVG Version: 6.00 Build 0)  -->
<svg version="1.1" id="Ebene_1" xmlns="http://www.w3.org/2000/svg" xmlns:xlink="http://www.w3.org/1999/xlink" x="0px" y="0px"
	 viewBox="0 0 491.5 491.5" style="enable-background:new 0 0 491.5 491.5;" xml:space="preserve">
<style type="text/css">
	.st0{display:none;fill-rule:evenodd;clip-rule:evenodd;fill:#424242;}
	.st1{fill:#FFFFFE;}
	.st2{fill:none;}
</style>
<rect class="st0" width="491.5" height="491.5"/>
<g id="Layer_x0020_1">
	<path class="st1" d="M325.2,148.2c33,64.2,68.5,133.1,61.6,196.9c-0.1,0.8-0.1,1.6,0.1,2.5c0.1,0.7,0.3,1.3,0.5,1.9
		c0.1,0.2,0.2,0.4,0.3,0.6l0,0c1.9,4.6,4.5,9.7,5.9,14.4c1.4,4.5-0.7,8.1-0.9,8.5c-1.1,2-2.9,3.7-5.1,4.7
		c-8.8,3.9-97.5,44.1-113.3,50.7c-1.3,0.5-3.1,1.2-4.4,1.5c-2.2,0.5-4.4,0.3-6.4-0.5c-2.3-0.9-4.2-2.5-5.5-4.8
		c-0.3-0.4-0.2-0.2-4-9.6c0-0.1-0.1-0.1-0.1-0.2l0,0l-0.1-0.2l0,0c-0.5-1.1-1.2-2.1-2.1-2.9c-0.8-0.7-1.7-1.4-2.8-1.8
		c-21-4.8-38.4-10.8-52.4-17.4c-16-7.6-27.9-16.3-36.2-25.3c-26.6-29.1-27.4-43.5-28.6-65.5c-0.4-7.4-0.9-15.7-2.6-25.9
		c-1.9-11.5-1-18.7,2.3-24c3.5-5.7,8.5-8.2,15.2-11.2c0.1-0.1,0.2-0.1,0.3-0.1L100,135.9c-11.9-26.7,20.9-63.4,46.9-10.9
		c11.3,22.7,9.1,17.8,38.6,74.3c-32.7-73.6-20.4-46.8-46.2-102c-12.7-27.2,27.8-55,44.1-20.5c27.1,57.3,13.7,29.5,49.8,102.3
		c-25.9-61.7-22.2-53.4-34.3-80.9c-17.5-39.5,29.4-50.6,44-15.5c11.1,24.7,25.7,60.4,38.5,85.1c-16-41.5-16.8-43.9-21.8-56.2
		c-8.5-21-3.3-30.5,5.6-33.4c17.3-5.8,28.1,5,33.8,17.3C306.9,112.5,315.9,130.2,325.2,148.2L325.2,148.2z"/>
	<rect class="st2" width="491.5" height="491.5"/>
</g>
</svg>
