<?xml version="1.0" encoding="utf-8"?>
<!-- Generator: Adobe Illustrator 23.0.4, SVG Export Plug-In . SVG Version: 6.00 Build 0)  -->
<svg version="1.1" id="Layer_1" xmlns="http://www.w3.org/2000/svg" xmlns:xlink="http://www.w3.org/1999/xlink" x="0px" y="0px"
	 viewBox="0 0 80 80" style="enable-background:new 0 0 80 80;" xml:space="preserve">
<style type="text/css">
	.st0{fill:#81C56D;}
	.st1{fill:#5BAA5E;}
	.st2{fill:#B6D997;}
	.st3{fill:#FFFFFF;}
	.st4{fill:#310F32;}
	.st5{fill:#C9D6E3;}
	.st6{fill:#FFC626;}
	.st7{fill:#F99E1D;}
	.st8{fill:#F58127;}
	.st9{fill:#301330;}
	.st10{fill:#EA5535;}
	.st11{fill:#EF4F24;}
	.st12{fill:#F16333;}
	.st13{fill:#DF3426;}
	.st14{fill:#F6946C;}
	.st15{fill:#D6E1EC;}
	.st16{opacity:0.8;}
	.st17{fill:#B9CCDC;}
	.st18{fill:#310E31;}
	.st19{fill:#EA5435;}
	.st20{fill:#FEDD3F;}
	.st21{fill:#EAC01E;}
	.st22{fill:#7FC042;}
	.st23{fill:#65A944;}
	.st24{fill:#0CBEF0;}
	.st25{fill:#6F7BBC;}
	.st26{fill:#0097D5;}
	.st27{fill:#FDB515;}
	.st28{fill:#5365AF;}
	.st29{fill:#1F90CF;}
	.st30{fill:#F99F1B;}
	.st31{opacity:0.7;}
	.st32{fill:#FFF5CA;}
	.st33{opacity:0.6;}
	.st34{fill:#FBDAE8;}
	.st35{fill:#D5E4EF;}
	.st36{opacity:0.4;}
	.st37{fill:#B1DEF5;}
	.st38{opacity:0.5;}
	.st39{fill:#FCE6A0;}
	.st40{fill:#FDF4D2;}
	.st41{fill:#FDD457;}
	.st42{fill:#FFDA85;}
	.st43{fill:#F36F34;}
	.st44{fill:#FFFFFF;stroke:#310F32;stroke-linecap:round;stroke-linejoin:round;stroke-miterlimit:10;}
	.st45{fill:none;stroke:#310F32;stroke-linecap:round;stroke-linejoin:round;stroke-miterlimit:10;}
	.st46{fill:#EE3B24;}
	.st47{fill:#301431;}
	.st48{fill:#71AC43;}
	.st49{fill:#C1DC83;}
	.st50{opacity:0.2;}
	.st51{opacity:0.1;}
	.st52{opacity:0.15;}
	.st53{fill:#5EC1EE;}
	.st54{fill:#239FCB;}
	.st55{fill:#92D1F1;}
	.st56{fill:#B2DCF5;}
	.st57{fill:#FFDF98;}
	.st58{fill:#406DB5;}
	.st59{fill:#FCDE60;}
	.st60{fill:#DEF1FB;}
	.st61{fill:#82CBF0;}
	.st62{fill:#6681C0;}
	.st63{fill:#FBEBAA;}
	.st64{fill:#8799CE;}
	.st65{fill:#98A7D5;}
	.st66{fill:#ACD6F2;}
	.st67{fill:#CCE4F7;}
	.st68{fill:#8BC9EE;}
	.st69{fill:#ADBBC3;}
	.st70{fill:#7E8C9B;}
	.st71{fill:#3B8E4F;}
	.st72{fill:#F05E75;}
	.st73{fill:#FCE5D3;}
	.st74{fill:#F8C4A0;}
</style>
<g>
	<g>
		<path class="st3" d="M40,18c-6.63,0-12,5.37-12,12v5.84c0,1.27,0.8,2.4,2,2.82V49h20V38.66c1.2-0.42,2-1.55,2-2.82V30
			C52,23.37,46.63,18,40,18z"/>
	</g>
	<g>
		<g>
			<path class="st5" d="M48.79,22.83c-2.08-2.23-5.26-2-7.17-0.25c-0.95,0.87-2.14,1.4-3.4,1.66c-0.08,0.02-0.16,0.03-0.22,0.05
				c-2.89,0.86-5,3.54-5,6.71c0,1.12,0.27,2.24,0.79,3.23c0.09,0.17,0.26,0.27,0.44,0.27c0.08,0,0.16-0.02,0.23-0.06
				c0.25-0.13,0.34-0.43,0.21-0.67C34.23,32.92,34,31.96,34,31c0-3.31,2.69-6,6-6c0.06,0,0.12,0.01,0.17,0.01
				c-0.1,0.41-0.17,0.84-0.17,1.3V37c3.31,0,6-2.69,6-6c0-0.28,0.22-0.5,0.5-0.5S47,30.72,47,31c0,3.32-2.33,6.12-5.44,6.83
				C40.65,38.03,40,38.84,40,39.77V40c0,1.1-0.9,2-2,2h-3v1h5l5,0.16c0-1.72,1.1-3.25,2.74-3.79L50,38.61l0.59-0.18
				C51.43,38.18,52,37.4,52,36.52V31C52,27.84,50.78,24.97,48.79,22.83z"/>
		</g>
		<g>
			<path class="st5" d="M47,41v4c0,0.55-0.45,1-1,1h-4c-1.1,0-2,0.9-2,2v17c6.63,0,10-5.37,10-12V39C50,39,47,40.14,47,41z"/>
		</g>
	</g>
	<g>
		<path class="st6" d="M27,49v3c0,7.18,5.82,13,13,13s13-5.82,13-13v-3H27z"/>
	</g>
	<g>
		<path class="st7" d="M51,49H40v3c0,0.71-0.05,1.43-0.14,2.17c-0.73,5.91-9.22,6.41-10.53,0.6C29.11,53.82,29,52.83,29,51.81V49h-2
			l0,2.63c0,7,5.38,13.02,12.37,13.35C46.84,65.34,53,59.39,53,52v-3H51z"/>
	</g>
	<g>
		<path class="st8" d="M53,52.5h-1.02C51.99,52.33,52,52.17,52,52c0-0.28-0.22-0.5-0.5-0.5c-0.37,0-0.65,0.41-0.41,0.8
			c-0.06,0.11-0.05,0.09-0.11,0.2l-6.98,0c-0.28,0-0.5,0.22-0.5,0.5s0.22,0.5,0.5,0.5l3.09,0c2.1,0,3.42,2.29,2.35,4.09
			c-1.37,2.31-3.57,4.11-6.23,4.93c-0.26,0.08-0.41,0.36-0.33,0.62c0.07,0.22,0.26,0.35,0.48,0.35c0.05,0,0.1-0.01,0.15-0.02
			c4.52-1.38,7.8-5.37,8.39-9.98H53c0.28,0,0.5-0.22,0.5-0.5S53.28,52.5,53,52.5z"/>
	</g>
	<g>
		<circle class="st4" cx="40" cy="31" r="6"/>
	</g>
	<g>
		<circle class="st4" cx="38" cy="39" r="1"/>
	</g>
	<g>
		<circle class="st4" cx="42" cy="39" r="1"/>
	</g>
	<path class="st4" d="M53,48h-2v-8.71c1.22-0.7,2-2,2-3.45V30c0-4.35-2.15-8.2-5.44-10.56c0.22-1.37,1.23-2.46,2.55-2.81
		C50.38,17.42,51.12,18,52,18c1.1,0,2-0.9,2-2c0-1.1-0.9-2-2-2c-0.97,0-1.78,0.69-1.96,1.61c-1.65,0.36-2.95,1.63-3.37,3.25
		C44.71,17.69,42.44,17,40,17s-4.71,0.69-6.66,1.86c-0.43-1.62-1.73-2.89-3.37-3.25C29.78,14.69,28.97,14,28,14c-1.1,0-2,0.9-2,2
		c0,1.1,0.9,2,2,2c0.88,0,1.62-0.58,1.89-1.37c1.32,0.35,2.33,1.45,2.55,2.81C29.15,21.8,27,25.65,27,30v5.84
		c0,1.45,0.78,2.75,2,3.45V48h-2c-0.55,0-1,0.45-1,1v3c0,2.52,0.67,4.88,1.84,6.93c0.67,1.17,0.47,2.64-0.48,3.59l-0.84,0.84
		c-0.57,0.57-0.68,1.5-0.16,2.11c0.3,0.35,0.72,0.53,1.15,0.53c0.38,0,0.77-0.15,1.06-0.44l0.92-0.92c0.95-0.95,2.42-1.15,3.59-0.48
		C35.12,65.33,37.48,66,40,66s4.88-0.67,6.93-1.84c1.17-0.67,2.64-0.47,3.59,0.48l0.92,0.92C51.73,65.85,52.12,66,52.5,66
		c0.42,0,0.84-0.18,1.15-0.53c0.52-0.61,0.4-1.54-0.16-2.11l-0.84-0.84c-0.95-0.95-1.15-2.42-0.48-3.59C53.33,56.88,54,54.52,54,52
		v-3C54,48.45,53.55,48,53,48z M29,30c0-6.07,4.93-11,11-11s11,4.93,11,11v5.84c0,0.86-0.55,1.62-1.37,1.9c0,0,0,0,0,0l-1.9,0.63
		C46.1,38.91,45,40.44,45,42.16V43h-1.5v-1c0-0.28-0.22-0.5-0.5-0.5s-0.5,0.22-0.5,0.5v1h-2v-1c0-0.28-0.22-0.5-0.5-0.5
		s-0.5,0.22-0.5,0.5v1h-2v-1c0-0.28-0.22-0.5-0.5-0.5s-0.5,0.22-0.5,0.5v1H35v-0.84c0-1.72-1.1-3.25-2.73-3.79l-1.9-0.63
		C29.55,37.46,29,36.7,29,35.84V30z M34,45h2.5v1c0,0.28,0.22,0.5,0.5,0.5s0.5-0.22,0.5-0.5v-1h2v1c0,0.28,0.22,0.5,0.5,0.5
		s0.5-0.22,0.5-0.5v-1h2v1c0,0.28,0.22,0.5,0.5,0.5s0.5-0.22,0.5-0.5v-1H46c0.55,0,1-0.45,1-1v-1.84c0-0.86,0.55-1.62,1.37-1.9
		L49,40.05V48H31v-7.95l0.63,0.21c0.82,0.27,1.37,1.03,1.37,1.9V44C33,44.55,33.45,45,34,45z M40,64c-6.45,0-11.71-5.12-11.97-11.5
		h23.95C51.71,58.88,46.45,64,40,64z M52,51.5H28V50h24V51.5z"/>
	<g>
		<g>
			<circle class="st47" cx="40" cy="31" r="5"/>
		</g>
		<g>
			<path class="st48" d="M40,34.83c-2.11,0-3.83-1.72-3.83-3.83s1.72-3.83,3.83-3.83s3.83,1.72,3.83,3.83S42.11,34.83,40,34.83z
				 M40,28.17c-1.56,0-2.83,1.27-2.83,2.83s1.27,2.83,2.83,2.83s2.83-1.27,2.83-2.83S41.56,28.17,40,28.17z"/>
		</g>
		<g>
			<path class="st49" d="M40,34.83c-0.28,0-0.5-0.22-0.5-0.5s0.22-0.5,0.5-0.5c1.56,0,2.83-1.27,2.83-2.83c0-0.28,0.22-0.5,0.5-0.5
				s0.5,0.22,0.5,0.5C43.83,33.11,42.11,34.83,40,34.83z"/>
		</g>
		<g>
			<circle class="st3" cx="38.5" cy="29.5" r="1.5"/>
		</g>
		<g>
			<circle class="st3" cx="41.5" cy="32.5" r="0.5"/>
		</g>
	</g>
	<g>
		<circle class="st3" cx="52" cy="16" r="1"/>
	</g>
	<g>
		<circle class="st3" cx="28" cy="16" r="1"/>
	</g>
</g>
</svg>
