<?xml version="1.0" encoding="utf-8"?>
<!-- Generator: Adobe Illustrator 23.0.4, SVG Export Plug-In . SVG Version: 6.00 Build 0)  -->
<svg version="1.1" id="Layer_1" xmlns="http://www.w3.org/2000/svg" xmlns:xlink="http://www.w3.org/1999/xlink" x="0px" y="0px"
	 viewBox="0 0 80 80" style="enable-background:new 0 0 80 80;" xml:space="preserve">
<style type="text/css">
	.st0{fill:#81C56D;}
	.st1{fill:#5BAA5E;}
	.st2{fill:#B6D997;}
	.st3{fill:#FFFFFF;}
	.st4{fill:#310F32;}
	.st5{fill:#C9D6E3;}
	.st6{fill:#FFC626;}
	.st7{fill:#F99E1D;}
	.st8{fill:#F58127;}
	.st9{fill:#301330;}
	.st10{fill:#EA5535;}
	.st11{fill:#EF4F24;}
	.st12{fill:#F16333;}
	.st13{fill:#DF3426;}
	.st14{fill:#F6946C;}
	.st15{fill:#D6E1EC;}
	.st16{opacity:0.8;}
	.st17{fill:#B9CCDC;}
	.st18{fill:#310E31;}
	.st19{fill:#EA5435;}
	.st20{fill:#FEDD3F;}
	.st21{fill:#EAC01E;}
	.st22{fill:#7FC042;}
	.st23{fill:#65A944;}
	.st24{fill:#0CBEF0;}
	.st25{fill:#6F7BBC;}
	.st26{fill:#0097D5;}
	.st27{fill:#FDB515;}
	.st28{fill:#5365AF;}
	.st29{fill:#1F90CF;}
	.st30{fill:#F99F1B;}
	.st31{opacity:0.7;}
	.st32{fill:#FFF5CA;}
	.st33{opacity:0.6;}
	.st34{fill:#FBDAE8;}
	.st35{fill:#D5E4EF;}
	.st36{opacity:0.4;}
	.st37{fill:#B1DEF5;}
	.st38{opacity:0.5;}
	.st39{fill:#FCE6A0;}
	.st40{fill:#FDF4D2;}
	.st41{fill:#FDD457;}
	.st42{fill:#FFDA85;}
	.st43{fill:#F36F34;}
	.st44{fill:#FFFFFF;stroke:#310F32;stroke-linecap:round;stroke-linejoin:round;stroke-miterlimit:10;}
	.st45{fill:none;stroke:#310F32;stroke-linecap:round;stroke-linejoin:round;stroke-miterlimit:10;}
	.st46{fill:#EE3B24;}
	.st47{fill:#301431;}
	.st48{fill:#71AC43;}
	.st49{fill:#C1DC83;}
	.st50{opacity:0.2;}
	.st51{opacity:0.1;}
	.st52{opacity:0.15;}
	.st53{fill:#5EC1EE;}
	.st54{fill:#239FCB;}
	.st55{fill:#92D1F1;}
	.st56{fill:#B2DCF5;}
	.st57{fill:#FFDF98;}
	.st58{fill:#406DB5;}
	.st59{fill:#FCDE60;}
	.st60{fill:#DEF1FB;}
	.st61{fill:#82CBF0;}
	.st62{fill:#6681C0;}
	.st63{fill:#FBEBAA;}
	.st64{fill:#8799CE;}
	.st65{fill:#98A7D5;}
	.st66{fill:#ACD6F2;}
	.st67{fill:#CCE4F7;}
	.st68{fill:#8BC9EE;}
	.st69{fill:#ADBBC3;}
	.st70{fill:#7E8C9B;}
	.st71{fill:#3B8E4F;}
	.st72{fill:#F05E75;}
	.st73{fill:#FCE5D3;}
	.st74{fill:#F8C4A0;}
</style>
<g>
	<g class="st50">
		<path class="st4" d="M40,51.5c-9.37,0-17-7.63-17-17s7.63-17,17-17s17,7.63,17,17S49.37,51.5,40,51.5z M40,19.5
			c-8.27,0-15,6.73-15,15s6.73,15,15,15s15-6.73,15-15S48.27,19.5,40,19.5z"/>
	</g>
	<g class="st51">
		<path class="st4" d="M40,59.5c-13.79,0-25-11.21-25-25s11.21-25,25-25s25,11.21,25,25S53.79,59.5,40,59.5z M40,11.5
			c-12.68,0-23,10.32-23,23s10.32,23,23,23s23-10.32,23-23S52.68,11.5,40,11.5z"/>
	</g>
	<g class="st52">
		<path class="st4" d="M40,55.5c-11.58,0-21-9.42-21-21s9.42-21,21-21s21,9.42,21,21S51.58,55.5,40,55.5z M40,15.5
			c-10.48,0-19,8.52-19,19s8.52,19,19,19s19-8.52,19-19S50.48,15.5,40,15.5z"/>
	</g>
	<g>
		<g>
			<path class="st0" d="M40,68.5L40,68.5c-6.63,0-12-5.37-12-12v-22c0-6.63,5.37-12,12-12h0c6.63,0,12,5.37,12,12v22
				C52,63.13,46.63,68.5,40,68.5z"/>
		</g>
		<g>
			<path class="st1" d="M48.79,26.33C45.65,22.96,40,25.21,40,29.81L40,42c-1.72,0-3.35-0.57-4.69-1.65
				c-0.21-0.17-0.53-0.14-0.7,0.08c-0.17,0.22-0.14,0.53,0.08,0.7c0.84,0.67,1.8,1.18,2.82,1.49c1.48,0.45,2.49,1.81,2.49,3.35V68.5
				c6.63,0,12-5.37,12-12v-22C52,31.34,50.78,28.47,48.79,26.33z"/>
		</g>
		<g>
			<g>
				<path class="st2" d="M30,35.5c-0.55,0-1-0.45-1-1c0-2.98,1.17-5.77,3.3-7.86c0.39-0.39,1.03-0.38,1.41,0.01
					c0.39,0.39,0.38,1.03-0.01,1.41c-1.74,1.71-2.7,3.99-2.7,6.43C31,35.05,30.55,35.5,30,35.5z"/>
			</g>
		</g>
		<g>
			<circle class="st3" cx="40" cy="34.5" r="7"/>
			<path class="st4" d="M40,42c-4.14,0-7.5-3.36-7.5-7.5S35.86,27,40,27s7.5,3.36,7.5,7.5S44.14,42,40,42z M40,28
				c-3.58,0-6.5,2.92-6.5,6.5S36.42,41,40,41s6.5-2.92,6.5-6.5S43.58,28,40,28z"/>
		</g>
		<g>
			<path class="st5" d="M45.32,30.77c-0.45-0.64-1.44-0.22-1.36,0.56c0.2,1.88-0.42,3.83-1.86,5.27c-1.44,1.44-3.39,2.06-5.27,1.86
				c-0.78-0.08-1.2,0.91-0.56,1.36c1.31,0.92,2.98,1.38,4.75,1.11c2.75-0.42,4.99-2.65,5.41-5.41
				C46.69,33.74,46.24,32.08,45.32,30.77z"/>
		</g>
		<g>
			<g>
				<path class="st0" d="M43.88,42c-0.18,0-0.35-0.09-0.44-0.26c-0.13-0.24-0.05-0.55,0.2-0.68c1.5-0.83,2.68-2.16,3.32-3.75
					c0.1-0.26,0.39-0.38,0.65-0.28c0.26,0.1,0.38,0.4,0.28,0.65c-0.73,1.8-2.06,3.31-3.76,4.25C44.04,41.98,43.96,42,43.88,42z"/>
			</g>
		</g>
		<g>
			<path class="st4" d="M40.86,34.5c0,0.47-0.38,0.86-0.86,0.86c-0.47,0-0.86-0.38-0.86-0.86c0-0.47,0.38-0.86,0.86-0.86
				C40.47,33.64,40.86,34.03,40.86,34.5z"/>
		</g>
		<g>
			<path class="st4" d="M40,39.86c-2.95,0-5.36-2.4-5.36-5.36s2.4-5.36,5.36-5.36s5.36,2.4,5.36,5.36S42.95,39.86,40,39.86z
				 M40,30.14c-2.4,0-4.36,1.95-4.36,4.36s1.95,4.36,4.36,4.36s4.36-1.95,4.36-4.36S42.4,30.14,40,30.14z"/>
		</g>
		<g>
			<path class="st4" d="M40,37.86c-1.85,0-3.36-1.51-3.36-3.36s1.51-3.36,3.36-3.36s3.36,1.51,3.36,3.36S41.85,37.86,40,37.86z
				 M40,32.14c-1.3,0-2.36,1.06-2.36,2.36s1.06,2.36,2.36,2.36s2.36-1.06,2.36-2.36S41.3,32.14,40,32.14z"/>
		</g>
	</g>
	<g>
		<path class="st6" d="M27,53.5v3c0,7.18,5.82,13,13,13s13-5.82,13-13v-3H27z"/>
	</g>
	<g>
		<path class="st7" d="M51,53.5H40v3c0,0.71-0.05,1.43-0.14,2.17c-0.73,5.91-9.22,6.41-10.53,0.6C29.11,58.32,29,57.33,29,56.31
			V53.5h-2l0,2.63c0,7,5.38,13.02,12.37,13.35C46.84,69.84,53,63.89,53,56.5v-3H51z"/>
	</g>
	<g>
		<path class="st8" d="M53,57h-1.02c0.01-0.17,0.02-0.33,0.02-0.5c0-0.28-0.22-0.5-0.5-0.5c-0.37,0-0.65,0.41-0.41,0.8
			c-0.06,0.11-0.05,0.09-0.11,0.2L44,57c-0.28,0-0.5,0.22-0.5,0.5S43.72,58,44,58l3.09,0c2.1,0,3.42,2.29,2.35,4.09
			c-1.37,2.31-3.57,4.11-6.23,4.93c-0.26,0.08-0.41,0.36-0.33,0.62c0.07,0.22,0.26,0.35,0.48,0.35c0.05,0,0.1-0.01,0.15-0.02
			c4.52-1.38,7.8-5.37,8.39-9.98H53c0.28,0,0.5-0.22,0.5-0.5S53.28,57,53,57z"/>
	</g>
	<g>
		<path class="st4" d="M41.5,48c-0.17,0-0.33-0.08-0.42-0.24c-0.61-0.99-1.54-0.99-2.15,0c-0.15,0.24-0.46,0.31-0.69,0.16
			c-0.23-0.15-0.31-0.45-0.16-0.69C38.57,46.44,39.25,46,40,46s1.43,0.44,1.92,1.24c0.15,0.23,0.07,0.54-0.16,0.69
			C41.68,47.98,41.59,48,41.5,48z"/>
	</g>
	<g>
		<path class="st4" d="M35.5,48c-0.17,0-0.33-0.08-0.42-0.24c-0.61-0.99-1.54-0.99-2.15,0c-0.15,0.24-0.46,0.31-0.69,0.16
			c-0.23-0.15-0.31-0.45-0.16-0.69C32.57,46.44,33.25,46,34,46s1.43,0.44,1.92,1.24c0.15,0.23,0.07,0.54-0.16,0.69
			C35.68,47.98,35.59,48,35.5,48z"/>
	</g>
	<g>
		<path class="st4" d="M47.5,48c-0.17,0-0.33-0.08-0.42-0.24c-0.61-0.99-1.54-0.99-2.15,0c-0.15,0.24-0.45,0.31-0.69,0.16
			c-0.23-0.15-0.31-0.45-0.16-0.69C44.57,46.44,45.25,46,46,46s1.43,0.44,1.92,1.24c0.15,0.23,0.07,0.54-0.16,0.69
			C47.68,47.98,47.59,48,47.5,48z"/>
	</g>
	<g>
		<path class="st4" d="M43,49c-0.75,0-1.43-0.44-1.92-1.24c-0.15-0.23-0.07-0.54,0.16-0.69c0.23-0.14,0.54-0.07,0.69,0.16
			c0.61,0.99,1.54,0.99,2.15,0c0.15-0.23,0.46-0.31,0.69-0.16c0.23,0.15,0.31,0.45,0.16,0.69C44.43,48.56,43.75,49,43,49z"/>
	</g>
	<g>
		<path class="st4" d="M37,49c-0.75,0-1.43-0.44-1.92-1.24c-0.15-0.23-0.07-0.54,0.16-0.69c0.23-0.14,0.54-0.07,0.69,0.16
			c0.61,0.99,1.54,0.99,2.15,0c0.15-0.23,0.46-0.31,0.69-0.16c0.23,0.15,0.31,0.45,0.16,0.69C38.43,48.56,37.75,49,37,49z"/>
	</g>
	<g>
		<path class="st4" d="M53,52.5v-18c0-4.35-2.15-8.2-5.44-10.56c0.22-1.37,1.23-2.46,2.55-2.81c0.26,0.79,1.01,1.37,1.89,1.37
			c1.1,0,2-0.9,2-2c0-1.1-0.9-2-2-2c-0.97,0-1.78,0.69-1.96,1.61c-1.65,0.36-2.95,1.63-3.37,3.25c-1.95-1.17-4.23-1.86-6.66-1.86
			s-4.71,0.69-6.66,1.86c-0.43-1.62-1.73-2.89-3.37-3.25c-0.18-0.92-0.99-1.61-1.96-1.61c-1.1,0-2,0.9-2,2c0,1.1,0.9,2,2,2
			c0.88,0,1.62-0.58,1.89-1.37c1.32,0.35,2.33,1.45,2.55,2.81C29.15,26.3,27,30.15,27,34.5v18c-0.55,0-1,0.45-1,1v3
			c0,2.52,0.67,4.88,1.84,6.93c0.67,1.17,0.47,2.64-0.48,3.59l-0.84,0.84c-0.57,0.57-0.68,1.5-0.16,2.11
			c0.3,0.35,0.72,0.53,1.15,0.53c0.38,0,0.77-0.15,1.06-0.44l0.92-0.92c0.95-0.95,2.42-1.15,3.59-0.48
			c2.04,1.17,4.41,1.84,6.93,1.84s4.88-0.67,6.93-1.84c1.17-0.67,2.64-0.47,3.59,0.48l0.92,0.92c0.29,0.29,0.68,0.44,1.06,0.44
			c0.42,0,0.84-0.18,1.15-0.53c0.52-0.61,0.4-1.54-0.16-2.11l-0.84-0.84c-0.95-0.95-1.15-2.42-0.48-3.59
			C53.33,61.38,54,59.02,54,56.5v-3C54,52.95,53.55,52.5,53,52.5z M28,56v-1.5h24V56H28z M29,34.5c0-6.07,4.93-11,11-11
			s11,4.93,11,11v18H29V34.5z M40,68.5c-6.45,0-11.71-5.12-11.97-11.5h23.95C51.71,63.38,46.45,68.5,40,68.5z"/>
	</g>
	<g>
		<circle class="st0" cx="52" cy="20.5" r="1"/>
	</g>
	<g>
		<circle class="st0" cx="28" cy="20.5" r="1"/>
	</g>
</g>
</svg>
