<?xml version="1.0" encoding="utf-8"?>
<!-- Generator: Adobe Illustrator 23.0.4, SVG Export Plug-In . SVG Version: 6.00 Build 0)  -->
<svg version="1.1" id="Layer_1" xmlns="http://www.w3.org/2000/svg" xmlns:xlink="http://www.w3.org/1999/xlink" x="0px" y="0px"
	 viewBox="0 0 80 80" style="enable-background:new 0 0 80 80;" xml:space="preserve">
<style type="text/css">
	.st0{fill:#81C56D;}
	.st1{fill:#5BAA5E;}
	.st2{fill:#B6D997;}
	.st3{fill:#FFFFFF;}
	.st4{fill:#310F32;}
	.st5{fill:#C9D6E3;}
	.st6{fill:#FFC626;}
	.st7{fill:#F99E1D;}
	.st8{fill:#F58127;}
	.st9{fill:#301330;}
	.st10{fill:#EA5535;}
	.st11{fill:#EF4F24;}
	.st12{fill:#F16333;}
	.st13{fill:#DF3426;}
	.st14{fill:#F6946C;}
	.st15{fill:#D6E1EC;}
	.st16{opacity:0.8;}
	.st17{fill:#B9CCDC;}
	.st18{fill:#310E31;}
	.st19{fill:#EA5435;}
	.st20{fill:#FEDD3F;}
	.st21{fill:#EAC01E;}
	.st22{fill:#7FC042;}
	.st23{fill:#65A944;}
	.st24{fill:#0CBEF0;}
	.st25{fill:#6F7BBC;}
	.st26{fill:#0097D5;}
	.st27{fill:#FDB515;}
	.st28{fill:#5365AF;}
	.st29{fill:#1F90CF;}
	.st30{fill:#F99F1B;}
	.st31{opacity:0.7;}
	.st32{fill:#FFF5CA;}
	.st33{opacity:0.6;}
	.st34{fill:#FBDAE8;}
	.st35{fill:#D5E4EF;}
	.st36{opacity:0.4;}
	.st37{fill:#B1DEF5;}
	.st38{opacity:0.5;}
	.st39{fill:#FCE6A0;}
	.st40{fill:#FDF4D2;}
	.st41{fill:#FDD457;}
	.st42{fill:#FFDA85;}
	.st43{fill:#F36F34;}
	.st44{fill:#FFFFFF;stroke:#310F32;stroke-linecap:round;stroke-linejoin:round;stroke-miterlimit:10;}
	.st45{fill:none;stroke:#310F32;stroke-linecap:round;stroke-linejoin:round;stroke-miterlimit:10;}
	.st46{fill:#EE3B24;}
	.st47{fill:#301431;}
	.st48{fill:#71AC43;}
	.st49{fill:#C1DC83;}
	.st50{opacity:0.2;}
	.st51{opacity:0.1;}
	.st52{opacity:0.15;}
	.st53{fill:#5EC1EE;}
	.st54{fill:#239FCB;}
	.st55{fill:#92D1F1;}
	.st56{fill:#B2DCF5;}
	.st57{fill:#FFDF98;}
	.st58{fill:#406DB5;}
	.st59{fill:#FCDE60;}
	.st60{fill:#DEF1FB;}
	.st61{fill:#82CBF0;}
	.st62{fill:#6681C0;}
	.st63{fill:#FBEBAA;}
	.st64{fill:#8799CE;}
	.st65{fill:#98A7D5;}
	.st66{fill:#ACD6F2;}
	.st67{fill:#CCE4F7;}
	.st68{fill:#8BC9EE;}
	.st69{fill:#ADBBC3;}
	.st70{fill:#7E8C9B;}
	.st71{fill:#3B8E4F;}
	.st72{fill:#F05E75;}
	.st73{fill:#FCE5D3;}
	.st74{fill:#F8C4A0;}
</style>
<g>
	<g>
		<path class="st53" d="M25.62,66.99c0.2-0.35,0.4-0.71,0.58-1.07c2.71-5.27-5.56-10.05-8.77-5.07c-0.22,0.34-0.43,0.68-0.63,1.04
			c-2.85,4.94-2.76,14.97-2.76,14.97S22.77,71.93,25.62,66.99z"/>
	</g>
	<g>
		<path class="st56" d="M24.62,64.64c0.11-0.19,0.22-0.39,0.32-0.59c1.48-2.91-3.48-5.77-5.26-3.04c-0.12,0.19-0.24,0.37-0.35,0.57
			c-1.57,2.72-1.3,8.36-1.3,8.36S23.06,67.35,24.62,64.64z"/>
	</g>
	<g>
		<path class="st3" d="M23.37,63.11c0.05-0.09,0.1-0.18,0.15-0.27c0.68-1.32-1.28-2.45-2.08-1.2c-0.05,0.08-0.11,0.17-0.16,0.26
			c-0.71,1.24-0.75,3.71-0.75,3.71S22.66,64.34,23.37,63.11z"/>
	</g>
	<g>
		<g>
			<path class="st0" d="M26.03,56.09L26.03,56.09c-5.74-3.31-7.71-10.65-4.39-16.39l12-20.78c3.31-5.74,10.65-7.71,16.39-4.39l0,0
				c5.74,3.31,7.71,10.65,4.39,16.39l-12,20.78C39.11,57.43,31.77,59.4,26.03,56.09z"/>
		</g>
		<g>
			<path class="st1" d="M55.73,22.23c-1.03-4.49-7.05-5.37-9.35-1.38L40.28,31.4c-1.49-0.86-2.61-2.17-3.24-3.77
				c-0.1-0.26-0.39-0.38-0.65-0.28c-0.26,0.1-0.39,0.39-0.28,0.65c0.39,1,0.97,1.92,1.7,2.7c1.05,1.13,1.25,2.81,0.48,4.15
				L26.03,56.09c5.74,3.31,13.08,1.35,16.39-4.39l12-20.78C56,28.17,56.38,25.08,55.73,22.23z"/>
		</g>
		<g>
			<g>
				<path class="st2" d="M34.87,20.77c-0.48-0.28-0.64-0.89-0.37-1.37c1.49-2.58,3.9-4.41,6.79-5.15c0.53-0.14,1.08,0.18,1.22,0.72
					c0.14,0.54-0.18,1.08-0.72,1.22c-2.36,0.61-4.33,2.1-5.55,4.22C35.96,20.89,35.35,21.05,34.87,20.77z"/>
			</g>
		</g>
		<g>
			<circle class="st3" cx="44.03" cy="24.91" r="7"/>
			<path class="st4" d="M44.02,32.41c-1.3,0-2.58-0.34-3.74-1.01c-3.58-2.07-4.81-6.66-2.75-10.25c2.07-3.58,6.66-4.81,10.25-2.75
				c1.73,1,2.98,2.62,3.49,4.55c0.52,1.94,0.25,3.96-0.75,5.69l0,0c-1,1.73-2.62,2.98-4.55,3.49
				C45.33,32.33,44.67,32.41,44.02,32.41z M44.04,18.41c-0.56,0-1.13,0.07-1.69,0.22c-1.68,0.45-3.08,1.52-3.95,3.03
				s-1.1,3.26-0.65,4.93c0.45,1.68,1.52,3.08,3.03,3.95c1.5,0.87,3.26,1.1,4.93,0.65c1.68-0.45,3.08-1.52,3.95-3.03l0,0
				c0.87-1.5,1.1-3.26,0.65-4.93c-0.45-1.68-1.52-3.08-3.03-3.95C46.28,18.7,45.17,18.41,44.04,18.41z"/>
		</g>
		<g>
			<g>
				<path class="st0" d="M43.64,33.34c-0.15-0.09-0.25-0.25-0.25-0.44c0-0.28,0.23-0.5,0.51-0.49c1.71,0.03,3.4-0.54,4.75-1.59
					c0.22-0.17,0.53-0.13,0.7,0.09c0.17,0.22,0.13,0.53-0.09,0.7c-1.53,1.19-3.44,1.83-5.38,1.8
					C43.79,33.41,43.71,33.38,43.64,33.34z"/>
			</g>
		</g>
		<g>
			<path class="st5" d="M50.5,24.33c-0.07-0.78-1.14-0.91-1.46-0.2c-0.77,1.73-2.28,3.11-4.25,3.64c-1.97,0.53-3.97,0.09-5.5-1.02
				c-0.63-0.46-1.49,0.19-1.16,0.9c0.67,1.46,1.89,2.68,3.56,3.33c2.59,1.01,5.65,0.19,7.38-1.98C50.21,27.6,50.65,25.93,50.5,24.33
				z"/>
		</g>
		<g>
			<path class="st4" d="M46.26,25.04c-0.55,0.96-1.77,1.28-2.73,0.73c-0.96-0.55-1.29-1.78-0.73-2.73c0.55-0.96,1.78-1.28,2.73-0.73
				C46.49,22.86,46.82,24.09,46.26,25.04z"/>
		</g>
		<g>
			<path class="st9" d="M44.48,36.14l-10.39-6c-1.19-0.69-2.73-0.28-3.42,0.92c-1.73,3,0.19,7.62,4.11,9.88
				c1.53,0.89,3.25,1.35,4.93,1.35c0.41,0,0.82-0.03,1.22-0.08c2.02-0.28,3.65-1.24,4.46-2.65C46.08,38.36,45.67,36.82,44.48,36.14z
				"/>
			<path class="st10" d="M36.57,37.92c-0.29-0.17-0.62-0.31-0.92-0.4c-1-0.29-2.04-0.14-2.94,0.32c0.66,0.84,1.52,1.61,2.58,2.22
				c1.01,0.58,2.11,0.96,3.21,1.12c-0.04-0.98-0.42-1.93-1.13-2.64C37.12,38.3,36.88,38.1,36.57,37.92z"/>
			<path class="st3" d="M39.43,36.11l0.66,0.38c0.33,0.19,0.73,0.18,1.05-0.03l0.88-0.58L39,34.13l-0.06,1.06
				C38.91,35.56,39.11,35.92,39.43,36.11z"/>
			<path class="st3" d="M35.97,34.11l0.66,0.38c0.33,0.19,0.73,0.18,1.05-0.03l0.88-0.58l-3.03-1.75l-0.06,1.06
				C35.45,33.56,35.64,33.92,35.97,34.11z"/>
		</g>
	</g>
	<g>
		<path class="st6" d="M22.27,36.59l-1.5,2.6c-3.59,6.22-1.46,14.17,4.76,17.76s14.17,1.46,17.76-4.76l1.5-2.6L22.27,36.59z"/>
	</g>
	<g>
		<path class="st7" d="M43.06,48.59l-9.53-5.5l-1.5,2.6c-0.35,0.61-0.76,1.22-1.21,1.81c-3.59,4.75-11.19,0.94-9.42-4.74
			c0.29-0.93,0.69-1.84,1.2-2.73l1.41-2.44l-1.73-1l-1.32,2.28c-3.5,6.06-1.85,13.97,4.04,17.75c6.29,4.04,14.6,1.97,18.3-4.43
			l1.5-2.6L43.06,48.59z"/>
	</g>
	<g>
		<path class="st8" d="M43.04,52.63l-0.88-0.51c0.09-0.14,0.18-0.28,0.27-0.42c0.14-0.24,0.06-0.54-0.18-0.68
			c-0.32-0.19-0.77,0.03-0.76,0.49c-0.11,0.06-0.09,0.05-0.19,0.11l-6.04-3.49c-0.24-0.14-0.54-0.06-0.68,0.18
			c-0.14,0.24-0.06,0.54,0.18,0.68l2.68,1.55c1.82,1.05,1.82,3.69-0.01,4.72c-2.34,1.31-5.15,1.78-7.86,1.15
			c-0.27-0.06-0.54,0.11-0.6,0.37C28.9,57,29,57.22,29.19,57.33c0.04,0.02,0.09,0.04,0.14,0.05c4.6,1.06,9.43-0.75,12.25-4.45
			l0.96,0.55c0.24,0.14,0.54,0.06,0.68-0.18C43.36,53.07,43.28,52.76,43.04,52.63z"/>
	</g>
	<g>
		<circle class="st0" cx="61.42" cy="18.78" r="1"/>
	</g>
	<g>
		<circle class="st0" cx="40.64" cy="6.78" r="1"/>
	</g>
	<path class="st4" d="M65.73,20.56c-1.62-6.06-5.51-11.13-10.95-14.27S43.01,2.32,36.95,3.94c-6.06,1.62-11.13,5.51-14.27,10.95
		c-3.73,6.46-4.15,14.29-1.19,21.11c-0.03,0.03-0.06,0.06-0.08,0.09l-1.5,2.6c-1.26,2.18-1.86,4.56-1.87,6.92
		c0,1.35-0.91,2.52-2.22,2.87l-1.15,0.31c-0.77,0.21-1.34,0.96-1.19,1.74c0.08,0.46,0.36,0.82,0.73,1.03
		c0.33,0.19,0.74,0.26,1.14,0.15l1.26-0.34c1.3-0.35,2.68,0.21,3.35,1.38c1.18,2.04,2.9,3.8,5.08,5.06
		c2.18,1.26,4.56,1.86,6.92,1.87c1.35,0,2.52,0.91,2.87,2.22l0.34,1.26c0.11,0.4,0.37,0.72,0.7,0.91c0.37,0.21,0.82,0.27,1.26,0.11
		c0.75-0.27,1.12-1.13,0.91-1.9l-0.31-1.15c-0.35-1.3,0.21-2.68,1.38-3.35c2.04-1.18,3.8-2.9,5.06-5.08l1.5-2.6
		c0.02-0.04,0.02-0.08,0.04-0.12c7.39-0.85,13.96-5.12,17.69-11.59C66.52,32.95,67.36,26.62,65.73,20.56z M24.51,36.73l10-17.32
		c1.47-2.54,3.84-4.36,6.68-5.13c2.84-0.76,5.8-0.37,8.35,1.1c5.25,3.03,7.06,9.77,4.03,15.03l-10,17.32L24.51,36.73z M26.03,56.09
		c-5.58-3.22-7.58-10.29-4.62-15.95l20.74,11.97C38.73,57.51,31.62,59.31,26.03,56.09z M42.67,51.26l-20.78-12l0.75-1.3l20.78,12
		L42.67,51.26z M62.52,37.89c-3.57,6.19-9.86,10.28-16.94,11.09c-0.08-0.1-0.17-0.19-0.29-0.26l10-17.32
		c1.74-3.01,2.2-6.51,1.3-9.86c-0.19-0.7-0.44-1.36-0.73-2.01c0.46-0.56,1.08-0.98,1.79-1.17c0.61-0.16,1.23-0.15,1.82,0.02
		c-0.17,0.82,0.19,1.69,0.95,2.13c0.96,0.55,2.18,0.22,2.73-0.73c0.55-0.96,0.22-2.18-0.73-2.73c-0.84-0.49-1.89-0.29-2.5,0.41
		c-0.81-0.26-1.68-0.29-2.53-0.06c-0.78,0.21-1.46,0.63-2.01,1.18c-1.13-2.04-2.78-3.74-4.85-4.94c-2.07-1.19-4.37-1.77-6.7-1.73
		c0.44-1.62-0.05-3.36-1.3-4.49c0.3-0.89-0.05-1.89-0.89-2.37c-0.96-0.55-2.18-0.22-2.73,0.73c-0.55,0.96-0.22,2.18,0.73,2.73
		c0.77,0.44,1.7,0.31,2.32-0.24c0.97,0.96,1.3,2.41,0.81,3.71c-0.7,0.07-1.41,0.18-2.1,0.37c-3.35,0.9-6.16,3.05-7.89,6.06
		l-10,17.32c-0.12-0.07-0.24-0.11-0.37-0.12c-2.84-6.53-2.44-14.03,1.14-20.22c3-5.21,7.86-8.93,13.66-10.48
		c5.81-1.56,11.87-0.76,17.07,2.25c5.21,3,8.93,7.86,10.48,13.66C66.32,26.62,65.52,32.69,62.52,37.89z"/>
	<g class="st16">
		<path class="st3" d="M30.95,30.05c1.5,0.86,3.4,0.27,4.16-1.29c0.82-1.67,1.73-3.39,2.73-5.13c3.05-5.28,6.35-9.76,9.28-12.82
			c2.21-2.31,0.08-6.12-3.03-5.39c-5.9,1.39-11.86,5.93-15.78,12.71c-1.17,2.03-2.07,4.12-2.72,6.21c-0.4,1.31,0.18,2.72,1.37,3.41
			L30.95,30.05z"/>
	</g>
</g>
</svg>
