<?xml version="1.0" encoding="utf-8"?>
<!-- Generator: Adobe Illustrator 23.0.4, SVG Export Plug-In . SVG Version: 6.00 Build 0)  -->
<svg version="1.1" id="Layer_1" xmlns="http://www.w3.org/2000/svg" xmlns:xlink="http://www.w3.org/1999/xlink" x="0px" y="0px"
	 viewBox="0 0 80 80" style="enable-background:new 0 0 80 80;" xml:space="preserve">
<style type="text/css">
	.st0{fill:#81C56D;}
	.st1{fill:#5BAA5E;}
	.st2{fill:#B6D997;}
	.st3{fill:#FFFFFF;}
	.st4{fill:#310F32;}
	.st5{fill:#C9D6E3;}
	.st6{fill:#FFC626;}
	.st7{fill:#F99E1D;}
	.st8{fill:#F58127;}
	.st9{fill:#301330;}
	.st10{fill:#EA5535;}
	.st11{fill:#EF4F24;}
	.st12{fill:#F16333;}
	.st13{fill:#DF3426;}
	.st14{fill:#F6946C;}
	.st15{fill:#D6E1EC;}
	.st16{opacity:0.8;}
	.st17{fill:#B9CCDC;}
	.st18{fill:#310E31;}
	.st19{fill:#EA5435;}
	.st20{fill:#FEDD3F;}
	.st21{fill:#EAC01E;}
	.st22{fill:#7FC042;}
	.st23{fill:#65A944;}
	.st24{fill:#0CBEF0;}
	.st25{fill:#6F7BBC;}
	.st26{fill:#0097D5;}
	.st27{fill:#FDB515;}
	.st28{fill:#5365AF;}
	.st29{fill:#1F90CF;}
	.st30{fill:#F99F1B;}
	.st31{opacity:0.7;}
	.st32{fill:#FFF5CA;}
	.st33{opacity:0.6;}
	.st34{fill:#FBDAE8;}
	.st35{fill:#D5E4EF;}
	.st36{opacity:0.4;}
	.st37{fill:#B1DEF5;}
	.st38{opacity:0.5;}
	.st39{fill:#FCE6A0;}
	.st40{fill:#FDF4D2;}
	.st41{fill:#FDD457;}
	.st42{fill:#FFDA85;}
	.st43{fill:#F36F34;}
	.st44{fill:#FFFFFF;stroke:#310F32;stroke-linecap:round;stroke-linejoin:round;stroke-miterlimit:10;}
	.st45{fill:none;stroke:#310F32;stroke-linecap:round;stroke-linejoin:round;stroke-miterlimit:10;}
	.st46{fill:#EE3B24;}
	.st47{fill:#301431;}
	.st48{fill:#71AC43;}
	.st49{fill:#C1DC83;}
	.st50{opacity:0.2;}
	.st51{opacity:0.1;}
	.st52{opacity:0.15;}
	.st53{fill:#5EC1EE;}
	.st54{fill:#239FCB;}
	.st55{fill:#92D1F1;}
	.st56{fill:#B2DCF5;}
	.st57{fill:#FFDF98;}
	.st58{fill:#406DB5;}
	.st59{fill:#FCDE60;}
	.st60{fill:#DEF1FB;}
	.st61{fill:#82CBF0;}
	.st62{fill:#6681C0;}
	.st63{fill:#FBEBAA;}
	.st64{fill:#8799CE;}
	.st65{fill:#98A7D5;}
	.st66{fill:#ACD6F2;}
	.st67{fill:#CCE4F7;}
	.st68{fill:#8BC9EE;}
	.st69{fill:#ADBBC3;}
	.st70{fill:#7E8C9B;}
	.st71{fill:#3B8E4F;}
	.st72{fill:#F05E75;}
	.st73{fill:#FCE5D3;}
	.st74{fill:#F8C4A0;}
</style>
<g>
	<g>
		<g>
			<path class="st0" d="M40,59.5L40,59.5c-6.63,0-12-5.37-12-12v-22c0-6.63,5.37-12,12-12h0c6.63,0,12,5.37,12,12v22
				C52,54.13,46.63,59.5,40,59.5z"/>
		</g>
		<g>
			<path class="st1" d="M48.79,17.33C45.65,13.96,40,16.21,40,20.81l0,10.71c-1.72,0-3.35-0.57-4.69-1.65
				c-0.21-0.17-0.53-0.14-0.7,0.08c-0.17,0.22-0.14,0.53,0.08,0.7c0.84,0.67,1.8,1.18,2.82,1.49C38.99,32.6,40,33.95,40,35.5v24
				c6.63,0,12-5.37,12-12v-22C52,22.34,50.78,19.47,48.79,17.33z"/>
		</g>
		<g>
			<g>
				<path class="st2" d="M30,26.5c-0.55,0-1-0.45-1-1c0-2.98,1.17-5.77,3.3-7.86c0.39-0.39,1.03-0.38,1.41,0.01
					c0.39,0.39,0.38,1.03-0.01,1.41c-1.74,1.71-2.7,3.99-2.7,6.43C31,26.05,30.55,26.5,30,26.5z"/>
			</g>
		</g>
		<g>
			<circle class="st3" cx="40" cy="26.5" r="5"/>
		</g>
		<g>
			<path class="st35" d="M43.8,23.83c-0.32-0.46-1.03-0.16-0.97,0.4c0.14,1.34-0.3,2.74-1.33,3.77c-1.03,1.03-2.42,1.47-3.77,1.33
				c-0.56-0.06-0.85,0.65-0.4,0.97c0.94,0.66,2.13,0.98,3.39,0.79c1.96-0.3,3.56-1.9,3.86-3.86C44.78,25.96,44.46,24.77,43.8,23.83z
				"/>
		</g>
		<g>
			<g>
				<path class="st0" d="M41.96,32.5c-0.18,0-0.35-0.09-0.44-0.26c-0.13-0.24-0.05-0.55,0.2-0.68c1.5-0.83,2.68-2.16,3.32-3.75
					c0.1-0.26,0.39-0.38,0.65-0.28c0.26,0.1,0.38,0.4,0.28,0.65c-0.73,1.8-2.06,3.31-3.76,4.25C42.12,32.48,42.04,32.5,41.96,32.5z"
					/>
			</g>
		</g>
		<g>
			<path class="st4" d="M41.5,28c0,0.83-0.67,1.5-1.5,1.5s-1.5-0.67-1.5-1.5c0-0.83,0.67-1.5,1.5-1.5S41.5,27.17,41.5,28z"/>
		</g>
		<g>
			<path class="st4" d="M40,32c-3.03,0-5.5-2.47-5.5-5.5S36.97,21,40,21s5.5,2.47,5.5,5.5S43.03,32,40,32z M40,22
				c-2.48,0-4.5,2.02-4.5,4.5S37.52,31,40,31s4.5-2.02,4.5-4.5S42.48,22,40,22z"/>
		</g>
		<g class="st36">
			<path class="st37" d="M49,20.21v3.29c0,3.26-0.67,6.51-2,9c-3.87,1.33-10.13,1.33-14,0c-1.33-2.49-2-5.74-2-9v-3.31
				C36.31,19.27,43.72,19.27,49,20.21z"/>
		</g>
	</g>
	<g>
		<circle class="st3" cx="38.85" cy="27" r="0.5"/>
	</g>
	<path class="st4" d="M50.11,12.13c0.26,0.79,1.01,1.37,1.89,1.37c1.1,0,2-0.9,2-2c0-1.1-0.9-2-2-2c-0.97,0-1.78,0.69-1.96,1.61
		c-1.65,0.36-2.95,1.63-3.37,3.25c-1.95-1.17-4.23-1.86-6.66-1.86s-4.71,0.69-6.66,1.86c-0.43-1.62-1.73-2.89-3.37-3.25
		C29.78,10.19,28.97,9.5,28,9.5c-1.1,0-2,0.9-2,2c0,1.1,0.9,2,2,2c0.88,0,1.62-0.58,1.89-1.37c1.32,0.35,2.33,1.45,2.55,2.81
		C29.15,17.3,27,21.15,27,25.5v22c0,7.17,5.83,13,13,13s13-5.83,13-13v-22c0-4.35-2.15-8.2-5.44-10.56
		C47.78,13.57,48.79,12.48,50.11,12.13z M51,25.5v22c0,6.07-4.93,11-11,11s-11-4.93-11-11v-22c0-6.07,4.93-11,11-11
		S51,19.43,51,25.5z"/>
	<g>
		<circle class="st0" cx="52" cy="11.5" r="1"/>
	</g>
	<g>
		<circle class="st0" cx="28" cy="11.5" r="1"/>
	</g>
	<g class="st38">
		<path class="st3" d="M39.95,21c-1.87,0-3.69,0.08-5.41,0.24c-1.16,0.11-2.04,1.07-2.04,2.26c0,1.71,0.21,3.39,0.58,4.92l7.4-7.4
			C40.3,21.01,40.13,21,39.95,21z"/>
	</g>
	<g class="st38">
		<path class="st3" d="M45.47,21.25c-0.98-0.09-1.99-0.15-3.03-0.2L34,29.5v1.06c0.52,0.6,1.25,1.01,2.05,1.14
			c0.21,0.03,0.45,0.05,0.67,0.08l9.99-9.99C46.37,21.5,45.95,21.3,45.47,21.25z"/>
	</g>
	<path class="st4" d="M52,19.5h-4.31c-4.75-0.66-10.73-0.66-15.47,0H28c-0.55,0-1,0.45-1,1c0,0.55,0.45,1,1,1h1l0.59-0.29
		c0.53,0.39,0.91,1.28,0.91,2.29c0,3.17,0.61,6.18,1.72,8.56c0.26,0.55,0.73,0.96,1.32,1.13c1.87,0.53,4.16,0.8,6.46,0.8
		s4.59-0.27,6.46-0.8c0.59-0.17,1.06-0.58,1.32-1.13c1.11-2.38,1.72-5.39,1.72-8.56c0-1.01,0.38-1.9,0.91-2.29L51,21.5h1
		c0.55,0,1-0.45,1-1C53,19.95,52.55,19.5,52,19.5z M47.64,29.62c-0.49,1.61-1.88,2.8-3.54,3.07c-2.59,0.42-5.62,0.42-8.21,0
		c-1.66-0.27-3.05-1.46-3.54-3.07c-0.56-1.84-0.86-3.94-0.86-6.12v-0.01c0-1.68,1.27-3.09,2.94-3.24c3.56-0.33,7.57-0.33,11.12,0.01
		c1.67,0.16,2.94,1.57,2.94,3.24C48.5,25.68,48.2,27.78,47.64,29.62z"/>
	<g>
		<path class="st4" d="M43,37c-0.18,0-0.36-0.1-0.45-0.28c-0.12-0.25-0.02-0.55,0.22-0.67l2-1c0.25-0.12,0.55-0.02,0.67,0.22
			c0.12,0.25,0.02,0.55-0.22,0.67l-2,1C43.15,36.98,43.08,37,43,37z"/>
	</g>
	<g>
		<g>
			<path class="st3" d="M42,44.5v-1c-0.55-0.66-1.28-1-2-1c1.65-3.37,5.94-4.59,10.62-4.93c3-0.21,6.29,0.1,7.38-2.07l3,2L42,44.5z"
				/>
		</g>
		<g>
			<path class="st3" d="M40,42.5c-0.72,0-1.45,0.34-2,1v1l-19-7l3-2c1.94,2,4.38,1.86,7.38,2.07C34.06,37.91,38.35,39.13,40,42.5z"
				/>
		</g>
		<path class="st4" d="M61.28,37.08l-3-2c-0.12-0.08-0.27-0.1-0.41-0.07c-0.14,0.04-0.25,0.13-0.32,0.26
			c-0.77,1.53-3.02,1.62-5.4,1.72c-0.52,0.02-1.05,0.04-1.57,0.08c-5.42,0.39-8.88,1.87-10.58,4.47c-1.71-2.6-5.17-4.08-10.59-4.47
			c-0.39-0.03-0.76-0.05-1.13-0.07c-2.44-0.14-4.37-0.25-5.92-1.85c-0.17-0.17-0.44-0.2-0.64-0.07l-3,2
			c-0.16,0.1-0.24,0.29-0.22,0.47s0.15,0.35,0.32,0.41l19,7C37.88,44.99,37.94,45,38,45c0.1,0,0.2-0.03,0.29-0.09
			c0.13-0.09,0.21-0.25,0.21-0.41h3c0,0.16,0.08,0.32,0.21,0.41C41.8,44.97,41.9,45,42,45c0.06,0,0.12-0.01,0.17-0.03l19-7
			c0.18-0.06,0.3-0.22,0.32-0.41S61.43,37.19,61.28,37.08z M37.62,43.18c-0.07,0.09-0.12,0.2-0.12,0.32v0.28l-17.4-6.41l1.85-1.23
			c1.77,1.61,3.87,1.72,6.28,1.86c0.36,0.02,0.74,0.04,1.12,0.07c5.11,0.37,8.35,1.7,9.86,4.04C38.61,42.29,38.05,42.66,37.62,43.18
			z M42.5,43.78V43.5c0-0.12-0.04-0.23-0.12-0.32c-0.44-0.52-0.99-0.89-1.59-1.07c1.52-2.35,4.76-3.67,9.86-4.04
			c0.51-0.04,1.03-0.06,1.54-0.08c2.35-0.09,4.77-0.19,5.96-1.79l1.75,1.17L42.5,43.78z"/>
	</g>
	<g>
		<polygon class="st6" points="38,69.5 19,62.5 19,37.5 38,44.5 		"/>
	</g>
	<g>
		<polygon class="st8" points="42,69.5 61,62.5 61,37.5 42,44.5 		"/>
	</g>
	<g>
		<rect x="38" y="44.5" class="st39" width="4" height="25"/>
	</g>
	<g>
		<polygon class="st40" points="38,68.5 34,67.5 34,43.5 38,44.5 		"/>
	</g>
	<g>
		<polygon class="st41" points="42,68.5 46,67.5 46,43.5 42,44.5 		"/>
	</g>
	<g>
		<g>
			<path class="st7" d="M38,68.4c-0.06,0-0.12-0.01-0.17-0.03l-13-4.79c-0.26-0.09-0.39-0.38-0.3-0.64c0.1-0.26,0.38-0.39,0.64-0.3
				l13,4.79c0.26,0.09,0.39,0.38,0.3,0.64C38.39,68.28,38.2,68.4,38,68.4z"/>
		</g>
	</g>
	<g>
		<path class="st41" d="M34,65.9v1.06l3.83,1.41c0.06,0.02,0.12,0.03,0.17,0.03v-1.03L34,65.9z"/>
	</g>
	<g>
		<g>
			<path class="st42" d="M20.5,53c-0.28,0-0.5-0.22-0.5-0.5V38.93l7.17,2.64c0.26,0.09,0.39,0.38,0.3,0.64
				c-0.09,0.26-0.38,0.39-0.64,0.3L21,40.37V52.5C21,52.78,20.78,53,20.5,53z"/>
		</g>
	</g>
	<g>
		<g>
			<path class="st7" d="M49.05,44c-0.2,0-0.39-0.12-0.47-0.33c-0.1-0.26,0.04-0.55,0.3-0.64l7.95-2.93c0.26-0.1,0.55,0.04,0.64,0.3
				c0.1,0.26-0.04,0.55-0.3,0.64l-7.95,2.93C49.17,43.99,49.11,44,49.05,44z"/>
		</g>
	</g>
	<g>
		<g>
			<path class="st43" d="M50,65.45c-0.2,0-0.39-0.12-0.47-0.33c-0.1-0.26,0.04-0.55,0.3-0.64L59,61.11V52.5c0-0.28,0.22-0.5,0.5-0.5
				s0.5,0.22,0.5,0.5v9.3l-9.83,3.62C50.12,65.44,50.06,65.45,50,65.45z"/>
		</g>
	</g>
	<g>
		<path class="st4" d="M42,70.5h-4c-0.55,0-1-0.45-1-1v-25c0-0.55,0.45-1,1-1h4c0.55,0,1,0.45,1,1v25C43,70.05,42.55,70.5,42,70.5z
			 M39,68.5h2v-23h-2V68.5z"/>
	</g>
	<path class="st4" d="M61.57,36.68c-0.27-0.19-0.61-0.23-0.92-0.12l-19,7C41.26,43.71,41,44.08,41,44.5v25
		c0,0.33,0.16,0.63,0.43,0.82C41.6,70.44,41.8,70.5,42,70.5c0.12,0,0.23-0.02,0.35-0.06l19-7C61.74,63.29,62,62.92,62,62.5v-25
		C62,37.17,61.84,36.87,61.57,36.68z M43,45.2l2.5-0.92v22.87L43,68.07V45.2z M60,61.8l-13.5,4.97V43.91L60,38.93V61.8z"/>
	<path class="st4" d="M38.35,43.56l-19-7c-0.31-0.11-0.65-0.07-0.92,0.12C18.16,36.87,18,37.17,18,37.5v25
		c0,0.42,0.26,0.79,0.65,0.94l19,7c0.11,0.04,0.23,0.06,0.35,0.06c0.2,0,0.4-0.06,0.57-0.18C38.84,70.13,39,69.83,39,69.5v-25
		C39,44.08,38.74,43.71,38.35,43.56z M20,38.93l13.5,4.97v22.87L20,61.8V38.93z M37,68.07l-2.5-0.92V44.28L37,45.2V68.07z"/>
	<g>
		<circle class="st0" cx="61" cy="46.5" r="3"/>
	</g>
	<g>
		<path class="st4" d="M61,50.5c-2.21,0-4-1.79-4-4s1.79-4,4-4s4,1.79,4,4S63.21,50.5,61,50.5z M61,44.5c-1.1,0-2,0.9-2,2s0.9,2,2,2
			s2-0.9,2-2S62.1,44.5,61,44.5z"/>
	</g>
	<g>
		<circle class="st0" cx="19" cy="46.5" r="3"/>
	</g>
	<g>
		<path class="st4" d="M19,50.5c-2.21,0-4-1.79-4-4s1.79-4,4-4s4,1.79,4,4S21.21,50.5,19,50.5z M19,44.5c-1.1,0-2,0.9-2,2s0.9,2,2,2
			s2-0.9,2-2S20.1,44.5,19,44.5z"/>
	</g>
</g>
</svg>
