<?xml version="1.0" encoding="utf-8"?>
<!-- Generator: Adobe Illustrator 23.0.4, SVG Export Plug-In . SVG Version: 6.00 Build 0)  -->
<svg version="1.1" id="Layer_1" xmlns="http://www.w3.org/2000/svg" xmlns:xlink="http://www.w3.org/1999/xlink" x="0px" y="0px"
	 viewBox="0 0 80 80" style="enable-background:new 0 0 80 80;" xml:space="preserve">
<style type="text/css">
	.st0{fill:#81C56D;}
	.st1{fill:#5BAA5E;}
	.st2{fill:#B6D997;}
	.st3{fill:#FFFFFF;}
	.st4{fill:#310F32;}
	.st5{fill:#C9D6E3;}
	.st6{fill:#FFC626;}
	.st7{fill:#F99E1D;}
	.st8{fill:#F58127;}
	.st9{fill:#301330;}
	.st10{fill:#EA5535;}
	.st11{fill:#EF4F24;}
	.st12{fill:#F16333;}
	.st13{fill:#DF3426;}
	.st14{fill:#F6946C;}
	.st15{fill:#D6E1EC;}
	.st16{opacity:0.8;}
	.st17{fill:#B9CCDC;}
	.st18{fill:#310E31;}
	.st19{fill:#EA5435;}
	.st20{fill:#FEDD3F;}
	.st21{fill:#EAC01E;}
	.st22{fill:#7FC042;}
	.st23{fill:#65A944;}
	.st24{fill:#0CBEF0;}
	.st25{fill:#6F7BBC;}
	.st26{fill:#0097D5;}
	.st27{fill:#FDB515;}
	.st28{fill:#5365AF;}
	.st29{fill:#1F90CF;}
	.st30{fill:#F99F1B;}
	.st31{opacity:0.7;}
	.st32{fill:#FFF5CA;}
	.st33{opacity:0.6;}
	.st34{fill:#FBDAE8;}
	.st35{fill:#D5E4EF;}
	.st36{opacity:0.4;}
	.st37{fill:#B1DEF5;}
	.st38{opacity:0.5;}
	.st39{fill:#FCE6A0;}
	.st40{fill:#FDF4D2;}
	.st41{fill:#FDD457;}
	.st42{fill:#FFDA85;}
	.st43{fill:#F36F34;}
	.st44{fill:#FFFFFF;stroke:#310F32;stroke-linecap:round;stroke-linejoin:round;stroke-miterlimit:10;}
	.st45{fill:none;stroke:#310F32;stroke-linecap:round;stroke-linejoin:round;stroke-miterlimit:10;}
	.st46{fill:#EE3B24;}
	.st47{fill:#301431;}
	.st48{fill:#71AC43;}
	.st49{fill:#C1DC83;}
	.st50{opacity:0.2;}
	.st51{opacity:0.1;}
	.st52{opacity:0.15;}
	.st53{fill:#5EC1EE;}
	.st54{fill:#239FCB;}
	.st55{fill:#92D1F1;}
	.st56{fill:#B2DCF5;}
	.st57{fill:#FFDF98;}
	.st58{fill:#406DB5;}
	.st59{fill:#FCDE60;}
	.st60{fill:#DEF1FB;}
	.st61{fill:#82CBF0;}
	.st62{fill:#6681C0;}
	.st63{fill:#FBEBAA;}
	.st64{fill:#8799CE;}
	.st65{fill:#98A7D5;}
	.st66{fill:#ACD6F2;}
	.st67{fill:#CCE4F7;}
	.st68{fill:#8BC9EE;}
	.st69{fill:#ADBBC3;}
	.st70{fill:#7E8C9B;}
	.st71{fill:#3B8E4F;}
	.st72{fill:#F05E75;}
	.st73{fill:#FCE5D3;}
	.st74{fill:#F8C4A0;}
</style>
<g>
	<g>
		<g>
			<path class="st6" d="M57.72,57.99c0,1.66-1.34,3-3,3c-0.93,0-1.82-0.14-2.66-0.41c0.83,1.03,0.9,2.55,0.06,3.68
				c-0.59,0.79-1.49,1.2-2.4,1.2c-0.63,0-1.26-0.19-1.8-0.59c-3.3-2.48-5.2-6.08-5.2-9.88v10c0,1.66-1.34,3-3,3
				c-0.83,0-1.58-0.34-2.12-0.88c-0.54-0.54-0.88-1.29-0.88-2.12v-10c0,3.8-1.9,7.4-5.2,9.88c-0.54,0.4-1.17,0.59-1.8,0.59
				c-0.91,0-1.81-0.41-2.4-1.2c-0.84-1.13-0.77-2.65,0.06-3.68c-0.84,0.27-1.73,0.41-2.66,0.41c-1.66,0-3-1.34-3-3
				c0-1.66,1.34-3,3-3c1.65,0,3-1.35,3-3v-20c0-6.63,5.37-12,12-12c3.32,0,6.32,1.34,8.49,3.51c2.17,2.17,3.51,5.17,3.51,8.49v20
				c0,1.65,1.35,3,3,3C56.38,54.99,57.72,56.33,57.72,57.99z"/>
		</g>
		<g>
			<path class="st7" d="M27.13,63.96c0.05,0.1,0.12,0.2,0.19,0.3c0.59,0.79,1.49,1.2,2.4,1.2c0.63,0,1.26-0.19,1.8-0.59
				c3.3-2.48,5.2-6.08,5.2-9.88v-1l0,0c-1.08,0-1.99,0.74-2.27,1.78c-0.9,3.3-3.71,6.97-6.35,7.94
				C27.61,63.89,27.62,63.9,27.13,63.96z"/>
		</g>
		<g>
			<path class="st7" d="M24.72,59.99c0.93,0,1.82-0.14,2.66-0.41c0.16-0.19,0.34-0.37,0.54-0.52c1.81-1.35,2.8-3.15,2.8-5.07v-1
				c-1.49,2.9-2.42,5-5.9,5c-0.06,0-0.19-0.01-0.37-0.01c-1.28-0.07-1.47,1.88-0.19,2C24.41,59.98,24.56,59.99,24.72,59.99z"/>
		</g>
	</g>
	<g>
		<g>
			<g>
				<path class="st57" d="M29.72,32.99c-0.55,0-1-0.45-1-1c0-2.98,1.17-5.77,3.3-7.86c0.39-0.39,1.03-0.38,1.41,0.01
					c0.39,0.39,0.38,1.03-0.01,1.41c-1.74,1.71-2.7,3.99-2.7,6.43C30.72,32.54,30.28,32.99,29.72,32.99z"/>
			</g>
		</g>
		<path class="st7" d="M57.7,57.85c0,0,0-0.01,0-0.01c-0.31,0.12-0.71-2.12-1.99-2.82c-1.14-0.63-4.07-2.51-4.03-3.18
			c0.02-0.27,0.03-0.55,0.03-0.82v-19c0-3.16-1.22-6.03-3.21-8.17c-3.14-3.37-8.79-1.12-8.79,3.48v12.19
			c-1.72,0-3.35-0.57-4.69-1.65c-0.21-0.17-0.53-0.14-0.7,0.08c-0.17,0.22-0.14,0.53,0.08,0.7c0.84,0.67,1.8,1.18,2.82,1.49
			c1.48,0.45,2.49,1.81,2.49,3.35v7.74c0,0.1,0.01,0.19,0.02,0.28v13.42c0,1.93,2.97,2.04,3,0.1c0-0.02,0-0.03,0-0.05v-8.52
			c0.03,0.02,0.06,0.04,0.09,0.05c0.43,3.24,2.23,6.23,5.1,8.38c0.54,0.4,1.17,0.59,1.8,0.59c0.91,0,1.81-0.41,2.4-1.2
			c0.07-0.1,0.14-0.2,0.19-0.3c-0.49-0.06,0.83-1.65,0.41-1.97c-1.23-0.92,1.19-0.98,2.19-1C56.56,60.98,57.93,59.5,57.7,57.85z"/>
		<g>
			<g>
				<path class="st6" d="M43.58,39.52c-0.18,0-0.35-0.09-0.44-0.26c-0.13-0.24-0.05-0.55,0.2-0.68c1.5-0.83,2.68-2.16,3.32-3.75
					c0.1-0.26,0.39-0.38,0.65-0.28c0.26,0.1,0.38,0.4,0.28,0.65c-0.73,1.8-2.06,3.31-3.76,4.25C43.75,39.5,43.66,39.52,43.58,39.52z
					"/>
			</g>
		</g>
	</g>
	<path class="st4" d="M54.72,53.99c-1.1,0-2-0.9-2-2v-20c0-3.48-1.35-6.74-3.8-9.2c-0.51-0.51-1.06-0.96-1.64-1.37
		c0.23-1.36,1.24-2.45,2.55-2.8c0.26,0.79,1.01,1.37,1.89,1.37c1.1,0,2-0.9,2-2c0-1.1-0.9-2-2-2c-0.97,0-1.78,0.69-1.96,1.61
		c-1.64,0.36-2.94,1.62-3.37,3.24c-1.99-1.19-4.28-1.85-6.67-1.85c-2.44,0-4.71,0.69-6.66,1.86c-0.43-1.62-1.73-2.89-3.37-3.25
		c-0.18-0.92-0.99-1.61-1.96-1.61c-1.1,0-2,0.9-2,2c0,1.1,0.9,2,2,2c0.88,0,1.62-0.58,1.89-1.37c1.32,0.35,2.33,1.45,2.55,2.81
		c-3.29,2.36-5.44,6.21-5.44,10.56v20c0,1.1-0.9,2-2,2c-2.21,0-4,1.79-4,4s1.79,4,4,4c0.35,0,0.69-0.02,1.03-0.05
		c-0.13,1.01,0.12,2.06,0.76,2.92c0.76,1.02,1.93,1.6,3.2,1.6c0.87,0,1.7-0.27,2.4-0.79c1.47-1.11,2.68-2.42,3.6-3.87v3.19
		c0,1.07,0.42,2.07,1.17,2.83c0.76,0.76,1.76,1.17,2.83,1.17c2.21,0,4-1.79,4-4v-3.19c0.92,1.45,2.13,2.77,3.6,3.88
		c0.69,0.51,1.52,0.79,2.4,0.79c1.27,0,2.44-0.58,3.2-1.6c0.64-0.86,0.89-1.91,0.76-2.92c0.34,0.04,0.69,0.05,1.03,0.05
		c2.21,0,4-1.79,4-4S56.93,53.99,54.72,53.99z M54.72,59.99c-0.74,0-1.45-0.11-2.14-0.31c-0.15-0.16-0.31-0.3-0.47-0.42
		c-1.55-1.15-2.4-2.67-2.4-4.27v-1c0-0.55-0.45-1-1-1s-1,0.45-1,1v1c0,2.25,1.14,4.33,3.2,5.87c0.12,0.09,0.24,0.21,0.36,0.35
		c0.56,0.71,0.58,1.71,0.03,2.44c-0.64,0.86-1.96,1.03-2.8,0.41c-3.05-2.29-4.8-5.6-4.8-9.08c0-0.55-0.45-1-1-1s-1,0.45-1,1v10
		c0,1.1-0.9,2-2,2c-0.53,0-1.03-0.21-1.41-0.59s-0.59-0.88-0.59-1.41v-10c0-0.55-0.45-1-1-1s-1,0.45-1,1c0,3.48-1.75,6.79-4.8,9.08
		c-0.85,0.63-2.16,0.45-2.8-0.4c-0.55-0.74-0.53-1.74,0.03-2.45c0.12-0.15,0.25-0.27,0.36-0.35c2.07-1.54,3.2-3.63,3.2-5.87v-1
		c0-0.55-0.45-1-1-1s-1,0.45-1,1v1c0,1.6-0.85,3.12-2.4,4.27c-0.16,0.12-0.32,0.26-0.47,0.42c-0.68,0.2-1.4,0.31-2.14,0.31
		c-1.1,0-2-0.9-2-2s0.9-2,2-2c2.21,0,4-1.79,4-4v-20c0-6.07,4.93-11,11-11c2.94,0,5.71,1.14,7.78,3.22
		c2.07,2.07,3.22,4.84,3.22,7.78v20c0,2.21,1.79,4,4,4c1.1,0,2,0.9,2,2S55.83,59.99,54.72,59.99z"/>
	<g>
		<path class="st18" d="M45.74,41.49h-12c-1.38,0-2.5,1.12-2.5,2.5c0,3.46,3.97,6.5,8.5,6.5s8.5-3.04,8.5-6.5
			C48.24,42.61,47.12,41.49,45.74,41.49z"/>
		<path class="st3" d="M33.74,42.49C33.74,42.49,33.74,42.49,33.74,42.49l0.72,1.45c0.17,0.34,0.52,0.55,0.89,0.55h8.76
			c0.38,0,0.73-0.21,0.89-0.55l0.72-1.45H33.74z"/>
		<path class="st19" d="M36.38,48.84c1,0.4,2.13,0.64,3.36,0.64c1.23,0,2.36-0.24,3.36-0.64c-0.71-1.11-1.94-1.86-3.36-1.86
			C38.32,46.99,37.09,47.73,36.38,48.84z"/>
	</g>
	<g>
		<circle class="st3" cx="39.72" cy="31.99" r="7"/>
		<path class="st4" d="M39.72,39.49c-4.14,0-7.5-3.36-7.5-7.5s3.36-7.5,7.5-7.5s7.5,3.36,7.5,7.5S43.86,39.49,39.72,39.49z
			 M39.72,25.49c-3.58,0-6.5,2.92-6.5,6.5s2.92,6.5,6.5,6.5s6.5-2.92,6.5-6.5S43.31,25.49,39.72,25.49z"/>
	</g>
	<g>
		<path class="st5" d="M45.04,28.25c-0.45-0.64-1.44-0.22-1.36,0.56c0.2,1.88-0.42,3.83-1.86,5.27c-1.44,1.44-3.39,2.06-5.27,1.86
			c-0.78-0.08-1.2,0.91-0.56,1.36c1.31,0.92,2.98,1.38,4.75,1.11c2.75-0.42,4.99-2.65,5.41-5.41
			C46.42,31.23,45.96,29.56,45.04,28.25z"/>
	</g>
	<g>
		<path class="st4" d="M40.32,28.3l0.91,1.98l2.04,0.3c0.44,0.06,0.61,0.6,0.3,0.91l-1.48,1.44l0.35,2.18
			c0.07,0.45-0.41,0.78-0.8,0.54l-1.8-1.09l-1.8,1.09c-0.39,0.23-0.87-0.09-0.8-0.54l0.35-2.18l-1.48-1.44
			c-0.32-0.31-0.14-0.85,0.3-0.91l2.04-0.3l0.91-1.98C39.54,27.88,40.13,27.88,40.32,28.3z"/>
	</g>
	<g>
		<path class="st6" d="M60.1,29.56L61,31.54l2.04,0.3c0.44,0.06,0.61,0.6,0.3,0.91l-1.48,1.44l0.35,2.18
			c0.07,0.45-0.41,0.78-0.8,0.54l-1.8-1.09l-1.8,1.09c-0.39,0.23-0.87-0.09-0.8-0.54l0.35-2.18l-1.48-1.44
			c-0.32-0.31-0.14-0.85,0.3-0.91l2.04-0.3l0.91-1.98C59.32,29.15,59.91,29.15,60.1,29.56z"/>
	</g>
	<g>
		<path class="st6" d="M20,23.01l0.73,1.58l1.63,0.24c0.35,0.05,0.49,0.48,0.24,0.73l-1.18,1.15l0.28,1.75
			c0.06,0.36-0.33,0.62-0.64,0.43l-1.44-0.87l-1.44,0.87c-0.31,0.19-0.7-0.07-0.64-0.43l0.28-1.75l-1.18-1.15
			c-0.25-0.25-0.11-0.68,0.24-0.73l1.63-0.24l0.73-1.58C19.38,22.68,19.85,22.68,20,23.01z"/>
	</g>
	<g>
		<path class="st6" d="M34.07,11.16l0.44,0.96l0.99,0.14c0.21,0.03,0.3,0.29,0.14,0.44l-0.72,0.7l0.17,1.06
			c0.03,0.22-0.2,0.38-0.39,0.26l-0.87-0.53l-0.87,0.53c-0.19,0.11-0.42-0.04-0.39-0.26l0.17-1.06l-0.72-0.7
			c-0.15-0.15-0.07-0.41,0.14-0.44l0.99-0.14l0.44-0.96C33.69,10.96,33.98,10.96,34.07,11.16z"/>
	</g>
	<g>
		<path class="st6" d="M22.07,34.38l0.44,0.96l0.99,0.14c0.21,0.03,0.3,0.29,0.14,0.44l-0.72,0.7l0.17,1.06
			c0.03,0.22-0.2,0.38-0.39,0.26l-0.87-0.53l-0.87,0.53c-0.19,0.11-0.42-0.04-0.39-0.26l0.17-1.06l-0.72-0.7
			c-0.15-0.15-0.07-0.41,0.14-0.44l0.99-0.14l0.44-0.96C21.69,34.18,21.98,34.18,22.07,34.38z"/>
	</g>
	<g>
		<path class="st6" d="M55.85,23.14l0.44,0.96l0.99,0.14c0.21,0.03,0.3,0.29,0.14,0.44l-0.72,0.7l0.17,1.06
			c0.03,0.22-0.2,0.38-0.39,0.26l-0.87-0.53l-0.87,0.53c-0.19,0.11-0.42-0.04-0.39-0.26l0.17-1.06l-0.72-0.7
			c-0.15-0.15-0.07-0.41,0.14-0.44l0.99-0.14l0.44-0.96C55.47,22.94,55.75,22.94,55.85,23.14z"/>
	</g>
	<g>
		<circle class="st6" cx="51.72" cy="17.99" r="1"/>
	</g>
	<g>
		<circle class="st6" cx="27.72" cy="17.99" r="1"/>
	</g>
</g>
</svg>
