<?xml version="1.0" encoding="utf-8"?>
<!-- Generator: Adobe Illustrator 23.0.4, SVG Export Plug-In . SVG Version: 6.00 Build 0)  -->
<svg version="1.1" id="Layer_1" xmlns="http://www.w3.org/2000/svg" xmlns:xlink="http://www.w3.org/1999/xlink" x="0px" y="0px"
	 viewBox="0 0 80 80" style="enable-background:new 0 0 80 80;" xml:space="preserve">
<style type="text/css">
	.st0{fill:#81C56D;}
	.st1{fill:#5BAA5E;}
	.st2{fill:#B6D997;}
	.st3{fill:#FFFFFF;}
	.st4{fill:#310F32;}
	.st5{fill:#C9D6E3;}
	.st6{fill:#FFC626;}
	.st7{fill:#F99E1D;}
	.st8{fill:#F58127;}
	.st9{fill:#301330;}
	.st10{fill:#EA5535;}
	.st11{fill:#EF4F24;}
	.st12{fill:#F16333;}
	.st13{fill:#DF3426;}
	.st14{fill:#F6946C;}
	.st15{fill:#D6E1EC;}
	.st16{opacity:0.8;}
	.st17{fill:#B9CCDC;}
	.st18{fill:#310E31;}
	.st19{fill:#EA5435;}
	.st20{fill:#FEDD3F;}
	.st21{fill:#EAC01E;}
	.st22{fill:#7FC042;}
	.st23{fill:#65A944;}
	.st24{fill:#0CBEF0;}
	.st25{fill:#6F7BBC;}
	.st26{fill:#0097D5;}
	.st27{fill:#FDB515;}
	.st28{fill:#5365AF;}
	.st29{fill:#1F90CF;}
	.st30{fill:#F99F1B;}
	.st31{opacity:0.7;}
	.st32{fill:#FFF5CA;}
	.st33{opacity:0.6;}
	.st34{fill:#FBDAE8;}
	.st35{fill:#D5E4EF;}
	.st36{opacity:0.4;}
	.st37{fill:#B1DEF5;}
	.st38{opacity:0.5;}
	.st39{fill:#FCE6A0;}
	.st40{fill:#FDF4D2;}
	.st41{fill:#FDD457;}
	.st42{fill:#FFDA85;}
	.st43{fill:#F36F34;}
	.st44{fill:#FFFFFF;stroke:#310F32;stroke-linecap:round;stroke-linejoin:round;stroke-miterlimit:10;}
	.st45{fill:none;stroke:#310F32;stroke-linecap:round;stroke-linejoin:round;stroke-miterlimit:10;}
	.st46{fill:#EE3B24;}
	.st47{fill:#301431;}
	.st48{fill:#71AC43;}
	.st49{fill:#C1DC83;}
	.st50{opacity:0.2;}
	.st51{opacity:0.1;}
	.st52{opacity:0.15;}
	.st53{fill:#5EC1EE;}
	.st54{fill:#239FCB;}
	.st55{fill:#92D1F1;}
	.st56{fill:#B2DCF5;}
	.st57{fill:#FFDF98;}
	.st58{fill:#406DB5;}
	.st59{fill:#FCDE60;}
	.st60{fill:#DEF1FB;}
	.st61{fill:#82CBF0;}
	.st62{fill:#6681C0;}
	.st63{fill:#FBEBAA;}
	.st64{fill:#8799CE;}
	.st65{fill:#98A7D5;}
	.st66{fill:#ACD6F2;}
	.st67{fill:#CCE4F7;}
	.st68{fill:#8BC9EE;}
	.st69{fill:#ADBBC3;}
	.st70{fill:#7E8C9B;}
	.st71{fill:#3B8E4F;}
	.st72{fill:#F05E75;}
	.st73{fill:#FCE5D3;}
	.st74{fill:#F8C4A0;}
</style>
<g>
	<g>
		<g>
			<rect x="17" y="11.99" class="st66" width="46" height="57"/>
		</g>
		<g>
			<g>
				<g>
					<path class="st67" d="M21,47.99L21,47.99c0,0.55-0.45,1-1,1h0c-0.55,0-1-0.45-1-1l0,0c0-0.55-0.45-1-1-1h0c-0.55,0-1,0.45-1,1
						v3c0,0.55,0.45,1,1,1h0c0.55,0,1,0.45,1,1v1c0,0.55,0.45,1,1,1h0c0.55,0,1-0.45,1-1v-1c0-0.55,0.45-1,1-1h0c0.55,0,1-0.45,1-1
						v-3c0-0.55-0.45-1-1-1h0C21.45,46.99,21,47.43,21,47.99z"/>
				</g>
				<g>
					<path class="st67" d="M25,47.99L25,47.99c0,0.55-0.45,1-1,1h0c-0.55,0-1-0.45-1-1l0,0c0-0.55-0.45-1-1-1h0c-0.55,0-1,0.45-1,1
						v3c0,0.55,0.45,1,1,1h0c0.55,0,1,0.45,1,1v1c0,0.55,0.45,1,1,1h0c0.55,0,1-0.45,1-1v-1c0-0.55,0.45-1,1-1h0c0.55,0,1-0.45,1-1
						v-3c0-0.55-0.45-1-1-1h0C25.45,46.99,25,47.43,25,47.99z"/>
				</g>
			</g>
			<g>
				<g>
					<path class="st67" d="M29,47.99L29,47.99c0,0.55-0.45,1-1,1h0c-0.55,0-1-0.45-1-1l0,0c0-0.55-0.45-1-1-1h0c-0.55,0-1,0.45-1,1
						v3c0,0.55,0.45,1,1,1h0c0.55,0,1,0.45,1,1v1c0,0.55,0.45,1,1,1h0c0.55,0,1-0.45,1-1v-1c0-0.55,0.45-1,1-1h0c0.55,0,1-0.45,1-1
						v-3c0-0.55-0.45-1-1-1h0C29.45,46.99,29,47.43,29,47.99z"/>
				</g>
				<g>
					<path class="st67" d="M33,47.99L33,47.99c0,0.55-0.45,1-1,1h0c-0.55,0-1-0.45-1-1l0,0c0-0.55-0.45-1-1-1h0c-0.55,0-1,0.45-1,1
						v3c0,0.55,0.45,1,1,1h0c0.55,0,1,0.45,1,1v1c0,0.55,0.45,1,1,1h0c0.55,0,1-0.45,1-1v-1c0-0.55,0.45-1,1-1l0,0
						c0.55,0,1-0.45,1-1v-3c0-0.55-0.45-1-1-1l0,0C33.45,46.99,33,47.43,33,47.99z"/>
				</g>
			</g>
			<g>
				<g>
					<path class="st67" d="M37,47.99L37,47.99c0,0.55-0.45,1-1,1l0,0c-0.55,0-1-0.45-1-1l0,0c0-0.55-0.45-1-1-1l0,0
						c-0.55,0-1,0.45-1,1v3c0,0.55,0.45,1,1,1l0,0c0.55,0,1,0.45,1,1v1c0,0.55,0.45,1,1,1l0,0c0.55,0,1-0.45,1-1v-1
						c0-0.55,0.45-1,1-1l0,0c0.55,0,1-0.45,1-1v-3c0-0.55-0.45-1-1-1l0,0C37.45,46.99,37,47.43,37,47.99z"/>
				</g>
				<g>
					<path class="st67" d="M41,47.99L41,47.99c0,0.55-0.45,1-1,1l0,0c-0.55,0-1-0.45-1-1l0,0c0-0.55-0.45-1-1-1l0,0
						c-0.55,0-1,0.45-1,1v3c0,0.55,0.45,1,1,1l0,0c0.55,0,1,0.45,1,1v1c0,0.55,0.45,1,1,1l0,0c0.55,0,1-0.45,1-1v-1
						c0-0.55,0.45-1,1-1l0,0c0.55,0,1-0.45,1-1v-3c0-0.55-0.45-1-1-1l0,0C41.45,46.99,41,47.43,41,47.99z"/>
				</g>
			</g>
			<g>
				<g>
					<path class="st67" d="M45,47.99L45,47.99c0,0.55-0.45,1-1,1l0,0c-0.55,0-1-0.45-1-1l0,0c0-0.55-0.45-1-1-1l0,0
						c-0.55,0-1,0.45-1,1v3c0,0.55,0.45,1,1,1l0,0c0.55,0,1,0.45,1,1v1c0,0.55,0.45,1,1,1l0,0c0.55,0,1-0.45,1-1v-1
						c0-0.55,0.45-1,1-1l0,0c0.55,0,1-0.45,1-1v-3c0-0.55-0.45-1-1-1l0,0C45.45,46.99,45,47.43,45,47.99z"/>
				</g>
				<g>
					<path class="st67" d="M49,47.99L49,47.99c0,0.55-0.45,1-1,1l0,0c-0.55,0-1-0.45-1-1l0,0c0-0.55-0.45-1-1-1l0,0
						c-0.55,0-1,0.45-1,1v3c0,0.55,0.45,1,1,1l0,0c0.55,0,1,0.45,1,1v1c0,0.55,0.45,1,1,1l0,0c0.55,0,1-0.45,1-1v-1
						c0-0.55,0.45-1,1-1l0,0c0.55,0,1-0.45,1-1v-3c0-0.55-0.45-1-1-1l0,0C49.45,46.99,49,47.43,49,47.99z"/>
				</g>
			</g>
			<g>
				<g>
					<path class="st67" d="M53,47.99L53,47.99c0,0.55-0.45,1-1,1l0,0c-0.55,0-1-0.45-1-1l0,0c0-0.55-0.45-1-1-1l0,0
						c-0.55,0-1,0.45-1,1v3c0,0.55,0.45,1,1,1l0,0c0.55,0,1,0.45,1,1v1c0,0.55,0.45,1,1,1l0,0c0.55,0,1-0.45,1-1v-1
						c0-0.55,0.45-1,1-1l0,0c0.55,0,1-0.45,1-1v-3c0-0.55-0.45-1-1-1l0,0C53.45,46.99,53,47.43,53,47.99z"/>
				</g>
				<g>
					<path class="st67" d="M57,47.99L57,47.99c0,0.55-0.45,1-1,1l0,0c-0.55,0-1-0.45-1-1l0,0c0-0.55-0.45-1-1-1l0,0
						c-0.55,0-1,0.45-1,1v3c0,0.55,0.45,1,1,1l0,0c0.55,0,1,0.45,1,1v1c0,0.55,0.45,1,1,1l0,0c0.55,0,1-0.45,1-1v-1
						c0-0.55,0.45-1,1-1l0,0c0.55,0,1-0.45,1-1v-3c0-0.55-0.45-1-1-1l0,0C57.45,46.99,57,47.43,57,47.99z"/>
				</g>
			</g>
			<g>
				<g>
					<path class="st67" d="M61,49.99L61,49.99c0,0.55-0.45,1-1,1l0,0c-0.55,0-1-0.45-1-1l0,0c0-0.55-0.45-1-1-1l0,0
						c-0.55,0-1,0.45-1,1v1c0,0.55,0.45,1,1,1l0,0c0.55,0,1,0.45,1,1v3c0,0.55,0.45,1,1,1l0,0c0.55,0,1-0.45,1-1v-1
						c0-0.55,0.45-1,1-1l0,0c0.55,0,1-0.45,1-1v-3c0-0.55-0.45-1-1-1l0,0C61.45,48.99,61,49.43,61,49.99z"/>
				</g>
			</g>
		</g>
		<path class="st68" d="M65,66.99c-1.1,0-2-0.9-2-2v-3c0-0.55-0.45-1-1-1s-1,0.45-1,1c0,0.55-0.45,1-1,1s-1-0.45-1-1
			c0-0.55-0.45-1-1-1s-1,0.45-1,1c0,0.55-0.45,1-1,1s-1-0.45-1-1c0-0.55-0.45-1-1-1s-1,0.45-1,1c0,0.55-0.45,1-1,1s-1-0.45-1-1
			c0-0.55-0.45-1-1-1s-1,0.45-1,1c0,0.55-0.45,1-1,1s-1-0.45-1-1c0-0.55-0.45-1-1-1s-1,0.45-1,1c0,0.55-0.45,1-1,1s-1-0.45-1-1
			c0-0.55-0.45-1-1-1s-1,0.45-1,1c0,0.55-0.45,1-1,1s-1-0.45-1-1c0-0.55-0.45-1-1-1s-1,0.45-1,1c0,0.55-0.45,1-1,1s-1-0.45-1-1
			c0-0.55-0.45-1-1-1s-1,0.45-1,1c0,0.55-0.45,1-1,1s-1-0.45-1-1c0-0.55-0.45-1-1-1s-1,0.45-1,1c0,0.55-0.45,1-1,1s-1-0.45-1-1
			c0-0.55-0.45-1-1-1s-1,0.45-1,1c0,0.55-0.45,1-1,1s-1-0.45-1-1c0-0.55-0.45-1-1-1s-1,0.45-1,1c0,0.55-0.45,1-1,1s-1-0.45-1-1
			c0-0.55-0.45-1-1-1s-1,0.45-1,1v3c0,1.1-0.9,2-2,2c-0.55,0-1,0.45-1,1c0,0.55,0.45,1,1,1h50c0.55,0,1-0.45,1-1
			C66,67.43,65.55,66.99,65,66.99z"/>
		<g>
			<g>
				<g>
					<path class="st67" d="M21,18.99L21,18.99c0,0.55-0.45,1-1,1h0c-0.55,0-1-0.45-1-1v0c0-0.55-0.45-1-1-1h0c-0.55,0-1,0.45-1,1v5
						c0,0.55,0.45,1,1,1h0c0.55,0,1,0.45,1,1v0c0,0.55,0.45,1,1,1h0c0.55,0,1-0.45,1-1v-2c0-0.55,0.45-1,1-1h0c0.55,0,1-0.45,1-1v-3
						c0-0.55-0.45-1-1-1h0C21.45,17.99,21,18.43,21,18.99z"/>
				</g>
				<g>
					<path class="st67" d="M25,18.99L25,18.99c0,0.55-0.45,1-1,1h0c-0.55,0-1-0.45-1-1v0c0-0.55-0.45-1-1-1h0c-0.55,0-1,0.45-1,1v3
						c0,0.55,0.45,1,1,1h0c0.55,0,1,0.45,1,1v4c0,0.55,0.45,1,1,1h0c0.55,0,1-0.45,1-1v-4c0-0.55,0.45-1,1-1h0c0.55,0,1-0.45,1-1v-3
						c0-0.55-0.45-1-1-1h0C25.45,17.99,25,18.43,25,18.99z"/>
				</g>
			</g>
			<g>
				<g>
					<path class="st67" d="M29,18.99L29,18.99c0,0.55-0.45,1-1,1h0c-0.55,0-1-0.45-1-1v0c0-0.55-0.45-1-1-1h0c-0.55,0-1,0.45-1,1v3
						c0,0.55,0.45,1,1,1h0c0.55,0,1,0.45,1,1v3c0,0.55,0.45,1,1,1h0c0.55,0,1-0.45,1-1v-1c0-0.55,0.45-1,1-1h0c0.55,0,1-0.45,1-1v-5
						c0-0.55-0.45-1-1-1h0C29.45,17.99,29,18.43,29,18.99z"/>
				</g>
				<g>
					<path class="st67" d="M33,18.99L33,18.99c0,0.55-0.45,1-1,1h0c-0.55,0-1-0.45-1-1v0c0-0.55-0.45-1-1-1h0c-0.55,0-1,0.45-1,1v5
						c0,0.55,0.45,1,1,1h0c0.55,0,1,0.45,1,1v1c0,0.55,0.45,1,1,1h0c0.55,0,1-0.45,1-1v-1c0-0.55,0.45-1,1-1l0,0c0.55,0,1-0.45,1-1
						v-5c0-0.55-0.45-1-1-1l0,0C33.45,17.99,33,18.43,33,18.99z"/>
				</g>
			</g>
			<g>
				<g>
					<path class="st67" d="M37,18.99L37,18.99c0,0.55-0.45,1-1,1l0,0c-0.55,0-1-0.45-1-1v0c0-0.55-0.45-1-1-1l0,0
						c-0.55,0-1,0.45-1,1v5c0,0.55,0.45,1,1,1l0,0c0.55,0,1,0.45,1,1v1c0,0.55,0.45,1,1,1l0,0c0.55,0,1-0.45,1-1v-1
						c0-0.55,0.45-1,1-1l0,0c0.55,0,1-0.45,1-1v-5c0-0.55-0.45-1-1-1l0,0C37.45,17.99,37,18.43,37,18.99z"/>
				</g>
				<g>
					<path class="st67" d="M41,18.99L41,18.99c0,0.55-0.45,1-1,1l0,0c-0.55,0-1-0.45-1-1v0c0-0.55-0.45-1-1-1l0,0
						c-0.55,0-1,0.45-1,1v5c0,0.55,0.45,1,1,1l0,0c0.55,0,1,0.45,1,1v1c0,0.55,0.45,1,1,1l0,0c0.55,0,1-0.45,1-1v-1
						c0-0.55,0.45-1,1-1l0,0c0.55,0,1-0.45,1-1v-5c0-0.55-0.45-1-1-1l0,0C41.45,17.99,41,18.43,41,18.99z"/>
				</g>
			</g>
			<g>
				<g>
					<path class="st67" d="M45,18.99L45,18.99c0,0.55-0.45,1-1,1l0,0c-0.55,0-1-0.45-1-1v0c0-0.55-0.45-1-1-1l0,0
						c-0.55,0-1,0.45-1,1v5c0,0.55,0.45,1,1,1l0,0c0.55,0,1,0.45,1,1v1c0,0.55,0.45,1,1,1l0,0c0.55,0,1-0.45,1-1v-1
						c0-0.55,0.45-1,1-1l0,0c0.55,0,1-0.45,1-1v-5c0-0.55-0.45-1-1-1l0,0C45.45,17.99,45,18.43,45,18.99z"/>
				</g>
				<g>
					<path class="st67" d="M49,18.99L49,18.99c0,0.55-0.45,1-1,1l0,0c-0.55,0-1-0.45-1-1v0c0-0.55-0.45-1-1-1l0,0
						c-0.55,0-1,0.45-1,1v5c0,0.55,0.45,1,1,1l0,0c0.55,0,1,0.45,1,1v1c0,0.55,0.45,1,1,1l0,0c0.55,0,1-0.45,1-1v-1
						c0-0.55,0.45-1,1-1l0,0c0.55,0,1-0.45,1-1v-5c0-0.55-0.45-1-1-1l0,0C49.45,17.99,49,18.43,49,18.99z"/>
				</g>
			</g>
			<g>
				<g>
					<path class="st67" d="M53,18.99L53,18.99c0,0.55-0.45,1-1,1l0,0c-0.55,0-1-0.45-1-1v0c0-0.55-0.45-1-1-1l0,0
						c-0.55,0-1,0.45-1,1v5c0,0.55,0.45,1,1,1l0,0c0.55,0,1,0.45,1,1v1c0,0.55,0.45,1,1,1l0,0c0.55,0,1-0.45,1-1v-3
						c0-0.55,0.45-1,1-1l0,0c0.55,0,1-0.45,1-1v-3c0-0.55-0.45-1-1-1l0,0C53.45,17.99,53,18.43,53,18.99z"/>
				</g>
				<g>
					<path class="st67" d="M57,18.99L57,18.99c0,0.55-0.45,1-1,1l0,0c-0.55,0-1-0.45-1-1v0c0-0.55-0.45-1-1-1l0,0
						c-0.55,0-1,0.45-1,1v3c0,0.55,0.45,1,1,1l0,0c0.55,0,1,0.45,1,1v1c0,0.55,0.45,1,1,1l0,0c0.55,0,1-0.45,1-1v-1
						c0-0.55,0.45-1,1-1l0,0c0.55,0,1-0.45,1-1v-3c0-0.55-0.45-1-1-1l0,0C57.45,17.99,57,18.43,57,18.99z"/>
				</g>
			</g>
			<g>
				<g>
					<path class="st67" d="M61,18.99L61,18.99c0,0.55-0.45,1-1,1l0,0c-0.55,0-1-0.45-1-1v0c0-0.55-0.45-1-1-1l0,0
						c-0.55,0-1,0.45-1,1v3c0,0.55,0.45,1,1,1l0,0c0.55,0,1,0.45,1,1v4c0,0.55,0.45,1,1,1l0,0c0.55,0,1-0.45,1-1v-4
						c0-0.55,0.45-1,1-1l0,0c0.55,0,1-0.45,1-1v-3c0-0.55-0.45-1-1-1l0,0C61.45,17.99,61,18.43,61,18.99z"/>
				</g>
			</g>
		</g>
		<g>
			<g>
				<g>
					<path class="st68" d="M21,33.99L21,33.99c0,0.55-0.45,1-1,1h0c-0.55,0-1-0.45-1-1l0,0c0-0.55-0.45-1-1-1h0c-0.55,0-1,0.45-1,1
						v7c0,0.55,0.45,1,1,1h0c0.55,0,1,0.45,1,1v1c0,0.55,0.45,1,1,1h0c0.55,0,1-0.45,1-1v-3c0-0.55,0.45-1,1-1h0c0.55,0,1-0.45,1-1
						v-5c0-0.55-0.45-1-1-1h0C21.45,32.99,21,33.43,21,33.99z"/>
				</g>
				<g>
					<path class="st68" d="M25,31.99L25,31.99c0,0.55-0.45,1-1,1h0c-0.55,0-1-0.45-1-1v-1c0-0.55-0.45-1-1-1h0c-0.55,0-1,0.45-1,1v8
						c0,0.55,0.45,1,1,1h0c0.55,0,1,0.45,1,1v1c0,0.55,0.45,1,1,1h0c0.55,0,1-0.45,1-1v-1c0-0.55,0.45-1,1-1h0c0.55,0,1-0.45,1-1v-7
						c0-0.55-0.45-1-1-1h0C25.45,30.99,25,31.43,25,31.99z"/>
				</g>
			</g>
			<g>
				<g>
					<path class="st68" d="M29,33.99L29,33.99c0,0.55-0.45,1-1,1h0c-0.55,0-1-0.45-1-1l0,0c0-0.55-0.45-1-1-1h0c-0.55,0-1,0.45-1,1
						v5c0,0.55,0.45,1,1,1l0,0c0.55,0,1,0.45,1,1v3c0,0.55,0.45,1,1,1h0c0.55,0,1-0.45,1-1v-1c0-0.55,0.45-1,1-1h0
						c0.55,0,1-0.45,1-1v-7c0-0.55-0.45-1-1-1h0C29.45,32.99,29,33.43,29,33.99z"/>
				</g>
				<g>
					<path class="st68" d="M33,33.99L33,33.99c0,0.55-0.45,1-1,1h0c-0.55,0-1-0.45-1-1l0,0c0-0.55-0.45-1-1-1h0c-0.55,0-1,0.45-1,1
						v7c0,0.55,0.45,1,1,1h0c0.55,0,1,0.45,1,1v1c0,0.55,0.45,1,1,1h0c0.55,0,1-0.45,1-1v-1c0-0.55,0.45-1,1-1l0,0
						c0.55,0,1-0.45,1-1v-7c0-0.55-0.45-1-1-1l0,0C33.45,32.99,33,33.43,33,33.99z"/>
				</g>
			</g>
			<g>
				<g>
					<path class="st68" d="M37,33.99L37,33.99c0,0.55-0.45,1-1,1l0,0c-0.55,0-1-0.45-1-1l0,0c0-0.55-0.45-1-1-1l0,0
						c-0.55,0-1,0.45-1,1v7c0,0.55,0.45,1,1,1l0,0c0.55,0,1,0.45,1,1v1c0,0.55,0.45,1,1,1l0,0c0.55,0,1-0.45,1-1v-1
						c0-0.55,0.45-1,1-1l0,0c0.55,0,1-0.45,1-1v-7c0-0.55-0.45-1-1-1l0,0C37.45,32.99,37,33.43,37,33.99z"/>
				</g>
				<g>
					<path class="st68" d="M41,33.99L41,33.99c0,0.55-0.45,1-1,1l0,0c-0.55,0-1-0.45-1-1l0,0c0-0.55-0.45-1-1-1l0,0
						c-0.55,0-1,0.45-1,1v7c0,0.55,0.45,1,1,1l0,0c0.55,0,1,0.45,1,1v1c0,0.55,0.45,1,1,1l0,0c0.55,0,1-0.45,1-1v-1
						c0-0.55,0.45-1,1-1l0,0c0.55,0,1-0.45,1-1v-7c0-0.55-0.45-1-1-1l0,0C41.45,32.99,41,33.43,41,33.99z"/>
				</g>
			</g>
			<g>
				<g>
					<path class="st68" d="M45,33.99L45,33.99c0,0.55-0.45,1-1,1l0,0c-0.55,0-1-0.45-1-1l0,0c0-0.55-0.45-1-1-1l0,0
						c-0.55,0-1,0.45-1,1v7c0,0.55,0.45,1,1,1l0,0c0.55,0,1,0.45,1,1v1c0,0.55,0.45,1,1,1l0,0c0.55,0,1-0.45,1-1v-1
						c0-0.55,0.45-1,1-1l0,0c0.55,0,1-0.45,1-1v-7c0-0.55-0.45-1-1-1l0,0C45.45,32.99,45,33.43,45,33.99z"/>
				</g>
				<g>
					<path class="st68" d="M49,33.99L49,33.99c0,0.55-0.45,1-1,1l0,0c-0.55,0-1-0.45-1-1l0,0c0-0.55-0.45-1-1-1l0,0
						c-0.55,0-1,0.45-1,1v7c0,0.55,0.45,1,1,1l0,0c0.55,0,1,0.45,1,1v1c0,0.55,0.45,1,1,1l0,0c0.55,0,1-0.45,1-1v-1
						c0-0.55,0.45-1,1-1l0,0c0.55,0,1-0.45,1-1v-7c0-0.55-0.45-1-1-1l0,0C49.45,32.99,49,33.43,49,33.99z"/>
				</g>
			</g>
			<g>
				<g>
					<path class="st68" d="M53,33.99L53,33.99c0,0.55-0.45,1-1,1l0,0c-0.55,0-1-0.45-1-1l0,0c0-0.55-0.45-1-1-1l0,0
						c-0.55,0-1,0.45-1,1v7c0,0.55,0.45,1,1,1l0,0c0.55,0,1,0.45,1,1v1c0,0.55,0.45,1,1,1l0,0c0.55,0,1-0.45,1-1v-1
						c0-0.55,0.45-1,1-1l0,0c0.55,0,1-0.45,1-1v-7c0-0.55-0.45-1-1-1l0,0C53.45,32.99,53,33.43,53,33.99z"/>
				</g>
				<g>
					<path class="st68" d="M57,33.99L57,33.99c0,0.55-0.45,1-1,1l0,0c-0.55,0-1-0.45-1-1l0,0c0-0.55-0.45-1-1-1l0,0
						c-0.55,0-1,0.45-1,1v7c0,0.55,0.45,1,1,1l0,0c0.55,0,1,0.45,1,1v1c0,0.55,0.45,1,1,1l0,0c0.55,0,1-0.45,1-1v-1
						c0-0.55,0.45-1,1-1l0,0c0.55,0,1-0.45,1-1v-7c0-0.55-0.45-1-1-1l0,0C57.45,32.99,57,33.43,57,33.99z"/>
				</g>
			</g>
			<g>
				<g>
					<path class="st68" d="M61,33.99L61,33.99c0,0.55-0.45,1-1,1l0,0c-0.55,0-1-0.45-1-1v-2c0-0.55-0.45-1-1-1l0,0
						c-0.55,0-1,0.45-1,1v9c0,0.55,0.45,1,1,1l0,0c0.55,0,1,0.45,1,1v3c0,0.55,0.45,1,1,1l0,0c0.55,0,1-0.45,1-1v-3
						c0-0.55,0.45-1,1-1l0,0c0.55,0,1-0.45,1-1v-7c0-0.55-0.45-1-1-1l0,0C61.45,32.99,61,33.43,61,33.99z"/>
				</g>
			</g>
		</g>
		<g>
			<path class="st69" d="M63.46,9.97c-0.81-1.34-2.16-1.98-3.51-1.96c-0.64,0.01-1.23-0.35-1.62-0.86C56.88,5.24,54.6,4,52.01,4
				c-0.5,0-0.99,0.05-1.46,0.15c-0.73,0.15-1.48-0.05-2.01-0.58C46.37,1.37,43.35,0,40.01,0c-3.34,0-6.36,1.37-8.54,3.58
				c-0.52,0.53-1.27,0.72-2,0.57C29,4.05,28.51,4,28.01,4c-2.59,0-4.87,1.24-6.32,3.16c-0.39,0.51-0.98,0.87-1.62,0.86
				c-1.35-0.03-2.7,0.62-3.51,1.96c-0.74,1.23-0.74,2.83,0,4.06c0.81,1.34,2.16,1.98,3.51,1.96c0.64-0.01,1.23,0.35,1.62,0.86
				c1.46,1.91,3.73,3.16,6.32,3.16c0.5,0,0.98-0.05,1.45-0.15c0.73-0.15,1.49,0.05,2.02,0.58c2.17,2.2,5.19,3.57,8.53,3.57
				c3.34,0,6.36-1.37,8.54-3.58c0.52-0.53,1.28-0.72,2.01-0.58c0.47,0.1,0.96,0.15,1.46,0.15c2.59,0,4.87-1.24,6.32-3.16
				c0.39-0.51,0.98-0.87,1.62-0.86c1.35,0.03,2.7-0.62,3.51-1.96C64.21,12.8,64.21,11.2,63.46,9.97z"/>
		</g>
		<g>
			<path class="st70" d="M63.04,9.39C62.38,8.63,61.12,9,60.89,9.98c-0.15,0.6-0.46,1.15-0.89,1.64c-0.1-2.06-0.97-3.91-2.34-5.27
				c-0.67-0.66-1.8-0.08-1.71,0.86c0.17,1.64-0.17,3.32-1.01,4.79c-0.02,0.04-0.05,0.08-0.09,0.13c-0.96,1.2-2.92,0.46-2.93-1.08
				c0-0.4-0.02-0.77-0.07-1.06c-0.45-2.65-1.76-5.01-3.65-6.76c-0.96-0.9-2.48-0.04-2.31,1.27c0.46,3.55-0.66,7.25-3.39,9.98
				c-0.87,0.87-1.85,1.58-2.88,2.12c-1.98,1.03-4.23-0.79-3.77-2.98c0.11-0.52,0.17-1.07,0.17-1.63c0-1.96-0.71-3.76-1.88-5.14
				c-0.75-0.88-2.19-0.31-2.14,0.85c0.09,2.15-0.68,4.32-2.32,5.95c-1.44,1.44-3.29,2.21-5.18,2.31c-0.96,0.05-1.59-1.04-1.08-1.86
				c0.38-0.61,0.6-1.33,0.6-2.1c0-0.94-0.32-1.8-0.86-2.48C22.76,9.04,21.99,9.3,22,9.91c0.03,1.05-0.36,2.11-1.16,2.91
				c-0.8,0.8-1.86,1.19-2.91,1.16c-0.61-0.01-0.88,0.76-0.4,1.15c0.43,0.34,0.93,0.6,1.48,0.74c0.12,0.03,0.39,0.05,0.7,0.05
				c0.83,0.01,1.58,0.43,2.1,1.08c1.46,1.82,3.69,3,6.2,3c0.52,0,1.02-0.06,1.5-0.16c0.74-0.15,1.49,0.05,2.02,0.59
				c2.74,2.78,6.8,4.24,11.19,3.28c2.24-0.49,4.25-1.66,5.83-3.26c0.52-0.53,1.27-0.73,2-0.59c1.03,0.2,2.13,0.19,3.26-0.05
				c1.83-0.4,3.44-1.47,4.56-2.93c0.42-0.54,1.04-0.88,1.73-0.88c0.49,0,1.01-0.1,1.53-0.32c1.02-0.42,1.83-1.3,2.16-2.35
				C64.28,11.82,63.9,10.39,63.04,9.39z"/>
		</g>
		<g>
			<path class="st68" d="M23,63.2h-2v-3c0-0.55,0.45-1,1-1h0c0.55,0,1,0.45,1,1V63.2z"/>
		</g>
	</g>
	<g>
		<g>
			<g>
				<path class="st1" d="M57.98,69c0,1.66-1.34,3-3,3c-0.93,0-1.82-0.14-2.66-0.41c0.83,1.03,0.9,2.55,0.06,3.68
					c-0.59,0.79-1.49,1.2-2.4,1.2c-0.63,0-1.26-0.19-1.8-0.59c-3.3-2.48-5.2-6.08-5.2-9.88v10c0,1.66-1.34,3-3,3
					c-0.83,0-1.58-0.34-2.12-0.88c-0.54-0.54-0.88-1.29-0.88-2.12V66c0,3.8-1.9,7.4-5.2,9.88c-0.54,0.4-1.17,0.59-1.8,0.59
					c-0.91,0-1.81-0.41-2.4-1.2c-0.84-1.13-0.77-2.65,0.06-3.68C26.8,71.86,25.91,72,24.98,72c-1.66,0-3-1.34-3-3c0-1.66,1.34-3,3-3
					c1.65,0,3-1.35,3-3V43c0-6.63,5.37-12,12-12c3.32,0,6.32,1.34,8.49,3.51c2.17,2.17,3.51,5.17,3.51,8.49v20c0,1.65,1.35,3,3,3
					C56.64,66,57.98,67.34,57.98,69z"/>
			</g>
			<g>
				<path class="st71" d="M27.39,74.97c0.05,0.1,0.12,0.2,0.19,0.3c0.59,0.79,1.49,1.2,2.4,1.2c0.63,0,1.26-0.19,1.8-0.59
					c3.3-2.48,5.2-6.08,5.2-9.88v-1l0,0c-1.08,0-1.99,0.74-2.27,1.78c-0.9,3.3-3.71,6.97-6.35,7.94
					C27.87,74.9,27.88,74.91,27.39,74.97z"/>
			</g>
			<g>
				<path class="st71" d="M24.98,71c0.93,0,1.82-0.14,2.66-0.41c0.16-0.19,0.34-0.37,0.54-0.52c1.81-1.35,2.8-3.15,2.8-5.07v-1
					c-1.49,2.9-2.42,5-5.9,5c-0.06,0-0.19-0.01-0.37-0.01c-1.28-0.07-1.47,1.88-0.19,2C24.67,70.99,24.82,71,24.98,71z"/>
			</g>
		</g>
		<g>
			<path class="st71" d="M57.97,68.83c0,0,0-0.01,0-0.01c-0.31,0.12-0.71-2.12-1.99-2.82c-1.14-0.63-4.07-2.51-4.03-3.18
				c0.02-0.27,0.03-0.55,0.03-0.82V43c0-3.16-1.22-6.03-3.21-8.17c-3.14-3.37-8.79-1.12-8.79,3.48V50.5c-1.72,0-3.35-0.57-4.69-1.65
				c-0.21-0.17-0.53-0.14-0.7,0.08c-0.17,0.22-0.14,0.53,0.08,0.7c0.84,0.67,1.8,1.18,2.82,1.49c1.48,0.45,2.49,1.81,2.49,3.35V61
				v1.22v13.73c0,1.93,2.97,2.04,3,0.1c0-0.02,0-0.03,0-0.05v-8.56c0.04,0.02,0.07,0.04,0.1,0.06c0.43,3.24,2.23,6.23,5.1,8.38
				c0.54,0.4,1.17,0.59,1.8,0.59c0.91,0,1.81-0.41,2.4-1.2c0.07-0.1,0.14-0.2,0.19-0.3c-0.49-0.06,0.83-1.65,0.41-1.97
				c-1.23-0.92,1.19-0.98,2.19-1C56.84,71.96,58.21,70.48,57.97,68.83z"/>
			<g>
				<path class="st3" d="M46.98,43c0,3.87-3.13,7-7,7s-7-3.13-7-7H46.98z"/>
				<path class="st4" d="M39.98,50.5c-4.14,0-7.5-3.36-7.5-7.5c0-0.28,0.22-0.5,0.5-0.5h14c0.28,0,0.5,0.22,0.5,0.5
					C47.48,47.14,44.12,50.5,39.98,50.5z M33.5,43.5c0.26,3.35,3.07,6,6.48,6s6.22-2.65,6.48-6H33.5z"/>
			</g>
			<g>
				<path class="st5" d="M46.46,43.5h-3.22c-0.3,0.57-0.68,1.12-1.16,1.6c-1.44,1.44-3.39,2.06-5.27,1.86
					c-0.78-0.08-1.2,0.91-0.56,1.36c1.31,0.92,2.98,1.38,4.75,1.11c2.75-0.42,4.99-2.65,5.41-5.41
					C46.43,43.84,46.44,43.67,46.46,43.5z"/>
			</g>
			<g>
				<path class="st4" d="M41.98,43.5c0,1.11-0.89,2-2,2s-2-0.89-2-2"/>
			</g>
		</g>
		<path class="st4" d="M54.98,65c-1.1,0-2-0.9-2-2V43c0-3.48-1.35-6.74-3.8-9.2c-0.51-0.51-1.06-0.96-1.64-1.37
			c0.23-1.36,1.24-2.45,2.55-2.8C50.36,30.42,51.1,31,51.98,31c1.1,0,2-0.9,2-2s-0.9-2-2-2c-0.97,0-1.78,0.69-1.96,1.61
			c-1.64,0.36-2.94,1.62-3.37,3.24C44.66,30.65,42.37,30,39.98,30c-2.44,0-4.71,0.69-6.66,1.86c-0.43-1.62-1.73-2.89-3.37-3.25
			C29.76,27.69,28.95,27,27.98,27c-1.1,0-2,0.9-2,2s0.9,2,2,2c0.88,0,1.62-0.58,1.89-1.37c1.32,0.35,2.33,1.45,2.55,2.81
			c-3.29,2.36-5.44,6.21-5.44,10.56v20c0,1.1-0.9,2-2,2c-2.21,0-4,1.79-4,4s1.79,4,4,4c0.35,0,0.69-0.02,1.03-0.05
			c-0.13,1.01,0.12,2.06,0.76,2.92c0.76,1.02,1.93,1.6,3.2,1.6c0.87,0,1.7-0.27,2.4-0.79c1.47-1.11,2.68-2.42,3.6-3.87V76
			c0,1.07,0.42,2.07,1.17,2.83c0.76,0.76,1.76,1.17,2.83,1.17c2.21,0,4-1.79,4-4v-3.19c0.92,1.45,2.13,2.77,3.6,3.88
			c0.69,0.51,1.52,0.79,2.4,0.79c1.27,0,2.44-0.58,3.2-1.6c0.64-0.86,0.89-1.91,0.76-2.92c0.34,0.04,0.69,0.05,1.03,0.05
			c2.21,0,4-1.79,4-4S57.19,65,54.98,65z M54.98,71c-0.74,0-1.45-0.11-2.13-0.31c-0.15-0.16-0.31-0.3-0.47-0.42
			c-1.55-1.15-2.4-2.67-2.4-4.27v-1c0-0.55-0.45-1-1-1s-1,0.45-1,1v1c0,2.25,1.14,4.33,3.2,5.87c0.12,0.09,0.24,0.21,0.37,0.36
			c0.56,0.71,0.58,1.71,0.03,2.44c-0.64,0.86-1.96,1.03-2.8,0.41c-3.05-2.29-4.8-5.6-4.8-9.08c0-0.55-0.45-1-1-1s-1,0.45-1,1v10
			c0,1.1-0.9,2-2,2c-0.53,0-1.03-0.21-1.41-0.59c-0.38-0.38-0.59-0.88-0.59-1.41V66c0-0.55-0.45-1-1-1s-1,0.45-1,1
			c0,3.48-1.75,6.79-4.79,9.08c-0.85,0.63-2.16,0.45-2.8-0.4c-0.55-0.74-0.53-1.74,0.03-2.45c0.12-0.15,0.25-0.27,0.36-0.35
			c2.07-1.54,3.2-3.63,3.2-5.87v-1c0-0.55-0.45-1-1-1s-1,0.45-1,1v1c0,1.6-0.85,3.12-2.4,4.27c-0.16,0.12-0.32,0.26-0.47,0.42
			c-0.68,0.2-1.4,0.31-2.14,0.31c-1.1,0-2-0.9-2-2s0.9-2,2-2c2.21,0,4-1.79,4-4V43c0-6.07,4.93-11,11-11c2.94,0,5.71,1.14,7.78,3.22
			c2.07,2.07,3.22,4.84,3.22,7.78v20c0,2.21,1.79,4,4,4c1.1,0,2,0.9,2,2S56.08,71,54.98,71z"/>
		<g>
			<path class="st4" d="M40,56.92c-0.09,0-0.18-0.02-0.26-0.07c-0.94-0.57-2.54-0.57-3.48,0c-0.23,0.14-0.54,0.07-0.69-0.17
				c-0.14-0.24-0.07-0.54,0.17-0.69c1.27-0.77,3.25-0.77,4.52,0c0.24,0.14,0.31,0.45,0.17,0.69C40.33,56.84,40.17,56.92,40,56.92z"
				/>
		</g>
		<g>
			<path class="st4" d="M42,57.42c-0.81,0-1.63-0.19-2.26-0.58c-0.24-0.14-0.31-0.45-0.17-0.69c0.14-0.24,0.45-0.31,0.69-0.17
				c0.94,0.57,2.54,0.57,3.48,0c0.23-0.15,0.54-0.07,0.69,0.17c0.14,0.24,0.07,0.54-0.17,0.69C43.63,57.23,42.81,57.42,42,57.42z"/>
		</g>
		<g>
			<circle class="st71" cx="51.98" cy="29" r="1"/>
		</g>
		<g>
			<circle class="st71" cx="27.98" cy="29" r="1"/>
		</g>
	</g>
</g>
</svg>
