<?xml version="1.0" encoding="utf-8"?>
<!-- Generator: Adobe Illustrator 23.0.4, SVG Export Plug-In . SVG Version: 6.00 Build 0)  -->
<svg version="1.1" id="Layer_1" xmlns="http://www.w3.org/2000/svg" xmlns:xlink="http://www.w3.org/1999/xlink" x="0px" y="0px"
	 viewBox="0 0 80 80" style="enable-background:new 0 0 80 80;" xml:space="preserve">
<style type="text/css">
	.st0{fill:#81C56D;}
	.st1{fill:#5BAA5E;}
	.st2{fill:#B6D997;}
	.st3{fill:#FFFFFF;}
	.st4{fill:#310F32;}
	.st5{fill:#C9D6E3;}
	.st6{fill:#FFC626;}
	.st7{fill:#F99E1D;}
	.st8{fill:#F58127;}
	.st9{fill:#301330;}
	.st10{fill:#EA5535;}
	.st11{fill:#EF4F24;}
	.st12{fill:#F16333;}
	.st13{fill:#DF3426;}
	.st14{fill:#F6946C;}
	.st15{fill:#D6E1EC;}
	.st16{opacity:0.8;}
	.st17{fill:#B9CCDC;}
	.st18{fill:#310E31;}
	.st19{fill:#EA5435;}
	.st20{fill:#FEDD3F;}
	.st21{fill:#EAC01E;}
	.st22{fill:#7FC042;}
	.st23{fill:#65A944;}
	.st24{fill:#0CBEF0;}
	.st25{fill:#6F7BBC;}
	.st26{fill:#0097D5;}
	.st27{fill:#FDB515;}
	.st28{fill:#5365AF;}
	.st29{fill:#1F90CF;}
	.st30{fill:#F99F1B;}
	.st31{opacity:0.7;}
	.st32{fill:#FFF5CA;}
	.st33{opacity:0.6;}
	.st34{fill:#FBDAE8;}
	.st35{fill:#D5E4EF;}
	.st36{opacity:0.4;}
	.st37{fill:#B1DEF5;}
	.st38{opacity:0.5;}
	.st39{fill:#FCE6A0;}
	.st40{fill:#FDF4D2;}
	.st41{fill:#FDD457;}
	.st42{fill:#FFDA85;}
	.st43{fill:#F36F34;}
	.st44{fill:#FFFFFF;stroke:#310F32;stroke-linecap:round;stroke-linejoin:round;stroke-miterlimit:10;}
	.st45{fill:none;stroke:#310F32;stroke-linecap:round;stroke-linejoin:round;stroke-miterlimit:10;}
	.st46{fill:#EE3B24;}
	.st47{fill:#301431;}
	.st48{fill:#71AC43;}
	.st49{fill:#C1DC83;}
	.st50{opacity:0.2;}
	.st51{opacity:0.1;}
	.st52{opacity:0.15;}
	.st53{fill:#5EC1EE;}
	.st54{fill:#239FCB;}
	.st55{fill:#92D1F1;}
	.st56{fill:#B2DCF5;}
	.st57{fill:#FFDF98;}
	.st58{fill:#406DB5;}
	.st59{fill:#FCDE60;}
	.st60{fill:#DEF1FB;}
	.st61{fill:#82CBF0;}
	.st62{fill:#6681C0;}
	.st63{fill:#FBEBAA;}
	.st64{fill:#8799CE;}
	.st65{fill:#98A7D5;}
	.st66{fill:#ACD6F2;}
	.st67{fill:#CCE4F7;}
	.st68{fill:#8BC9EE;}
	.st69{fill:#ADBBC3;}
	.st70{fill:#7E8C9B;}
	.st71{fill:#3B8E4F;}
	.st72{fill:#F05E75;}
	.st73{fill:#FCE5D3;}
	.st74{fill:#F8C4A0;}
</style>
<g>
	<g>
		<path class="st58" d="M73.51,57.02c2.72-4.71,3.05-10.13,1.38-14.88c-0.61-1.75-0.18-3.71,1.15-5c1-0.97,1.82-2.19,2.34-3.64
			c1.33-3.66,0.21-7.87-2.77-10.38c-2.07-1.75-4.56-2.44-6.94-2.25c-0.37-6.51-3.9-12.72-9.97-16.22
			c-5.07-2.93-10.89-3.37-16.06-1.73c-1.23,0.39-2.54,0.23-3.65-0.42c-0.01,0-0.01-0.01-0.02-0.01c-6.11-3.53-13.93-1.44-17.46,4.68
			c-0.2,0.35-0.39,0.71-0.55,1.08c-0.56,1.24-1.58,2.24-2.88,2.63c-4.2,1.27-7.94,4.08-10.3,8.18c-2.38,4.13-2.92,8.8-1.9,13.1
			c0.39,1.62-0.15,3.29-1.43,4.36c-0.83,0.69-1.55,1.54-2.12,2.52c-2.62,4.54-1.07,10.34,3.47,12.96c0.32,0.19,0.66,0.35,0.99,0.49
			c-2.54,5.4-0.56,11.93,4.69,14.96c2.54,1.47,5.41,1.86,8.08,1.32c1.93-0.39,3.84,0.59,4.8,2.32c1.34,2.42,3.34,4.51,5.91,5.99
			c6.58,3.8,14.75,2.32,19.64-3.11c0.77-0.86,1.81-1.46,2.96-1.54c3.04-0.21,5.92-1.88,7.56-4.72c0.07-0.12,0.14-0.24,0.2-0.37
			c0.56-1.08,1.54-1.85,2.7-2.21C67.48,63.86,71.17,61.07,73.51,57.02z"/>
	</g>
	<g>
		<rect x="49.88" y="41.59" transform="matrix(0.866 0.5 -0.5 0.866 29.2468 -19.9638)" class="st54" width="4" height="6"/>
	</g>
	<g>
		<rect x="51.74" y="42.09" transform="matrix(0.866 0.5 -0.5 0.866 29.6129 -20.3299)" class="st53" width="2" height="6"/>
	</g>
	<g>
		<rect x="25.63" y="27.59" transform="matrix(0.866 0.5 -0.5 0.866 18.9981 -9.7151)" class="st53" width="4" height="6"/>
	</g>
	<g>
		<rect x="25.76" y="27.09" transform="matrix(0.866 0.5 -0.5 0.866 18.6321 -9.3491)" class="st37" width="2" height="6"/>
	</g>
	<g>
		<path class="st4" d="M49.24,51.16l5-8.66l2.23,0.13l-6,10.39L49.24,51.16z M21.03,36.02l6-10.39l1.23,1.87l-5,8.66L21.03,36.02z"
			/>
	</g>
	<g>
		<ellipse transform="matrix(0.5 -0.866 0.866 0.5 -1.6808 53.223)" class="st37" cx="45.25" cy="28.07" rx="12.38" ry="20.97"/>
	</g>
	<g>
		<path class="st53" d="M36.46,25.3l-3.72,6.44c4.91,3.76,11.06,7.25,16.71,9.45c2.61,1.02,5.56-0.03,6.96-2.46l0.83-1.43
			c2.99-5.18,1.67-11.64-2.82-15.29c-0.72-0.48-1.44-0.95-2.19-1.41C46.6,17.75,39.65,19.76,36.46,25.3z"/>
	</g>
	<path class="st4" d="M65.44,28.51c-0.14-0.53-0.69-0.85-1.22-0.71l-0.81,0.22c-6.4-6.57-18.31-13.44-27.2-15.7L36,11.51
		c-0.14-0.53-0.69-0.85-1.22-0.71c-0.53,0.14-0.85,0.69-0.71,1.22l0.22,0.81c-3.21,3.23-6.51,8.95-7.7,13.34l-0.81,0.22
		c-0.53,0.14-0.85,0.69-0.71,1.22c0.12,0.45,0.52,0.74,0.96,0.74c0.09,0,0.17-0.01,0.26-0.03l0.81-0.22
		c6.4,6.57,18.31,13.44,27.2,15.7l0.22,0.8c0.12,0.45,0.52,0.74,0.96,0.74c0.09,0,0.17-0.01,0.26-0.03
		c0.53-0.14,0.85-0.69,0.71-1.22l-0.22-0.81c3.21-3.23,6.51-8.95,7.7-13.34l0.8-0.22C65.27,29.6,65.58,29.05,65.44,28.51z
		 M54.81,41.88c-8.59-2.17-20.13-8.83-26.3-15.19c1.11-4.1,4.19-9.44,7.19-12.45c8.59,2.17,20.13,8.83,26.3,15.19
		C60.89,33.53,57.8,38.87,54.81,41.88z"/>
	<g>
		<path class="st59" d="M18.35,26c-1.59-0.92-2.14-2.96-1.22-4.55c0.79-1.37,2.41-1.96,3.87-1.51c-0.23-0.2-0.48-0.38-0.76-0.54
			c-2.39-1.38-5.45-0.56-6.83,1.83s-0.56,5.45,1.83,6.83c2.39,1.38,5.45,0.56,6.83-1.83c0.16-0.27,0.28-0.56,0.39-0.85
			C21.42,26.5,19.72,26.8,18.35,26z"/>
	</g>
	<g>
		<path class="st37" d="M37.41,42.01l-0.31-0.18C37.2,41.89,37.3,41.95,37.41,42.01z"/>
	</g>
	<g>
		<g>
			<path class="st60" d="M31.09,21.62c-0.23-0.13-0.32-0.43-0.19-0.67c1.37-2.53,3-4.84,4.6-6.5l0.2-0.21l0.28,0.07
				c0.88,0.23,1.81,0.51,2.76,0.84c0.27,0.09,0.4,0.37,0.31,0.63c-0.09,0.26-0.37,0.4-0.63,0.31c-0.17-0.06-0.34-0.12-0.51-0.17
				c-1.18-0.39-2.47,0.03-3.23,1.01c-1.02,1.31-2.01,2.85-2.9,4.49c-0.13,0.24-0.43,0.33-0.68,0.2
				C31.09,21.63,31.09,21.62,31.09,21.62z"/>
		</g>
	</g>
	<g>
		<path class="st61" d="M68.21,15.21c-0.06,0-0.13-0.01-0.19-0.04l-3.7-1.51c-0.18-0.07-0.3-0.24-0.31-0.43s0.09-0.37,0.26-0.47
			l4.68-2.61L66.2,9.03c-0.26-0.1-0.38-0.4-0.27-0.65c0.1-0.26,0.4-0.38,0.65-0.27l3.7,1.51c0.18,0.07,0.3,0.24,0.31,0.43
			s-0.09,0.37-0.26,0.47l-4.68,2.61l2.74,1.12c0.26,0.1,0.38,0.4,0.27,0.65C68.59,15.09,68.4,15.21,68.21,15.21z"/>
	</g>
	<g>
		<path class="st61" d="M60.01,16.11c-0.11,0-0.22-0.04-0.31-0.11l-2.33-1.88c-0.15-0.12-0.21-0.31-0.17-0.5
			c0.04-0.19,0.18-0.33,0.37-0.38l3.88-0.98l-1.56-1.26c-0.21-0.17-0.25-0.49-0.07-0.7c0.17-0.22,0.49-0.25,0.7-0.08l2.33,1.88
			c0.15,0.12,0.21,0.31,0.17,0.5c-0.04,0.19-0.18,0.33-0.37,0.38l-3.88,0.98l1.56,1.26c0.21,0.17,0.25,0.49,0.07,0.7
			C60.3,16.05,60.15,16.11,60.01,16.11z"/>
	</g>
	<g>
		<path class="st61" d="M54.92,16.94c-0.05,0-0.11-0.01-0.16-0.03l-1.9-0.63c-0.17-0.06-0.3-0.21-0.33-0.39
			c-0.03-0.18,0.04-0.37,0.19-0.48l2.11-1.64l-1.01-0.34c-0.26-0.09-0.4-0.37-0.32-0.63c0.09-0.26,0.37-0.4,0.63-0.32l1.9,0.63
			c0.17,0.06,0.3,0.21,0.33,0.39c0.03,0.18-0.04,0.37-0.19,0.48l-2.11,1.64l1.01,0.34c0.26,0.09,0.4,0.37,0.32,0.63
			C55.32,16.81,55.13,16.94,54.92,16.94z"/>
	</g>
	<g>
		<g>
			<circle class="st62" cx="52.07" cy="56.25" r="1"/>
		</g>
		<g>
			<circle class="st63" cx="70.67" cy="30.04" r="1"/>
		</g>
		<g>
			<circle class="st64" cx="12.24" cy="33.25" r="1"/>
		</g>
		<g>
			<circle class="st64" cx="48.17" cy="69.01" r="1"/>
		</g>
		<g>
			<circle class="st62" cx="23.7" cy="21.4" r="1"/>
		</g>
		<g>
			<circle class="st62" cx="7.6" cy="43.28" r="1"/>
		</g>
		<g>
			<circle class="st62" cx="58.4" cy="55.29" r="1"/>
		</g>
		<g>
			<circle class="st62" cx="70.13" cy="38.97" r="1"/>
		</g>
		<g>
			<circle class="st41" cx="29.65" cy="8.09" r="0.5"/>
		</g>
		<g>
			<circle class="st62" cx="58.39" cy="44.31" r="0.5"/>
		</g>
		<g>
			<circle class="st65" cx="64.82" cy="49.18" r="0.5"/>
		</g>
		<g>
			<circle class="st63" cx="59.35" cy="50.64" r="0.5"/>
		</g>
		<g>
			<circle class="st64" cx="66.62" cy="34.05" r="0.5"/>
		</g>
		<g>
			<circle class="st62" cx="52.47" cy="8.56" r="0.5"/>
		</g>
		<g>
			<circle class="st62" cx="38.29" cy="73.12" r="0.5"/>
		</g>
		<g>
			<circle class="st64" cx="15.14" cy="63.22" r="0.5"/>
		</g>
		<g>
			<circle class="st62" cx="12.31" cy="58.12" r="0.5"/>
		</g>
		<g>
			<circle class="st62" cx="68.82" cy="42.25" r="0.5"/>
		</g>
		<g>
			<circle class="st62" cx="34.25" cy="6.13" r="0.5"/>
		</g>
		<g>
			<circle class="st62" cx="13.25" cy="42.5" r="0.5"/>
		</g>
		<g>
			<circle class="st3" cx="69.78" cy="48.58" r="0.5"/>
		</g>
		<g>
			<circle class="st37" cx="33.46" cy="71.49" r="0.5"/>
		</g>
		<g>
			<circle class="st62" cx="50.62" cy="61.77" r="0.5"/>
		</g>
		<g>
			<circle class="st62" cx="17.95" cy="16.35" r="0.5"/>
		</g>
		<g>
			<circle class="st37" cx="27.02" cy="14.65" r="0.5"/>
		</g>
		<g>
			<circle class="st3" cx="18.61" cy="35.2" r="0.5"/>
		</g>
		<g>
			<circle class="st3" cx="11.28" cy="37.9" r="0.5"/>
		</g>
		<g>
			<circle class="st3" cx="56.45" cy="61.67" r="0.5"/>
		</g>
		<g>
			<circle class="st62" cx="62.99" cy="42.35" r="0.5"/>
		</g>
		<g>
			<circle class="st64" cx="69.01" cy="53.91" r="0.5"/>
		</g>
		<g>
			<circle class="st63" cx="47.51" cy="9.16" r="0.5"/>
		</g>
	</g>
	<g class="st33">
		<g>
			<g class="st36">
				<path class="st3" d="M59.67,64.1l-3.46-2c-0.24-0.14-0.32-0.44-0.18-0.68h0c0.14-0.24,0.44-0.32,0.68-0.18l3.46,2
					c0.24,0.14,0.32,0.44,0.18,0.68l0,0C60.21,64.16,59.91,64.24,59.67,64.1z"/>
			</g>
			<g class="st31">
				<path class="st3" d="M57.93,63.1l-1.73-1c-0.24-0.14-0.32-0.44-0.18-0.68h0c0.14-0.24,0.44-0.32,0.68-0.18l1.73,1
					c0.24,0.14,0.32,0.44,0.18,0.68l0,0C58.48,63.16,58.17,63.24,57.93,63.1z"/>
			</g>
		</g>
		<g>
			<g class="st36">
				<path class="st3" d="M53.24,59.24l3.46,2c0.24,0.14,0.32,0.44,0.18,0.68l0,0c-0.14,0.24-0.44,0.32-0.68,0.18l-3.46-2
					c-0.24-0.14-0.32-0.44-0.18-0.68l0,0C52.69,59.18,53,59.1,53.24,59.24z"/>
			</g>
			<g class="st31">
				<path class="st3" d="M54.97,60.24l1.73,1c0.24,0.14,0.32,0.44,0.18,0.68l0,0c-0.14,0.24-0.44,0.32-0.68,0.18l-1.73-1
					c-0.24-0.14-0.32-0.44-0.18-0.68l0,0C54.42,60.18,54.73,60.1,54.97,60.24z"/>
			</g>
		</g>
		<g>
			<g class="st36">
				<path class="st3" d="M54.02,64.88l2-3.46c0.14-0.24,0.44-0.32,0.68-0.18l0,0c0.24,0.14,0.32,0.44,0.18,0.68l-2,3.46
					c-0.14,0.24-0.44,0.32-0.68,0.18l0,0C53.96,65.43,53.88,65.12,54.02,64.88z"/>
			</g>
			<g class="st31">
				<path class="st3" d="M55.02,63.15l1-1.73c0.14-0.24,0.44-0.32,0.68-0.18l0,0c0.24,0.14,0.32,0.44,0.18,0.68l-1,1.73
					c-0.14,0.24-0.44,0.32-0.68,0.18l0,0C54.96,63.7,54.88,63.39,55.02,63.15z"/>
			</g>
		</g>
		<g>
			<g class="st36">
				<path class="st3" d="M58.88,58.45l-2,3.46c-0.14,0.24-0.44,0.32-0.68,0.18l0,0c-0.24-0.14-0.32-0.44-0.18-0.68l2-3.46
					c0.14-0.24,0.44-0.32,0.68-0.18l0,0C58.94,57.91,59.02,58.22,58.88,58.45z"/>
			</g>
			<g class="st31">
				<path class="st3" d="M57.88,60.19l-1,1.73c-0.14,0.24-0.44,0.32-0.68,0.18l0,0c-0.24-0.14-0.32-0.44-0.18-0.68l1-1.73
					c0.14-0.24,0.44-0.32,0.68-0.18l0,0C57.94,59.64,58.02,59.95,57.88,60.19z"/>
			</g>
		</g>
		<g class="st38">
			<circle class="st3" cx="56.45" cy="61.67" r="1.5"/>
		</g>
	</g>
	<g>
		<g>
			<path class="st0" d="M27.75,58.38L27.75,58.38c-5.74-3.31-7.71-10.65-4.39-16.39l11-19.05c3.31-5.74,10.65-7.71,16.39-4.39l0,0
				c5.74,3.31,7.71,10.65,4.39,16.39l-11,19.05C40.83,59.73,33.49,61.69,27.75,58.38z"/>
		</g>
		<g>
			<path class="st1" d="M39.01,38.87l-11.26,19.5c5.74,3.31,13.08,1.35,16.39-4.39l11-19.05c1.58-2.73,1.96-5.83,1.3-8.68
				c-1.03-4.49-7.05-5.37-9.35-1.38l-1.84,3.2L41,35.43"/>
		</g>
		<g>
			<g>
				<path class="st2" d="M35.59,24.8c-0.48-0.28-0.64-0.89-0.37-1.37c1.49-2.58,3.9-4.41,6.79-5.15c0.53-0.14,1.08,0.18,1.22,0.72
					c0.14,0.54-0.18,1.08-0.72,1.22c-2.36,0.61-4.33,2.1-5.55,4.22C36.68,24.91,36.07,25.08,35.59,24.8z"/>
			</g>
		</g>
		<path class="st4" d="M63.14,21.08c-0.84-0.49-1.89-0.29-2.5,0.41c-1.61-0.51-3.36-0.06-4.54,1.12c-1.13-2.04-2.78-3.74-4.85-4.94
			c-2.11-1.22-4.43-1.76-6.7-1.72c0.44-1.62-0.05-3.37-1.3-4.5c0.3-0.89-0.05-1.89-0.89-2.37c-0.96-0.55-2.18-0.22-2.73,0.73
			c-0.55,0.96-0.22,2.18,0.73,2.73c0.77,0.44,1.7,0.31,2.32-0.24c0.44,0.43,0.76,0.96,0.92,1.57c0.19,0.72,0.14,1.46-0.12,2.14
			c-4.03,0.4-7.82,2.65-10,6.42l-11,19.05c-1.74,3.01-2.2,6.51-1.3,9.87c0.9,3.35,3.05,6.16,6.06,7.89c2,1.16,4.23,1.75,6.48,1.75
			c1.13,0,2.27-0.15,3.39-0.45c3.35-0.9,6.16-3.05,7.89-6.06l11-19.05c1.74-3.01,2.2-6.51,1.3-9.86c-0.19-0.7-0.44-1.36-0.73-2.01
			c0.88-1.07,2.3-1.51,3.62-1.15c-0.17,0.82,0.19,1.69,0.95,2.13c0.96,0.55,2.18,0.22,2.73-0.73C64.43,22.85,64.1,21.63,63.14,21.08
			z M54.28,34.43l-11,19.05c-1.47,2.54-3.84,4.37-6.68,5.13c-2.84,0.76-5.8,0.37-8.35-1.1c-5.25-3.03-7.06-9.77-4.03-15.03l11-19.05
			c1.47-2.54,3.84-4.36,6.68-5.13c0.95-0.25,1.91-0.38,2.87-0.38c1.91,0,3.79,0.5,5.48,1.48c2.54,1.47,4.36,3.84,5.12,6.68
			C56.14,28.92,55.75,31.89,54.28,34.43z"/>
		<g>
			<circle class="st0" cx="62.14" cy="22.81" r="1"/>
		</g>
		<g>
			<circle class="st0" cx="41.36" cy="10.81" r="1"/>
		</g>
		<g>
			<path class="st4" d="M47.18,35.13c-4.03,0-8.14-2.67-9.59-6.42c-0.1-0.26,0.03-0.55,0.29-0.65c0.26-0.1,0.55,0.03,0.65,0.29
				c1.45,3.75,5.88,6.3,9.85,5.69c0.28-0.04,0.53,0.15,0.57,0.42c0.04,0.27-0.14,0.53-0.42,0.57
				C48.08,35.09,47.63,35.13,47.18,35.13z"/>
		</g>
		<g>
			<path class="st4" d="M40.62,38.09c-0.28,0.48-0.89,0.64-1.37,0.37c-0.48-0.28-0.64-0.89-0.37-1.37c0.28-0.48,0.89-0.64,1.37-0.37
				C40.73,37,40.89,37.62,40.62,38.09z"/>
		</g>
	</g>
	<g>
		<g>
			<path class="st37" d="M20.53,36.89l3-5.2l0.52,0.3c1.3,0.75,2.47,1.69,3.53,2.74c5.18,5.13,13.7,10.05,20.74,11.97
				c1.44,0.39,2.84,0.94,4.14,1.68l0.52,0.3l-3,5.2l-0.52-0.3c-1.3-0.75-2.7-1.29-4.14-1.68c-7.04-1.92-15.55-6.84-20.74-11.97
				c-1.06-1.05-2.23-2-3.53-2.74L20.53,36.89z"/>
		</g>
		<g>
			<path class="st37" d="M45.31,51.9c-7.04-1.92-15.55-6.84-20.74-11.97c-0.97-0.96-2.03-1.82-3.19-2.53L12.4,52.98
				c5.65,7.88,18.06,15.05,27.71,16L49.1,53.4C47.9,52.75,46.63,52.26,45.31,51.9z"/>
		</g>
		<g>
			<path class="st53" d="M45.32,51.91c-6.61-1.81-15.88-7.16-20.75-11.98c-0.97-0.96-2.03-1.81-3.18-2.52l-1,1.73
				c1.16,0.71,2.22,1.57,3.19,2.53c2.94,2.91,6.96,5.76,11.17,8.02c1.58,0.85,2.17,2.82,1.27,4.37l-4.32,7.49
				c-0.84,1.46-2.69,2.02-4.18,1.24c-4.67-2.45-9.02-5.68-12.18-9.18c-0.65-0.72-1.8-0.6-2.29,0.24l0,0
				c5.26,6.7,15.21,12.72,23.89,14.62l0.06-0.11l0.94-1.63l6.01-10.41c0.84-1.45,2.67-1.97,4.14-1.17h0l1-1.73
				C47.91,52.75,46.63,52.26,45.32,51.91z"/>
		</g>
		<path class="st4" d="M53.47,47.83l-0.52-0.3c-1.28-0.74-2.75-1.34-4.38-1.78c-6.88-1.88-15.23-6.7-20.3-11.72
			c-1.2-1.18-2.45-2.16-3.73-2.9l-0.52-0.3c-0.48-0.28-1.09-0.11-1.37,0.37l-3,5.2c-0.13,0.23-0.17,0.5-0.1,0.76
			c0.07,0.26,0.24,0.47,0.47,0.61l-8.5,14.72c-0.2,0.34-0.18,0.76,0.05,1.08c5.79,8.07,18.54,15.43,28.43,16.41c0.03,0,0.07,0,0.1,0
			c0.35,0,0.69-0.19,0.87-0.5l8.5-14.72c0.15,0.09,0.32,0.13,0.5,0.13c0.09,0,0.17-0.01,0.26-0.03c0.26-0.07,0.48-0.24,0.61-0.47
			l3-5.2C54.12,48.71,53.95,48.1,53.47,47.83z M39.57,67.91c-9.08-1.14-20.45-7.71-25.98-15l8.13-14.09
			c0.73,0.52,1.45,1.13,2.15,1.82c5.29,5.24,14,10.27,21.18,12.23c0.95,0.26,1.83,0.58,2.65,0.95L39.57,67.91z M49.61,52.53
			c-1.2-0.65-2.55-1.18-4.03-1.59c-6.88-1.88-15.23-6.7-20.3-11.72c-1.09-1.08-2.23-1.98-3.39-2.7l2-3.46
			c1.02,0.63,2.02,1.43,2.98,2.38c5.29,5.24,14,10.27,21.18,12.23c1.31,0.36,2.5,0.82,3.55,1.39L49.61,52.53z"/>
		<g>
			<g>
				<path class="st60" d="M22.58,36.34c-0.24-0.14-0.32-0.44-0.18-0.68l1.5-2.6l0.44,0.3c0.86,0.58,1.69,1.26,2.53,2.1
					c2.6,2.58,6.02,5.12,9.88,7.35c0.24,0.14,0.32,0.44,0.18,0.68c-0.14,0.24-0.44,0.32-0.68,0.18c-3.93-2.27-7.42-4.86-10.08-7.5
					c-0.13-0.13-0.26-0.25-0.39-0.38c-0.76-0.72-1.99-0.53-2.52,0.38h0C23.12,36.39,22.82,36.48,22.58,36.34z"/>
			</g>
		</g>
		<g>
			<g>
				<path class="st53" d="M34.75,46.26c-0.24-0.14-0.32-0.44-0.18-0.68s0.44-0.32,0.68-0.18c3.59,2.07,7.35,3.7,10.59,4.59
					c0.73,0.2,1.43,0.43,2.1,0.69c0.75,0.29,1.59,0,1.99-0.7l0.31-0.54c0.14-0.24,0.44-0.32,0.68-0.18s0.32,0.44,0.18,0.68l-1.5,2.6
					l-0.42-0.21c-1.09-0.55-2.3-1.01-3.61-1.37C42.25,50.03,38.41,48.37,34.75,46.26z"/>
			</g>
		</g>
	</g>
</g>
</svg>
