<?xml version="1.0" encoding="utf-8"?>
<!-- Generator: Adobe Illustrator 23.0.4, SVG Export Plug-In . SVG Version: 6.00 Build 0)  -->
<svg version="1.1" id="Layer_1" xmlns="http://www.w3.org/2000/svg" xmlns:xlink="http://www.w3.org/1999/xlink" x="0px" y="0px"
	 viewBox="0 0 80 80" style="enable-background:new 0 0 80 80;" xml:space="preserve">
<style type="text/css">
	.st0{fill:#81C56D;}
	.st1{fill:#5BAA5E;}
	.st2{fill:#B6D997;}
	.st3{fill:#FFFFFF;}
	.st4{fill:#310F32;}
	.st5{fill:#C9D6E3;}
	.st6{fill:#FFC626;}
	.st7{fill:#F99E1D;}
	.st8{fill:#F58127;}
	.st9{fill:#301330;}
	.st10{fill:#EA5535;}
	.st11{fill:#EF4F24;}
	.st12{fill:#F16333;}
	.st13{fill:#DF3426;}
	.st14{fill:#F6946C;}
	.st15{fill:#D6E1EC;}
	.st16{opacity:0.8;}
	.st17{fill:#B9CCDC;}
	.st18{fill:#310E31;}
	.st19{fill:#EA5435;}
	.st20{fill:#FEDD3F;}
	.st21{fill:#EAC01E;}
	.st22{fill:#7FC042;}
	.st23{fill:#65A944;}
	.st24{fill:#0CBEF0;}
	.st25{fill:#6F7BBC;}
	.st26{fill:#0097D5;}
	.st27{fill:#FDB515;}
	.st28{fill:#5365AF;}
	.st29{fill:#1F90CF;}
	.st30{fill:#F99F1B;}
	.st31{opacity:0.7;}
	.st32{fill:#FFF5CA;}
	.st33{opacity:0.6;}
	.st34{fill:#FBDAE8;}
	.st35{fill:#D5E4EF;}
	.st36{opacity:0.4;}
	.st37{fill:#B1DEF5;}
	.st38{opacity:0.5;}
	.st39{fill:#FCE6A0;}
	.st40{fill:#FDF4D2;}
	.st41{fill:#FDD457;}
	.st42{fill:#FFDA85;}
	.st43{fill:#F36F34;}
	.st44{fill:#FFFFFF;stroke:#310F32;stroke-linecap:round;stroke-linejoin:round;stroke-miterlimit:10;}
	.st45{fill:none;stroke:#310F32;stroke-linecap:round;stroke-linejoin:round;stroke-miterlimit:10;}
	.st46{fill:#EE3B24;}
	.st47{fill:#301431;}
	.st48{fill:#71AC43;}
	.st49{fill:#C1DC83;}
	.st50{opacity:0.2;}
	.st51{opacity:0.1;}
	.st52{opacity:0.15;}
	.st53{fill:#5EC1EE;}
	.st54{fill:#239FCB;}
	.st55{fill:#92D1F1;}
	.st56{fill:#B2DCF5;}
	.st57{fill:#FFDF98;}
	.st58{fill:#406DB5;}
	.st59{fill:#FCDE60;}
	.st60{fill:#DEF1FB;}
	.st61{fill:#82CBF0;}
	.st62{fill:#6681C0;}
	.st63{fill:#FBEBAA;}
	.st64{fill:#8799CE;}
	.st65{fill:#98A7D5;}
	.st66{fill:#ACD6F2;}
	.st67{fill:#CCE4F7;}
	.st68{fill:#8BC9EE;}
	.st69{fill:#ADBBC3;}
	.st70{fill:#7E8C9B;}
	.st71{fill:#3B8E4F;}
	.st72{fill:#F05E75;}
	.st73{fill:#FCE5D3;}
	.st74{fill:#F8C4A0;}
</style>
<g>
	<g>
		<g>
			<path class="st0" d="M58,55.5c0,1.66-1.34,3-3,3c-0.93,0-1.82-0.14-2.66-0.41c0.83,1.03,0.9,2.55,0.06,3.68
				c-0.59,0.79-1.49,1.2-2.4,1.2c-0.63,0-1.26-0.19-1.8-0.59C44.9,59.9,43,56.3,43,52.5v10c0,1.66-1.34,3-3,3
				c-0.83,0-1.58-0.34-2.12-0.88C37.34,64.08,37,63.33,37,62.5v-10c0,3.8-1.9,7.4-5.2,9.88c-0.54,0.4-1.17,0.59-1.8,0.59
				c-0.91,0-1.81-0.41-2.4-1.2c-0.84-1.13-0.77-2.65,0.06-3.68c-0.84,0.27-1.73,0.41-2.66,0.41c-1.66,0-3-1.34-3-3
				c0-1.66,1.34-3,3-3c1.65,0,3-1.35,3-3v-20c0-6.63,5.37-12,12-12c3.32,0,6.32,1.34,8.49,3.51C50.66,23.18,52,26.18,52,29.5v20
				c0,1.65,1.35,3,3,3C56.66,52.5,58,53.84,58,55.5z"/>
		</g>
		<g>
			<path class="st1" d="M27.41,61.47c0.05,0.1,0.12,0.2,0.19,0.3c0.59,0.79,1.49,1.2,2.4,1.2c0.63,0,1.26-0.19,1.8-0.59
				C35.1,59.9,37,56.3,37,52.5v-1l0,0c-1.08,0-1.99,0.74-2.27,1.78c-0.9,3.3-3.71,6.97-6.35,7.94C27.88,61.4,27.9,61.41,27.41,61.47
				z"/>
		</g>
		<g>
			<path class="st1" d="M25,57.5c0.93,0,1.82-0.14,2.66-0.41c0.16-0.19,0.34-0.37,0.54-0.52c1.81-1.35,2.8-3.15,2.8-5.07v-1
				c-1.49,2.9-2.42,5-5.9,5c-0.06,0-0.19-0.01-0.37-0.01c-1.28-0.07-1.47,1.88-0.19,2C24.69,57.49,24.84,57.5,25,57.5z"/>
		</g>
	</g>
	<g>
		<g>
			<g>
				<path class="st2" d="M30,30.5c-0.55,0-1-0.45-1-1c0-2.98,1.17-5.77,3.3-7.86c0.39-0.39,1.03-0.38,1.41,0.01
					c0.39,0.39,0.38,1.03-0.01,1.41c-1.74,1.71-2.7,3.99-2.7,6.43C31,30.05,30.55,30.5,30,30.5z"/>
			</g>
		</g>
		<path class="st1" d="M57.99,55.33c0,0,0-0.01,0-0.01c-0.31,0.12-0.7-1.62-1.97-2.32c-1.14-0.63-4.09-3.01-4.05-3.68
			C51.99,49.05,52,48.78,52,48.5v-19c0-3.16-1.22-6.03-3.21-8.17C45.65,17.96,40,20.21,40,24.81V37v3.98v6.52v1.22v13.73
			c0,1.93,2.97,2.04,3,0.1c0-0.02,0-0.03,0-0.05v-8.56c0.04,0.02,0.07,0.04,0.1,0.06c0.43,3.24,2.23,6.23,5.1,8.38
			c0.54,0.4,1.17,0.59,1.8,0.59c0.91,0,1.81-0.41,2.4-1.2c0.07-0.1,0.46-2.96,0.62-2.77c0.9,0.29,1.18-0.48,2.18-0.5
			C56.86,58.46,58.23,56.98,57.99,55.33z"/>
	</g>
	<path class="st4" d="M55,51.5c-1.1,0-2-0.9-2-2v-20c0-3.48-1.35-6.75-3.8-9.2c-0.51-0.51-1.06-0.96-1.64-1.37
		c0.23-1.36,1.24-2.45,2.55-2.8c0.26,0.79,1.01,1.37,1.89,1.37c1.1,0,2-0.9,2-2c0-1.1-0.9-2-2-2c-0.97,0-1.78,0.69-1.96,1.61
		c-1.64,0.36-2.94,1.62-3.37,3.24c-1.99-1.2-4.28-1.85-6.67-1.85c-2.44,0-4.71,0.69-6.66,1.86c-0.43-1.62-1.73-2.89-3.38-3.25
		c-0.18-0.92-0.99-1.61-1.96-1.61c-1.1,0-2,0.9-2,2c0,1.1,0.9,2,2,2c0.88,0,1.62-0.58,1.89-1.37c1.32,0.35,2.33,1.45,2.55,2.81
		C29.15,21.3,27,25.15,27,29.5v20c0,1.1-0.9,2-2,2c-2.21,0-4,1.79-4,4s1.79,4,4,4c0.35,0,0.69-0.02,1.03-0.05
		c-0.13,1.01,0.12,2.06,0.76,2.92c0.76,1.02,1.93,1.6,3.2,1.6c0.87,0,1.7-0.27,2.4-0.79c1.47-1.11,2.68-2.42,3.6-3.87v3.19
		c0,1.07,0.42,2.07,1.17,2.83c0.76,0.76,1.76,1.17,2.83,1.17c2.21,0,4-1.79,4-4v-3.19c0.92,1.45,2.13,2.77,3.6,3.88
		c0.69,0.51,1.52,0.79,2.4,0.79c1.27,0,2.44-0.58,3.2-1.6c0.64-0.86,0.89-1.91,0.76-2.92c0.34,0.04,0.69,0.05,1.03,0.05
		c2.21,0,4-1.79,4-4S57.21,51.5,55,51.5z M55,57.5c-0.74,0-1.45-0.11-2.13-0.31c-0.15-0.16-0.31-0.3-0.47-0.42
		C50.85,55.62,50,54.1,50,52.5v-1c0-0.55-0.45-1-1-1s-1,0.45-1,1v1c0,2.25,1.14,4.33,3.2,5.87c0.12,0.09,0.24,0.21,0.36,0.35
		c0.56,0.71,0.58,1.71,0.03,2.45c-0.64,0.86-1.96,1.03-2.8,0.41c-3.05-2.29-4.8-5.6-4.8-9.08c0-0.55-0.45-1-1-1s-1,0.45-1,1v10
		c0,1.1-0.9,2-2,2c-0.53,0-1.03-0.21-1.41-0.59S38,63.03,38,62.5v-10c0-0.55-0.45-1-1-1s-1,0.45-1,1c0,3.48-1.75,6.79-4.8,9.08
		c-0.85,0.63-2.16,0.45-2.8-0.4c-0.55-0.74-0.53-1.74,0.03-2.45c0.12-0.14,0.25-0.27,0.36-0.35c2.06-1.54,3.2-3.63,3.2-5.87v-1
		c0-0.55-0.45-1-1-1s-1,0.45-1,1v1c0,1.6-0.85,3.12-2.4,4.27c-0.16,0.12-0.31,0.26-0.47,0.42c-0.68,0.2-1.4,0.31-2.13,0.31
		c-1.1,0-2-0.9-2-2s0.9-2,2-2c2.21,0,4-1.79,4-4v-20c0-6.07,4.93-11,11-11c2.94,0,5.71,1.14,7.78,3.22C49.86,23.79,51,26.56,51,29.5
		v20c0,2.21,1.79,4,4,4c1.1,0,2,0.9,2,2S56.1,57.5,55,57.5z"/>
	<g>
		<path class="st18" d="M46.02,39h-12c-1.38,0-2.5,1.12-2.5,2.5c0,3.46,3.97,6.5,8.5,6.5s8.5-3.04,8.5-6.5
			C48.52,40.12,47.4,39,46.02,39z"/>
		<path class="st19" d="M40.02,44.5c-1.42,0-2.65,0.74-3.36,1.86c1,0.4,2.13,0.64,3.36,0.64s2.36-0.24,3.36-0.64
			C42.67,45.24,41.44,44.5,40.02,44.5z"/>
		<path class="st3" d="M34.02,40l0.72,1.45c0.17,0.34,0.52,0.55,0.89,0.55h8.76c0.38,0,0.73-0.21,0.89-0.55L46.02,40H34.02z"/>
	</g>
	<g>
		<circle class="st3" cx="40.02" cy="30" r="5"/>
	</g>
	<g>
		<path class="st35" d="M43.81,27.33c-0.32-0.46-1.03-0.16-0.97,0.4c0.14,1.34-0.3,2.74-1.33,3.77c-1.03,1.03-2.42,1.47-3.77,1.33
			c-0.56-0.06-0.85,0.65-0.4,0.97c0.94,0.66,2.13,0.98,3.39,0.79c1.96-0.3,3.56-1.9,3.86-3.86C44.8,29.46,44.47,28.27,43.81,27.33z"
			/>
	</g>
	<g>
		<g>
			<path class="st0" d="M41.98,36c-0.18,0-0.35-0.09-0.44-0.26c-0.13-0.24-0.05-0.55,0.2-0.68c1.5-0.83,2.68-2.16,3.32-3.75
				c0.1-0.26,0.39-0.38,0.65-0.28c0.26,0.1,0.38,0.4,0.28,0.65c-0.73,1.8-2.06,3.31-3.76,4.25C42.14,35.98,42.06,36,41.98,36z"/>
		</g>
	</g>
	<g>
		<path class="st4" d="M41.52,30.5c0,0.83-0.67,1.5-1.5,1.5s-1.5-0.67-1.5-1.5c0-0.83,0.67-1.5,1.5-1.5S41.52,29.67,41.52,30.5z"/>
	</g>
	<g>
		<path class="st4" d="M40.02,35.5c-3.03,0-5.5-2.47-5.5-5.5s2.47-5.5,5.5-5.5s5.5,2.47,5.5,5.5S43.05,35.5,40.02,35.5z M40.02,25.5
			c-2.48,0-4.5,2.02-4.5,4.5s2.02,4.5,4.5,4.5s4.5-2.02,4.5-4.5S42.5,25.5,40.02,25.5z"/>
	</g>
	<g class="st16">
		<path class="st18" d="M49.02,23.71V27c0,3.26-0.67,6.51-2,9c-3.87,1.33-10.13,1.33-14,0c-1.33-2.49-2-5.74-2-9v-3.31
			C36.33,22.77,43.74,22.77,49.02,23.71z"/>
	</g>
	<g class="st31">
		<path class="st3" d="M39.97,24.5c-1.87,0-3.69,0.08-5.41,0.24c-1.16,0.11-2.04,1.07-2.04,2.26c0,1.71,0.21,3.39,0.58,4.92l7.4-7.4
			C40.32,24.51,40.15,24.5,39.97,24.5z"/>
	</g>
	<g class="st31">
		<path class="st3" d="M45.49,24.75c-0.98-0.09-1.99-0.15-3.03-0.2L34.02,33v1.06c0.52,0.6,1.25,1.01,2.05,1.14
			c0.21,0.03,0.45,0.05,0.67,0.08l9.99-9.99C46.39,24.99,45.97,24.8,45.49,24.75z"/>
	</g>
	<path class="st4" d="M52.02,23H47.7c-4.75-0.66-10.73-0.66-15.47,0h-4.21c-0.55,0-1,0.45-1,1c0,0.55,0.45,1,1,1h1l0.59-0.29
		c0.53,0.39,0.91,1.28,0.91,2.29c0,3.17,0.61,6.18,1.72,8.56c0.26,0.55,0.73,0.96,1.32,1.13c1.87,0.53,4.16,0.8,6.46,0.8
		s4.59-0.27,6.46-0.8c0.59-0.17,1.06-0.58,1.32-1.13c1.11-2.38,1.72-5.39,1.72-8.56c0-1.01,0.38-1.9,0.91-2.29L51.02,25h1
		c0.55,0,1-0.45,1-1C53.02,23.44,52.57,23,52.02,23z M47.66,33.12c-0.49,1.61-1.88,2.8-3.54,3.07c-2.59,0.42-5.62,0.42-8.21,0
		c-1.66-0.27-3.05-1.46-3.54-3.07c-0.56-1.84-0.86-3.94-0.86-6.12v-0.01c0-1.68,1.27-3.09,2.94-3.24c3.56-0.33,7.57-0.33,11.12,0.01
		c1.67,0.16,2.94,1.57,2.94,3.24C48.52,29.18,48.22,31.28,47.66,33.12z"/>
	<g>
		<circle class="st0" cx="52" cy="15.5" r="1"/>
	</g>
	<g>
		<circle class="st0" cx="28" cy="15.5" r="1"/>
	</g>
</g>
</svg>
