<?xml version="1.0" encoding="utf-8"?>
<!-- Generator: Adobe Illustrator 23.0.4, SVG Export Plug-In . SVG Version: 6.00 Build 0)  -->
<svg version="1.1" id="Layer_1" xmlns="http://www.w3.org/2000/svg" xmlns:xlink="http://www.w3.org/1999/xlink" x="0px" y="0px"
	 viewBox="0 0 80 80" style="enable-background:new 0 0 80 80;" xml:space="preserve">
<style type="text/css">
	.st0{fill:#81C56D;}
	.st1{fill:#5BAA5E;}
	.st2{fill:#B6D997;}
	.st3{fill:#FFFFFF;}
	.st4{fill:#310F32;}
	.st5{fill:#C9D6E3;}
	.st6{fill:#FFC626;}
	.st7{fill:#F99E1D;}
	.st8{fill:#F58127;}
	.st9{fill:#301330;}
	.st10{fill:#EA5535;}
	.st11{fill:#EF4F24;}
	.st12{fill:#F16333;}
	.st13{fill:#DF3426;}
	.st14{fill:#F6946C;}
	.st15{fill:#D6E1EC;}
	.st16{opacity:0.8;}
	.st17{fill:#B9CCDC;}
	.st18{fill:#310E31;}
	.st19{fill:#EA5435;}
	.st20{fill:#FEDD3F;}
	.st21{fill:#EAC01E;}
	.st22{fill:#7FC042;}
	.st23{fill:#65A944;}
	.st24{fill:#0CBEF0;}
	.st25{fill:#6F7BBC;}
	.st26{fill:#0097D5;}
	.st27{fill:#FDB515;}
	.st28{fill:#5365AF;}
	.st29{fill:#1F90CF;}
	.st30{fill:#F99F1B;}
	.st31{opacity:0.7;}
	.st32{fill:#FFF5CA;}
	.st33{opacity:0.6;}
	.st34{fill:#FBDAE8;}
	.st35{fill:#D5E4EF;}
	.st36{opacity:0.4;}
	.st37{fill:#B1DEF5;}
	.st38{opacity:0.5;}
	.st39{fill:#FCE6A0;}
	.st40{fill:#FDF4D2;}
	.st41{fill:#FDD457;}
	.st42{fill:#FFDA85;}
	.st43{fill:#F36F34;}
	.st44{fill:#FFFFFF;stroke:#310F32;stroke-linecap:round;stroke-linejoin:round;stroke-miterlimit:10;}
	.st45{fill:none;stroke:#310F32;stroke-linecap:round;stroke-linejoin:round;stroke-miterlimit:10;}
	.st46{fill:#EE3B24;}
	.st47{fill:#301431;}
	.st48{fill:#71AC43;}
	.st49{fill:#C1DC83;}
	.st50{opacity:0.2;}
	.st51{opacity:0.1;}
	.st52{opacity:0.15;}
	.st53{fill:#5EC1EE;}
	.st54{fill:#239FCB;}
	.st55{fill:#92D1F1;}
	.st56{fill:#B2DCF5;}
	.st57{fill:#FFDF98;}
	.st58{fill:#406DB5;}
	.st59{fill:#FCDE60;}
	.st60{fill:#DEF1FB;}
	.st61{fill:#82CBF0;}
	.st62{fill:#6681C0;}
	.st63{fill:#FBEBAA;}
	.st64{fill:#8799CE;}
	.st65{fill:#98A7D5;}
	.st66{fill:#ACD6F2;}
	.st67{fill:#CCE4F7;}
	.st68{fill:#8BC9EE;}
	.st69{fill:#ADBBC3;}
	.st70{fill:#7E8C9B;}
	.st71{fill:#3B8E4F;}
	.st72{fill:#F05E75;}
	.st73{fill:#FCE5D3;}
	.st74{fill:#F8C4A0;}
</style>
<g>
	<g>
		<path class="st0" d="M40,14c-6.63,0-12,5.37-12,12v12l8,3h9l7-3V26c0-3.32-1.34-6.32-3.51-8.49C46.32,15.34,43.32,14,40,14z"/>
	</g>
	<g>
		<path class="st1" d="M40,21.31l0,12.19c-1.72,0-3.35-0.57-4.69-1.65c-0.21-0.17-0.53-0.14-0.7,0.08c-0.17,0.22-0.14,0.53,0.08,0.7
			c0.84,0.67,1.8,1.18,2.82,1.49c1.48,0.45,2.49,1.81,2.49,3.35V38c0,1.1,0.9,2,2,2h5l5-2V26c0-3.16-1.22-6.03-3.21-8.17
			C45.65,14.46,40,16.71,40,21.31z"/>
	</g>
	<g>
		<path class="st0" d="M55,56c-1.65,0-3-1.35-3-3v-6H28v6c0,1.65-1.35,3-3,3c-1.66,0-3,1.34-3,3c0,1.66,1.34,3,3,3
			c0.93,0,1.82-0.14,2.66-0.41c-0.83,1.03-0.9,2.55-0.06,3.68c0.59,0.79,1.49,1.2,2.4,1.2c0.63,0,1.26-0.19,1.8-0.59
			C35.1,63.4,37,59.8,37,56v10c0,0.83,0.34,1.58,0.88,2.12C38.42,68.66,39.17,69,40,69c1.66,0,3-1.34,3-3V56c0,3.8,1.9,7.4,5.2,9.88
			c0.54,0.4,1.17,0.59,1.8,0.59c0.91,0,1.81-0.41,2.4-1.2c0.84-1.13,0.77-2.65-0.06-3.68C53.18,61.86,54.07,62,55,62
			c1.66,0,3-1.34,3-3C58,57.34,56.66,56,55,56z"/>
	</g>
	<g>
		<path class="st1" d="M57.99,58.82C57.68,58.94,58.35,57,58,57c-1.56,0-1.72-0.3-3-1c-1.14-0.63-3.86-0.13-3.41-1.35
			c0.2-0.54,0.34-1.15,0.38-1.83C51.99,52.55,52,52.28,52,52v-4l-8.97,2.24C41.25,50.69,40,52.29,40,54.12v11.83
			c0,1.93,2.97,2.04,3,0.1c0-0.02,0-0.03,0-0.05v-8.56c0.04,0.02,0.07,0.04,0.1,0.06c0.43,3.24,2.23,6.23,5.1,8.38
			c0.54,0.4,1.17,0.59,1.8,0.59c0.91,0,1.81-0.41,2.4-1.2c0.07-0.1,0.14-0.2,0.19-0.3c-0.49-0.06,1.77-2.93,2.87-2.98
			c1.64-0.08,2.78-1.53,2.53-3.15L57.99,58.82z"/>
	</g>
	<g>
		<path class="st1" d="M27.41,64.97c0.05,0.1,0.12,0.2,0.19,0.3c0.59,0.79,1.49,1.2,2.4,1.2c0.63,0,1.26-0.19,1.8-0.59
			C35.1,63.4,37,59.8,37,56v-1l0,0c-1.08,0-1.99,0.74-2.27,1.78c-0.9,3.3-3.71,6.97-6.35,7.94C27.89,64.9,27.9,64.91,27.41,64.97z"
			/>
	</g>
	<g>
		<path class="st1" d="M25,61c0.93,0,1.82-0.14,2.66-0.41c0.16-0.19,0.34-0.37,0.54-0.52C30.01,58.72,31,56.92,31,55v-1
			c-1.49,2.9-2.42,5-5.9,5c-0.06,0-0.19-0.01-0.37-0.01c-1.28-0.07-1.47,1.88-0.19,2C24.69,60.99,24.84,61,25,61z"/>
	</g>
	<g>
		<g>
			<path class="st2" d="M30,27c-0.55,0-1-0.45-1-1c0-2.98,1.17-5.77,3.3-7.86c0.39-0.39,1.03-0.38,1.41,0.01
				c0.39,0.39,0.38,1.03-0.01,1.41C31.96,21.28,31,23.56,31,26C31,26.55,30.55,27,30,27z"/>
		</g>
	</g>
	<g>
		<circle class="st3" cx="40" cy="26" r="7"/>
		<path class="st4" d="M40,33.5c-4.14,0-7.5-3.36-7.5-7.5s3.36-7.5,7.5-7.5s7.5,3.36,7.5,7.5S44.14,33.5,40,33.5z M40,19.5
			c-3.58,0-6.5,2.92-6.5,6.5s2.92,6.5,6.5,6.5s6.5-2.92,6.5-6.5S43.58,19.5,40,19.5z"/>
	</g>
	<g>
		<path class="st5" d="M45.32,22.27c-0.45-0.64-1.44-0.22-1.36,0.56c0.2,1.88-0.42,3.83-1.86,5.27c-1.44,1.44-3.39,2.06-5.27,1.86
			c-0.78-0.08-1.2,0.91-0.56,1.36c1.31,0.92,2.98,1.38,4.75,1.11c2.75-0.42,4.99-2.65,5.41-5.41
			C46.69,25.24,46.24,23.58,45.32,22.27z"/>
	</g>
	<g>
		<g>
			<path class="st0" d="M43.88,33.5c-0.18,0-0.35-0.09-0.44-0.26c-0.13-0.24-0.05-0.55,0.2-0.68c1.5-0.83,2.68-2.16,3.32-3.75
				c0.1-0.26,0.39-0.38,0.65-0.28c0.26,0.1,0.38,0.4,0.28,0.65c-0.73,1.8-2.06,3.31-3.76,4.25C44.04,33.48,43.96,33.5,43.88,33.5z"
				/>
		</g>
	</g>
	<path class="st4" d="M50.11,12.63C50.38,13.42,51.12,14,52,14c1.1,0,2-0.9,2-2c0-1.1-0.9-2-2-2c-0.97,0-1.78,0.69-1.96,1.61
		c-1.64,0.36-2.94,1.62-3.37,3.24C44.67,13.65,42.39,13,40,13c-2.44,0-4.71,0.69-6.66,1.86c-0.43-1.62-1.73-2.89-3.37-3.25
		C29.78,10.69,28.97,10,28,10c-1.1,0-2,0.9-2,2c0,1.1,0.9,2,2,2c0.88,0,1.62-0.58,1.89-1.37c1.32,0.35,2.33,1.45,2.55,2.81
		C29.15,17.8,27,21.65,27,26v12c0,3.16,8.17,4,13,4s13-0.84,13-4V26c0-3.48-1.35-6.75-3.8-9.2c-0.51-0.51-1.06-0.96-1.64-1.37
		C47.78,14.07,48.79,12.98,50.11,12.63z M51,26l0.01,11.93C50.66,38.67,46.67,40,40,40c-6.6,0-10.57-1.3-11-2.05V26
		c0-6.07,4.93-11,11-11c2.94,0,5.71,1.14,7.78,3.22S51,23.06,51,26z"/>
	<path class="st4" d="M55,55c-1.1,0-2-0.9-2-2v-6c0-0.55-0.45-1-1-1s-1,0.45-1,1v6c0,2.21,1.79,4,4,4c1.1,0,2,0.9,2,2s-0.9,2-2,2
		c-0.74,0-1.45-0.11-2.13-0.31c-0.15-0.16-0.31-0.3-0.47-0.42C50.85,59.12,50,57.6,50,56v-1c0-0.55-0.45-1-1-1s-1,0.45-1,1v1
		c0,2.25,1.14,4.33,3.2,5.87c0.12,0.09,0.24,0.21,0.37,0.36c0.56,0.71,0.58,1.71,0.03,2.44c-0.64,0.86-1.96,1.03-2.8,0.41
		C45.75,62.79,44,59.48,44,56c0-0.55-0.45-1-1-1s-1,0.45-1,1v10c0,1.1-0.9,2-2,2c-0.53,0-1.03-0.21-1.41-0.59
		C38.21,67.03,38,66.53,38,66V56c0-0.55-0.45-1-1-1s-1,0.45-1,1c0,3.48-1.75,6.79-4.79,9.08c-0.85,0.63-2.16,0.45-2.8-0.4
		c-0.55-0.74-0.53-1.74,0.03-2.45c0.12-0.15,0.25-0.27,0.36-0.35C30.86,60.33,32,58.25,32,56v-1c0-0.55-0.45-1-1-1s-1,0.45-1,1v1
		c0,1.6-0.85,3.12-2.4,4.27c-0.16,0.12-0.32,0.26-0.47,0.42C26.45,60.89,25.74,61,25,61c-1.1,0-2-0.9-2-2s0.9-2,2-2
		c2.21,0,4-1.79,4-4v-6c0-0.55-0.45-1-1-1s-1,0.45-1,1v6c0,1.1-0.9,2-2,2c-2.21,0-4,1.79-4,4s1.79,4,4,4c0.35,0,0.69-0.02,1.03-0.05
		c-0.13,1.01,0.12,2.06,0.76,2.92c0.76,1.02,1.93,1.6,3.2,1.6c0.87,0,1.7-0.27,2.4-0.79c1.47-1.11,2.68-2.42,3.6-3.87V66
		c0,1.07,0.42,2.07,1.17,2.83C37.93,69.58,38.93,70,40,70c2.21,0,4-1.79,4-4v-3.19c0.92,1.45,2.13,2.77,3.6,3.88
		c0.69,0.51,1.52,0.79,2.4,0.79c1.27,0,2.44-0.58,3.2-1.6c0.64-0.86,0.89-1.91,0.76-2.92C54.31,62.98,54.65,63,55,63
		c2.21,0,4-1.79,4-4S57.21,55,55,55z"/>
	<g>
		<ellipse class="st72" cx="40" cy="47" rx="12" ry="3"/>
	</g>
	<g>
		<path class="st4" d="M40,51c-4.83,0-13-0.84-13-4s8.17-4,13-4s13,0.84,13,4S44.83,51,40,51z M29.03,47c0.56,0.75,4.5,2,10.97,2
			c6.47,0,10.41-1.25,10.97-2c-0.56-0.75-4.5-2-10.97-2C33.53,45,29.59,46.25,29.03,47z M51.01,47.07L51.01,47.07L51.01,47.07z"/>
	</g>
	<g>
		<ellipse class="st3" cx="40" cy="47" rx="3" ry="1"/>
	</g>
	<g>
		<path class="st4" d="M42,28.5c-0.13,0-0.26-0.05-0.35-0.15l-4-4c-0.2-0.2-0.2-0.51,0-0.71s0.51-0.2,0.71,0l4,4
			c0.2,0.2,0.2,0.51,0,0.71C42.26,28.45,42.13,28.5,42,28.5z"/>
	</g>
	<g>
		<path class="st4" d="M38,28.5c-0.13,0-0.26-0.05-0.35-0.15c-0.2-0.2-0.2-0.51,0-0.71l4-4c0.2-0.2,0.51-0.2,0.71,0s0.2,0.51,0,0.71
			l-4,4C38.26,28.45,38.13,28.5,38,28.5z"/>
	</g>
	<g>
		<path class="st4" d="M37,38.5c-0.15,0-0.29-0.06-0.39-0.19c-0.17-0.21-0.14-0.53,0.08-0.7c1.83-1.47,4.8-1.47,6.63,0
			c0.21,0.17,0.25,0.49,0.08,0.7c-0.17,0.22-0.49,0.25-0.7,0.08c-1.48-1.19-3.89-1.19-5.37,0C37.22,38.46,37.11,38.5,37,38.5z"/>
	</g>
	<g>
		<circle class="st0" cx="52" cy="12" r="1"/>
	</g>
	<g>
		<circle class="st0" cx="28" cy="12" r="1"/>
	</g>
</g>
</svg>
