<?xml version="1.0" encoding="utf-8"?>
<!-- Generator: Adobe Illustrator 23.0.4, SVG Export Plug-In . SVG Version: 6.00 Build 0)  -->
<svg version="1.1" id="Layer_1" xmlns="http://www.w3.org/2000/svg" xmlns:xlink="http://www.w3.org/1999/xlink" x="0px" y="0px"
	 viewBox="0 0 80 80" style="enable-background:new 0 0 80 80;" xml:space="preserve">
<style type="text/css">
	.st0{fill:#81C56D;}
	.st1{fill:#5BAA5E;}
	.st2{fill:#B6D997;}
	.st3{fill:#FFFFFF;}
	.st4{fill:#310F32;}
	.st5{fill:#C9D6E3;}
	.st6{fill:#FFC626;}
	.st7{fill:#F99E1D;}
	.st8{fill:#F58127;}
	.st9{fill:#301330;}
	.st10{fill:#EA5535;}
	.st11{fill:#EF4F24;}
	.st12{fill:#F16333;}
	.st13{fill:#DF3426;}
	.st14{fill:#F6946C;}
	.st15{fill:#D6E1EC;}
	.st16{opacity:0.8;}
	.st17{fill:#B9CCDC;}
	.st18{fill:#310E31;}
	.st19{fill:#EA5435;}
	.st20{fill:#FEDD3F;}
	.st21{fill:#EAC01E;}
	.st22{fill:#7FC042;}
	.st23{fill:#65A944;}
	.st24{fill:#0CBEF0;}
	.st25{fill:#6F7BBC;}
	.st26{fill:#0097D5;}
	.st27{fill:#FDB515;}
	.st28{fill:#5365AF;}
	.st29{fill:#1F90CF;}
	.st30{fill:#F99F1B;}
	.st31{opacity:0.7;}
	.st32{fill:#FFF5CA;}
	.st33{opacity:0.6;}
	.st34{fill:#FBDAE8;}
	.st35{fill:#D5E4EF;}
	.st36{opacity:0.4;}
	.st37{fill:#B1DEF5;}
	.st38{opacity:0.5;}
	.st39{fill:#FCE6A0;}
	.st40{fill:#FDF4D2;}
	.st41{fill:#FDD457;}
	.st42{fill:#FFDA85;}
	.st43{fill:#F36F34;}
	.st44{fill:#FFFFFF;stroke:#310F32;stroke-linecap:round;stroke-linejoin:round;stroke-miterlimit:10;}
	.st45{fill:none;stroke:#310F32;stroke-linecap:round;stroke-linejoin:round;stroke-miterlimit:10;}
	.st46{fill:#EE3B24;}
	.st47{fill:#301431;}
	.st48{fill:#71AC43;}
	.st49{fill:#C1DC83;}
	.st50{opacity:0.2;}
	.st51{opacity:0.1;}
	.st52{opacity:0.15;}
	.st53{fill:#5EC1EE;}
	.st54{fill:#239FCB;}
	.st55{fill:#92D1F1;}
	.st56{fill:#B2DCF5;}
	.st57{fill:#FFDF98;}
	.st58{fill:#406DB5;}
	.st59{fill:#FCDE60;}
	.st60{fill:#DEF1FB;}
	.st61{fill:#82CBF0;}
	.st62{fill:#6681C0;}
	.st63{fill:#FBEBAA;}
	.st64{fill:#8799CE;}
	.st65{fill:#98A7D5;}
	.st66{fill:#ACD6F2;}
	.st67{fill:#CCE4F7;}
	.st68{fill:#8BC9EE;}
	.st69{fill:#ADBBC3;}
	.st70{fill:#7E8C9B;}
	.st71{fill:#3B8E4F;}
	.st72{fill:#F05E75;}
	.st73{fill:#FCE5D3;}
	.st74{fill:#F8C4A0;}
</style>
<g>
	<g>
		<g>
			<path class="st0" d="M58,55.5c0,1.66-1.34,3-3,3c-0.93,0-1.82-0.14-2.66-0.41c0.83,1.03,0.9,2.55,0.06,3.68
				c-0.59,0.79-1.49,1.2-2.4,1.2c-0.63,0-1.26-0.19-1.8-0.59C44.9,59.9,43,56.3,43,52.5v10c0,1.66-1.34,3-3,3
				c-0.83,0-1.58-0.34-2.12-0.88C37.34,64.08,37,63.33,37,62.5v-10c0,3.8-1.9,7.4-5.2,9.88c-0.54,0.4-1.17,0.59-1.8,0.59
				c-0.91,0-1.81-0.41-2.4-1.2c-0.84-1.13-0.77-2.65,0.06-3.68c-0.84,0.27-1.73,0.41-2.66,0.41c-1.66,0-3-1.34-3-3
				c0-1.66,1.34-3,3-3c1.65,0,3-1.35,3-3v-20c0-6.63,5.37-12,12-12c3.32,0,6.32,1.34,8.49,3.51C50.66,23.18,52,26.18,52,29.5v20
				c0,1.65,1.35,3,3,3C56.66,52.5,58,53.84,58,55.5z"/>
		</g>
		<g>
			<path class="st1" d="M27.41,61.47c0.05,0.1,0.12,0.2,0.19,0.3c0.59,0.79,1.49,1.2,2.4,1.2c0.63,0,1.26-0.19,1.8-0.59
				C35.1,59.9,37,56.3,37,52.5v-1h0c-1.08,0-1.99,0.74-2.27,1.78c-0.9,3.3-3.71,6.97-6.35,7.94C27.88,61.4,27.9,61.41,27.41,61.47z"
				/>
		</g>
		<g>
			<path class="st1" d="M25,57.5c0.93,0,1.82-0.14,2.66-0.41c0.16-0.19,0.34-0.37,0.54-0.52c1.81-1.35,2.8-3.15,2.8-5.07v-1
				c-1.49,2.9-2.42,5-5.9,5c-0.06,0-0.19-0.01-0.37-0.01c-1.28-0.07-1.47,1.88-0.19,2C24.69,57.49,24.84,57.5,25,57.5z"/>
		</g>
	</g>
	<g>
		<g>
			<g>
				<path class="st2" d="M30,30.5c-0.55,0-1-0.45-1-1c0-2.98,1.17-5.77,3.3-7.86c0.39-0.39,1.03-0.38,1.41,0.01
					c0.39,0.39,0.38,1.03-0.01,1.41c-1.74,1.71-2.7,3.99-2.7,6.43C31,30.05,30.55,30.5,30,30.5z"/>
			</g>
		</g>
		<path class="st1" d="M57.99,55.35l0-0.03C57.68,55.44,58,52.5,55,52.5c-0.58,0-3.07-2.51-3.03-3.18C51.99,49.05,52,48.78,52,48.5
			v-19c0-3.16-1.22-6.03-3.21-8.17C45.65,17.96,40,20.21,40,24.81v9.69h3c-1.66,0-3,1.34-3,3v10v1.22v13.73c0,1.93,2.97,2.04,3,0.1
			c0-0.02,0-0.03,0-0.05v-8.56c0.04,0.02,0.07,0.04,0.1,0.06c0.43,3.24,2.23,6.23,5.1,8.38c0.54,0.4,1.17,0.59,1.8,0.59
			c0.91,0,1.81-0.41,2.4-1.2c0.07-0.1,0.44-3.46,0.6-3.27c0.96,0.31,1.35,0.05,2.4-0.01C57.03,58.4,58.24,56.96,57.99,55.35z"/>
	</g>
	<g>
		<path class="st72" d="M42,41.5v2c0,1.1-0.9,2-2,2h0c-1.1,0-2-0.9-2-2v-2l2-1L42,41.5z"/>
	</g>
	<g>
		<path class="st3" d="M40,34c2.8,0,5.27,0.81,6.7,2.04C46.89,35.4,47,34.71,47,34c0-3.87-3.13-7-7-7s-7,3.13-7,7
			c0,0.71,0.11,1.4,0.3,2.04C34.73,34.81,37.2,34,40,34z"/>
	</g>
	<g>
		<path class="st4" d="M40,34c0.87,0,1.7,0.08,2.48,0.22c0.01-0.07,0.02-0.15,0.02-0.22c0-1.38-1.12-2.5-2.5-2.5s-2.5,1.12-2.5,2.5
			c0,0.08,0.02,0.15,0.02,0.22C38.3,34.08,39.13,34,40,34z"/>
	</g>
	<g>
		<path class="st4" d="M46.7,36.54c-0.12,0-0.23-0.04-0.33-0.12c-1.4-1.2-3.78-1.92-6.37-1.92s-4.97,0.72-6.37,1.92
			c-0.13,0.11-0.31,0.14-0.46,0.1c-0.16-0.05-0.29-0.17-0.34-0.33c-0.22-0.71-0.33-1.45-0.33-2.19c0-4.14,3.36-7.5,7.5-7.5
			s7.5,3.36,7.5,7.5c0,0.74-0.11,1.48-0.33,2.19c-0.05,0.16-0.18,0.29-0.34,0.33C46.79,36.54,46.74,36.54,46.7,36.54z M40,33.5
			c2.47,0,4.79,0.62,6.39,1.69c0.07-0.39,0.11-0.79,0.11-1.19c0-3.58-2.92-6.5-6.5-6.5s-6.5,2.92-6.5,6.5c0,0.4,0.04,0.79,0.11,1.19
			C35.21,34.12,37.53,33.5,40,33.5z"/>
	</g>
	<path class="st4" d="M44.5,39.5c0-0.28-0.22-0.5-0.5-0.5s-0.5,0.22-0.5,0.5c0,0.83-0.67,1.5-1.5,1.5s-1.5-0.67-1.5-1.5
		c0-0.28-0.22-0.5-0.5-0.5s-0.5,0.22-0.5,0.5c0,0.83-0.67,1.5-1.5,1.5s-1.5-0.67-1.5-1.5c0-0.28-0.22-0.5-0.5-0.5s-0.5,0.22-0.5,0.5
		c0,1.21,0.86,2.22,2,2.45v1.55c0,1.38,1.12,2.5,2.5,2.5s2.5-1.12,2.5-2.5v-1.55C43.64,41.72,44.5,40.71,44.5,39.5z M40,45
		c-0.83,0-1.5-0.67-1.5-1.5v-1.55c0.61-0.12,1.14-0.48,1.5-0.96c0.36,0.48,0.89,0.84,1.5,0.96v1.55C41.5,44.33,40.83,45,40,45z"/>
	<path class="st4" d="M55,51.5c-1.1,0-2-0.9-2-2v-20c0-3.48-1.35-6.75-3.8-9.2c-0.51-0.51-1.06-0.96-1.64-1.37
		c0.23-1.36,1.24-2.45,2.55-2.8c0.26,0.79,1.01,1.37,1.89,1.37c1.1,0,2-0.9,2-2c0-1.1-0.9-2-2-2c-0.97,0-1.78,0.69-1.96,1.61
		c-1.64,0.36-2.94,1.62-3.37,3.24c-1.99-1.19-4.28-1.85-6.67-1.85c-2.44,0-4.71,0.69-6.66,1.86c-0.43-1.62-1.73-2.89-3.37-3.25
		c-0.18-0.92-0.99-1.61-1.96-1.61c-1.1,0-2,0.9-2,2c0,1.1,0.9,2,2,2c0.88,0,1.62-0.58,1.89-1.37c1.32,0.35,2.33,1.45,2.55,2.81
		C29.15,21.3,27,25.15,27,29.5v20c0,1.1-0.9,2-2,2c-2.21,0-4,1.79-4,4s1.79,4,4,4c0.35,0,0.69-0.02,1.03-0.05
		c-0.13,1.01,0.12,2.06,0.76,2.92c0.76,1.02,1.93,1.6,3.2,1.6c0.87,0,1.7-0.27,2.4-0.79c1.47-1.11,2.68-2.42,3.6-3.87v3.19
		c0,1.07,0.42,2.07,1.17,2.83c0.76,0.76,1.76,1.17,2.83,1.17c2.21,0,4-1.79,4-4v-3.19c0.92,1.45,2.13,2.77,3.6,3.88
		c0.69,0.51,1.52,0.79,2.4,0.79c1.27,0,2.44-0.58,3.2-1.6c0.64-0.86,0.89-1.91,0.76-2.92c0.34,0.04,0.69,0.05,1.03,0.05
		c2.21,0,4-1.79,4-4S57.21,51.5,55,51.5z M55,57.5c-0.74,0-1.45-0.11-2.14-0.31c-0.15-0.16-0.31-0.3-0.47-0.42
		C50.85,55.62,50,54.1,50,52.5v-1c0-0.55-0.45-1-1-1s-1,0.45-1,1v1c0,2.25,1.14,4.33,3.2,5.87c0.12,0.09,0.24,0.21,0.36,0.35
		c0.56,0.71,0.58,1.71,0.03,2.44c-0.64,0.86-1.96,1.03-2.8,0.41c-3.05-2.29-4.8-5.6-4.8-9.08c0-0.55-0.45-1-1-1s-1,0.45-1,1v10
		c0,1.1-0.9,2-2,2c-0.53,0-1.03-0.21-1.41-0.59S38,63.03,38,62.5v-10c0-0.55-0.45-1-1-1s-1,0.45-1,1c0,3.48-1.75,6.79-4.8,9.08
		c-0.85,0.63-2.16,0.45-2.8-0.4c-0.55-0.74-0.53-1.74,0.03-2.45c0.12-0.15,0.25-0.27,0.36-0.35c2.07-1.54,3.2-3.63,3.2-5.87v-1
		c0-0.55-0.45-1-1-1s-1,0.45-1,1v1c0,1.6-0.85,3.12-2.4,4.27c-0.16,0.12-0.32,0.26-0.47,0.42c-0.68,0.2-1.4,0.31-2.14,0.31
		c-1.1,0-2-0.9-2-2s0.9-2,2-2c2.21,0,4-1.79,4-4v-20c0-6.07,4.93-11,11-11c2.94,0,5.71,1.14,7.78,3.22S51,26.56,51,29.5v20
		c0,2.21,1.79,4,4,4c1.1,0,2,0.9,2,2S56.1,57.5,55,57.5z"/>
	<g>
		<circle class="st0" cx="52" cy="15.5" r="1"/>
	</g>
	<g>
		<circle class="st0" cx="28" cy="15.5" r="1"/>
	</g>
</g>
</svg>
