<?xml version="1.0" encoding="utf-8"?>
<!-- Generator: Adobe Illustrator 23.0.4, SVG Export Plug-In . SVG Version: 6.00 Build 0)  -->
<svg version="1.1" id="Layer_1" xmlns="http://www.w3.org/2000/svg" xmlns:xlink="http://www.w3.org/1999/xlink" x="0px" y="0px"
	 viewBox="0 0 80 80" style="enable-background:new 0 0 80 80;" xml:space="preserve">
<style type="text/css">
	.st0{fill:#80C46D;}
	.st1{fill:#5BA95D;}
	.st2{fill:#B4D895;}
	.st3{fill:#310E31;}
	.st4{fill:#FFFFFF;}
	.st5{fill:#E95434;}
</style>
<g>
	<g>
		<g>
			<path class="st0" d="M57.97,55.5c0,1.66-1.34,3-3,3c-0.93,0-1.82-0.14-2.66-0.41c0.83,1.03,0.9,2.55,0.06,3.68
				c-0.59,0.79-1.49,1.2-2.4,1.2c-0.63,0-1.26-0.19-1.8-0.59c-3.3-2.48-5.2-6.08-5.2-9.88v10c0,1.66-1.34,3-3,3
				c-0.83,0-1.58-0.34-2.12-0.88c-0.54-0.54-0.88-1.29-0.88-2.12v-10c0,3.8-1.9,7.4-5.2,9.88c-0.54,0.4-1.17,0.59-1.8,0.59
				c-0.91,0-1.81-0.41-2.4-1.2c-0.84-1.13-0.77-2.65,0.06-3.68c-0.84,0.27-1.73,0.41-2.66,0.41c-1.66,0-3-1.34-3-3
				c0-1.66,1.34-3,3-3c1.65,0,3-1.35,3-3v-20c0-6.63,5.37-12,12-12c3.32,0,6.32,1.34,8.49,3.51c2.17,2.17,3.51,5.17,3.51,8.49v20
				c0,1.65,1.35,3,3,3C56.63,52.5,57.97,53.84,57.97,55.5z"/>
		</g>
		<g>
			<path class="st1" d="M27.38,61.47c0.05,0.1,0.12,0.2,0.19,0.3c0.59,0.79,1.49,1.2,2.4,1.2c0.63,0,1.26-0.19,1.8-0.59
				c3.3-2.48,5.2-6.08,5.2-9.88v-1h0c-1.08,0-1.99,0.74-2.27,1.78c-0.9,3.3-3.71,6.97-6.35,7.94C27.86,61.4,27.87,61.41,27.38,61.47
				z"/>
		</g>
		<g>
			<path class="st1" d="M24.97,57.5c0.93,0,1.82-0.14,2.66-0.41c0.16-0.19,0.34-0.37,0.54-0.52c1.81-1.35,2.8-3.15,2.8-5.07v-1
				c-1.49,2.9-2.42,5-5.9,5c-0.06,0-0.19-0.01-0.37-0.01c-1.28-0.07-1.47,1.88-0.19,2C24.66,57.49,24.81,57.5,24.97,57.5z"/>
		</g>
	</g>
	<g>
		<g>
			<g>
				<path class="st2" d="M29.97,30.5c-0.55,0-1-0.45-1-1c0-2.98,1.17-5.77,3.3-7.86c0.39-0.39,1.03-0.38,1.41,0.01
					c0.39,0.39,0.38,1.03-0.01,1.41c-1.74,1.71-2.7,3.99-2.7,6.43C30.97,30.05,30.53,30.5,29.97,30.5z"/>
			</g>
		</g>
		<path class="st1" d="M57.97,55.35l0-0.03c-0.31,0.12,0.01-2.82-2.99-2.82c-0.58,0-3.07-2.51-3.03-3.18
			c0.02-0.27,0.03-0.55,0.03-0.82v-19c0-3.16-1.22-6.03-3.21-8.17c-3.14-3.37-8.79-1.12-8.79,3.48l0,22.69l0,0v14.95
			c0,1.93,2.97,2.04,3,0.1c0-0.02,0-0.03,0-0.05v-8.56c0.04,0.02,0.07,0.04,0.1,0.06c0.43,3.24,2.23,6.23,5.1,8.38
			c0.54,0.4,1.17,0.59,1.8,0.59c0.91,0,1.81-0.41,2.4-1.2c0.07-0.1,0.44-3.46,0.6-3.27c0.96,0.31,1.35,0.05,2.4-0.01
			C57,58.4,58.22,56.96,57.97,55.35z"/>
	</g>
	<path class="st3" d="M54.97,51.5c-1.1,0-2-0.9-2-2v-20c0-3.48-1.35-6.75-3.8-9.2c-0.51-0.51-1.06-0.96-1.64-1.37
		c0.23-1.36,1.24-2.45,2.55-2.8c0.26,0.79,1.01,1.37,1.89,1.37c1.1,0,2-0.9,2-2c0-1.1-0.9-2-2-2c-0.97,0-1.78,0.69-1.96,1.61
		c-1.64,0.36-2.94,1.62-3.37,3.24c-1.99-1.19-4.28-1.85-6.67-1.85c-2.44,0-4.71,0.69-6.66,1.86c-0.43-1.62-1.73-2.89-3.37-3.25
		c-0.18-0.92-0.99-1.61-1.96-1.61c-1.1,0-2,0.9-2,2c0,1.1,0.9,2,2,2c0.88,0,1.62-0.58,1.89-1.37c1.32,0.35,2.33,1.45,2.55,2.81
		c-3.29,2.36-5.44,6.21-5.44,10.56v20c0,1.1-0.9,2-2,2c-2.21,0-4,1.79-4,4s1.79,4,4,4c0.35,0,0.69-0.02,1.03-0.05
		c-0.13,1.01,0.12,2.06,0.76,2.92c0.76,1.02,1.93,1.6,3.2,1.6c0.87,0,1.7-0.27,2.4-0.79c1.47-1.11,2.68-2.42,3.6-3.87v3.19
		c0,1.07,0.42,2.07,1.17,2.83s1.76,1.17,2.83,1.17c2.21,0,4-1.79,4-4v-3.19c0.92,1.45,2.13,2.77,3.6,3.88
		c0.69,0.51,1.52,0.79,2.4,0.79c1.27,0,2.44-0.58,3.2-1.6c0.64-0.86,0.89-1.91,0.76-2.92c0.34,0.04,0.69,0.05,1.03,0.05
		c2.21,0,4-1.79,4-4S57.18,51.5,54.97,51.5z M54.97,57.5c-0.74,0-1.45-0.11-2.13-0.31c-0.15-0.16-0.31-0.3-0.47-0.42
		c-1.55-1.15-2.4-2.67-2.4-4.27v-1c0-0.55-0.45-1-1-1s-1,0.45-1,1v1c0,2.25,1.14,4.33,3.2,5.87c0.12,0.09,0.24,0.21,0.37,0.36
		c0.56,0.71,0.58,1.71,0.03,2.44c-0.64,0.86-1.96,1.03-2.8,0.41c-3.05-2.29-4.8-5.6-4.8-9.08c0-0.55-0.45-1-1-1s-1,0.45-1,1v10
		c0,1.1-0.9,2-2,2c-0.53,0-1.03-0.21-1.41-0.59c-0.38-0.38-0.59-0.88-0.59-1.41v-10c0-0.55-0.45-1-1-1s-1,0.45-1,1
		c0,3.48-1.75,6.79-4.8,9.08c-0.85,0.63-2.16,0.45-2.8-0.4c-0.55-0.74-0.53-1.74,0.03-2.45c0.12-0.15,0.25-0.27,0.36-0.35
		c2.06-1.54,3.2-3.63,3.2-5.87v-1c0-0.55-0.45-1-1-1s-1,0.45-1,1v1c0,1.6-0.85,3.12-2.4,4.27c-0.16,0.12-0.32,0.26-0.47,0.42
		c-0.68,0.2-1.4,0.31-2.13,0.31c-1.1,0-2-0.9-2-2s0.9-2,2-2c2.21,0,4-1.79,4-4v-20c0-6.07,4.93-11,11-11c2.94,0,5.71,1.14,7.78,3.22
		c2.07,2.07,3.22,4.84,3.22,7.78v20c0,2.21,1.79,4,4,4c1.1,0,2,0.9,2,2S56.08,57.5,54.97,57.5z"/>
	<g>
		<path class="st3" d="M46,32c-0.11,0-0.22-0.04-0.31-0.11c-3.14-2.52-8.24-2.52-11.37,0c-0.22,0.17-0.53,0.14-0.7-0.08
			s-0.14-0.53,0.08-0.7c3.48-2.8,9.15-2.8,12.63,0c0.22,0.17,0.25,0.49,0.08,0.7C46.29,31.94,46.15,32,46,32z"/>
	</g>
	<g>
		<path class="st3" d="M59.19,31.51c-0.99-1.16-3.21-1.62-4.88-0.63c-0.09,0.06-0.22,0.03-0.28-0.07c-0.05-0.08-0.03-0.18,0.03-0.24
			c0.75-0.78,1.82-1.26,2.95-1.39c1.13-0.13,2.36,0.06,3.46,0.76l0.07,0.04c0.48,0.31,0.62,0.94,0.31,1.42
			c-0.31,0.48-0.94,0.62-1.42,0.31C59.33,31.65,59.25,31.58,59.19,31.51z"/>
	</g>
	<g>
		<path class="st3" d="M20.81,31.31c0.99-1.16,3.21-1.62,4.88-0.63c0.09,0.06,0.22,0.03,0.28-0.07c0.05-0.08,0.03-0.18-0.03-0.24
			c-0.75-0.78-1.82-1.26-2.95-1.39c-1.13-0.13-2.36,0.06-3.46,0.76l-0.07,0.04c-0.48,0.31-0.62,0.94-0.31,1.42s0.94,0.62,1.42,0.31
			C20.67,31.46,20.75,31.39,20.81,31.31z"/>
	</g>
	<g>
		<path class="st3" d="M22.76,27.72c0.82-0.47,2.21-0.28,2.98,0.65c0.04,0.05,0.12,0.06,0.17,0.02c0.04-0.04,0.06-0.1,0.04-0.15
			c-0.27-0.61-0.8-1.11-1.43-1.43c-0.63-0.31-1.39-0.46-2.17-0.28l-0.05,0.01c-0.34,0.08-0.56,0.42-0.48,0.76
			c0.08,0.34,0.42,0.56,0.76,0.48C22.64,27.77,22.7,27.75,22.76,27.72z"/>
	</g>
	<g>
		<path class="st3" d="M56.84,27.76c-0.73-0.42-1.96-0.24-2.64,0.58c-0.04,0.05-0.11,0.06-0.15,0.02c-0.04-0.03-0.05-0.09-0.03-0.13
			c0.24-0.54,0.71-0.99,1.27-1.27c0.56-0.28,1.23-0.41,1.93-0.25l0.04,0.01c0.3,0.07,0.5,0.37,0.43,0.68
			c-0.07,0.3-0.37,0.5-0.68,0.43C56.94,27.81,56.89,27.79,56.84,27.76z"/>
	</g>
	<g>
		<path class="st3" d="M55.97,33.95c-0.03-0.84-0.82-1.8-1.88-1.95c-0.06-0.01-0.1-0.06-0.1-0.12c0.01-0.05,0.05-0.09,0.1-0.1
			c0.59-0.08,1.21,0.08,1.74,0.41c0.53,0.33,0.99,0.84,1.22,1.51l0.01,0.04c0.1,0.3-0.06,0.62-0.35,0.72s-0.62-0.06-0.72-0.35
			C55.99,34.06,55.98,34.01,55.97,33.95z"/>
	</g>
	<g>
		<path class="st3" d="M24.03,33.95c0.03-0.84,0.82-1.8,1.88-1.95c0.06-0.01,0.1-0.06,0.1-0.12c-0.01-0.05-0.05-0.09-0.1-0.1
			c-0.59-0.08-1.21,0.08-1.74,0.41c-0.53,0.33-0.99,0.84-1.22,1.51l-0.01,0.04c-0.1,0.3,0.06,0.62,0.35,0.72
			c0.3,0.1,0.62-0.06,0.72-0.35C24.01,34.06,24.02,34.01,24.03,33.95z"/>
	</g>
	<g>
		<path class="st3" d="M46,38H34c-1.38,0-2.5,1.12-2.5,2.5c0,3.46,3.97,6.5,8.5,6.5s8.5-3.04,8.5-6.5C48.5,39.12,47.38,38,46,38z"/>
		<path class="st4" d="M34,39l0.72,1.45c0.17,0.34,0.52,0.55,0.89,0.55h8.76c0.38,0,0.73-0.21,0.89-0.55L46,39H34z"/>
		<path class="st5" d="M40,43.5c-1.42,0-2.65,0.74-3.36,1.86c1,0.4,2.13,0.64,3.36,0.64s2.36-0.24,3.36-0.64
			C42.65,44.24,41.42,43.5,40,43.5z"/>
	</g>
	<g>
		<circle class="st0" cx="51.97" cy="15.5" r="1"/>
	</g>
	<g>
		<circle class="st0" cx="27.97" cy="15.5" r="1"/>
	</g>
</g>
</svg>
