<?xml version="1.0" encoding="utf-8"?>
<!-- Generator: Adobe Illustrator 23.0.4, SVG Export Plug-In . SVG Version: 6.00 Build 0)  -->
<svg version="1.1" id="Layer_1" xmlns="http://www.w3.org/2000/svg" xmlns:xlink="http://www.w3.org/1999/xlink" x="0px" y="0px"
	 viewBox="0 0 80 80" style="enable-background:new 0 0 80 80;" xml:space="preserve">
<style type="text/css">
	.st0{fill:#81C56D;}
	.st1{fill:#5BAA5E;}
	.st2{fill:#B6D997;}
	.st3{fill:#FFFFFF;}
	.st4{fill:#310F32;}
	.st5{fill:#C9D6E3;}
	.st6{fill:#FFC626;}
	.st7{fill:#F99E1D;}
	.st8{fill:#F58127;}
	.st9{fill:#301330;}
	.st10{fill:#EA5535;}
	.st11{fill:#EF4F24;}
	.st12{fill:#F16333;}
	.st13{fill:#DF3426;}
	.st14{fill:#F6946C;}
	.st15{fill:#D6E1EC;}
	.st16{opacity:0.8;}
	.st17{fill:#B9CCDC;}
	.st18{fill:#310E31;}
	.st19{fill:#EA5435;}
	.st20{fill:#FEDD3F;}
	.st21{fill:#EAC01E;}
	.st22{fill:#7FC042;}
	.st23{fill:#65A944;}
	.st24{fill:#0CBEF0;}
	.st25{fill:#6F7BBC;}
	.st26{fill:#0097D5;}
	.st27{fill:#FDB515;}
	.st28{fill:#5365AF;}
	.st29{fill:#1F90CF;}
	.st30{fill:#F99F1B;}
	.st31{opacity:0.7;}
	.st32{fill:#FFF5CA;}
	.st33{opacity:0.6;}
	.st34{fill:#FBDAE8;}
	.st35{fill:#D5E4EF;}
	.st36{opacity:0.4;}
	.st37{fill:#B1DEF5;}
	.st38{opacity:0.5;}
	.st39{fill:#FCE6A0;}
	.st40{fill:#FDF4D2;}
	.st41{fill:#FDD457;}
	.st42{fill:#FFDA85;}
	.st43{fill:#F36F34;}
	.st44{fill:#FFFFFF;stroke:#310F32;stroke-linecap:round;stroke-linejoin:round;stroke-miterlimit:10;}
	.st45{fill:none;stroke:#310F32;stroke-linecap:round;stroke-linejoin:round;stroke-miterlimit:10;}
	.st46{fill:#EE3B24;}
	.st47{fill:#301431;}
	.st48{fill:#71AC43;}
	.st49{fill:#C1DC83;}
	.st50{opacity:0.2;}
	.st51{opacity:0.1;}
	.st52{opacity:0.15;}
	.st53{fill:#5EC1EE;}
	.st54{fill:#239FCB;}
	.st55{fill:#92D1F1;}
	.st56{fill:#B2DCF5;}
	.st57{fill:#FFDF98;}
	.st58{fill:#406DB5;}
	.st59{fill:#FCDE60;}
	.st60{fill:#DEF1FB;}
	.st61{fill:#82CBF0;}
	.st62{fill:#6681C0;}
	.st63{fill:#FBEBAA;}
	.st64{fill:#8799CE;}
	.st65{fill:#98A7D5;}
	.st66{fill:#ACD6F2;}
	.st67{fill:#CCE4F7;}
	.st68{fill:#8BC9EE;}
	.st69{fill:#ADBBC3;}
	.st70{fill:#7E8C9B;}
	.st71{fill:#3B8E4F;}
	.st72{fill:#F05E75;}
	.st73{fill:#FCE5D3;}
	.st74{fill:#F8C4A0;}
</style>
<g>
	<g>
		<path class="st13" d="M33.53,24.75c-2.76-2.76-2.76-7.24,0-10c0,2.21,1.79,4,4,4"/>
	</g>
	<g>
		<g>
			<path class="st12" d="M62.53,54.75c0,1.66-1.34,3-3,3c-0.93,0-1.82-0.14-2.66-0.41c0.83,1.03,0.9,2.55,0.06,3.68
				c-0.59,0.79-1.49,1.2-2.4,1.2c-0.63,0-1.26-0.19-1.8-0.59c-3.3-2.48-5.2-6.08-5.2-9.88v10c0,1.66-1.34,3-3,3
				c-0.83,0-1.58-0.34-2.12-0.88c-0.54-0.54-0.88-1.29-0.88-2.12v-10c0,3.8-1.9,7.4-5.2,9.88c-0.54,0.4-1.17,0.59-1.8,0.59
				c-0.91,0-1.81-0.41-2.4-1.2c-0.84-1.13-0.77-2.65,0.06-3.68c-0.84,0.27-1.73,0.41-2.66,0.41c-1.66,0-3-1.34-3-3
				c0-1.66,1.34-3,3-3c1.65,0,3-1.35,3-3v-20c0-6.63,5.37-12,12-12c3.32,0,6.32,1.34,8.49,3.51c2.17,2.17,3.51,5.17,3.51,8.49v20
				c0,1.65,1.35,3,3,3C61.19,51.75,62.53,53.09,62.53,54.75z"/>
		</g>
		<g>
			<path class="st13" d="M31.94,60.72c0.05,0.1,0.12,0.2,0.19,0.3c0.59,0.79,1.49,1.2,2.4,1.2c0.63,0,1.26-0.19,1.8-0.59
				c3.3-2.48,5.2-6.08,5.2-9.88v-1h0c-1.08,0-1.99,0.74-2.27,1.78c-0.9,3.3-3.71,6.97-6.35,7.94
				C32.42,60.65,32.43,60.66,31.94,60.72z"/>
		</g>
		<g>
			<path class="st13" d="M29.53,56.75c0.93,0,1.82-0.14,2.66-0.41c0.16-0.19,0.34-0.37,0.54-0.52c1.81-1.35,2.8-3.15,2.8-5.07v-1
				c-1.49,2.9-2.42,5-5.9,5c-0.06,0-0.19-0.01-0.37-0.01c-1.28-0.07-1.47,1.88-0.19,2C29.22,56.74,29.37,56.75,29.53,56.75z"/>
		</g>
	</g>
	<g>
		<path class="st13" d="M62.52,54.58c0,0,0-0.01,0-0.01c-0.31,0.12-0.71-2.12-1.99-2.82c-1.14-0.63-4.07-2.51-4.03-3.18
			c0.02-0.27,0.03-12.55,0.03-12.82l-0.19,0.07c0.12-0.67,0.19-1.36,0.19-2.07v-5c0-3.16-1.22-6.03-3.21-8.17
			c-3.14-3.37-8.79-1.12-8.79,3.48c0,1.86,1.82,3.22,3.59,2.64c0.08-0.03,0.16-0.05,0.24-0.08c0.26-0.09,0.55,0.04,0.64,0.3
			c0.09,0.26-0.04,0.55-0.3,0.64c-0.01,0-0.03,0.01-0.04,0.01c-2.43,0.87-4.13,3.07-4.13,5.66v3.03c-1.72,0-3.35-0.57-4.69-1.65
			c-0.21-0.17-0.53-0.14-0.7,0.08c-0.17,0.22-0.14,0.53,0.08,0.7c0.84,0.67,1.8,1.18,2.82,1.49c1.48,0.45,2.49,1.81,2.49,3.35v5.52
			v1v1.22V61.7c0,1.93,2.97,2.04,3,0.1c0-0.02,0-0.03,0-0.05v-8.56c0.04,0.02,0.07,0.04,0.1,0.06c0.43,3.24,2.23,6.23,5.1,8.38
			c0.54,0.4,1.17,0.59,1.8,0.59c0.91,0,1.81-0.41,2.4-1.2c0.07-0.1,0.14-0.2,0.19-0.3c-0.49-0.06,0.83-1.65,0.41-1.97
			c-1.23-0.92,1.19-0.98,2.19-1C61.39,57.71,62.76,56.23,62.52,54.58z"/>
		<g>
			<g>
				<path class="st12" d="M48.41,36.25c-0.18,0-0.35-0.09-0.44-0.26c-0.13-0.24-0.05-0.55,0.2-0.68c1.5-0.83,2.68-2.16,3.32-3.75
					c0.1-0.26,0.39-0.38,0.65-0.28c0.26,0.1,0.38,0.4,0.28,0.65c-0.73,1.8-2.06,3.31-3.76,4.25C48.57,36.23,48.49,36.25,48.41,36.25
					z"/>
			</g>
		</g>
		<g>
			<path class="st3" d="M44.53,28.75c-2.8,0-5.27-0.81-6.7-2.04c-0.2,0.65-0.3,1.33-0.3,2.04c0,3.87,3.13,7,7,7s7-3.13,7-7
				c0-0.71-0.11-1.4-0.3-2.04C49.8,27.94,47.34,28.75,44.53,28.75z"/>
		</g>
		<g>
			<path class="st4" d="M44.53,28.75c-0.87,0-1.7-0.08-2.48-0.22c-0.01,0.07-0.02,0.15-0.02,0.22c0,1.38,1.12,2.5,2.5,2.5
				s2.5-1.12,2.5-2.5c0-0.08-0.02-0.15-0.02-0.22C46.23,28.67,45.4,28.75,44.53,28.75z"/>
		</g>
		<g>
			<path class="st5" d="M48.21,28.24c-0.3,0.95-0.83,1.85-1.58,2.6c-1.44,1.44-3.39,2.06-5.27,1.86c-0.78-0.08-1.2,0.91-0.56,1.36
				c1.31,0.92,2.98,1.38,4.75,1.11c2.75-0.42,4.99-2.65,5.41-5.41c0.15-0.95,0.08-1.87-0.16-2.72
				C50.1,27.54,49.22,27.95,48.21,28.24z"/>
		</g>
		<g>
			<path class="st4" d="M44.53,36.25c-4.14,0-7.5-3.36-7.5-7.5c0-0.74,0.11-1.48,0.33-2.19c0.05-0.16,0.18-0.29,0.34-0.33
				c0.16-0.05,0.34-0.01,0.46,0.1c1.4,1.2,3.78,1.92,6.37,1.92c2.59,0,4.97-0.72,6.37-1.92c0.13-0.11,0.3-0.15,0.46-0.1
				c0.16,0.05,0.29,0.17,0.34,0.33c0.22,0.71,0.33,1.45,0.33,2.19C52.03,32.89,48.67,36.25,44.53,36.25z M38.14,27.56
				c-0.07,0.39-0.11,0.79-0.11,1.19c0,3.58,2.92,6.5,6.5,6.5s6.5-2.92,6.5-6.5c0-0.4-0.04-0.79-0.11-1.19
				c-1.6,1.06-3.92,1.69-6.39,1.69S39.74,28.63,38.14,27.56z"/>
		</g>
		<g>
			<g>
				<path class="st14" d="M34.53,29.75c-0.55,0-1-0.45-1-1c0-2.98,1.17-5.77,3.3-7.86c0.39-0.39,1.03-0.38,1.41,0.01
					c0.39,0.39,0.38,1.03-0.01,1.41c-1.74,1.71-2.7,3.99-2.7,6.43C35.53,29.3,35.08,29.75,34.53,29.75z"/>
			</g>
		</g>
	</g>
	<g>
		<path class="st12" d="M55.53,24.75c2.76-2.76,2.76-7.24,0-10c0,2.21-1.79,4-4,4"/>
	</g>
	<g>
		<path class="st13" d="M55.53,14.75c1.07,2.71,0.35,5.68-1.59,7.62l1.59,2.38C58.29,21.99,58.29,17.51,55.53,14.75z"/>
	</g>
	<g>
		<path class="st12" d="M33.53,14.75c-1.07,2.71-0.35,5.68,1.59,7.62l-1.59,2.38C30.77,21.99,30.77,17.51,33.53,14.75z"/>
	</g>
	<path class="st4" d="M59.53,50.75c-1.1,0-2-0.9-2-2v-20c0-1.6-0.3-3.15-0.85-4.6c2.11-2.96,1.85-7.1-0.8-9.75
		c-0.14-0.14-0.36-0.18-0.54-0.11c-0.19,0.08-0.31,0.26-0.31,0.46c0,1.73-1.27,3.17-2.92,3.44c-2.19-1.58-4.81-2.44-7.58-2.44
		c-2.82,0-5.43,0.91-7.56,2.44c-1.66-0.27-2.94-1.7-2.94-3.44c0-0.2-0.12-0.38-0.31-0.46c-0.19-0.08-0.4-0.04-0.54,0.11
		c-2.65,2.66-2.91,6.8-0.79,9.76c-0.54,1.43-0.85,2.97-0.85,4.59v20c0,1.1-0.9,2-2,2c-2.21,0-4,1.79-4,4s1.79,4,4,4
		c0.35,0,0.69-0.02,1.03-0.05c-0.13,1.01,0.12,2.06,0.76,2.92c0.76,1.02,1.93,1.6,3.2,1.6c0.87,0,1.7-0.27,2.4-0.79
		c1.47-1.11,2.68-2.42,3.6-3.87v3.19c0,1.07,0.42,2.07,1.17,2.83c0.76,0.76,1.76,1.17,2.83,1.17c2.21,0,4-1.79,4-4v-3.19
		c0.92,1.45,2.13,2.77,3.6,3.88c0.69,0.51,1.52,0.79,2.4,0.79c1.27,0,2.44-0.58,3.2-1.6c0.64-0.86,0.89-1.91,0.76-2.92
		c0.34,0.04,0.69,0.05,1.03,0.05c2.21,0,4-1.79,4-4S61.74,50.75,59.53,50.75z M55.88,15.92c0.8,1.11,1.23,2.43,1.23,3.83
		c0,1.18-0.31,2.31-0.89,3.3c-0.62-1.28-1.45-2.46-2.48-3.49c-0.21-0.21-0.43-0.39-0.64-0.58C54.44,18.47,55.49,17.33,55.88,15.92z
		 M33.19,15.93c0.38,1.41,1.44,2.55,2.8,3.05c-1.29,1.13-2.35,2.51-3.12,4.07C31.59,20.83,31.68,18.03,33.19,15.93z M59.53,56.75
		c-0.74,0-1.45-0.11-2.13-0.31c-0.15-0.16-0.31-0.3-0.47-0.42c-1.55-1.15-2.4-2.67-2.4-4.27v-1c0-0.55-0.45-1-1-1s-1,0.45-1,1v1
		c0,2.25,1.14,4.33,3.2,5.87c0.12,0.09,0.24,0.21,0.37,0.35c0.56,0.71,0.58,1.71,0.03,2.45c-0.64,0.86-1.96,1.03-2.8,0.41
		c-3.05-2.29-4.8-5.6-4.8-9.08c0-0.55-0.45-1-1-1s-1,0.45-1,1v10c0,1.1-0.9,2-2,2c-0.53,0-1.03-0.21-1.41-0.59
		c-0.38-0.38-0.59-0.88-0.59-1.41v-10c0-0.55-0.45-1-1-1s-1,0.45-1,1c0,3.48-1.75,6.79-4.8,9.08c-0.85,0.63-2.16,0.45-2.8-0.4
		c-0.55-0.74-0.53-1.74,0.03-2.45c0.12-0.15,0.25-0.27,0.36-0.35c2.06-1.54,3.2-3.63,3.2-5.87v-1c0-0.55-0.45-1-1-1s-1,0.45-1,1v1
		c0,1.6-0.85,3.12-2.4,4.27c-0.16,0.12-0.32,0.26-0.47,0.42c-0.68,0.2-1.4,0.31-2.13,0.31c-1.1,0-2-0.9-2-2s0.9-2,2-2
		c2.21,0,4-1.79,4-4v-20c0-6.07,4.93-11,11-11c2.94,0,5.71,1.14,7.78,3.22c2.07,2.07,3.22,4.84,3.22,7.78v20c0,2.21,1.79,4,4,4
		c1.1,0,2,0.9,2,2S60.63,56.75,59.53,56.75z"/>
	<g>
		<g>
			<path class="st3" d="M39.28,39.75c-0.97,0-1.75,0.78-1.75,1.75l0,0c0,2.62,3.13,5.25,7,5.25s7-2.62,7-5.25l0,0
				c0-0.97-0.78-1.75-1.75-1.75H39.28z"/>
		</g>
		<g>
			<path class="st9" d="M44.53,47.25c-4,0-7.5-2.69-7.5-5.75c0-1.24,1.01-2.25,2.25-2.25h10.5c1.24,0,2.25,1.01,2.25,2.25
				C52.03,44.56,48.53,47.25,44.53,47.25z M39.28,40.25c-0.69,0-1.25,0.56-1.25,1.25c0,2.24,2.78,4.75,6.5,4.75s6.5-2.51,6.5-4.75
				c0-0.69-0.56-1.25-1.25-1.25H39.28z"/>
		</g>
	</g>
	<g>
		<g>
			<path class="st4" d="M25.03,38.56c-0.35,0-0.68-0.18-0.87-0.5L20.66,32c-0.28-0.48-0.11-1.09,0.37-1.37
				c0.48-0.28,1.09-0.11,1.37,0.37l3.5,6.06c0.28,0.48,0.11,1.09-0.37,1.37C25.37,38.52,25.2,38.56,25.03,38.56z"/>
		</g>
		<g>
			<path class="st4" d="M33.94,55l-9.78-16.94c-0.28-0.48-0.11-1.09,0.37-1.37c0.48-0.28,1.09-0.11,1.37,0.37L35.68,54L33.94,55z"/>
		</g>
		<g>
			<polygon class="st4" points="28.59,29.73 26,31.23 23.5,26.9 			"/>
		</g>
		<g>
			<polygon class="st4" points="23.26,30.5 19.8,32.5 18.03,25.44 			"/>
		</g>
		<g>
			<path class="st4" d="M25.53,39.43c-0.35,0-0.68-0.18-0.87-0.5c-0.28-0.48-0.11-1.09,0.37-1.37c1.91-1.1,2.57-3.55,1.46-5.46
				c-0.28-0.48-0.11-1.09,0.37-1.37c0.48-0.28,1.09-0.11,1.37,0.37c1.65,2.87,0.67,6.54-2.2,8.2C25.87,39.39,25.7,39.43,25.53,39.43
				z"/>
		</g>
		<g>
			<polygon class="st4" points="16.47,36.73 19.07,35.23 16.57,30.9 			"/>
		</g>
		<g>
			<path class="st4" d="M23.04,40.1c-0.52,0-1.05-0.07-1.56-0.21c-1.55-0.42-2.84-1.41-3.64-2.8c-0.28-0.48-0.11-1.09,0.37-1.37
				c0.48-0.28,1.09-0.11,1.37,0.37c0.53,0.93,1.4,1.59,2.43,1.86c1.03,0.27,2.11,0.13,3.04-0.4c0.48-0.28,1.09-0.11,1.37,0.37
				c0.28,0.48,0.11,1.09-0.37,1.37C25.11,39.83,24.08,40.1,23.04,40.1z"/>
		</g>
		<g>
			<path class="st4" d="M27.36,32.6c-0.35,0-0.68-0.18-0.87-0.5l-0.5-0.87c-0.28-0.48-0.11-1.09,0.37-1.37
				c0.48-0.28,1.09-0.11,1.37,0.37l0.5,0.87c0.28,0.48,0.11,1.09-0.37,1.37C27.7,32.56,27.53,32.6,27.36,32.6z"/>
		</g>
		<g>
			<path class="st4" d="M18.7,37.6c-0.35,0-0.68-0.18-0.87-0.5l-0.5-0.87c-0.28-0.48-0.11-1.09,0.37-1.37
				c0.48-0.28,1.09-0.11,1.37,0.37l0.5,0.87c0.28,0.48,0.11,1.09-0.37,1.37C19.04,37.56,18.87,37.6,18.7,37.6z"/>
		</g>
	</g>
</g>
</svg>
