<?xml version="1.0" encoding="utf-8"?>
<!-- Generator: Adobe Illustrator 23.0.4, SVG Export Plug-In . SVG Version: 6.00 Build 0)  -->
<svg version="1.1" id="Layer_1" xmlns="http://www.w3.org/2000/svg" xmlns:xlink="http://www.w3.org/1999/xlink" x="0px" y="0px"
	 viewBox="0 0 80 80" style="enable-background:new 0 0 80 80;" xml:space="preserve">
<style type="text/css">
	.st0{fill:#81C56D;}
	.st1{fill:#5BAA5E;}
	.st2{fill:#B6D997;}
	.st3{fill:#FFFFFF;}
	.st4{fill:#310F32;}
	.st5{fill:#C9D6E3;}
	.st6{fill:#FFC626;}
	.st7{fill:#F99E1D;}
	.st8{fill:#F58127;}
	.st9{fill:#301330;}
	.st10{fill:#EA5535;}
	.st11{fill:#EF4F24;}
	.st12{fill:#F16333;}
	.st13{fill:#DF3426;}
	.st14{fill:#F6946C;}
	.st15{fill:#D6E1EC;}
	.st16{opacity:0.8;}
	.st17{fill:#B9CCDC;}
	.st18{fill:#310E31;}
	.st19{fill:#EA5435;}
	.st20{fill:#FEDD3F;}
	.st21{fill:#EAC01E;}
	.st22{fill:#7FC042;}
	.st23{fill:#65A944;}
	.st24{fill:#0CBEF0;}
	.st25{fill:#6F7BBC;}
	.st26{fill:#0097D5;}
	.st27{fill:#FDB515;}
	.st28{fill:#5365AF;}
	.st29{fill:#1F90CF;}
	.st30{fill:#F99F1B;}
	.st31{opacity:0.7;}
	.st32{fill:#FFF5CA;}
	.st33{opacity:0.6;}
	.st34{fill:#FBDAE8;}
	.st35{fill:#D5E4EF;}
	.st36{opacity:0.4;}
	.st37{fill:#B1DEF5;}
	.st38{opacity:0.5;}
	.st39{fill:#FCE6A0;}
	.st40{fill:#FDF4D2;}
	.st41{fill:#FDD457;}
	.st42{fill:#FFDA85;}
	.st43{fill:#F36F34;}
	.st44{fill:#FFFFFF;stroke:#310F32;stroke-linecap:round;stroke-linejoin:round;stroke-miterlimit:10;}
	.st45{fill:none;stroke:#310F32;stroke-linecap:round;stroke-linejoin:round;stroke-miterlimit:10;}
	.st46{fill:#EE3B24;}
	.st47{fill:#301431;}
	.st48{fill:#71AC43;}
	.st49{fill:#C1DC83;}
	.st50{opacity:0.2;}
	.st51{opacity:0.1;}
	.st52{opacity:0.15;}
	.st53{fill:#5EC1EE;}
	.st54{fill:#239FCB;}
	.st55{fill:#92D1F1;}
	.st56{fill:#B2DCF5;}
	.st57{fill:#FFDF98;}
	.st58{fill:#406DB5;}
	.st59{fill:#FCDE60;}
	.st60{fill:#DEF1FB;}
	.st61{fill:#82CBF0;}
	.st62{fill:#6681C0;}
	.st63{fill:#FBEBAA;}
	.st64{fill:#8799CE;}
	.st65{fill:#98A7D5;}
	.st66{fill:#ACD6F2;}
	.st67{fill:#CCE4F7;}
	.st68{fill:#8BC9EE;}
	.st69{fill:#ADBBC3;}
	.st70{fill:#7E8C9B;}
	.st71{fill:#3B8E4F;}
	.st72{fill:#F05E75;}
	.st73{fill:#FCE5D3;}
	.st74{fill:#F8C4A0;}
</style>
<g>
	<g>
		<rect x="28" y="31.94" class="st20" width="24" height="7"/>
	</g>
	<g>
		<path class="st21" d="M52,31.94H40L40,37c-1.72,0-3.35-0.57-4.69-1.65c-0.21-0.17-0.53-0.14-0.7,0.08
			c-0.17,0.22-0.14,0.53,0.08,0.7c0.84,0.67,1.8,1.18,2.82,1.49c1.48,0.45,2.49,1.81,2.49,3.35v-2.04h12V31.94z"/>
	</g>
	<g>
		<rect x="28" y="38.94" class="st22" width="24" height="7"/>
	</g>
	<g>
		<path class="st23" d="M40,38.94L40,38.94h-0.66c0.42,0.58,0.66,1.28,0.66,2.04v4.96h12v-7H40z"/>
	</g>
	<g>
		<path class="st24" d="M28,45.94v3.56c0,1.65-1.35,3-3,3c-0.57,0-1.1,0.17-1.55,0.44h13.52C36.98,52.79,37,52.65,37,52.5v0.44h6
			V52.5c0,0.15,0.02,0.29,0.03,0.44h13.52C56.1,52.67,55.57,52.5,55,52.5c-1.65,0-3-1.35-3-3v-3.56H28z"/>
	</g>
	<g>
		<path class="st25" d="M37.03,52.94c-1.66-1.66-4.34-1.66-6,0c-1.38-1.66-3.62-1.66-5,0h-2.58C22.58,53.47,22,54.41,22,55.5
			c0,1.66,1.34,3,3,3c0.93,0,1.82-0.14,2.66-0.41c-0.83,1.03-0.9,2.55-0.06,3.68c0.59,0.79,1.49,1.2,2.4,1.2
			c0.63,0,1.26-0.19,1.8-0.59c3.17-2.38,5.03-5.8,5.17-9.44H37v9.56c0,0.83,0.34,1.58,0.88,2.12c0.54,0.54,1.29,0.88,2.12,0.88
			c1.66,0,3-1.34,3-3v-9.56h0.03C41.37,51.29,38.68,51.29,37.03,52.94z"/>
	</g>
	<g>
		<path class="st26" d="M55,52.5c-1.65,0-3-1.35-3-3v-0.01c-0.02-0.06-0.03-0.12-0.03-0.17C51.99,49.05,52,48.78,52,48.5v-2.56H40
			v1.56v1.22v4.23h1.67H43V52.5c0,0.15,0.02,0.29,0.03,0.44h13.52C56.1,52.67,55.57,52.5,55,52.5z"/>
	</g>
	<g>
		<path class="st27" d="M28,29.5v2.44h24V29.5c0-1.62-0.32-3.15-0.9-4.56H28.9C28.32,26.35,28,27.89,28,29.5z"/>
	</g>
	<g>
		<path class="st12" d="M28.9,24.94h22.2c-0.61-1.48-1.5-2.82-2.61-3.93c-2.17-2.17-5.17-3.51-8.49-3.51
			C34.98,17.5,30.69,20.58,28.9,24.94z"/>
	</g>
	<g>
		<path class="st28" d="M27.41,61.47c0.05,0.1,0.12,0.2,0.19,0.3c0.59,0.79,1.49,1.2,2.4,1.2c0.63,0,1.26-0.19,1.8-0.59
			C35.1,59.9,37,56.3,37,52.5v-1h0c-1.08,0-1.99,0.74-2.27,1.78c-0.9,3.3-3.71,6.97-6.35,7.94C27.88,61.4,27.9,61.41,27.41,61.47z"
			/>
	</g>
	<g>
		<path class="st29" d="M34.85,52.94h2.13C36.98,52.79,37,52.65,37,52.5v-1C36.04,51.5,35.22,52.08,34.85,52.94z"/>
	</g>
	<g>
		<path class="st28" d="M25,57.5c0.93,0,1.82-0.14,2.66-0.41c0.16-0.19,0.34-0.37,0.54-0.52c1.81-1.35,2.8-3.15,2.8-5.07v-1
			c-1.49,2.9-2.42,5-5.9,5c-0.06,0-0.19-0.01-0.37-0.01c-1.28-0.07-1.47,1.88-0.19,2C24.69,57.49,24.84,57.5,25,57.5z"/>
	</g>
	<g>
		<path class="st13" d="M51.1,24.94c-0.03-0.07-0.06-0.13-0.09-0.19c-0.12-0.27-0.24-0.55-0.38-0.81c-0.08-0.15-0.17-0.3-0.26-0.45
			c-0.1-0.17-0.2-0.34-0.3-0.51c-0.12-0.19-0.26-0.37-0.39-0.56c-0.08-0.11-0.16-0.23-0.25-0.34c-0.16-0.2-0.32-0.39-0.49-0.58
			c-0.07-0.08-0.14-0.15-0.21-0.23C45.58,17.99,40,20.23,40,24.81v0.13H51.1z"/>
	</g>
	<g>
		<path class="st30" d="M51.91,28.11c-0.04-0.32-0.08-0.65-0.14-0.96c-0.01-0.05-0.02-0.09-0.03-0.14
			c-0.07-0.33-0.15-0.66-0.25-0.98c-0.01-0.05-0.04-0.1-0.05-0.15c-0.1-0.31-0.2-0.62-0.33-0.92c0-0.01-0.01-0.02-0.01-0.02H40v7h12
			V29.5c0-0.4-0.02-0.8-0.06-1.19C51.93,28.25,51.92,28.18,51.91,28.11z"/>
	</g>
	<g class="st31">
		<path class="st32" d="M30,30.5c0.55,0,1-0.45,1-1c0-1.63,0.44-3.19,1.25-4.56h-2.25C29.35,26.35,29,27.9,29,29.5
			C29,30.05,29.45,30.5,30,30.5z"/>
	</g>
	<g class="st33">
		<path class="st34" d="M32.25,24.94c0.4-0.67,0.88-1.31,1.45-1.87c0.39-0.39,0.4-1.02,0.01-1.41c-0.39-0.4-1.02-0.4-1.41-0.01
			c-0.98,0.96-1.75,2.08-2.31,3.3H32.25z"/>
	</g>
	<g>
		<path class="st28" d="M35.57,51.99c-0.31,0.24-0.56,0.57-0.73,0.95h2.13c0-0.01,0-0.03,0-0.04C36.56,52.5,36.08,52.19,35.57,51.99
			z"/>
	</g>
	<g>
		<path class="st28" d="M40,51.7v1.24v9.51c0,1.93,2.97,2.04,3,0.1c0-0.02,0-0.03,0-0.05v-9.56v-0.02C42.17,52.1,41.08,51.7,40,51.7
			z"/>
	</g>
	<g>
		<path class="st28" d="M56.55,52.94h-2.52c-1.38-1.66-3.62-1.66-5,0c-1.66-1.66-4.34-1.66-6,0h0c0.14,3.64,2,7.05,5.17,9.44
			c0.54,0.4,1.17,0.59,1.8,0.59c0.91,0,1.81-0.41,2.4-1.2c0.84-1.13,0.77-2.65-0.06-3.68c0.84,0.27,1.73,0.41,2.66,0.41
			c1.66,0,3-1.34,3-3C58,54.41,57.42,53.47,56.55,52.94z"/>
	</g>
	<path class="st4" d="M55,51.5c-1.1,0-2-0.9-2-2v-20c0-3.48-1.35-6.75-3.8-9.2c-0.51-0.51-1.06-0.96-1.64-1.37
		c0.23-1.36,1.24-2.45,2.55-2.8c0.26,0.79,1.01,1.37,1.89,1.37c1.1,0,2-0.9,2-2c0-1.1-0.9-2-2-2c-0.97,0-1.78,0.69-1.96,1.61
		c-1.64,0.36-2.94,1.62-3.37,3.24c-1.99-1.19-4.28-1.85-6.67-1.85c-2.44,0-4.71,0.69-6.66,1.86c-0.43-1.62-1.73-2.89-3.37-3.25
		c-0.18-0.92-0.99-1.61-1.96-1.61c-1.1,0-2,0.9-2,2c0,1.1,0.9,2,2,2c0.88,0,1.62-0.58,1.89-1.37c1.32,0.35,2.33,1.45,2.55,2.81
		C29.15,21.3,27,25.15,27,29.5v20c0,1.1-0.9,2-2,2c-2.21,0-4,1.79-4,4s1.79,4,4,4c0.35,0,0.69-0.02,1.03-0.05
		c-0.13,1.01,0.12,2.06,0.76,2.92c0.76,1.02,1.93,1.6,3.2,1.6c0.87,0,1.7-0.27,2.4-0.79c1.47-1.11,2.68-2.42,3.6-3.87v3.19
		c0,1.07,0.42,2.07,1.17,2.83c0.76,0.76,1.76,1.17,2.83,1.17c2.21,0,4-1.79,4-4v-3.19c0.92,1.45,2.13,2.77,3.6,3.88
		c0.69,0.51,1.52,0.79,2.4,0.79c1.27,0,2.44-0.58,3.2-1.6c0.64-0.86,0.89-1.91,0.76-2.92c0.34,0.04,0.69,0.05,1.03,0.05
		c2.21,0,4-1.79,4-4S57.21,51.5,55,51.5z M55,57.5c-0.74,0-1.45-0.11-2.14-0.31c-0.15-0.16-0.31-0.3-0.47-0.42
		C50.85,55.62,50,54.1,50,52.5v-1c0-0.55-0.45-1-1-1s-1,0.45-1,1v1c0,2.25,1.14,4.33,3.2,5.87c0.12,0.09,0.24,0.21,0.36,0.35
		c0.56,0.71,0.58,1.71,0.03,2.44c-0.64,0.86-1.96,1.03-2.8,0.41c-3.05-2.29-4.8-5.6-4.8-9.08c0-0.55-0.45-1-1-1s-1,0.45-1,1v10
		c0,1.1-0.9,2-2,2c-0.53,0-1.03-0.21-1.41-0.59S38,63.03,38,62.5v-10c0-0.55-0.45-1-1-1s-1,0.45-1,1c0,3.48-1.75,6.79-4.8,9.08
		c-0.85,0.63-2.16,0.45-2.8-0.4c-0.55-0.74-0.53-1.74,0.03-2.45c0.12-0.15,0.25-0.27,0.36-0.35c2.07-1.54,3.2-3.63,3.2-5.87v-1
		c0-0.55-0.45-1-1-1s-1,0.45-1,1v1c0,1.6-0.85,3.12-2.4,4.27c-0.16,0.12-0.32,0.26-0.47,0.42c-0.68,0.2-1.4,0.31-2.14,0.31
		c-1.1,0-2-0.9-2-2s0.9-2,2-2c2.21,0,4-1.79,4-4v-20c0-6.07,4.93-11,11-11c2.94,0,5.71,1.14,7.78,3.22S51,26.56,51,29.5v20
		c0,2.21,1.79,4,4,4c1.1,0,2,0.9,2,2S56.1,57.5,55,57.5z"/>
	<g>
		<circle class="st3" cx="40" cy="29.5" r="7"/>
		<path class="st4" d="M40,37c-4.14,0-7.5-3.36-7.5-7.5S35.86,22,40,22s7.5,3.36,7.5,7.5S44.14,37,40,37z M40,23
			c-3.58,0-6.5,2.92-6.5,6.5S36.42,36,40,36s6.5-2.92,6.5-6.5S43.58,23,40,23z"/>
	</g>
	<g>
		<path class="st5" d="M45.32,25.77c-0.45-0.64-1.44-0.22-1.36,0.56c0.2,1.88-0.42,3.83-1.86,5.27c-1.44,1.44-3.39,2.06-5.27,1.86
			c-0.78-0.08-1.2,0.91-0.56,1.36c1.31,0.92,2.98,1.38,4.75,1.11c2.75-0.42,4.99-2.65,5.41-5.41
			C46.69,28.74,46.24,27.08,45.32,25.77z"/>
	</g>
	<g class="st31">
		<g>
			<path class="st32" d="M43.88,37c-0.18,0-0.35-0.09-0.44-0.26c-0.13-0.24-0.05-0.55,0.2-0.68c1.5-0.83,2.68-2.16,3.32-3.75
				c0.1-0.26,0.39-0.38,0.65-0.28c0.26,0.1,0.38,0.4,0.28,0.65c-0.73,1.8-2.06,3.31-3.76,4.25C44.04,36.98,43.96,37,43.88,37z"/>
		</g>
	</g>
	<g>
		<path class="st4" d="M42,29.5c0,1.11-0.89,2-2,2s-2-0.89-2-2c0-1.1,0.9-2,2-2S42,28.4,42,29.5z"/>
	</g>
	<g>
		<path class="st4" d="M40.01,42.99c-1.2,0-2.4-0.37-3.31-1.1c-0.21-0.17-0.25-0.49-0.08-0.7c0.17-0.22,0.49-0.25,0.7-0.08
			c1.48,1.19,3.89,1.19,5.37,0c0.22-0.17,0.53-0.14,0.7,0.08c0.17,0.21,0.14,0.53-0.08,0.7C42.41,42.62,41.21,42.99,40.01,42.99z"/>
	</g>
	<g>
		<circle class="st12" cx="52" cy="15.5" r="1"/>
	</g>
	<g>
		<circle class="st12" cx="28" cy="15.5" r="1"/>
	</g>
</g>
</svg>
